<svg xmlns="http://www.w3.org/2000/svg" width="303" height="207" fill="none" viewBox="0 0 303 207">
  <path fill="#C64F4B" d="M183.886 35.5028c-.022-2.4585-.525-4.8884-1.479-7.1503-.955-2.2619-2.344-4.3112-4.085-6.0303-1.742-1.7191-3.803-3.074-6.065-3.9871-2.263-.913-4.681-1.3662-7.117-1.3334-2.436.0327-4.842.5507-7.079 1.5242s-4.262 2.3833-5.958 4.1486c-1.696 1.7652-3.029 3.8511-3.924 6.1379s-1.333 4.7294-1.29 7.1876l36.997-.4972z"/>
  <path fill="#000" d="M157.66 7s-5.411 4.0473-5.759 8.7232c-.347 4.6758 5.28 8.2768 5.28 8.2768l13.705-6.5236L157.66 7z"/>
  <path fill="#FCCE44" d="M168.335 23l.365-11.8832s3.822-1.97699 3.094-4.68719c-.728-2.71024-3.517-1.46657-3.517-1.46657s-1.379-3.71127-5.447-3.95389c-4.069-.242627-6.243 4.39421-5.911 7.58608.492 4.71237 2.549 6.96967 7.319 5.85357l-.515 6.5383"/>
  <path stroke="#170C2C" stroke-width="1.19965" d="M159.886 11l-1 2"/>
  <path fill="#000" d="M168.262 19.8103c-4.423-1.2506-2.052-15.25603-2.052-15.25603-4.38 2.53347-9.324 1.45792-9.324 1.45792s1.193-6.707033 8.674-5.953074c7.48.753958 9.159 5.383104 9.159 5.383104s8 1.81168 8.164 8.08268C183.047 19.796 176.171 24 176.171 24s-4.394-3.2016-7.909-4.1897z"/>
  <path fill="#170C2C" d="M158.554 11.9882c.26-.0839.396-.5944.303-1.1402-.093-.5458-.379-.92019-.639-.8362-.26.0839-.395.5944-.303 1.1402.093.5458.378.9202.639.8362zM161.554 10.9883c.26-.084.395-.5945.303-1.1403-.093-.54574-.378-.92019-.639-.83624-.26.08396-.396.5944-.303 1.14024.093.5458.379.9202.639.8363z"/>
  <path fill="#000" d="M165.555 47.0265c-15.786-.8368-47.726 18.3164-46.642 28.9395 1.085 10.6232 11.16 37.26 11.16 37.26s-6.44 3.136-6.844 7.597l26.493-5.792-7.019-34.1536 23.137-8.2576 14.834 18.0998-.781 34.6294L205.886 129c-1.552-2.692-3.759-4.941-6.415-6.536 0 0 6.316-27.2036 3.109-39.0631-3.074-11.3913-17.229-35.3246-37.025-36.3744z"/>
  <path fill="#C64F4B" d="M185.886 200c20.435 0 37-16.565 37-37s-16.565-37-37-37-37 16.565-37 37 16.565 37 37 37z"/>
  <path fill="#F7C9D6" d="M142.886 148c8.837 0 16-7.163 16-16s-7.163-16-16-16c-8.836 0-16 7.163-16 16s7.164 16 16 16z"/>
  <path fill="#fff" d="M100.886 82c-.989 0-1.956-.2933-2.7784-.8428-.822-.5494-1.463-1.3305-1.8411-2.2445-.3786-.9135-.4774-1.919-.2843-2.8887.1927-.9701.6692-1.8609 1.3687-2.56.6996-.6991 1.5904-1.1751 2.5606-1.3682.9705-.1927 1.9755-.0934 2.8885.2856.914.3786 1.695 1.0196 2.244 1.8419.55.8229.842 1.7894.842 2.7786-.001 1.3251-.529 2.5958-1.466 3.5329-.938.9371-2.209 1.4638-3.534 1.4652z"/>
  <path fill="#170C2C" fill-rule="evenodd" d="M97.3305 72.927c.9043-.6044 1.9675-.927 3.0555-.927.722 0 1.438.1419 2.105.4181.667.2767 1.274.6815 1.785 1.1923.51.5109.915 1.1172 1.192 1.7846.276.6673.418 1.3829.418 2.1051 0 1.0878-.323 2.1511-.927 3.0554-.605.9048-1.463 1.6095-2.468 2.0257-1.006.4162-2.111.5255-3.1779.3131-1.067-.2124-2.047-.7359-2.8165-1.5055-.769-.769-1.2926-1.749-1.5049-2.816-.2124-1.0665-.1032-2.1723.3131-3.1774.4162-1.005 1.1209-1.8639 2.0257-2.4684zm5.7965.4711c-.811-.542-1.765-.831-2.741-.8305-1.3074.0019-2.5608.5221-3.485 1.4468-.9242.9246-1.4444 2.1784-1.4458 3.4857 0 .9758.2894 1.9293.8314 2.7404.5421.8111 1.3125 1.4435 2.214 1.8166.9015.3737 1.8934.4711 2.8504.2805.956-.1906 1.836-.6602 2.525-1.3503.69-.6901 1.16-1.5693 1.35-2.5261.19-.9568.092-1.9486-.282-2.8501-.373-.9015-1.006-1.6715-1.817-2.213z" clip-rule="evenodd"/>
  <path fill="#fff" d="M56.8862 78c7.1795 0 12.9998-5.8206 12.9998-13 0-7.1798-5.8203-13-12.9998-13-7.18 0-13.0002 5.8202-13.0002 13 0 7.1794 5.8202 13 13.0002 13z"/>
  <path fill="#170C2C" fill-rule="evenodd" d="M49.6634 54.1911C51.8015 52.7626 54.3149 52 56.8857 52c3.4478 0 6.7548 1.3697 9.1925 3.8078 2.4381 2.4381 3.8078 5.7446 3.8078 9.1923 0 2.5713-.7627 5.0847-2.1911 7.2224-1.4284 2.1377-3.4585 3.8042-5.8339 4.7879-2.3758.9841-4.9896 1.2414-7.5111.7397-2.5219-.5017-4.8381-1.7395-6.6561-3.5576-1.8183-1.818-3.0564-4.1346-3.558-6.6561-.5017-2.5219-.2442-5.1357.7397-7.5111.984-2.3753 2.6501-4.4058 4.7879-5.8342zm14.1461.4474c-2.0493-1.3697-4.4588-2.1005-6.9238-2.1005-3.3038.004-6.4714 1.3181-8.8077 3.6545-2.3362 2.3363-3.6504 5.5038-3.6542 8.8076 0 2.4646.7309 4.874 2.1002 6.9234 1.3693 2.0493 3.3156 3.6468 5.5927 4.5901 2.2771.9433 4.7829 1.1899 7.2004.7093 2.4175-.4811 4.6381-1.6679 6.3809-3.4106 1.7427-1.7431 2.9299-3.9638 3.4105-6.3808.4811-2.4175.2341-4.9232-.7093-7.2004-.9428-2.2771-2.5403-4.2234-4.5897-5.5926z" clip-rule="evenodd"/>
  <path fill="#fff" d="M220.386 103c9.113 0 16.5-7.3873 16.5-16.4998 0-9.1129-7.387-16.5002-16.5-16.5002s-16.5 7.3873-16.5 16.5002c0 9.1125 7.387 16.4998 16.5 16.4998z"/>
  <path fill="#170C2C" fill-rule="evenodd" d="M211.22 72.7802C213.934 70.9673 217.124 70 220.388 70c4.375 0 8.572 1.7385 11.666 4.8324 3.094 3.0939 4.832 7.2905 4.832 11.6662 0 3.2631-.967 6.4537-2.78 9.1675-1.813 2.7134-4.39 4.8279-7.405 6.0779-3.015 1.249-6.333 1.576-9.533.939-3.202-.637-6.142-2.208-8.449-4.5156-2.308-2.3079-3.88-5.2481-4.516-8.4489-.637-3.2008-.31-6.5183.939-9.5333 1.249-3.015 3.365-5.5921 6.078-7.405zm18.039.4442c-2.626-1.7541-5.713-2.6902-8.871-2.6897-4.233.0049-8.29 1.6881-11.283 4.6809-2.993 2.9927-4.677 7.0503-4.681 11.283 0 3.1575.936 6.2447 2.69 8.8703 1.754 2.6256 4.248 4.6721 7.165 5.8811 2.917 1.208 6.128 1.525 9.225.909 3.097-.616 5.942-2.137 8.175-4.3694 2.233-2.2331 3.754-5.0779 4.369-8.1753.617-3.097.3-6.3072-.909-9.2246-1.208-2.9175-3.255-5.4107-5.88-7.1653z" clip-rule="evenodd"/>
  <path fill="#0083C8" d="M128.886 197c12.15 0 22-9.85 22-22s-9.85-22-22-22-22 9.85-22 22 9.85 22 22 22z"/>
  <path fill="#F7C9D6" d="M251.386 87c11.322 0 20.5-9.178 20.5-20.4998S262.708 46 251.386 46s-20.5 9.1784-20.5 20.5002S240.064 87 251.386 87z"/>
  <path fill="#0083C8" d="M78.886 104c9.9414 0 18-8.059 18-18s-8.0586-18-18-18c-9.9411 0-18 8.059-18 18s8.0589 18 18 18z"/>
  <path fill="#FCCE44" d="M236.386 152c14.083 0 25.5-11.417 25.5-25.5s-11.417-25.5-25.5-25.5c-14.084 0-25.5 11.417-25.5 25.5s11.416 25.5 25.5 25.5z"/>
  <path fill="#fff" d="M122.886 154c-1.582 0-3.129-.469-4.445-1.348-1.315-.879-2.34-2.129-2.946-3.59-.605-1.462-.764-3.071-.455-4.623.308-1.551 1.07-2.977 2.189-4.096 1.119-1.119 2.544-1.881 4.096-2.189 1.552-.309 3.161-.151 4.622.455 1.462.605 2.711 1.631 3.591 2.947.879 1.315 1.348 2.862 1.348 4.444-.003 2.121-.846 4.155-2.346 5.654-1.5 1.5-3.533 2.344-5.654 2.346z"/>
  <path fill="#170C2C" fill-rule="evenodd" d="M118.441 139.348c1.316-.879 2.863-1.348 4.445-1.348 1.05 0 2.091.206 3.062.608.97.402 1.852.991 2.595 1.734.743.743 1.332 1.625 1.734 2.595.402.971.609 2.011.609 3.061 0 1.583-.468 3.129-1.347 4.445-.879 1.316-2.128 2.342-3.59 2.947-1.462.606-3.071.765-4.623.457-1.552-.309-2.977-1.071-4.096-2.189-1.119-1.119-1.881-2.545-2.19-4.097-.309-1.552-.151-3.16.455-4.622.605-1.462 1.631-2.711 2.946-3.591zm8.598.437c-1.229-.822-2.674-1.26-4.153-1.26-1.981.003-3.881.791-5.281 2.192-1.401 1.401-2.189 3.3-2.191 5.281-.001 1.479.437 2.924 1.258 4.153.821 1.23 1.989 2.188 3.355 2.754 1.366.566 2.868.714 4.319.426 1.45-.288 2.781-1 3.827-2.046 1.045-1.045 1.757-2.377 2.046-3.828.288-1.449.14-2.952-.426-4.318-.566-1.366-1.524-2.533-2.754-3.354z" clip-rule="evenodd"/>
  <path fill="#fff" d="M244.386 158c1.933 0 3.5-1.567 3.5-3.5s-1.567-3.5-3.5-3.5-3.5 1.567-3.5 3.5 1.567 3.5 3.5 3.5z"/>
  <path fill="#170C2C" fill-rule="evenodd" d="M241.664 151.674c.657-.439 1.431-.674 2.222-.674 1.061 0 2.078.422 2.828 1.172s1.172 1.767 1.172 2.828c0 .791-.234 1.565-.674 2.222-.44.658-1.064 1.171-1.795 1.474-.731.302-1.536.382-2.311.227-.776-.154-1.489-.535-2.049-1.095-.559-.559-.94-1.272-1.094-2.047-.154-.777-.075-1.581.227-2.312.303-.731.816-1.355 1.474-1.795zm4.138.459c-.567-.379-1.234-.582-1.916-.582-.915.001-1.792.364-2.439 1.011-.647.646-1.011 1.523-1.012 2.438 0 .682.202 1.349.581 1.916.379.567.918 1.009 1.548 1.27.63.262 1.323.33 1.993.197.668-.133 1.283-.461 1.766-.944.482-.482.811-1.096.944-1.765.133-.669.065-1.362-.196-1.993-.261-.63-.702-1.169-1.269-1.548z" clip-rule="evenodd"/>
  <path fill="#fff" d="M62.386 124c1.9329 0 3.5-1.567 3.5-3.5s-1.5671-3.5-3.5-3.5c-1.933 0-3.5 1.567-3.5 3.5s1.567 3.5 3.5 3.5z"/>
  <path fill="#170C2C" fill-rule="evenodd" d="M59.6625 117.675c.6572-.44 1.4306-.675 2.2214-.675h.0019c1.0609 0 2.0781.422 2.8286 1.172.75.75 1.1716 1.767 1.1716 2.828 0 .791-.2347 1.564-.6742 2.222-.4396.658-1.0642 1.17-1.7949 1.473-.7306.303-1.5348.383-2.311.228-.7757-.154-1.4884-.535-2.0478-1.094-.5594-.559-.9406-1.272-1.0949-2.048-.1548-.775-.0758-1.579.2269-2.311.3022-.73.8147-1.355 1.4724-1.795zm4.1375.457c-.5672-.379-1.2341-.581-1.9161-.581-.9144.001-1.7911.365-2.4378 1.011-.6466.647-1.0103 1.523-1.0113 2.438 0 .682.2026 1.349.5815 1.916s.9176 1.009 1.5477 1.271c.6301.26 1.3236.329 1.9927.196.6692-.134 1.2837-.462 1.7659-.944.4827-.483.8111-1.097.9443-1.766.1327-.669.0647-1.363-.1966-1.993-.2609-.63-.7031-1.169-1.2703-1.548z" clip-rule="evenodd"/>
  <path fill="#fff" d="M275.884 62c-1.187-.0005-2.346-.3525-3.333-1.0123-.986-.6593-1.755-1.5964-2.209-2.6927-.454-1.0967-.572-2.3028-.341-3.4669.232-1.1636.804-2.2327 1.643-3.0715s1.908-1.41 3.072-1.6416c1.164-.2312 2.37-.1121 3.466.3419 1.097.454 2.034 1.2231 2.693 2.2101.659.9864 1.011 2.1463 1.011 3.3331-.002 1.5908-.635 3.1162-1.76 4.2411C279 61.366 277.475 61.9986 275.884 62z"/>
  <path fill="#170C2C" fill-rule="evenodd" d="M272.553 51.011c.986-.6593 2.146-1.011 3.333-1.011 1.591 0 3.117.632 4.243 1.7573 1.125 1.1253 1.757 2.6514 1.757 4.2427 0 1.1867-.352 2.3469-1.011 3.3332-.659.9868-1.597 1.756-2.693 2.2101-1.096.4541-2.303.5728-3.466.3416-1.165-.2317-2.233-.8032-3.073-1.6421-.839-.8394-1.41-1.9083-1.642-3.0724-.231-1.1638-.112-2.3703.342-3.4665.454-1.0967 1.223-2.0335 2.21-2.6929zm6.372.4405c-.899-.6015-1.957-.9224-3.039-.9224-1.45.0031-2.84.5803-3.865 1.6055-1.026 1.0256-1.603 2.4153-1.606 3.8654 0 1.0821.321 2.1395.922 3.0393.601.8994 1.456 1.6006 2.455 2.015 1 .414 2.1.5221 3.161.3111 1.061-.2109 2.036-.7321 2.801-1.4973.765-.7648 1.286-1.7396 1.497-2.801.212-1.0609.103-2.1611-.311-3.1606-.414-.9996-1.115-1.854-2.015-2.455z" clip-rule="evenodd"/>
  <path fill="#F7C9D6" d="M62.886 117c4.9702 0 9-4.029 9-9s-4.0298-9-9-9c-4.9708 0-9 4.029-9 9s4.0292 9 9 9zM109.886 106c7.179 0 13-5.821 13-13.0002 0-7.1797-5.821-12.9998-13-12.9998-7.18 0-13 5.8201-13 12.9998 0 7.1792 5.82 13.0002 13 13.0002z"/>
  <path fill="#FCCE44" d="M89.886 70c4.4183 0 8-3.5817 8-8.0002 0-4.4181-3.5817-7.9998-8-7.9998-4.418 0-8 3.5817-8 7.9998 0 4.4185 3.582 8.0002 8 8.0002z"/>
  <path fill="#C64F4B" d="M110.886 75c7.18 0 13-5.82 13-12.9998S118.066 49 110.886 49s-13 5.8204-13 13.0002c0 7.1798 5.82 12.9998 13 12.9998zM91.8862 156c14.9118 0 26.9998-12.088 26.9998-27 0-14.911-12.088-27-26.9998-27-14.9117 0-27.0002 12.089-27.0002 27 0 14.912 12.0885 27 27.0002 27z"/>
  <path fill="#0083C8" d="M163.886 113c9.389 0 17-7.611 17-17 0-9.3888-7.611-17-17-17s-17 7.6112-17 17c0 9.389 7.611 17 17 17z"/>
  <path fill="#fff" d="M165.388 131c-1.681 0-3.325-.498-4.723-1.431-1.398-.934-2.488-2.262-3.131-3.815-.644-1.553-.813-3.262-.485-4.911.328-1.649 1.137-3.164 2.326-4.353 1.188-1.189 2.703-1.999 4.352-2.326 1.649-.329 3.358-.16 4.911.483 1.554.643 2.881 1.732 3.815 3.13.934 1.398 1.433 3.042 1.433 4.723-.003 2.253-.899 4.414-2.492 6.007s-3.753 2.49-6.006 2.493z"/>
  <path fill="#170C2C" fill-rule="evenodd" d="M160.665 115.432c1.398-.934 3.042-1.432 4.723-1.432 2.254 0 4.415.896 6.009 2.49 1.594 1.594 2.489 3.756 2.489 6.01 0 1.681-.498 3.325-1.432 4.722-.934 1.398-2.262 2.488-3.815 3.131-1.554.643-3.263.812-4.912.483-1.649-.328-3.163-1.137-4.352-2.326-1.189-1.189-1.998-2.704-2.326-4.353-.328-1.649-.159-3.358.484-4.911.644-1.553 1.734-2.881 3.132-3.814zm9.152.439c-1.311-.876-2.852-1.344-4.429-1.344-2.114.002-4.141.843-5.636 2.338-1.494 1.495-2.335 3.521-2.337 5.635 0 1.577.468 3.118 1.344 4.429.876 1.311 2.121 2.333 3.578 2.937 1.456.603 3.06.761 4.606.454 1.547-.308 2.968-1.067 4.083-2.182 1.115-1.116 1.874-2.536 2.182-4.082.307-1.547.149-3.15-.454-4.607-.604-1.457-1.625-2.702-2.937-3.578z" clip-rule="evenodd"/>
  <path fill="#FCCE44" d="M97.8862 176c5.5228 0 9.9998-4.477 9.9998-10s-4.477-10-9.9998-10c-5.523 0-10.0002 4.477-10.0002 10s4.4772 10 10.0002 10z"/>
  <path fill="#F7C9D6" d="M211.466 121.604c1.162-2.806-.17-6.022-2.976-7.184-2.805-1.162-6.022.17-7.184 2.976-1.162 2.805.17 6.022 2.976 7.184 2.805 1.162 6.022-.17 7.184-2.976zM230.504 175.913c1.057-2.551-.154-5.475-2.705-6.531-2.551-1.057-5.475.154-6.531 2.705-1.057 2.551.154 5.475 2.705 6.531 2.551 1.057 5.475-.155 6.531-2.705z"/>
  <path fill="#FCCE44" d="M145.386 159c3.037 0 5.5-2.463 5.5-5.5 0-3.038-2.463-5.5-5.5-5.5s-5.5 2.462-5.5 5.5c0 3.037 2.463 5.5 5.5 5.5z"/>
  <path fill="#C64F4B" d="M209.886 115c3.866 0 7-3.134 7-7s-3.134-7-7-7-7 3.134-7 7 3.134 7 7 7zM136.386 154c1.933 0 3.5-1.567 3.5-3.5s-1.567-3.5-3.5-3.5-3.5 1.567-3.5 3.5 1.567 3.5 3.5 3.5zM54.3862 102c1.9326 0 3.4998-1.567 3.4998-3.5002 0-1.9331-1.5672-3.4998-3.4998-3.4998-1.9331 0-3.5002 1.5667-3.5002 3.4998 0 1.9332 1.5671 3.5002 3.5002 3.5002z"/>
  <path fill="#0083C8" d="M3.88598 117c1.65687 0 2.99999-1.343 2.99999-3s-1.34312-3-2.99999-3c-1.65686 0-3.000009 1.343-3.000009 3s1.343149 3 3.000009 3z"/>
  <path fill="#F7C9D6" d="M257.386 31c3.038 0 5.5-2.4625 5.5-5.5 0-3.0376-2.462-5.5-5.5-5.5s-5.5 2.4624-5.5 5.5c0 3.0375 2.462 5.5 5.5 5.5z"/>
  <path fill="#C64F4B" d="M33.386 188c3.0375 0 5.5-2.462 5.5-5.5s-2.4625-5.5-5.5-5.5c-3.0376 0-5.5 2.462-5.5 5.5s2.4624 5.5 5.5 5.5zM299.386 123c1.933 0 3.5-1.567 3.5-3.5s-1.567-3.5-3.5-3.5-3.5 1.567-3.5 3.5 1.567 3.5 3.5 3.5zM88.386 26c4.1422 0 7.5-3.3579 7.5-7.5s-3.3578-7.5-7.5-7.5c-4.1423 0-7.5 3.3579-7.5 7.5s3.3577 7.5 7.5 7.5z"/>
  <path fill="#FCCE44" d="M56.8862 95c2.7614 0 4.9998-2.2384 4.9998-4.9998 0-2.7618-2.2384-5.0002-4.9998-5.0002-2.7619 0-5.0002 2.2384-5.0002 5.0002 0 2.7614 2.2383 4.9998 5.0002 4.9998z"/>
  <path fill="#0083C8" d="M115.386 81c1.933 0 3.5-1.5672 3.5-3.5002 0-1.9331-1.567-3.4998-3.5-3.4998s-3.5 1.5667-3.5 3.4998c0 1.933 1.567 3.5002 3.5 3.5002z"/>
  <path fill="#F7C9D6" d="M73.3862 69c1.933 0 3.4998-1.5672 3.4998-3.4998 0-1.933-1.5668-3.5002-3.4998-3.5002-1.9331 0-3.5002 1.5672-3.5002 3.5002 0 1.9326 1.5671 3.4998 3.5002 3.4998z"/>
  <path fill="#C64F4B" d="M122.386 138c2.485 0 4.5-2.015 4.5-4.5s-2.015-4.5-4.5-4.5-4.5 2.015-4.5 4.5 2.015 4.5 4.5 4.5z"/>
  <path fill="#FCCE44" d="M120.386 118c4.142 0 7.5-3.358 7.5-7.5 0-4.142-3.358-7.5-7.5-7.5-4.142 0-7.5 3.358-7.5 7.5 0 4.142 3.358 7.5 7.5 7.5z"/>
  <path fill="#0083C8" d="M232.386 171c5.246 0 9.5-4.253 9.5-9.5s-4.254-9.5-9.5-9.5c-5.247 0-9.5 4.253-9.5 9.5s4.253 9.5 9.5 9.5zM282.886 186c8.284 0 15-6.716 15-15 0-8.284-6.716-15-15-15-8.284 0-15 6.716-15 15 0 8.284 6.716 15 15 15z"/>
  <path fill="#C64F4B" d="M262.386 110c6.904 0 12.5-5.596 12.5-12.5 0-6.9032-5.596-12.5-12.5-12.5s-12.5 5.5968-12.5 12.5c0 6.904 5.596 12.5 12.5 12.5z"/>
  <path fill="#FCCE44" d="M51.886 178c6.0748 0 11-4.925 11-11s-4.9252-11-11-11c-6.0752 0-11 4.925-11 11s4.9248 11 11 11zM205.386 74c5.799 0 10.5-4.7012 10.5-10.5 0-5.7992-4.701-10.5-10.5-10.5s-10.5 4.7008-10.5 10.5c0 5.7988 4.701 10.5 10.5 10.5z"/>
  <path fill="#0083C8" d="M242.886 101c3.866 0 7-3.1337 7-7s-3.134-7-7-7-7 3.1337-7 7 3.134 7 7 7zM223.386 69c4.142 0 7.5-3.3579 7.5-7.5s-3.358-7.5-7.5-7.5c-4.142 0-7.5 3.3579-7.5 7.5s3.358 7.5 7.5 7.5z"/>
  <path fill="#C64F4B" d="M192.386 62c1.933 0 3.5-1.5669 3.5-3.5s-1.567-3.5-3.5-3.5-3.5 1.5669-3.5 3.5 1.567 3.5 3.5 3.5zM147.386 88c1.933 0 3.5-1.5669 3.5-3.5 0-1.9326-1.567-3.5-3.5-3.5s-3.5 1.5674-3.5 3.5c0 1.9331 1.567 3.5 3.5 3.5z"/>
  <path fill="#fff" d="M152.386 205c5.247 0 9.5-4.253 9.5-9.5s-4.253-9.5-9.5-9.5-9.5 4.253-9.5 9.5 4.253 9.5 9.5 9.5z"/>
  <path fill="#170C2C" fill-rule="evenodd" d="M147.108 187.601c1.562-1.044 3.399-1.601 5.278-1.601 1.248 0 2.483.246 3.636.723 1.152.478 2.199 1.177 3.081 2.06.883.882 1.582 1.929 2.06 3.082.477 1.152.723 2.387.723 3.635 0 1.879-.557 3.716-1.601 5.278-1.044 1.563-2.528 2.78-4.263 3.499-1.737.719-3.647.907-5.49.541-1.842-.367-3.535-1.272-4.864-2.6-1.328-1.329-2.233-3.022-2.6-4.865-.366-1.842-.178-3.752.541-5.488.719-1.736 1.937-3.22 3.499-4.264zm10.263.439c-1.476-.986-3.211-1.512-4.985-1.511-2.379.003-4.658.949-6.34 2.631-1.681 1.682-2.627 3.962-2.63 6.34 0 1.775.526 3.509 1.512 4.985.986 1.475 2.388 2.625 4.027 3.304 1.639.679 3.443.857 5.184.51 1.74-.346 3.339-1.2 4.593-2.456 1.255-1.255 2.109-2.853 2.455-4.593.346-1.741.168-3.545-.511-5.184-.679-1.64-1.829-3.041-3.305-4.026z" clip-rule="evenodd"/>
  <path stroke="#170C2C" stroke-width="1.19965" d="M282.886 38c0 92.784-53.949 168-120.5 168-66.5508 0-120.5-75.216-120.5-168h241z" clip-rule="evenodd"/>
  <path stroke="#170C2C" stroke-width="1.19965" d="M148.886 23c-6.588 0-9.327 11.9106-9.327 11.9106s-7.187-2.7183-14.755-.6993c-5.511 1.4706-3.909 11.3998-2.886 11.3386 1.262-.0732 1.23-6.0836 1.23-6.0836s.216 7.61 1.831 7.5331c1.189-.0557 1.146-7.7722 1.146-7.7722s.474 6.3875 1.76 6.3605c1.083-.0234.976-6.1951.976-6.1951M151.886 29l-4 9M177.886 29l4 9M182.886 22.001c5.766-.1498 9 15.999 9 15.999"/>
  <path stroke="#170C2C" stroke-linejoin="bevel" stroke-width="1.19965" d="M206.682 36.1399c.399 1.4847.322 7.795-1.239 7.9998-.997.1324-1.281-5.4383-1.281-5.4383s.172 7.0499-1.123 7.2929c-1.296.243-1.848-7.3854-1.848-7.3854s-.907 5.4384-2.02 5.5798c-1.113.1414-1.72-5.5743-.918-7.311.586-1.2816 2.04-2.5469 4.109-2.8243 2.298-.3136 3.974.8013 4.32 2.0865z" clip-rule="evenodd"/>
</svg>
