<svg xmlns="http://www.w3.org/2000/svg" width="315" height="210" fill="none" viewBox="0 0 315 210">
  <path fill="#0083C8" d="M175.5 189.5c0-10.77-8.73-19.5-19.5-19.5-10.769 0-19.5 8.73-19.5 19.5 0 10.769 8.731 19.5 19.5 19.5 10.77 0 19.5-8.731 19.5-19.5z"/>
  <path stroke="#170C2C" stroke-width="1.29428" d="M181.5 61.909s5.472.7308 9.693-1.949C195.414 57.2798 196.5 52 196.5 52M113.5 37.0005s14.094-.195 21 6.9995"/>
  <path fill="#170C2C" d="M25.5 208h42.016s-6.4805-6.354-10.3692-7.078c0 0 24.9187-33.225 28.5198-47.381 2.4009-9.446 1.4748-18.637 1.4748-18.637l3.8551 16.035L75.0125 208h40.9115s-7.49-5.345-11.091-6.067c0 0 16.498-42.116 15.634-52.515-.864-10.399-1.525-52.8125-17.003-68.215-10.989-10.9445-30.1106-12.3693-41.647 4.588-10.5296 15.487-6.9038 61.537-6.9038 61.537L25.5 208z"/>
  <path stroke="#fff" stroke-width="1.29428" d="M85.5 105l1 48"/>
  <path fill="#000" d="M110.786 12s7.354 7.5811 6.669 14.7893C116.769 33.9975 107.081 38 107.081 38L87.5 24.4739 110.786 12z"/>
  <path fill="#C64F4B" d="M61.5075 59c-.173-7.5169 2.663-14.7945 7.8842-20.2317 5.2216-5.4371 12.4008-8.5885 19.9587-8.7608 7.5575-.1724 14.8746 2.6484 20.3416 7.8418 5.466 5.1934 8.635 12.3341 8.808 19.8512L61.5075 59z"/>
  <path fill="#FCCE44" d="M89.7353 35l2.4765-18.1055s-5.0905-3.9594-3.3487-7.89434c1.7423-3.93491 5.5265-1.33535 5.5265-1.33535s2.9626-5.27032 8.9904-4.60708c6.028.66324 8.04 8.25267 6.745 13.00437-1.914 7.0196-5.504 9.9152-12.2079 7.0063l-.8964 10.0487"/>
  <path stroke="#170C2C" stroke-width="1.29428" d="M105.5 15l1 3"/>
  <path fill="#000" d="M90.9224 30.46c6.9251-.8068 7.0529-23.49302 7.0529-23.49302C103.847 12.1001 111.5 11.6955 111.5 11.6955S111.475.822482 100.119.059305C88.7627-.703876 85.0462 6.15097 85.0462 6.15097S72.6369 6.91871 70.755 16.7504C68.8731 26.5821 78.025 35 78.025 35s7.393-3.9009 12.8974-4.54z"/>
  <path fill="#170C2C" d="M108.421 15.8998c.149-.7983.081-1.6243-.151-1.8452-.233-.2208-.542.2474-.691 1.0456-.149.7983-.081 1.6244.151 1.8451.232.2208.542-.2473.691-1.0455zM104.421 13.8997c.149-.7982.081-1.6243-.151-1.845-.232-.2208-.542.2473-.691 1.0455-.149.7982-.081 1.6244.151 1.8452.232.2207.542-.2474.691-1.0457zM92.5 47.0763L152.473 79 229.5 31.9217 169.526 0"/>
  <path fill="#F7C9D6" d="M169.5 69.0938L92.8777 116 92.5 47.9036 169.122 1l.378 68.0938z"/>
  <path stroke="#fff" stroke-linejoin="bevel" stroke-width="1.29428" d="M182.496 61.9927c-.276.1918-7.944-3.4539-6.898-5.111 1.046-1.657 10.623 2.2833 10.623 2.2833s-9.656-5.0925-8.138-6.7469c1.518-1.6547 13.703 3.8049 13.703 3.8049s-5.931-3.4241-4.598-4.7912c1.332-1.3671 9.312.9489 9.312.9489"/>
  <path fill="#fff" d="M179.5 131h-39v39h39v-39z"/>
  <path fill="#170C2C" fill-rule="evenodd" d="M140.5 131h39v39h-39v-39zm38.325 38.325v-37.65h-37.65v37.65h37.65z" clip-rule="evenodd"/>
  <path fill="#170C2C" d="M300.608 170h1.892v39h-39v-1.893c.001-9.841 3.91-19.28 10.869-26.239S290.766 170 300.608 170z"/>
  <path fill="#0083C8" d="M314.5 131h-77v39h77v-39z"/>
  <path fill="#FCCE44" d="M196.014 131.266h-.002c-10.76 1.758-18.032 11.74-16.241 22.298l6.488 38.237c1.791 10.557 11.966 17.69 22.727 15.933h.002c10.761-1.758 18.032-11.74 16.241-22.297l-6.487-38.237c-1.791-10.557-11.966-17.691-22.728-15.934z"/>
  <path stroke="#170C2C" stroke-width="1.29428" d="M160 131v39M142.5 150.5h37"/>
  <path stroke="#170C2C" stroke-linejoin="bevel" stroke-width="1.29428" d="M79.508 37c6.1813 2.2803 28.804 28.5537 28.804 28.5537l33.876 14.0038c1.155-.6659 7.435-4.1028 10.143-2.302 1.021.6814-2.806 2.6041-5.528 5.6463-1.207 1.2501-1.343 3.355-5.823 6.1548-6.3 3.9319-9.783 2.7889-9.783 2.7889s-33.1045-8.1913-39.2277-11.2087C85.8461 77.6193 70.5 58.5199 70.5 58.5199"/>
  <path stroke="#fff" stroke-width="1.29428" d="M84.5 74s4.054 5.0675 8 7"/>
  <path fill="#C64F4B" d="M264.5 170h-39v39h39v-39z"/>
  <path fill="#FCCE44" d="M258.5 192c1.657 0 3-1.343 3-3s-1.343-3-3-3-3 1.343-3 3 1.343 3 3 3z"/>
  <path stroke="#170C2C" stroke-width="1.29428" d="M.5 208.5h312"/>
</svg>
