<svg xmlns="http://www.w3.org/2000/svg" width="313" height="190" fill="none" viewBox="0 0 313 190">
  <path fill="#0068A8" d="M229.46 75.8656c4.504 34.0564-19.649 65.2864-53.943 69.7594-1.25.163-2.496.288-3.738.375L163 79.5573 228.627 71c.337 1.5931.615 3.2147.833 4.8656z"/>
  <path stroke="#170C2C" stroke-width="1.12327" d="M235 40c-2.147.1526-10.099 13.2845-10.099 13.2845L209 58"/>
  <path fill="#030207" d="M302 187.998h-34.069s4.647-5.475 8.016-6.098c0 0-17.913-28.625-21.032-40.822-2.08-8.138-1.276-16.057-1.276-16.057l-2.53 14.485L256.431 188H221s6.485-4.605 9.603-5.226c0 0-4.69-36.259-3.941-45.223.748-8.964 1.168-46.7504 14.571-60.0206 9.515-9.4295 24.345-9.4295 34.326 5.1765 9.12 13.3437 5.978 53.0181 5.978 53.0181L302 187.998z"/>
  <path stroke="#fff" stroke-width="1.12327" d="M254 99l-1 42"/>
  <path fill="#030207" d="M9 188.998h30.9368s-3.6424-5.505-6.7568-6.132c0 0 8.9427-31.408 10.4013-43.924 1.1374-9.76 1.4991-27.432 1.4991-27.432l3.482 26.407L42.2252 189H75s-5.9971-4.63-8.8809-5.256c0 0 4.9865-37.073 4.9865-48.863 0-9.036-.4774-43.6142-12.8714-56.9575-8.7995-9.4815-23.5435-9.7621-30.1958 2.5152-7.6157 14.042-8.2735 55.2293-8.2735 55.2293L9 188.998z"/>
  <path stroke="#fff" stroke-width="1.12327" d="M46 99l1 42"/>
  <path stroke="#170C2C" stroke-width="1.12327" d="M312 188.5H1"/>
  <path fill="#0068A8" d="M66.2312 46.9785l-13.742 15.6224c-3.685 4.1894-10.5385 2.6451-12.0812-2.7142l-5.1314-17.8621c-.3228-1.1201-.3637-2.3027-.1192-3.4425.2446-1.1398.767-2.2013 1.5207-3.0899.7538-.8886 1.7154-1.5767 2.7992-2.003 1.0839-.4262 2.2562-.5774 3.4126-.4399l18.8827 2.2394c5.6426.67 8.2147 7.4155 4.4586 11.6898z"/>
  <path fill="#FCCE44" d="M52 36.6458l4.2571-12.1676s-3.9236-4.034-1.8815-7.1155c2.0424-3.0817 5.007-.3872 5.007-.3872s3.2879-4.0649 8.4674-2.6925c5.1794 1.3724 6.7173 5.0792 5.9738 9.2215-1.289 7.2085-5.7621 8.1066-13.2229 5.5864L57.4932 37"/>
  <path fill="#030207" d="M58 14.4612s.299-5.34867 7.3773-5.45779c7.0788-.10912 7.7167 2.43999 10.5421 1.64569 2.8254-.79418 3.8214 7.4667-3.9229 7.2037-7.7443-.263-7.4083-.6798-7.4083-.6798s-.6753 3.3076-2.5988 2.7674c-1.9235-.5402-1.9713-4.084-1.9713-4.084"/>
  <path stroke="#170C2C" stroke-width="1.12327" d="M71.436 23l.128 3"/>
  <path fill="#030207" d="M68.9997 24C69.552 24 70 23.5523 70 23s-.448-1-1.0003-1S68 22.4477 68 23s.4474 1 .9997 1zM73 24c.5521 0 1-.4477 1-1s-.4479-1-1-1-1 .4477-1 1 .4479 1 1 1z"/>
  <path stroke="#170C2C" stroke-width="1.12327" d="M70 49.9548S91.8309 52.8517 97 49"/>
  <path fill="#C64F4B" d="M163 56.4804L91.0502 65C89.9095 36.5113 108.315 11.0875 135.138 2.81319c2.687-.83135 5.429-1.48102 8.205-1.944604.997-.165941 2.003-.309191 3.017-.429755 3.291-.39091 6.609-.520959 9.921-.388922l4.897 41.126491.705 5.9194L163 56.4804z"/>
  <path fill="#F7C9D6" d="M222 65.6831L169.503 68 167 11c28.46 3.2502 51.456 25.7554 55 54.6831z"/>
  <path fill="#FCCE44" d="M138 79.386L125.001 145c-31.3357-8.262-51.2175-39.803-44.7971-72.2082.3219-1.6246.7046-3.2219 1.1493-4.7918L138 79.386z"/>
  <path stroke="#170C2C" stroke-width="1.12327" d="M67 36.5776C69.5599 36.0842 89.9716 37 89.9716 37s11.8514-15.7815 17.0474-18.5289c5.195-2.7473 9.364-.9868 9.876 0 .512.9868-.951 9.3729-2.195 9.6532-1.244.2803-.877-7.3562-.877-7.3562s-.582 9.1168-1.83 9.1168c-1.248 0-1.535-7.8217-1.535-7.8217s-.732 7.8217-1.747 7.7506c-1.015-.071-1.463-5.7769-1.463-5.7769M241 56.0442s-1.44 4.482-5.451 7.5287c-4.089 3.1061-11.583 6.7007-30.849 6.4106-7.752-.1167-11.7-.9171-11.7-2.4128 0-1.4953 1.21-9.9777 2.243-9.9777 1.032 0 1.639 7.9085 1.639 7.9085s.499-9.4536 1.58-9.5013c1.081-.0478 1.692 9.3501 1.692 9.3501s.24-6.9012 1.369-6.9012 1.879 8.7184 1.879 8.7184"/>
  <path fill="#000" d="M237.596 19s-6.131 6.4137-5.558 12.5136C232.61 37.6134 240.684 41 240.684 41L257 29.5571 237.596 19z"/>
  <path fill="#C64F4B" d="M277.994 57c.071-3.0806-.467-6.1443-1.582-9.0171-1.115-2.8728-2.787-5.4981-4.919-7.7261-2.132-2.228-4.682-4.0151-7.506-5.2591-2.823-1.2441-5.865-1.9208-8.951-1.9915-3.085-.0707-6.155.4659-9.032 1.5794-2.879 1.1134-5.509 2.7818-7.741 4.9098-2.232 2.128-4.022 4.674-5.268 7.4927-1.247 2.8186-1.924 5.8549-1.995 8.935L277.994 57z"/>
  <path fill="#FCCE44" d="M254.991 37l-2.027-14.7142s4.165-3.2286 2.738-6.417c-1.427-3.1884-4.525-1.0768-4.525-1.0768s-2.423-4.2844-7.353-3.745c-4.931.5393-6.577 6.7077-5.517 10.5694 1.565 5.7036 4.503 8.0581 9.993 5.694l.729 8.1576"/>
  <path stroke="#170C2C" stroke-width="1.12327" d="M241.979 24l-.958 2"/>
  <path fill="#000" d="M254.567 32.5007c-5.577-.6208-5.679-18.1233-5.679-18.1233C244.161 18.3363 238 18.0249 238 18.0249s.021-8.39019 9.154-8.97905c9.133-.58885 12.135 4.68835 12.135 4.68835s9.989.5945 11.505 8.1802C272.31 29.5001 264.955 36 264.955 36s-5.958-3.0042-10.388-3.4993z"/>
  <path fill="#170C2C" d="M239.77 24.9636c.233-.147.3-.6977.151-1.2299s-.459-.8444-.691-.6973c-.232.147-.3.6977-.151 1.2299s.459.8444.691.6973zM242.77 23.9636c.232-.147.3-.6977.151-1.2299s-.459-.8444-.691-.6973c-.233.1471-.3.6977-.151 1.2299s.459.8444.691.6973z"/>
  <path stroke="#170C2C" stroke-linejoin="bevel" stroke-width="1.12327" d="M229.296 77.4525s-8.53 4.9066-8.291 6.014c.239 1.1074 7.263-2.4538 7.263-2.4538s-7.498 5.6991-7.259 6.9667c.239 1.2676 8.295-3.7606 8.295-3.7606s-5.74 4.6696-5.501 5.6203c.239.9512 6.801-2.612 9.327-2.9284 2.526-.3164 24.235-5.9465 26.786-8.796C262.467 75.2646 272 56 272 56M263 42.0002c-1.717-.0799-10.261 23.3592-10.261 23.3592L231.368 75H229"/>
  <path stroke="#fff" stroke-width="1.12327" d="M236 88s15.209-4.6698 21.567-8.5945C260.921 77.3345 264 73 264 73"/>
  <path stroke="#170C2C" stroke-linejoin="bevel" stroke-width="1.12327" d="M81.2746 75.2502s7.9578 6.2987 7.7202 7.3943c-.2371 1.0956-7.4826-2.58-7.4826-2.58s6.8362 5.4912 6.597 6.7415c-.2397 1.2497-8.6119-4.0338-8.6119-4.0338s5.466 5.1441 5.2284 6.0855c-.2371.9414-7.365-3.0486-10.1192-4.3345-2.2907-1.0691-22.9983-6.7755-26.206-9.4028C44.3937 71.8377 36 54 36 54M45 40.0002c1.7929-.0799 11.6183 22.5817 11.6183 22.5817L77.9455 73H80"/>
  <path stroke="#fff" stroke-width="1.12327" d="M61 81s-8.5358-2.9858-12.61-5.8756C46.2376 73.5986 44 71 44 71"/>
  <path stroke="#170C2C" stroke-width="1.12327" d="M70 21.2937s-1.3938-.4605-2 .5205M72 20.6519s1.3953-1.6137 2 .3258"/>
</svg>
