<svg xmlns="http://www.w3.org/2000/svg" width="291" height="227" fill="none" viewBox="0 0 291 227">
  <path fill="#FFF2D5" d="M122.745 39.1276c-20.501 6.8367-24.9542 41.0432-42.1269 48.1156-18.0853 7.4463-34.9913-10.4909-24.0642 13.2038 10.9274 23.696-23.4213 51.712 15.8659 78.243 21.8851 14.775 101.5062 25.841 150.1632-7.556 62.68-43.026 30.066-82.4517-5.312-98.1837-49.916-22.2116-67.836-42.7218-94.526-33.8227z"/>
  <path fill="#FCCE44" d="M207.171 152.659c2.015 3.039 6.477 3.341 6.477 3.341s1.196-4.621-.82-7.659c-2.016-3.039-6.476-3.341-6.476-3.341s-1.195 4.631.819 7.659z"/>
  <path fill="#F5B4C4" d="M274.828 137.659c-2.014 3.037-6.476 3.341-6.476 3.341s-1.195-4.621.819-7.659c2.013-3.039 6.477-3.341 6.477-3.341s1.196 4.621-.82 7.659z"/>
  <path stroke="#170C2C" stroke-width="1.13779" d="M56 197l15 28M225 203l12 23M207 197l15 28"/>
  <path fill="#C64F4B" d="M162.444 115.918l-8.386 12.555c-.299.448-.703.819-1.179 1.084-.475.265-1.009.416-1.556.44-.547.024-1.092-.08-1.591-.302-.497-.222-.934-.557-1.273-.977l-10.721-13.274c-.407-.504-.657-1.112-.722-1.751-.064-.639.061-1.283.36-1.855.299-.573.759-1.049 1.327-1.375.568-.325 1.22-.485 1.877-.461l19.108.722c.609.024 1.2.205 1.714.523.514.319.932.765 1.212 1.293.28.527.412 1.118.382 1.711-.03.593-.22 1.168-.552 1.667z"/>
  <path fill="#0083C8" d="M152.127 113l.752-7.767s4.094-.88 4.121-3.614c.027-2.7343-2.902-2.2834-2.902-2.2834s-.318-3.8459-4.057-5.124c-3.738-1.278-7.368 3.5227-7.892 6.6094-.78 4.559 1.532 5.173 6.282 5.351l-.696 5.099"/>
  <path fill="#030207" d="M155.484 100.122s2.119-3.4992-2.232-6.4817c-4.352-2.9829-5.845-1.6391-7.256-3.3-1.41-1.6609-5.581 3.1386-.668 6.1616 4.914 3.0231 4.897 2.6199 4.897 2.6199s-1.006 2.3662.421 2.8172c1.426.451 2.987-1.765 2.987-1.765"/>
  <path stroke="#fff" stroke-width="1.13779" d="M145 100l-1 2"/>
  <path fill="#fff" d="M146.5 100c.276 0 .5-.2236.5-.4998 0-.2766-.224-.5002-.5-.5002s-.5.2236-.5.5002c0 .2762.224.4998.5.4998zM144.5 99c.276 0 .5-.2236.5-.5002 0-.2762-.224-.4998-.5-.4998s-.5.2236-.5.4998c0 .2766.224.5002.5.5002z"/>
  <path stroke="#170C2C" stroke-width="1.13779" d="M159 86l11 10.8923L160.655 107M139.979 107L131 96.2594 143 85"/>
  <path stroke="#170C2C" stroke-width="1.13779" d="M165.773 78c2.26 1.553 18.726 11.907 18.215 19.221C183.523 103.898 164 119 164 119M133.304 117s-17.566-15.012-16.232-22.1593C118.185 88.8208 131.658 79.7179 136 77M159 85.4033C156.236 86.42 154.824 87 151.43 87c-3.977 0-5.365-.6366-8.43-2"/>
  <path fill="#030207" d="M194 225h-31.462l-11.536-63.614L139.462 225H108s7.253-3.833 13.686-4.058l14.783-73.088c1.516-7.512 7.557-12.854 14.527-12.854 6.971 0 13.008 5.342 14.528 12.854l14.783 73.088C186.745 221.167 194 225 194 225z"/>
  <path fill="#170C2C" fill-rule="evenodd" d="M56 63.7986c1.7323-.5302 3.5336-.7991 5.345-.7986h.0151c3.9126-.0005 7.7215 1.2569 10.8626 3.5863 3.141 2.3293 5.4476 5.607 6.5785 9.3471 1.1304 3.74 1.0248 7.7444-.3009 11.4201-1.3262 3.6758-3.8019 6.8273-7.0617 8.9888L89 149H78.2934L61.736 99.3768l-1.0116-3.0345c2.8733-1.9057 5.1462-4.5868 6.5534-7.7319 1.4077-3.1445 1.8919-6.6237 1.3972-10.0326-.4948-3.4088-1.9488-6.6076-4.1925-9.2234-2.2437-2.6164-5.1854-4.5432-8.4825-5.5558zm15.8553 3.2485c-3.0409-2.2557-6.7281-3.4739-10.5161-3.4752h.0058-.0096.0038c-1.1385.0004-2.2745.1094-3.392.3262 3.0943 1.3051 5.7819 3.4149 7.7825 6.1091 2.0011 2.6947 3.2422 5.8749 3.5945 9.2109.3523 3.3355-.1973 6.7046-1.5909 9.7567-1.3941 3.0515-3.5814 5.6749-6.335 7.5962l.8743 2.6243 16.4159 49.2327h9.4962L70.8718 96.5232l-.1394-.4136.3644-.2422c3.1567-2.0937 5.5544-5.1462 6.8383-8.7063 1.2839-3.5602 1.386-7.4384.2909-11.0609-1.0947-3.6224-3.3283-6.7966-6.3707-9.0531z" clip-rule="evenodd"/>
  <path fill="#0083C8" d="M50.3387 98.4938l.9983-3.0273c-2.8355-1.9012-5.078-4.5765-6.4667-7.7136-1.3887-3.1376-1.8666-6.6087-1.378-10.0095.4885-3.4008 1.9234-6.5921 4.1377-9.2017 2.2143-2.6102 5.117-4.5319 8.3706-5.5417 3.2536 1.0103 6.1566 2.932 8.3707 5.5422 2.2141 2.6101 3.6489 5.8009 4.1371 9.2017.4882 3.4008.0099 6.8719-1.3787 10.009-1.3887 3.1376-3.6316 5.8124-6.467 7.7136l.9983 3.0273L78 148H34l16.3387-49.5062z"/>
  <path fill="#fff" d="M19.7614 182.715l-.2137-.025c-.6099-.066-1.1822-.327-1.6323-.743-.4501-.417-.7539-.967-.8667-1.569-.1128-.602-.0285-1.225.2404-1.775.269-.551.7083-1 1.2529-1.283.5447-.282 1.1657-.381 1.7715-.283.6056.097 1.1638.387 1.5918.826.428.439.7032 1.004.7849 1.611.0816.607-.0346 1.225-.3315 1.76l-.105.188L29 187.971 21.2343 192l-1.4729-9.285z"/>
  <path fill="#170C2C" fill-rule="evenodd" d="M20.1947 177h.0026-.0057.0031zm0 0c-.8174.002-1.6033.315-2.1964.877-.5938.562-.9493 1.33-.9936 2.146-.0443.816.2261 1.617.7557 2.24.5294.623 1.2778 1.02 2.0913 1.109L21.3794 193 30 188.529l-7.0106-6.788c.2695-.486.4071-1.035.3993-1.591-.0078-.556-.1609-1.1-.4441-1.579-.2831-.479-.6865-.876-1.1704-1.151-.4813-.274-1.0255-.419-1.5795-.42zm1.2988.917c-.3971-.226-.8466-.345-1.3038-.345h.0076c-.4206-.001-.835.101-1.207.298-.501.259-.9051.672-1.1523 1.179-.2471.506-.3242 1.079-.2198 1.633.1043.553.3846 1.059.7993 1.441.4147.382.9417.621 1.5029.681l.4354.047.0688.431 1.3998 8.843 7.2093-3.741-6.4397-6.232-.3132-.305.212-.381c.2208-.401.3335-.851.3267-1.308-.0067-.456-.1326-.902-.3651-1.295-.2325-.394-.5638-.719-.9609-.946z" clip-rule="evenodd"/>
  <path fill="#C64F4B" d="M52.3802 200l-1.5269-9.63c-.6824-.073-1.323-.365-1.8271-.83-.5039-.466-.8445-1.082-.9712-1.756-.1268-.674-.033-1.371.2675-1.988.3004-.616.7916-1.12 1.4008-1.436.6091-.317 1.3041-.428 1.982-.319.6779.108 1.3024.433 1.7815.924.4791.491.7871 1.123.8787 1.803.0916.68-.0382 1.372-.3704 1.972L61 195.528 52.3802 200z"/>
  <path stroke="#170C2C" stroke-width="1.13779" d="M16 209l9 17"/>
  <path fill="#0083C8" d="M11.3804 211l-1.52696-9.629c-.68252-.074-1.32317-.365-1.82719-.831-.50397-.466-.84452-1.082-.97129-1.756-.12673-.674-.03297-1.371.26753-1.988.30045-.616.79163-1.12 1.40083-1.437.60925-.315 1.30418-.427 1.98188-.318.6778.109 1.3025.433 1.7816.924.4791.491.7872 1.124.8788 1.804.0915.68-.0384 1.37-.3705 1.971L20 206.528 11.3804 211z"/>
  <path stroke="#170C2C" stroke-width="1.13779" d="M277 209l9 17"/>
  <path fill="#C64F4B" d="M273.384 211l-1.527-9.628c-.683-.073-1.324-.364-1.828-.829-.505-.466-.847-1.081-.974-1.756s-.034-1.372.267-1.989c.3-.617.792-1.122 1.401-1.438.61-.316 1.305-.428 1.983-.319.678.109 1.303.433 1.782.925.48.491.788 1.124.879 1.804.092.68-.038 1.372-.371 1.972l7.004 6.787-8.616 4.471z"/>
  <path stroke="#170C2C" stroke-width="1.13779" d="M0 225.5h291M136.567 77.3433c-.379-1.275-.57-2.6-.567-3.9315 0-6.717 4.432-12.5428 11.056-14.1886V20.552c0-1.9619 1.553-3.552 3.686-3.552 2.193 0 3.685 1.5901 3.685 3.552v1.8679h7.613v4.9812h-7.563v3.004h4.867v4.2359h-4.957v24.3716c7.712.835 12.613 6.9659 12.613 14.4032.001 1.5629-.267 3.1142-.79 4.5842M26 191l18 35"/>
  <path fill="#0083C8" d="M229.384 183l-1.527-9.628c-.683-.073-1.324-.364-1.828-.83-.505-.465-.847-1.08-.974-1.755-.127-.675-.034-1.372.267-1.989.3-.617.792-1.122 1.401-1.438.61-.316 1.305-.428 1.983-.319.678.109 1.303.433 1.782.925.48.491.788 1.124.879 1.804.092.68-.038 1.372-.371 1.972l7.004 6.787-8.616 4.471z"/>
  <path fill="#fff" d="M219.768 195.72l-.215-.022c-.611-.066-1.184-.327-1.634-.743-.452-.416-.756-.967-.87-1.57-.113-.603-.029-1.226.239-1.778.269-.551.708-1.002 1.253-1.285.404-.212.855-.322 1.311-.322.498 0 .987.129 1.419.375.433.247.794.602 1.047 1.03.253.428.389.914.396 1.412.008.497-.115.987-.356 1.422l-.105.187 6.747 6.543-7.768 4.031-1.464-9.28z"/>
  <path fill="#170C2C" fill-rule="evenodd" d="M217.995 189.88c.593-.563 1.379-.878 2.197-.88h-.006c.557-.001 1.105.144 1.589.42.484.275.887.672 1.171 1.151.283.479.436 1.024.443 1.58.009.556-.129 1.104-.399 1.591l7.01 6.786-8.62 4.472-1.528-9.627c-.813-.089-1.561-.486-2.09-1.109-.53-.622-.801-1.423-.757-2.238.043-.816.397-1.584.99-2.146zm3.498.042c-.396-.227-.844-.347-1.301-.348v-.002c-.675-.003-1.325.253-1.816.715-.49.463-.784 1.096-.819 1.768-.036.673.189 1.334.629 1.845.438.511 1.058.835 1.729.902l.436.048.068.433 1.408 8.844 7.201-3.738-6.441-6.235-.313-.305.21-.381c.221-.399.334-.849.328-1.305-.006-.456-.131-.902-.362-1.295-.231-.393-.561-.719-.957-.946z" clip-rule="evenodd"/>
  <path stroke="#170C2C" stroke-width="1.13779" d="M113 215l5 10"/>
  <path fill="#0083C8" d="M108.383 218l-1.526-9.628c-.683-.073-1.324-.364-1.829-.829-.504-.466-.845-1.081-.973-1.756-.127-.674-.033-1.372.267-1.989.3-.617.791-1.121 1.401-1.438.609-.316 1.305-.428 1.983-.319.678.109 1.303.433 1.782.925.48.491.787 1.124.879 1.804.092.68-.039 1.372-.371 1.973l7.004 6.786-8.617 4.471z"/>
  <path stroke="#170C2C" stroke-width="1.13779" d="M136 203l12 23"/>
  <path fill="#fff" d="M130.763 195.72l-.213-.023c-.611-.066-1.183-.327-1.634-.744-.45-.417-.754-.967-.867-1.57-.113-.603-.029-1.227.24-1.778.269-.552.708-1.002 1.253-1.284.546-.283 1.167-.382 1.772-.284.606.097 1.165.388 1.593.827.428.44.703 1.005.785 1.614.081.608-.035 1.226-.332 1.762l-.103.188 6.743 6.541-7.762 4.031-1.475-9.28z"/>
  <path fill="#170C2C" fill-rule="evenodd" d="M128.995 189.88c.593-.563 1.379-.877 2.197-.88h-.006c.557-.001 1.105.144 1.589.42s.887.672 1.17 1.151c.284.479.437 1.023.444 1.579.009.557-.129 1.105-.399 1.592l7.01 6.785-8.62 4.473-1.528-9.628c-.813-.089-1.561-.485-2.091-1.108-.529-.622-.8-1.423-.756-2.238.043-.816.397-1.583.99-2.146zm3.502.04c-.396-.226-.845-.346-1.301-.348h-.004c-.421-.001-.836.101-1.209.296-.501.26-.905.673-1.151 1.18-.247.506-.324 1.079-.22 1.632.104.554.385 1.059.799 1.442.414.382.941.621 1.502.682l.436.045.069.433 1.409 8.843 7.205-3.741-6.441-6.234-.315-.303.212-.381c.221-.4.334-.849.328-1.305-.006-.455-.131-.902-.362-1.294-.231-.394-.561-.719-.957-.947z" clip-rule="evenodd"/>
  <path fill="#F5B4C4" d="M203.383 200l-1.526-9.627c-.683-.073-1.324-.364-1.829-.829-.504-.466-.845-1.082-.973-1.756-.127-.675-.033-1.372.267-1.99.3-.617.791-1.121 1.401-1.438.609-.316 1.305-.428 1.983-.319.678.109 1.303.433 1.782.925.48.491.788 1.124.879 1.804.092.681-.039 1.372-.371 1.973l7.004 6.786-8.617 4.471z"/>
  <path stroke="#170C2C" stroke-width="1.13779" d="M234 181l23 45M61 95.5h10M222 156.5h-12M220.5 156v5M218.5 157v3"/>
  <path fill="#FCCE44" d="M220.829 152.659c-2.014 3.039-6.476 3.341-6.476 3.341s-1.197-4.621.819-7.659c2.016-3.039 6.476-3.341 6.476-3.341s1.195 4.631-.819 7.659z"/>
  <path stroke="#170C2C" stroke-width="1.13779" d="M207 160c1.657 0 3-1.343 3-3s-1.343-3-3-3-3 1.343-3 3 1.343 3 3 3z" clip-rule="evenodd"/>
  <path fill="#FCCE44" d="M78.1693 179.962C80.1854 182.725 84.648 183 84.648 183s1.1957-4.201-.8204-6.962c-2.0162-2.761-6.4733-3.038-6.4733-3.038s-1.1992 4.205.815 6.962z"/>
  <path stroke="#170C2C" stroke-width="1.13779" d="M94 183.5H82M91.5 183v5M90.5 184v3"/>
  <path fill="#FCCE44" d="M91.8258 179.964C89.808 182.727 85.3524 183 85.3524 183s-1.1959-4.201.8185-6.962c2.0143-2.761 6.4792-3.038 6.4792-3.038s1.192 4.207-.8243 6.964z"/>
  <path stroke="#170C2C" stroke-width="1.13779" d="M78 187c1.657 0 3-1.343 3-3s-1.343-3-3-3-3 1.343-3 3 1.343 3 3 3z" clip-rule="evenodd"/>
  <path stroke="#170C2C" stroke-width="1.13779" d="M259 140.5h12M261.5 141v5M262.5 141v3"/>
  <path fill="#F5B4C4" d="M261.171 137.659c2.016 3.037 6.477 3.341 6.477 3.341s1.195-4.621-.82-7.659c-2.016-3.039-6.475-3.341-6.475-3.341s-1.197 4.621.818 7.659z"/>
  <path stroke="#170C2C" stroke-width="1.13779" d="M275 144c1.657 0 3-1.343 3-3s-1.343-3-3-3-3 1.343-3 3 1.343 3 3 3z" clip-rule="evenodd"/>
  <path stroke="#0083C8" stroke-width="4.55116" d="M150.32 1l.36 10M138 9l6 6M163 9l-6 6"/>
  <path stroke="#170C2C" stroke-width="1.13779" d="M151 80c3.866 0 7-3.1343 7-7s-3.134-7-7-7-7 3.1343-7 7 3.134 7 7 7z" clip-rule="evenodd"/>
  <path fill="#F5B4C4" d="M22.8293 127.659c-2.014 3.039-6.4764 3.341-6.4764 3.341s-1.1972-4.621.8186-7.659c2.0158-3.038 6.4763-3.341 6.4763-3.341s1.1954 4.621-.8185 7.659z"/>
  <path stroke="#170C2C" stroke-width="1.13779" d="M8 130.5h12M9.5 131v5M11.5 131v3"/>
  <path fill="#F5B4C4" d="M10.1706 127.659c2.0157 3.039 6.4776 3.341 6.4776 3.341s1.1953-4.621-.8204-7.659C13.8122 120.303 9.35214 120 9.35214 120s-1.1953 4.621.81846 7.659z"/>
  <path stroke="#170C2C" stroke-width="1.13779" d="M23 134c1.6568 0 3-1.343 3-3s-1.3432-3-3-3-3 1.343-3 3 1.3432 3 3 3z" clip-rule="evenodd"/>
  <path stroke="#fff" stroke-width="1.13779" d="M136 203l5 10M116 223l2 3"/>
</svg>
