<?xml version="1.0" encoding="UTF-8"?>
<svg width="516px" height="519px" viewBox="0 0 516 519" version="1.1" xmlns="http://www.w3.org/2000/svg" xmlns:xlink="http://www.w3.org/1999/xlink">
    <title>9_protection1</title>
    <g id="Final" stroke="none" stroke-width="1" fill="none" fill-rule="evenodd">
        <g id="Freebies" transform="translate(-755.000000, -142.000000)" fill-rule="nonzero">
            <g id="Rectangle-Copy-18" transform="translate(135.000000, 142.000000)">
                <g id="9_protection1" transform="translate(878.000000, 259.500000) scale(-1, 1) translate(-878.000000, -259.500000) translate(620.000000, 0.000000)">
                    <g id="background_1_" transform="translate(0.000000, 11.200000)" fill="#000000">
                        <path d="M14.3816473,470.796197 C11.5152002,470.796197 9.19764724,468.480007 9.19764724,465.615245 C9.19764724,462.750483 11.5152002,460.434293 14.3816473,460.434293 C17.2480944,460.434293 19.5656474,462.750483 19.5656474,465.615245 C19.5656474,468.480007 17.2480944,470.796197 14.3816473,470.796197 Z M14.3816473,461.409531 C12.0640943,461.409531 10.1124708,463.299055 10.1124708,465.676197 C10.1124708,468.05334 12.0031061,469.942864 14.3816473,469.942864 C16.7601885,469.942864 18.6508239,468.05334 18.6508239,465.676197 C18.6508239,463.299055 16.6992003,461.409531 14.3816473,461.409531 Z" id="Shape"></path>
                        <path d="M80.0049895,158.110479 C79.5170836,158.110479 79.0291777,158.049526 78.5412718,157.866669 C77.2605188,157.500955 76.2237188,156.586669 75.5528482,155.428574 C74.8819776,154.270478 74.8209894,152.868574 75.1869188,151.588574 C75.9797659,148.967621 78.7852247,147.443812 81.4687071,148.236193 C82.7494601,148.601907 83.7862601,149.516193 84.4571307,150.674288 C85.1280013,151.832383 85.1889895,153.234288 84.8230601,154.514288 L84.8230601,154.514288 C84.4571307,155.794288 83.5423072,156.830479 82.3835307,157.500955 C81.6516718,157.927621 80.8588248,158.110479 80.0049895,158.110479 Z M80.0049895,149.028574 C78.2363306,149.028574 76.6506365,150.186669 76.1017424,151.954288 C75.7968012,152.990478 75.8577894,154.087621 76.4066835,155.062859 C76.8945894,156.038098 77.809413,156.708574 78.846213,157.074288 C79.883013,157.37905 80.9808013,157.318098 81.956613,156.769526 C82.9324248,156.220955 83.6032954,155.367621 83.9692248,154.331431 L83.9692248,154.331431 C84.274166,153.29524 84.2131778,152.198098 83.6642836,151.222859 C83.1763778,150.247621 82.2615542,149.577145 81.2247542,149.211431 C80.7978365,149.089526 80.4319071,149.028574 80.0049895,149.028574 Z" id="Shape"></path>
                        <path d="M501.067772,468.175245 C500.579866,468.175245 500.030972,467.992388 499.604055,467.748578 C499.05516,467.382864 498.628243,466.77334 498.506266,466.102864 C498.38429,465.432388 498.506266,464.761912 498.933184,464.152388 C499.726031,462.994293 501.311725,462.689531 502.53149,463.481912 C503.690266,464.274293 503.995208,465.859055 503.20236,467.078102 L503.20236,467.078102 C502.836431,467.626674 502.226549,468.05334 501.555678,468.175245 C501.372713,468.175245 501.189749,468.175245 501.067772,468.175245 Z M501.067772,463.969531 C500.518878,463.969531 500.030972,464.21334 499.726031,464.700959 C499.482078,465.066674 499.360102,465.49334 499.482078,465.920007 C499.543066,466.346674 499.787019,466.712388 500.152949,466.956197 C500.518878,467.200007 500.945796,467.321912 501.372713,467.200007 C501.799631,467.139055 502.16556,466.895245 502.409513,466.529531 L502.409513,466.529531 C502.897419,465.798102 502.714455,464.761912 501.982596,464.21334 C501.677655,464.091435 501.372713,463.969531 501.067772,463.969531 Z" id="Shape"></path>
                        <path d="M422.880853,267.337147 C422.148995,267.337147 421.478124,267.093337 420.868242,266.727623 C419.221559,265.63048 418.794642,263.375242 419.953418,261.729528 C420.502312,260.937147 421.295159,260.388575 422.270971,260.205718 C423.185795,260.022861 424.161606,260.205718 424.954453,260.75429 C426.601136,261.851432 427.028053,264.106671 425.869277,265.752385 L425.869277,265.752385 C425.320383,266.544766 424.527536,267.093337 423.551724,267.276194 C423.307771,267.337147 423.063818,267.337147 422.880853,267.337147 Z M422.880853,261.120004 C422.697889,261.120004 422.575912,261.120004 422.392948,261.180956 C421.661089,261.302861 421.051206,261.729528 420.685277,262.278099 C419.831442,263.497147 420.136383,265.142861 421.356147,265.996194 C421.96603,266.422861 422.6369,266.544766 423.368759,266.422861 C424.100618,266.300956 424.7105,265.87429 425.07643,265.325718 L425.07643,265.325718 C425.930265,264.106671 425.625324,262.460956 424.405559,261.607623 C423.917653,261.241909 423.429748,261.120004 422.880853,261.120004 Z" id="Shape"></path>
                        <path d="M73.4792482,416.731435 C73.4792482,416.731435 73.41826,416.731435 73.4792482,416.731435 L64.2700245,415.878101 C64.1480481,415.878101 64.0260716,415.817149 63.9650834,415.695244 C63.9040951,415.57334 63.8431069,415.451435 63.8431069,415.390482 L64.6969422,406.247625 C64.6969422,406.003816 64.9408951,405.820958 65.1848481,405.820958 L74.3330835,406.674292 C74.5770365,406.674292 74.7600012,406.918101 74.7600012,407.161911 L73.9061659,416.304768 C73.9061659,416.548578 73.7232011,416.731435 73.4792482,416.731435 Z M64.8189187,415.024768 L73.0523305,415.756197 L73.7841894,407.527625 L65.5507775,406.796197 L64.8189187,415.024768 Z" id="Shape"></path>
                        <path d="M496.432666,286.293338 C496.31069,286.293338 496.249702,286.232385 496.127725,286.171433 C495.94476,285.988576 495.883772,285.744766 496.066737,285.500957 L505.275961,273.980956 C505.458925,273.798099 505.702878,273.737147 505.946831,273.920004 C506.129796,274.102861 506.190784,274.346671 506.007819,274.59048 L496.798596,286.11048 C496.737607,286.232385 496.554643,286.293338 496.432666,286.293338 Z" id="Path"></path>
                        <path d="M505.64189,12.8000002 C505.519913,12.8000002 505.458925,12.7390478 505.336949,12.6780954 C505.153984,12.4952383 505.092996,12.2514288 505.275961,12.0076192 L514.485184,0.487619055 C514.668149,0.304761909 514.912102,0.243809527 515.156055,0.426666673 C515.339019,0.609523819 515.400008,0.853333346 515.217043,1.09714287 L506.007819,12.617143 C505.946831,12.7390478 505.824855,12.8000002 505.64189,12.8000002 Z" id="Path"></path>
                        <path d="M487.467396,399.908577 C487.345419,399.908577 487.162454,399.847625 487.101466,399.72572 C486.97949,399.542863 486.97949,399.238101 487.223443,399.116196 L499.360102,390.643815 C499.543066,390.521911 499.848007,390.521911 499.969984,390.76572 C500.09196,390.948577 500.09196,391.253339 499.848007,391.375244 L487.711348,399.847625 C487.65036,399.847625 487.589372,399.908577 487.467396,399.908577 Z" id="Path"></path>
                        <path d="M457.095254,178.468574 C456.973277,178.468574 456.790313,178.407622 456.729324,178.285717 C456.607348,178.10286 456.607348,177.798098 456.851301,177.676193 L468.926972,169.203812 C469.109936,169.081907 469.414878,169.081907 469.536854,169.325717 C469.658831,169.508574 469.658831,169.813336 469.414878,169.935241 L457.339207,178.407622 C457.278219,178.468574 457.21723,178.468574 457.095254,178.468574 Z" id="Path"></path>
                        <path d="M51.218542,264.228575 C51.0965655,264.228575 51.0355773,264.167623 50.9136008,264.106671 C50.7306361,263.923813 50.6696479,263.680004 50.8526126,263.436194 L60.0618362,251.916194 C60.2448009,251.733337 60.4887539,251.672385 60.7327068,251.855242 C60.9156715,252.038099 60.9766598,252.281909 60.7936951,252.525718 L51.5844714,264.045718 C51.4624949,264.167623 51.3405185,264.228575 51.218542,264.228575 Z" id="Path"></path>
                        <path d="M14.3816473,153.417145 C14.3206591,153.417145 14.2596708,153.417145 14.1986826,153.356193 L0.903247117,146.956193 C0.659294172,146.834288 0.598305936,146.590478 0.720282408,146.346669 C0.842258881,146.102859 1.08621183,146.041907 1.33016477,146.163812 L14.6256003,152.624764 C14.8695532,152.746669 14.9305414,152.990478 14.808565,153.234288 C14.7475767,153.356193 14.564612,153.417145 14.3816473,153.417145 Z" id="Path"></path>
                        <path d="M74.6990129,81.4933345 C74.5160482,81.4933345 74.3330835,81.3714298 74.2720953,81.1885726 L68.8441422,67.4742867 C68.7221658,67.2304772 68.8441422,66.9866677 69.0880952,66.8647629 C69.3320481,66.7428581 69.5760011,66.8647629 69.6979776,67.1085724 L75.1259306,80.8228583 C75.247907,81.0666679 75.1259306,81.3104774 74.8819776,81.4323822 C74.8209894,81.4933345 74.7600012,81.4933345 74.6990129,81.4933345 Z" id="Path"></path>
                        <path d="M144.103626,23.2838099 C143.981649,23.2838099 143.859673,23.2228575 143.798685,23.1619051 L133.369696,12.7390478 C133.186731,12.5561907 133.186731,12.2514288 133.369696,12.0685716 C133.552661,11.8857145 133.857602,11.8857145 134.040567,12.0685716 L144.469555,22.4914289 C144.65252,22.6742861 144.65252,22.979048 144.469555,23.1619051 C144.347579,23.2228575 144.225602,23.2838099 144.103626,23.2838099 Z" id="Path"></path>
                        <path d="M139.407532,226.681908 C139.285555,226.681908 139.163579,226.620956 139.10259,226.560003 L128.368661,216.441908 C128.185696,216.259051 128.185696,215.954289 128.368661,215.771432 C128.551625,215.588575 128.856567,215.588575 129.039531,215.771432 L139.773461,225.889527 C139.956426,226.072384 139.956426,226.377146 139.773461,226.560003 C139.651484,226.681908 139.529508,226.681908 139.407532,226.681908 Z" id="Path"></path>
                        <path d="M210.275862,455.740959 C210.153886,455.740959 209.970921,455.680007 209.909933,455.558102 L201.859485,443.123816 C201.737509,442.940959 201.798497,442.636197 201.981462,442.514292 C202.164427,442.392388 202.469368,442.45334 202.591344,442.636197 L210.580803,455.070483 C210.70278,455.25334 210.641791,455.558102 210.458827,455.680007 C210.458827,455.740959 210.33685,455.740959 210.275862,455.740959 Z" id="Path"></path>
                        <path d="M105.498072,314.880005 C105.315107,314.880005 105.193131,314.819052 105.071155,314.636195 C104.949178,314.392386 105.010166,314.148576 105.254119,314.026671 L118.305602,307.0781 C118.549555,306.956195 118.793508,307.017147 118.915484,307.260957 C119.037461,307.504766 118.976472,307.748576 118.732519,307.870481 L105.681037,314.819052 C105.681037,314.880005 105.620049,314.880005 105.498072,314.880005 Z" id="Path"></path>
                        <path d="M422.880853,348.525719 C422.758877,348.525719 422.6369,348.464767 422.514924,348.403815 L412.573841,337.493338 C412.390877,337.310481 412.390877,337.005719 412.63483,336.822862 C412.817794,336.640005 413.122736,336.640005 413.3057,336.883815 L423.246783,347.794291 C423.429748,347.977148 423.429748,348.28191 423.185795,348.464767 C423.063818,348.525719 423.00283,348.525719 422.880853,348.525719 Z" id="Path"></path>
                        <path d="M424.03963,486.156198 C423.978642,486.156198 423.917653,486.156198 423.856665,486.095245 C423.612712,485.973341 423.490736,485.729531 423.612712,485.485722 L429.406595,471.89334 C429.528571,471.649531 429.772524,471.527626 430.016477,471.649531 C430.26043,471.771436 430.382406,472.015245 430.26043,472.259055 L424.466548,485.851436 C424.405559,486.034293 424.222595,486.156198 424.03963,486.156198 Z" id="Path"></path>
                    </g>
                    <g id="general" transform="translate(117.800002, 0.000000)">
                        <g id="lines" transform="translate(34.797627, 0.000000)" fill="#000000">
                            <path d="M151.644397,187.188149 C151.400203,187.188149 151.217057,187.005229 151.217057,186.822309 C151.156009,186.578416 151.339154,186.334523 151.583348,186.273549 C163.854091,184.383376 169.04321,179.017722 170.752568,177.249495 C173.377652,174.566668 174.110233,172.676495 175.331203,169.749774 C176.307978,167.310841 177.528948,164.323147 180.337177,159.689174 C184.061134,153.530866 186.930412,150.543173 189.00606,148.348133 C190.410175,146.884773 191.38695,145.848226 191.936386,144.567786 C192.119532,144.201946 192.424774,143.226372 192.424774,142.311772 C192.546871,138.958238 188.57872,136.397358 184.305328,133.653558 C179.482499,130.543918 174.537573,127.373304 173.927088,122.37349 C173.743943,121.032077 174.049185,120.36137 174.415476,119.568717 C174.720718,118.837037 175.148057,117.922437 175.392251,115.910317 C175.880639,111.886076 175.087009,107.313076 173.255555,103.471755 C171.607246,99.9353018 169.348453,97.5573416 167.394902,97.2524749 C165.807642,97.0085816 164.708769,98.4109684 162.999412,100.484062 C161.229006,102.679102 158.726019,105.727769 154.452626,107.983783 C150.606573,109.995903 148.042537,109.995903 144.501726,109.995903 C141.876642,109.995903 138.641073,109.995903 133.879292,110.849529 C125.637749,112.373863 115.442655,114.203063 110.986116,121.82473 C105.919094,130.421971 110.802971,141.702039 110.986116,142.189825 C112.756522,146.275039 115.137412,148.531053 117.396206,150.726093 C120.02129,153.226 122.463229,155.60396 123.440004,160.298907 C124.172586,163.652441 123.62315,165.664561 123.134762,167.493761 C122.707423,169.201014 122.280083,170.725348 123.012665,173.042335 C123.745246,175.481268 125.393555,177.737282 127.835494,179.749402 C128.018639,179.932322 128.079688,180.176215 127.896542,180.420109 C127.713397,180.603029 127.469203,180.664002 127.225009,180.481082 C124.660974,178.347015 122.890568,175.969055 122.096938,173.286228 C121.303308,170.664375 121.730647,169.018094 122.219035,167.188894 C122.707423,165.420667 123.19581,163.530494 122.524277,160.420854 C121.547502,155.9698 119.349757,153.835733 116.724673,151.274853 C114.526928,149.140786 111.962892,146.701852 110.131438,142.433719 C109.887244,141.945932 104.88127,130.239051 110.192486,121.214997 C114.893218,113.22749 125.332507,111.337316 133.696147,109.812983 C138.518976,108.898383 141.815593,108.959356 144.501726,108.959356 C147.92044,108.959356 150.362379,108.959356 154.025287,107.069182 C158.115534,104.874142 160.435376,102.069369 162.26683,99.7523818 C164.037236,97.5573416 165.441351,95.8500882 167.516999,96.2159282 C169.836841,96.5817682 172.278779,99.0816751 174.110233,102.983969 C176.002736,107.008209 176.796366,111.76413 176.369027,115.910317 C176.124833,118.044383 175.697494,119.019957 175.331203,119.81261 C175.02596,120.54429 174.781766,121.032077 174.903863,122.19057 C175.392251,126.763571 180.21508,129.812238 184.854764,132.799931 C189.311302,135.665678 193.584695,138.409478 193.40155,142.250799 C193.340501,143.287346 193.035259,144.384866 192.852113,144.811679 C192.241629,146.275039 191.203805,147.372559 189.738641,148.896893 C187.662993,151.03096 184.854764,154.018653 181.191856,160.055014 C178.444675,164.567041 177.223705,167.554734 176.24693,169.993668 C175.087009,172.859415 174.23233,174.932508 171.485149,177.737282 C169.714744,179.566482 164.342478,185.115056 151.827542,187.066203 C151.705445,187.188149 151.705445,187.188149 151.644397,187.188149 Z" id="Path"></path>
                            <path d="M134.36768,224.930646 C134.184535,224.930646 134.001389,224.808699 133.940341,224.625779 C133.879292,224.381886 134.001389,224.137992 134.245583,224.077019 C164.464575,214.809072 183.633794,205.906964 186.380976,202.248564 C187.235654,201.09007 187.846139,200.17547 188.334527,199.199897 C189.860738,196.33415 191.142756,193.22451 191.875338,190.29779 C192.97421,186.090629 197.674942,183.346829 203.169305,180.176215 C207.992134,177.371442 213.486496,174.139855 217.576743,169.322961 C223.010057,162.920761 227.405547,151.457773 224.414172,141.519119 C222.277475,134.385238 216.416822,129.019584 207.564794,120.849157 C205.244952,118.71509 203.35245,117.129783 201.826238,115.910317 C198.468572,113.166516 196.637118,111.642183 195.416149,108.227676 C193.828889,103.898569 194.805664,100.666982 195.843488,97.1915016 C196.637118,94.5696481 197.430748,91.8868212 197.308652,88.3503675 C197.125506,80.5457802 191.753241,69.4486326 180.21508,62.1928053 C166.66232,53.7175112 151.278106,57.5588316 134.978165,61.6440452 C124.41678,64.3268721 118.00669,65.9121789 111.352407,71.1558861 C107.750548,73.9606596 105.186512,76.7654332 102.439331,79.7531268 C99.081665,83.4115271 95.2356115,87.5577141 88.7034253,92.6185012 C82.2933361,97.618315 77.9588948,99.1426484 74.1128413,100.423089 C70.5109816,101.642555 67.702752,102.618129 64.2840378,106.093609 C60.4379842,109.934929 57.8739485,114.87377 56.5308822,121.09305 C56.4698337,121.336944 56.2256399,121.519864 55.981446,121.45889 C55.7372521,121.397917 55.5541067,121.154024 55.6151552,120.91013 C57.01927,114.50793 59.6443541,109.447143 63.6125046,105.483876 C67.2143643,101.886449 70.2667877,100.788929 73.8075989,99.5694618 C77.592604,98.2890217 81.8659968,96.7646882 88.1539891,91.8868212 C94.6251268,86.8260341 98.4101319,82.7408204 101.767798,79.0824201 C104.514979,76.0947265 107.140063,73.2899529 110.741923,70.424206 C117.579351,65.0585522 123.98944,63.4122721 134.733971,60.7294452 C151.217057,56.5832582 166.784417,52.6809645 180.703468,61.3391786 C189.250254,66.7048323 197.980185,77.0702999 198.224379,88.2284208 C198.285427,91.8868212 197.430748,94.8135414 196.698167,97.3744216 C195.660343,100.788929 194.805664,103.776622 196.270828,107.861836 C197.430748,111.032449 199.079057,112.373863 202.436723,115.117663 C203.962935,116.398103 205.855437,117.922437 208.236327,120.117477 C217.210452,128.348878 223.132154,133.775505 225.390947,141.153279 C228.504419,151.457773 223.925784,163.225627 218.370373,169.810748 C214.158029,174.749588 208.663667,177.981175 203.718741,180.846922 C198.407524,183.956562 193.889937,186.578416 192.852113,190.419736 C192.058483,193.468403 190.776465,196.578043 189.189205,199.565737 C188.639769,200.54131 188.029284,201.516884 187.174606,202.736351 C183.81694,207.248378 161.717394,216.577298 134.611874,224.869672 C134.489777,224.930646 134.428729,224.930646 134.36768,224.930646 Z" id="Path"></path>
                            <path d="M136.992764,291.574505 C129.056463,291.574505 120.02129,290.355038 110.619826,286.635664 C106.04119,284.806464 101.645701,282.550451 97.5554533,279.80665 C97.3723079,279.684704 97.3112594,279.379837 97.4333564,279.196917 C97.5554533,279.013997 97.8606957,278.953024 98.0438411,279.07497 C102.134088,281.757797 106.46853,284.074784 110.925068,285.843011 C133.696147,294.867065 154.635772,288.952651 161.4732,287.001504 C164.647721,286.086904 192.791065,277.61161 207.808988,255.173422 C213.059156,247.368834 215.745289,241.271501 215.806338,241.210527 C218.065131,236.393633 219.530294,232.247446 220.812312,228.589046 C222.521669,223.650206 223.986832,219.382072 226.85611,215.235885 C228.992807,212.126245 231.495794,209.870231 233.144103,208.345898 C233.510394,207.980058 233.815636,207.736164 234.120878,207.431298 C243.2171,198.71211 250.298723,195.41955 255.97623,192.736723 C260.554865,190.602656 264.156725,188.895403 267.026003,185.115056 C270.994153,179.932322 270.078426,175.420295 268.430118,167.310841 C267.1481,161.030587 265.438743,152.433346 265.499791,139.872839 C265.499791,126.153837 267.209148,118.044383 268.613263,111.58121 C270.139475,104.264409 271.177299,99.4475151 268.674312,91.5209811 C265.805034,82.314007 261.226398,78.71658 252.130177,71.6436728 C246.941057,67.6194324 240.530967,62.6196187 232.228376,54.8150313 C216.661016,40.2424034 207.137455,27.925789 200.238978,18.9017349 C191.203805,7.07290727 186.19783,0.609733385 177.04056,1.03654675 C171.546198,1.28044011 168.310629,3.53645363 163.304654,6.95096059 C158.115534,10.4874142 150.972864,15.3652813 137.725346,19.9382817 C121.60855,25.4868555 112.084989,24.5722554 103.6603,23.779602 C96.2734355,23.047922 89.9243947,22.4381886 80.8281728,26.4624289 C69.5952546,31.4012693 65.5660556,39.3887767 60.5600812,49.5713242 C55.3099128,60.1806851 48.7166782,73.4118996 31.1957676,87.1918741 C25.7624539,91.4600078 21.7943034,93.837968 18.619783,95.7281415 C13.9190509,98.5329151 11.1108213,100.179195 7.75315555,105.361929 C-5.37226526,125.422157 3.66290813,153.165026 8.54678565,168.103494 C9.40146421,170.725348 10.1950943,172.737468 10.4392882,173.530121 L10.5003367,173.591095 C14.712681,184.566296 20.3901886,194.931763 27.471811,204.260684 C27.5939079,204.443604 27.5939079,204.748471 27.4107625,204.931391 C27.2276171,205.053337 26.9223748,205.053337 26.7392294,204.870417 C19.657607,195.41955 13.8580024,185.054082 9.64565809,173.956935 L9.58460962,173.895961 C9.27936727,173.103308 8.54678565,171.091188 7.63105861,168.469334 C2.7471811,153.40892 -6.34904077,125.361184 6.95952546,104.935116 C10.4392882,99.5694618 13.4917116,97.7402617 18.1313953,94.9964614 C21.3059156,93.1062879 25.2130177,90.7893011 30.6463314,86.5211674 C47.9840966,72.8021662 54.5162827,59.7538718 59.7664511,49.2054842 C64.8945224,38.90099 68.9847699,30.7305626 80.5229305,25.6697755 C89.8633462,21.5845618 96.3344839,22.1942952 103.843446,22.9259753 C112.146037,23.7186287 121.60855,24.6332288 137.5422,19.1456283 C150.667621,14.5726279 157.749244,9.75573416 162.938364,6.28025387 C167.883289,2.92672025 171.424101,0.487786708 177.162657,0.243893354 C186.808315,-0.243893354 191.875338,6.40220055 201.154705,18.4749216 C208.053182,27.4989757 217.515695,39.8155901 233.083054,54.3272446 C241.385646,62.0708586 247.795735,67.0706724 252.923807,71.0949127 C261.897932,78.1068467 266.842858,81.948167 269.773184,91.4600078 C272.33722,99.6304351 271.238347,104.813169 269.712136,112.008023 C268.369069,118.471197 266.659712,126.519677 266.659712,140.116732 C266.659712,152.616266 268.369069,161.152534 269.590039,167.371814 C271.177299,175.481268 272.154074,180.359135 268.002779,185.907709 C265.011404,189.870976 261.287447,191.57823 256.586715,193.77327 C250.970256,196.395123 243.949682,199.687684 234.975557,208.284924 C234.670314,208.528818 234.365072,208.833684 233.998781,209.199524 C232.411521,210.662885 229.908534,212.918898 227.893934,215.906592 C225.146753,219.991805 223.68159,224.198966 221.972233,229.076833 C220.690215,232.796206 219.225052,236.942394 216.966258,241.820261 C216.966258,241.881234 214.158029,248.039541 208.907861,255.966075 C193.76784,278.70913 165.258205,287.245398 162.083685,288.159998 C157.688195,289.013625 148.530925,291.574505 136.992764,291.574505 Z" id="Path"></path>
                            <path d="M112.146037,210.297045 C112.084989,210.297045 111.962892,210.297045 111.901844,210.236071 C108.299984,207.980058 104.514979,206.577671 100.058441,205.967938 C94.3809329,205.175284 90.9622187,206.089884 88.5202799,206.760591 C88.276086,206.821564 88.0318922,206.699618 87.9708437,206.455724 C87.9097952,206.211831 88.0318922,205.967938 88.276086,205.906964 C90.8401217,205.236257 94.3198845,204.321657 100.180537,205.114311 C104.820221,205.785018 108.727323,207.187404 112.390231,209.504391 C112.573377,209.626338 112.695474,209.931205 112.512328,210.114125 C112.45128,210.236071 112.329183,210.297045 112.146037,210.297045 Z" id="Path"></path>
                        </g>
                        <g id="hand" transform="translate(164.830866, 154.262546)" fill="#000000">
                            <path d="M19.9018009,22.3772152 C19.7797039,22.3772152 19.5965585,22.3162419 19.5355101,22.1942952 C19.4134131,22.0113752 19.4134131,21.7065085 19.657607,21.5845618 C21.1227702,20.5480151 22.4047881,19.3285483 23.4426121,17.9261615 C24.2362422,16.8896148 24.7246299,16.1579347 24.9688238,15.0604146 C25.3961631,13.2921878 24.9077753,11.5849343 24.4193876,10.4874142 C24.2972906,10.2435209 24.4193876,9.99962752 24.6635814,9.87768084 C24.9077753,9.75573416 25.1519692,9.87768084 25.2740661,10.1215742 C25.8235023,11.341041 26.3729386,13.2312145 25.8845508,15.2433346 C25.5793085,16.5847481 24.9077753,17.4383748 24.1751937,18.4139482 C23.0763212,19.9382817 21.7332549,21.2187218 20.1459947,22.3162419 C20.0849463,22.3772152 20.0238978,22.3772152 19.9018009,22.3772152 Z" id="Path"></path>
                            <path d="M21.9164003,26.8892423 C21.7943034,26.8892423 21.6722065,26.828269 21.611158,26.7672956 C21.4280126,26.5843756 21.4280126,26.2795089 21.611158,26.0965889 C22.0995457,25.6697755 22.526885,25.1210155 22.8931758,24.6332288 C23.4426121,23.9015487 24.2362422,22.7430553 24.5414845,21.0967751 C24.8467268,19.450495 24.5414845,18.0481082 24.1751937,17.1335081 C24.1141452,16.8896148 24.2362422,16.6457214 24.480436,16.5237747 C24.7246299,16.4628014 24.9688238,16.5847481 25.0909207,16.8286414 C25.4572115,17.8651882 25.8235023,19.450495 25.4572115,21.2796951 C25.0909207,23.1088953 24.2362422,24.3283621 23.6257575,25.1819888 C23.1984182,25.7917222 22.7710789,26.2795089 22.2216427,26.828269 C22.1605942,26.828269 22.0384973,26.8892423 21.9164003,26.8892423 Z" id="Path"></path>
                            <path d="M14.1632448,39.7546167 C14.0411478,39.7546167 13.9190509,39.6936434 13.796954,39.5716967 C13.6138086,39.3887767 13.674857,39.08391 13.8580024,38.90099 C16.4830866,36.7059498 18.9860738,34.4499363 21.3059156,32.0719761 C22.9542243,30.3647226 24.1751937,29.0233091 24.4193876,27.0721623 C24.5414845,26.0356156 24.4193876,24.9380955 23.9920483,23.8405754 C23.9309998,23.596682 23.9920483,23.3527887 24.2362422,23.230842 C24.480436,23.1698686 24.7246299,23.230842 24.8467268,23.4747353 C25.3351146,24.6942021 25.4572115,25.9136689 25.3351146,27.1331356 C25.0298723,29.3891492 23.7478544,30.8525093 21.9774488,32.6817094 C19.657607,35.0596697 17.0935713,37.3766565 14.4684871,39.5716967 C14.3463902,39.7546167 14.2242933,39.7546167 14.1632448,39.7546167 Z" id="Path"></path>
                            <path d="M17.1546198,18.0481082 C17.0325228,18.0481082 16.9104259,17.9871349 16.8493774,17.9261615 C16.666232,17.7432415 16.666232,17.4383748 16.8493774,17.2554548 C19.4744616,14.5726279 22.0995457,11.889801 24.6635814,9.20697412 C25.2130177,8.59724073 25.8235023,7.98750735 26.3729386,7.4387473 L26.4950355,7.31680062 C26.4950355,7.31680062 26.556084,7.25582728 26.556084,7.25582728 C28.9369743,4.7559204 29.8527013,2.92672025 29.425362,1.82920016 C29.3032651,1.46336012 28.9980227,1.28044011 28.8759258,1.15849343 C28.3264896,0.792653401 27.3497141,1.09752009 25.9455993,2.07309351 C25.3961631,2.43893354 24.7856784,2.86574691 24.0530967,3.4754803 C23.1984182,4.14618702 22.3437396,4.93884042 21.3669641,5.73149382 C20.695431,6.28025387 20.0238978,6.88998725 19.2913162,7.49972064 C16.2388927,10.0606009 12.9422754,12.5605077 9.46251268,14.9384679 C9.27936727,15.0604146 8.97412493,15.0604146 8.85202799,14.8165213 C8.72993105,14.6336012 8.72993105,14.3287346 8.97412493,14.2067879 C12.3928392,11.8288277 15.6894565,9.32892079 18.74188,6.76804058 C19.4744616,6.15830719 20.1459947,5.60954714 20.8175279,4.99981376 C21.7943034,4.20716036 22.7100304,3.41450696 23.5036605,2.74380023 C24.2362422,2.13406685 24.9077753,1.64628014 25.4572115,1.28044011 C26.6781809,0.487786708 28.2043926,-0.365840031 29.3643135,0.365840031 C29.6085074,0.548760047 30.0358467,0.853626739 30.2800406,1.46336012 C31.0736707,3.41450696 28.9369743,6.03636051 27.2886656,7.80458733 C27.2886656,7.80458733 27.2276171,7.86556067 27.2276171,7.86556067 L27.1055202,7.98750735 C26.556084,8.59724073 26.0066478,9.20697412 25.3961631,9.8167075 C22.8321274,12.4995344 20.2070432,15.2433346 17.581959,17.9261615 C17.3988136,18.0481082 17.2767167,18.0481082 17.1546198,18.0481082 Z" id="Path"></path>
                            <path d="M0.488387751,22.6820819 C0.427339282,22.6820819 0.366290813,22.6820819 0.305242345,22.6211086 C0.0610484689,22.4991619 1.38777878e-17,22.2552686 0.0610484689,22.0113752 C0.976775503,20.0602284 1.95355101,18.1090815 3.11347191,16.3408547 C5.73855608,12.255641 8.42468871,7.98750735 13.2475178,5.91441384 C14.0411478,5.54857381 15.2621172,5.18273377 17.704056,4.32910704 C19.657607,3.65840031 21.611158,3.10964026 23.564709,2.56088022 C23.8089029,2.49990688 24.0530967,2.62185356 24.1141452,2.86574691 C24.1751937,3.10964026 24.0530967,3.35353362 23.8089029,3.41450696 C21.9164003,3.963267 19.9628493,4.57300039 18.0703468,5.18273377 C15.628408,5.97538718 14.4074387,6.40220055 13.674857,6.70706724 C9.09622187,8.71918741 6.4711377,12.8653744 3.90710201,16.8286414 C2.80822957,18.5968683 1.7704056,20.4260684 0.915727034,22.3772152 C0.793630096,22.5601353 0.610484689,22.6820819 0.488387751,22.6820819 Z" id="Path"></path>
                            <path d="M0.671533158,21.7674819 C5.86065302,27.011189 11.1108213,32.1939227 16.2999412,37.4376299 C15.5673596,38.0473632 14.8958264,38.71807 14.1632448,39.3278033 C9.58460962,33.5963095 5.06702292,27.925789 0.488387751,22.1942952 C0.54943622,22.0723485 0.610484689,21.9504019 0.671533158,21.7674819 Z" id="Path"></path>
                        </g>
                        <g id="match" transform="translate(185.587345, 145.116546)" fill="#000000">
                            <path d="M4.82282904,10.8532543 C4.21234435,11.2190943 3.60185967,11.706881 2.93032651,12.255641 L2.93032651,12.1336944 L1.28201785,3.963267 C1.58726019,3.963267 1.95355101,3.90229367 2.31984182,3.84132033 C2.68613263,3.78034699 3.05242345,3.65840031 3.35766579,3.53645363 C3.90710201,5.97538718 4.39548976,8.41432072 4.82282904,10.8532543 Z" id="Path"></path>
                            <path d="M7.44791321,23.779602 L5.37226526,24.2064154 L4.27339282,18.7188149 C4.88387751,18.1090815 5.4943622,17.4383748 6.10484689,16.8286414 L7.44791321,23.779602 Z" id="Path"></path>
                            <path d="M1.7704056,4.57300039 C1.64830866,4.57300039 1.52621172,4.51202705 1.46516325,4.45105371 C0.244193876,3.23158694 -0.244193876,1.82920016 0.244193876,0.975573416 C0.305242345,0.853626739 0.732581627,0.243893354 1.40411478,0.121946677 C1.95355101,0.0609733385 2.38089029,0.304866693 2.56403569,0.42681337 C3.35766579,0.975573416 3.7239566,2.31698686 3.41871426,3.90229367 C3.35766579,4.14618702 3.11347191,4.32910704 2.86927804,4.2681337 C2.62508416,4.20716036 2.44193876,3.963267 2.50298723,3.71937365 C2.7471811,2.49990688 2.56403569,1.52433346 2.07564794,1.15849343 C2.01459947,1.09752009 1.7704056,0.975573416 1.52621172,0.975573416 C1.22096938,1.03654675 1.03782397,1.34141345 0.976775503,1.34141345 C0.732581627,1.76822682 1.09887244,2.74380023 2.07564794,3.71937365 C2.25879335,3.90229367 2.25879335,4.20716036 2.07564794,4.39008037 C2.01459947,4.51202705 1.89250254,4.57300039 1.7704056,4.57300039 Z" id="Path"></path>
                        </g>
                        <g id="legs" transform="translate(1.220969, 303.037492)" fill="#000000">
                            <path d="M40.2919895,187.675936 C40.2919895,187.675936 40.2919895,187.675936 40.2919895,187.675936 L0.854678565,183.285856 C0.732581627,183.285856 0.610484689,183.224882 0.54943622,183.102936 C0.488387751,182.980989 0.427339282,182.859042 0.488387751,182.737096 L53.6616042,3.78034699 C53.7226526,3.53645363 53.9668465,3.41450696 54.2110404,3.4754803 C54.4552343,3.53645363 54.5773312,3.78034699 54.5162827,4.02424034 L1.52621172,182.432229 L40.0477956,186.700363 C52.6237802,151.518746 65.3829102,115.78837 78.0199433,80.6067535 C87.4214075,54.388218 96.9449686,27.8038424 106.407481,1.64628014 C106.46853,1.40238679 106.773772,1.28044011 107.017966,1.34141345 C107.26216,1.40238679 107.384257,1.70725348 107.323208,1.95114683 C97.9217441,28.1087091 88.3371345,54.6930847 78.9356703,80.9116202 C66.2986372,116.215183 53.4784588,152.067506 40.8414257,187.371069 C40.6582803,187.553989 40.4751349,187.675936 40.2919895,187.675936 Z" id="Path"></path>
                            <path d="M15.0789718,184.200456 C15.0179234,184.200456 14.9568749,184.200456 14.9568749,184.200456 C14.712681,184.139482 14.5905841,183.834616 14.6516325,183.590722 L76.4937315,3.1706136 C76.55478,2.92672025 76.8600224,2.80477357 77.1042162,2.86574691 C77.3484101,2.92672025 77.470507,3.23158694 77.4094586,3.4754803 L15.5063111,183.895589 C15.4452626,184.078509 15.2621172,184.200456 15.0789718,184.200456 Z" id="Path"></path>
                            <path d="M198.895912,214.565178 C198.590669,210.967751 197.613894,206.150858 194.012034,202.553431 C189.494447,198.041404 183.694843,198.407244 171.790392,196.456097 C166.906514,195.663443 160.069085,194.32203 151.888591,191.94407 C151.339154,190.175843 150.789718,188.407616 150.179234,186.578416 C153.90319,186.151603 156.955614,185.846736 158.420777,185.724789 C149.568749,123.958797 140.655672,62.1928053 131.803644,0.42681337 C123.440004,0.853626739 115.137412,1.34141345 106.773772,1.76822682 L88.4592314,51.339551 C99.5700528,97.6792883 110.680874,144.079999 121.791695,190.419736 C122.646374,190.236816 123.928392,190.053896 125.393555,189.810003 C127.286058,197.919457 129.117512,206.028911 131.010014,214.138365 C153.658996,214.260312 176.307978,214.382258 198.895912,214.565178 Z" id="Path"></path>
                            <path d="M69.4121091,25.4258822 C69.1679153,25.4258822 68.9237214,25.2429621 68.9237214,24.9380955 C68.9237214,24.6332288 69.1068668,24.4503087 69.4121091,24.4503087 C72.0982418,24.4503087 81.3776091,23.8405754 88.0929406,16.218908 C92.6105273,11.0971476 93.7093998,5.30468045 93.9535936,2.25601353 C93.9535936,2.01212017 94.1977875,1.82920016 94.4419814,1.82920016 C94.6861753,1.82920016 94.8693207,2.07309351 94.8693207,2.31698686 C94.5640783,5.42662713 93.4041574,11.4629876 88.7644738,16.7676681 C81.8659968,24.8161488 72.2203387,25.4258822 69.4121091,25.4258822 Z" id="Path"></path>
                        </g>
                        <g id="flame" transform="translate(180.092983, 131.702411)" fill="#000000">
                            <path d="M7.38686474,19.8773084 C5.06702292,19.8773084 2.99137498,18.0481082 2.07564794,16.8286414 C-0.671533158,13.1702411 0.183145407,6.76804058 4.27339282,0.609733385 C4.39548976,0.42681337 4.70073211,0.365840031 4.88387751,0.487786708 C10.6834821,4.2681337 13.796954,9.63378749 12.8201785,14.0848412 C12.3928392,15.9750147 10.9887244,19.267575 8.18049483,19.816335 L8.18049483,19.816335 C7.93630096,19.8773084 7.69210708,19.8773084 7.38686474,19.8773084 Z M4.82282904,1.46336012 C1.15992091,7.19485395 0.366290813,12.9873211 2.86927804,16.218908 C3.78500507,17.3774015 5.86065302,19.3285483 8.0583979,18.8407616 L8.0583979,18.8407616 C10.4392882,18.3529749 11.6602576,15.3652813 12.0265484,13.7799745 C12.8201785,9.87768084 10.0119489,5.0607871 4.82282904,1.46336012 Z" id="Shape"></path>
                            <path d="M7.50896168,19.8773084 C5.92170148,19.8773084 4.5175867,18.5968683 3.90710201,17.8042148 C2.07564794,15.3652813 2.62508416,11.0971476 5.3112168,7.01193393 C5.43331373,6.82901391 5.73855608,6.76804058 5.92170148,6.88998725 C9.76775503,9.38989413 11.843403,12.9873211 11.1718698,15.9750147 C10.9276759,17.2554548 9.95090043,19.450495 7.99734943,19.8773084 L7.99734943,19.8773084 C7.87525249,19.8773084 7.69210708,19.8773084 7.50896168,19.8773084 Z M5.86065302,7.92653401 C3.5408112,11.5849343 3.05242345,15.2433346 4.63968364,17.3164281 C5.18911986,17.9871349 6.53218617,19.267575 7.87525249,18.9627083 C7.87525249,18.9627083 7.87525249,18.9627083 7.87525249,18.9627083 C9.34041574,18.6578416 10.1340458,16.7676681 10.3171912,15.7920947 C10.8666275,13.2312145 9.15727034,10.1825475 5.86065302,7.92653401 Z" id="Shape"></path>
                        </g>
                        <g id="head" transform="translate(67.763800, 119.507744)" fill="#000000">
                            <path d="M17.9482499,13.1702411 C18.1924437,16.0969614 18.4366376,18.9627083 18.6808315,21.8894285 C18.5587345,22.1333219 16.1778443,23.3527887 15.8726019,23.2918153 C15.6894565,22.7430553 15.2621172,21.7674819 14.2853417,20.8528818 C13.9800994,20.5480151 12.6370331,19.3895217 10.5613851,19.2066016 C10.5613851,19.2066016 8.48573718,19.0236816 6.4711377,20.3650951 C6.34904077,20.4260684 6.2879923,20.4870417 6.16589536,20.5480151 C5.67750761,20.9138551 5.37226526,21.2187218 5.25016833,21.2796951 C5.00597445,21.5235885 2.25879335,24.6332288 3.5408112,28.4135758 C4.27339282,30.6086159 6.04379842,32.0110027 7.63105861,32.6207361 C8.0583979,32.8036561 8.42468871,32.8646295 8.66888258,32.9256028 C9.09622187,34.6328563 9.70670656,37.0717898 10.0729974,38.7790433 C10.5613851,40.7301901 11.0497729,42.681337 11.4771122,44.6324838 L8.0583979,44.6324838 C7.99734943,42.4374436 7.93630096,40.2424034 7.87525249,38.0473632 C5.92170148,36.4010831 1.83145407,32.4378161 0.610484689,26.2185356 C-1.34306632,16.5847481 3.96815048,4.14618702 14.5905841,1.46336012 C20.695431,-0.0609733385 26.3729386,2.13406685 30.7684283,5.54857381 C26.0676962,8.41432072 17.9482499,13.1702411 17.9482499,13.1702411 Z" id="hair"></path>
                            <path d="M10.0729974,34.0231229 C9.46251268,34.0231229 8.79097952,33.9621496 8.18049483,33.8402029 C7.93630096,33.7792295 7.75315555,33.5353362 7.81420402,33.2914428 C7.87525249,33.0475495 8.11944636,32.8646295 8.36364024,32.9256028 C9.15727034,33.1085228 10.0119489,33.1694962 10.805579,33.0475495 C11.3550152,32.9865761 11.9044514,32.8646295 12.4538877,32.6817094 C12.6980815,32.6207361 12.9422754,32.7426828 13.0643723,32.9865761 C13.1254208,33.2304695 13.0033239,33.4743629 12.75913,33.5963095 C12.1486453,33.7792295 11.5381606,33.9621496 10.9276759,34.0231229 C10.6224336,33.9621496 10.3782397,34.0231229 10.0729974,34.0231229 Z" id="Path"></path>
                            <g id="face">
                                <path d="M31.0736707,55.4247647 C30.8294768,55.4247647 30.6463314,55.2418447 30.6463314,55.0589247 C30.6463314,54.8760047 30.5852829,54.6321113 30.5852829,54.388218 L30.5852829,54.3272446 C30.2800406,52.0102578 29.6695559,46.8884973 29.3032651,43.1081503 C29.1201197,41.6447902 28.9980227,40.3643501 28.9369743,39.5716967 C28.9369743,39.3278033 29.1201197,39.08391 29.3643135,39.08391 C30.0968952,39.0229367 30.8294768,38.90099 31.50101,38.71807 C34.0039972,38.1083366 36.1406936,36.9498431 37.6669053,35.4255097 C43.2833645,29.5720692 40.4751349,18.9017349 37.361663,13.5360812 C35.7133543,10.7313076 33.3935125,8.04848069 30.7073799,5.97538718 C28.2654411,4.02424034 25.7014054,2.74380023 23.0152728,2.01212017 C20.3291401,1.28044011 17.581959,1.28044011 14.9568749,1.95114683 C4.5175867,4.63397373 -0.54943622,16.8286414 1.34306632,26.1575622 C2.44193876,31.6451627 5.86065302,35.486483 8.48573718,37.7424965 C8.60783412,37.8034699 8.66888258,37.9254166 8.66888258,38.1083366 C8.72993105,39.44975 8.79097952,43.3520437 8.85202799,44.6934571 C8.91307646,46.461684 8.97412493,49.9981376 9.0351734,52.2541511 L9.0351734,53.0468045 C9.0351734,53.2906979 8.85202799,53.5345912 8.60783412,53.5345912 C8.36364024,53.5345912 8.11944636,53.3516712 8.11944636,53.1077779 L8.11944636,52.3151245 C8.0583979,50.1200843 7.99734943,46.5836306 7.93630096,44.7544305 C7.93630096,43.4739904 7.81420402,39.8765634 7.75315555,38.3522299 C5.00597445,35.9742697 1.64830866,32.0719761 0.488387751,26.4014556 C-1.52621172,16.6457214 3.84605354,3.90229367 14.7737295,1.09752009 C17.581959,0.365840031 20.4512371,0.42681337 23.3205151,1.15849343 C26.0676962,1.89017349 28.7538289,3.23158694 31.3178645,5.24370711 C34.0650457,7.37777396 36.5069844,10.1215742 38.2163415,13.0482944 C41.4519104,18.6578416 44.3822369,29.8159625 38.3994869,36.0352431 C36.7511783,37.7424965 34.4923849,38.9619633 31.8062523,39.63267 C31.1957676,39.7546167 30.6463314,39.8765634 30.0358467,39.9375367 C30.0968952,40.7301901 30.2189921,41.8277102 30.341089,42.9862037 C30.7684283,46.7665506 31.3178645,51.8883111 31.6231069,54.2052979 L31.6231069,54.3272446 C31.6841554,54.571138 31.6841554,54.8150313 31.6841554,54.936978 C31.7452038,55.1808714 31.5620584,55.4247647 31.3178645,55.4857381 C31.1347191,55.4247647 31.0736707,55.4247647 31.0736707,55.4247647 Z" id="Path"></path>
                                <path d="M31.50101,39.08391 C30.8294768,39.2058567 30.0968952,39.3887767 29.3032651,39.44975 C29.3643135,40.1814301 29.4864105,41.4618702 29.6695559,42.9862037 C27.471811,42.3154969 24.480436,41.0960302 21.6722065,38.5961233 C20.2070432,37.2547098 19.1081708,35.9132964 18.3145407,34.6938296 C19.657607,35.9132964 23.1373697,38.71807 28.0212472,38.9619633 C29.3643135,39.0229367 30.5242345,38.8400166 31.5620584,38.6570966 C31.5620584,38.7790433 31.5620584,38.9619633 31.50101,39.08391 Z" id="Path"></path>
                            </g>
                        </g>
                        <g id="shoe" transform="translate(0.000000, 485.957508)" fill="#000000">
                            <path d="M1.03782397,31.4012693 C0.915727034,31.4012693 0.732581627,31.340296 0.671533158,31.2183493 C0.610484689,31.0964026 0.54943622,30.974456 0.610484689,30.791536 L3.11347191,21.5845618 C5.00597445,14.5726279 6.95952546,7.56069398 8.85202799,0.487786708 C8.91307646,0.243893354 9.15727034,0.121946677 9.40146421,0.182920016 C9.64565809,0.243893354 9.76775503,0.487786708 9.70670656,0.731680062 C7.81420402,7.74361399 5.86065302,14.7555479 3.96815048,21.8284552 L1.64830866,30.4256959 L71.0604178,29.9988826 C71.4877571,26.6453489 70.9383209,23.962522 69.4731576,21.9504019 C67.0922673,18.6578416 62.8188745,18.1090815 55.7372521,17.2554548 C53.9668465,17.0115614 52.0132955,16.7676681 49.8765991,16.4628014 C43.4665099,15.5482013 37.3006145,14.2677612 31.0126222,12.6214811 C30.8905253,12.5605077 30.7684283,12.4995344 30.7073799,12.4385611 C30.6463314,12.3166144 30.6463314,12.1946677 30.6463314,12.072721 L33.0272217,3.23158694 C33.0882701,2.98769359 33.332464,2.86574691 33.5766579,2.92672025 C33.8208518,2.98769359 33.9429487,3.23158694 33.8819002,3.4754803 L31.6231069,11.889801 C37.7279538,13.4751078 43.7717522,14.6945746 49.9376476,15.6091747 C52.074344,15.9140414 54.0889435,16.1579347 55.7983006,16.4018281 C63.1241169,17.3164281 67.5196066,17.8651882 70.1446908,21.4626152 C71.7929994,23.779602 72.3424357,26.828269 71.7929994,30.6086159 C71.731951,30.8525093 71.5488056,30.974456 71.3656602,30.974456 L1.03782397,31.4012693 C1.03782397,31.4012693 1.03782397,31.4012693 1.03782397,31.4012693 Z" id="Path"></path>
                            <path d="M71.2435632,25.0600421 C71.2435632,25.0600421 71.2435632,25.0600421 71.2435632,25.0600421 C52.6848287,24.9990688 19.1692192,24.9380955 2.80822957,24.9990688 L2.80822957,24.0844687 L2.80822957,24.0844687 C19.1692192,24.0234954 52.6848287,24.0844687 71.2435632,24.1454421 C71.4877571,24.1454421 71.6709025,24.3283621 71.6709025,24.6332288 C71.6709025,24.9380955 71.4877571,25.0600421 71.2435632,25.0600421 Z" id="Path"></path>
                            <path d="M8.72993105,2.80477357 C16.6051835,4.32910704 24.5414845,5.8534405 32.416737,7.31680062 C32.7830278,6.03636051 33.1493186,4.69494707 33.5766579,3.41450696 C25.4572115,2.56088022 17.3988136,1.70725348 9.27936727,0.914600078 C9.09622187,1.52433346 8.91307646,2.13406685 8.72993105,2.80477357 Z" id="Path"></path>
                        </g>
                        <g id="tshirt" transform="translate(50.670229, 167.676681)">
                            <path d="M118.495078,56.7661782 C117.823545,58.2905116 117.152012,59.7538718 116.541527,61.0952852 C99.9363436,97.3744216 92.6105273,100.484062 88.1539891,100.545035 C84.6131779,100.606009 81.6828514,98.7158351 79.7293004,97.1305283 C81.6828514,109.873956 83.5753539,122.678357 85.5289049,135.421785 C84.5521294,135.482758 83.5143055,135.543732 82.53753,135.604705 L79.546155,135.787625 C71.6709025,136.214438 63.8566985,136.702225 55.981446,137.129038 C46.2747394,137.677798 36.5069844,138.226558 26.8002779,138.775318 C19.2913162,139.202132 11.843403,139.567972 4.33444129,139.994785 C2.99137498,140.055759 1.64830866,140.116732 0.366290813,140.238679 C3.23556885,113.95917 5.3112168,93.472128 6.4711377,81.5823269 C10.7445305,38.1083366 11.2329183,13.4141345 25.51826,4.02424034 C25.7624539,3.84132033 26.0066478,3.71937365 26.2508416,3.53645363 C28.0212472,2.43893354 31.7452038,0.365840031 36.5680329,0.487786708 C38.27739,0.548760047 39.8646502,0.853626739 41.4519104,1.52433346 C43.6496553,2.43893354 45.7253032,3.90229367 48.045145,6.09733385 C53.0511195,10.9142276 58.9117725,19.0236816 67.6417036,31.6451627 C69.2900122,34.0840962 70.9383209,36.4010831 72.4645326,38.6570966 C78.1420402,46.9494707 83.0869662,54.2662713 87.0551167,60.1806851 C90.1075401,54.2052979 93.1599636,48.2299108 96.2734355,42.1935503" id="Path" fill="#FEE200"></path>
                            <path d="M96.2734355,42.1935503 C98.2269865,38.4132033 100.119489,34.6938296 102.07304,30.9134826 C106.04119,23.230842 110.009341,15.6091747 113.977491,8.04848069 C116.968866,11.8288277 119.960241,15.6091747 123.012665,19.450495 C125.393555,22.3772152 127.713397,25.3039355 130.033239,28.1696824 C125.881943,39.5107234 121.852744,49.2054842 118.43403,56.8271515" id="Path" fill="#FEE200"></path>
                            <path d="M32.0504462,52.0102578 C37.4227114,59.5099784 43.4665099,67.3145657 50.3039384,75.3020731 C60.8653235,87.6186875 71.3656602,98.2280484 81.2555121,107.191129 C80.8281728,103.715649 80.4008336,100.240169 79.9734943,96.8256616 C72.5866295,91.2161144 64.7724255,84.7529405 56.7750761,77.3751666 C47.2515149,68.6559792 39.0710201,60.0587384 32.0504462,52.0102578 Z" id="Path" fill="#000000"></path>
                        </g>
                    </g>
                </g>
            </g>
        </g>
    </g>
</svg>