<svg fill="none" xmlns="http://www.w3.org/2000/svg" viewBox="0 0 471 611">
  <path d="M257.215 418.771c-8.93 18.2-26.851 31.436-48.557 33.445-28.566 2.659-54.352-15.127-62.869-41.245l20.523-13.295c-1.538-11.7-5.796-25.941-12.894-39.413 9.759-14.241 25.55-24.168 44.122-25.882 24.781-2.304 47.492 10.755 58.611 31.377-5.027 18.082-3.49 38.113 1.064 55.013z" fill="#fff"/>
  <path d="M166.312 397.617l-20.523 13.295c-1.36-4.195-2.307-8.568-2.721-13.118-1.36-14.595 2.603-28.422 10.35-39.649 7.098 13.531 11.415 27.772 12.894 39.472zM313.52 386.449l-8.339.709c-3.194 13.531-11.001 26.59-14.076 42.722a69.12 69.12 0 00-1.242 9.868l-25.373-1.123c-2.78-5.731-5.323-12.468-7.275-19.795 4.732-9.632 6.979-20.622 5.915-32.086-.769-8.331-3.194-16.072-6.979-23.045.355-1.241.71-2.423 1.124-3.664 4.968-14.89 14.017-26.354 18.748-38.822 2.662-7.031 3.963-14.359 2.366-22.749-.059-.178-.059-.414-.118-.65-1.361-6.618-5.501-16.9-1.243-28.364 1.893-5.081 6.565-13.295 12.007-12.999 6.624.354 10.172 13.236 10.409 14.004 3.194 11.936-1.893 21.863-3.785 28.127-.059.177-.119.414-.178.591-2.306 8.272-1.715 15.659.237 22.868.946 3.486 2.247 6.972 3.667 10.459-.059.354-.178.65-.237.945-2.898 12.409 2.839 22.513 5.146 29.19.059.237.118.414.236.65l6.447-.531c1.952 7.74 2.661 15.718 2.543 23.695z" fill="#00BE75"/>
  <path d="M276.023 321.213c2.662-7.031 3.963-14.359 2.366-22.749l17.092.768c-2.306 8.272-1.715 15.659.237 22.868l-19.695-.887zM313.52 386.449c-.296 20.268-6.328 40.122-13.603 53.713l-10.054-.473c.236-3.309.65-6.618 1.242-9.868 3.075-16.073 10.882-29.191 14.076-42.722l8.339-.65z" fill="#fff"/>
  <path fill-rule="evenodd" clip-rule="evenodd" d="M289.863 440.162l10.113.472c.119 0 .296-.118.355-.236 8.28-15.482 13.367-35.631 13.662-53.949 0-.178 0-.296-.118-.355s-.237-.118-.355-.118l-8.339.709c-.237.059-.355.177-.414.355-1.42 6.027-3.726 11.877-6.21 18.14l-.012.03c-3.012 7.672-6.141 15.64-7.854 24.552a88.977 88.977 0 00-1.242 9.927c0 .14.037.206.081.287.012.021.025.043.037.067a.452.452 0 00.296.119zm9.818-.473l-9.345-.414c.236-3.191.65-6.322 1.301-9.336 1.633-8.683 4.705-16.505 7.682-24.087l.125-.317c2.425-6.146 4.731-11.995 6.151-17.964l7.511-.65c-.355 17.964-5.382 37.641-13.425 52.768z" fill="#fff"/>
  <path d="M311.036 362.754l-6.447.531a2.9 2.9 0 00-.236-.65c-2.307-6.677-7.985-16.722-5.146-29.19.059-.295.178-.65.237-.945 3.844 9.218 8.694 18.731 11.533 29.899 0 .177 0 .236.059.355z" fill="#fff"/>
  <path fill-rule="evenodd" clip-rule="evenodd" d="M304.116 363.463a.445.445 0 00.414.295l6.506-.65a.326.326 0 00.296-.177c.059-.118.059-.236.059-.355l-.059-.295c-2.051-8.256-5.264-15.584-8.372-22.673l-.086-.195c-.284-.646-.568-1.284-.85-1.917-.774-1.739-1.531-3.441-2.225-5.174a.445.445 0 00-.414-.295c-.178.059-.355.177-.414.354a6.586 6.586 0 01-.139.601c-.037.142-.073.279-.098.404-2.399 10.288 1.048 19.014 3.585 25.436l.082.209a54.18 54.18 0 011.479 3.782l.236.65zm-.894-4.954c-2.478-6.247-5.829-14.694-3.66-24.591.828 1.95 1.656 3.9 2.603 5.909l.088.202c3.048 6.969 6.201 14.176 8.251 22.311l-5.619.473-.118-.296a78.108 78.108 0 00-1.087-2.847l-.392-.994-.066-.167z" fill="#fff"/>
  <path fill-rule="evenodd" clip-rule="evenodd" d="M308.966 510.361c.059.118.177.177.355.177l37.083-3.191c.177 0 .296-.118.355-.295 7.511-19.796 12.183-53.241.769-82.195-3.188-8.076-7.362-15.002-11.415-21.728l-.473-.785-.345-.568c-3.421-5.639-6.654-10.965-9-16.568-3.43-8.095-4.495-15.541-3.371-23.4.029-.118.044-.221.059-.325.015-.103.03-.207.059-.325.14-.931.353-1.935.582-3.013l.187-.887.01-.045c1.418-6.792 3.352-16.049-.72-25.954-.118-.414-1.597-3.841-3.903-7.15-3.076-4.314-6.151-6.441-9.227-6.205-6.742.532-10.172 12.173-10.764 14.477-.059.119-.059.178 0 .296.434.993.867 1.998 1.305 3.013.579 1.34 1.165 2.699 1.771 4.078l.088.202c3.048 6.969 6.201 14.176 8.251 22.311l-5.974.532c-.177 0-.295.118-.354.177-.06.059-.119.236-.06.355 2.485 7.504 2.662 15.008.651 23.636 0 .177 0 .295.118.413.059.118.237.177.355.177l7.807-.65c-.355 17.964-5.382 37.641-13.425 52.768l-9.818-.414c-.237 0-.473.178-.473.414-1.893 27.477 8.812 54.481 19.517 70.672zm.591-.71c-10.468-16.013-20.996-42.544-19.28-69.489l9.581.472c.177 0 .355-.059.414-.236 8.28-15.482 13.366-35.631 13.662-53.949 0-.177 0-.296-.118-.355-.119-.059-.237-.118-.355-.118l-7.689.65c1.893-8.332 1.656-15.659-.65-22.986l5.914-.532a.326.326 0 00.296-.177c.059-.118.059-.236.059-.355l-.059-.295c-2.051-8.256-5.264-15.584-8.372-22.673l-.086-.195-.576-1.309c-.853-1.935-1.666-3.779-2.44-5.664 1.597-6.086 5.204-13.295 9.936-13.649 3.371-.237 6.447 3.013 8.398 5.85 2.307 3.309 3.786 6.795 3.845 6.972 4.021 9.691 2.129 18.791.709 25.468l-.117.56c-.255 1.215-.498 2.374-.651 3.399a1.695 1.695 0 00-.062.324 2.902 2.902 0 01-.057.326c-1.123 8.036-.059 15.6 3.431 23.872 2.479 5.841 5.844 11.386 9.386 17.225l.017.03.228.374c4.129 6.798 8.407 13.84 11.601 22.021 10.528 26.768 7.275 60.094-.65 81.308l-36.315 3.131z" fill="#fff"/>
  <path fill-rule="evenodd" clip-rule="evenodd" d="M304.885 387.453c.118.118.237.178.355.178l20.582-1.773c.177-.059.296-.118.355-.236a.506.506 0 000-.414c-3.431-8.095-4.495-15.541-3.371-23.4 0-.118 0-.236-.119-.354-.059-.059-.236-.118-.355-.118l-17.802 1.536c-.177 0-.295.118-.355.177-.059.059-.118.236-.059.355 2.484 7.504 2.662 15.009.651 23.636 0 .177 0 .295.118.413zm.887-.768c1.893-8.332 1.656-15.659-.65-22.986l16.678-1.418c-1.005 7.623 0 14.891 3.253 22.75l-19.281 1.654z" fill="#fff"/>
  <path d="M114.798 567.087l-39.33-.414c-11.475-21.627-19.873-56.608-11.002-86.685 4.91-16.663 14.49-29.722 19.281-43.726 2.662-7.859 3.845-16.014 1.715-25.291l-.177-.709c-1.774-7.268-6.742-18.554-2.425-31.377 1.124-3.368 3.253-7.977 6.092-11.168 4.909 10.341 11.888 19.736 19.636 27.772-.947 6.028-3.017 11.168-4.022 15.009l-.178.709c-2.247 9.218-1.36 17.373 1.124 25.35 4.377 14.004 13.544 27.241 18.335 44.14 8.812 30.136 1.478 64.999-9.049 86.39z" fill="#00BE75"/>
  <path d="M83.747 436.262c2.662-7.859 3.845-16.014 1.715-25.291l18.986.177c-2.248 9.218-1.361 17.373 1.123 25.35l-21.824-.236zM108.706 395.43c-7.807-8.036-14.786-17.431-19.636-27.772 1.952-2.186 4.2-3.723 6.683-3.663 7.393.177 11.77 14.24 12.066 15.127 1.715 5.909 1.656 11.404.887 16.308z" fill="#fff"/>
  <path fill-rule="evenodd" clip-rule="evenodd" d="M108.41 395.785a.453.453 0 00.296.118s.059 0 .177-.059c.178-.059.296-.177.296-.354.946-5.909.651-11.287-.946-16.487-.178-.59-4.732-15.245-12.48-15.422-2.424-.059-4.731 1.241-7.038 3.841-.118.118-.118.295-.059.472 4.613 9.75 11.297 19.146 19.754 27.891zm-.059-1.241c-8.043-8.45-14.372-17.431-18.808-26.768 2.07-2.245 4.081-3.368 6.151-3.309 7.098.178 11.474 14.241 11.652 14.832 1.419 4.845 1.774 9.809 1.005 15.245z" fill="#fff"/>
  <path d="M136.563 417.353c-.06 0-.119 0-.237-.059-9.64-5.259-19.636-12.882-28.034-21.568-.118-.118-.118-.236-.118-.355.946-5.79.65-11.049-.888-16.131-.177-.591-4.554-14.655-11.65-14.832-2.13-.059-4.26 1.123-6.33 3.546-.117.118-.236.177-.413.118-.118 0-.296-.118-.355-.237a76.297 76.297 0 01-4.081-10.459c-2.602-8.331-3.549-16.486-4.436-24.345-.71-6.381-1.42-12.409-2.957-18.14-2.188-8.214-5.737-14.418-11.237-19.677-.178-.118-.296-.296-.473-.414-.888-.827-1.893-1.654-2.957-2.541-5.087-4.254-12.066-10.163-14.727-20.031-1.42-5.259-2.544-14.95 2.365-18.023 5.797-3.663 16.028 4.432 17.152 5.377 7.984 6.559 10.528 15.305 12.361 21.627.355 1.3.769 2.541 1.124 3.605.059.236.118.414.236.591 2.603 7.15 6.861 12.941 13.426 18.259 4.672 3.781 9.995 6.972 15.673 10.281 6.683 3.959 13.662 8.096 20.227 13.709 9.167 7.8 17.093 18.023 23.539 30.313.119.237.059.473-.177.591-.237.118-.473.059-.592-.177-6.387-12.173-14.253-22.277-23.361-30.018-6.506-5.554-13.426-9.631-20.109-13.59-5.678-3.369-11-6.559-15.732-10.341-6.684-5.436-11.06-11.345-13.663-18.673-.059-.177-.118-.413-.236-.591-.355-1.122-.769-2.363-1.124-3.663-1.833-6.264-4.317-14.832-12.065-21.213-.414-.355-10.705-8.746-16.146-5.319-2.425 1.537-3.017 4.964-3.135 7.564-.118 2.836.296 6.382 1.183 9.513 2.602 9.632 9.404 15.364 14.431 19.559a71.577 71.577 0 012.957 2.6l.473.473c5.619 5.377 9.286 11.759 11.474 20.091 1.538 5.79 2.248 11.877 2.957 18.258.888 7.859 1.834 15.955 4.377 24.168 1.005 3.25 2.307 6.5 3.785 9.75 2.13-2.245 4.318-3.368 6.565-3.309 3.253.059 6.329 2.6 9.049 7.504 2.129 3.723 3.253 7.505 3.43 7.918 1.538 5.141 1.893 10.459.947 16.309 8.221 8.45 17.979 15.955 27.383 21.095l8.99-5.849a.457.457 0 01.591.118c.119.177.06.472-.118.591l-9.226 5.968c.059.059 0 .059-.118.059z" fill="#fff"/>
  <path d="M77.537 314.773c-1.892-7.269-5.145-13.946-11.355-19.855l14.371-9.336c2.899 8.095 7.69 13.768 13.544 18.436l-16.56 10.755z" fill="#fff"/>
  <path fill-rule="evenodd" clip-rule="evenodd" d="M168.737 283.455c1.419.886 5.145 3.132 9.995 3.132.414 0 .769 0 1.301-.059 5.6-.413 9.378-3.701 11.219-5.302l.018-.017c4.673-4.077 11.356-13.59 14.904-24.758 5.087-16.191.947-25.941-3.489-31.318-5.855-7.091-15.555-11.109-24.781-10.282-11.415 1.064-18.394 9.041-20.286 11.464-5.678 7.327-7.63 17.49-5.501 28.718 2.307 12.231 9.108 23.931 16.62 28.422zm9.226-67.658c.769-.059 1.597-.118 2.366-.118 8.162 0 16.442 3.781 21.587 10.104 4.258 5.2 8.28 14.713 3.312 30.49-3.489 10.991-10.054 20.327-14.667 24.346-1.716 1.536-5.382 4.668-10.705 5.081-5.087.414-8.99-1.95-10.646-2.954-7.275-4.373-13.958-15.836-16.206-27.832-2.07-10.99-.177-20.918 5.323-28.008 1.775-2.364 8.576-10.105 19.636-11.109z" fill="#fff"/>
  <path d="M179.442 284.459c7.12 0 12.893-5.767 12.893-12.881 0-7.115-5.773-12.882-12.893-12.882-7.121 0-12.894 5.767-12.894 12.882 0 7.114 5.773 12.881 12.894 12.881zM189.792 217.333h-.119c-.236-.059-.354-.354-.295-.532 1.301-3.9 2.306-7.74 1.123-12.172-.946-3.546-3.726-9.691-8.102-9.927-4.554-.237-7.985 5.85-9.227 9.099-1.419 3.9-.946 7.328.119 12.468.059.237-.119.473-.355.532-.237.059-.473-.118-.532-.354-1.065-5.318-1.597-8.805-.06-12.941 1.302-3.486 5.028-9.986 10.114-9.691 4.909.296 7.925 6.796 8.931 10.577 1.242 4.669.177 8.628-1.183 12.646a.445.445 0 01-.414.295z" fill="#fff"/>
  <path d="M172.404 213.847c1.774-.709 5.441-1.95 10.113-1.477a21.35 21.35 0 017.925 2.54l-.532 1.773a28.834 28.834 0 00-9.108-1.477c-3.194 0-5.796.532-7.748 1.063-.236-.827-.473-1.595-.65-2.422zM.532 411.621c-.177 0-.295-.059-.414-.236-.118-.237-.059-.473.178-.591l261.473-147.548c.237-.118.474-.059.592.177.118.237.059.473-.178.591L.71 411.562c-.06 0-.119.059-.178.059zM281.464 610.045h-.177c-.237-.059-.355-.354-.237-.59 32.648-84.795 68.075-169.766 105.335-252.551a5240.748 5240.748 0 0114.49-31.909c.118-.236.355-.295.592-.236.236.118.295.354.236.591-4.85 10.577-9.699 21.331-14.49 31.908-37.201 82.726-72.628 167.698-105.335 252.492a.444.444 0 01-.414.295zM328.129 68.663c-.06 0-.119 0-.178-.06-.236-.118-.355-.354-.236-.59.709-1.714 4.494-10.4 6.801-14.596.414-.768 1.42-2.54 2.957-2.659.651-.059 1.538.237 2.011.946.71 1.123-.059 2.659-.414 3.427-.296.65-.591 1.24-.887 1.773 2.543-3.9 3.726-5.023 5.145-4.905.71.06 1.42.473 1.775 1.064.828 1.418-.473 3.309-1.479 4.845l-.887 1.36c-1.479 2.245-2.898 4.372-4.377 6.617l-.177.237a.458.458 0 01-.591.118.458.458 0 01-.119-.591l.119-.236.059-.06c1.478-2.245 2.898-4.372 4.376-6.617l.887-1.36c.828-1.24 2.011-3.013 1.479-3.9-.177-.354-.651-.59-1.065-.65-1.064-.118-2.365 1.36-5.145 5.85-.651 1.064-2.661 4.255-3.312 5.437-.237.531-.296.709-.592.709-.118 0-.177-.06-.295-.118-.296-.237-.178-.532.118-1.005l.177-.414a342.82 342.82 0 014.081-8.627c.296-.532.947-1.831.474-2.54-.237-.355-.71-.592-1.242-.532-1.065.059-1.893 1.536-2.248 2.186-2.307 4.136-6.033 12.822-6.742 14.536-.178.236-.296.355-.473.355z" fill="#fff"/>
  <path d="M333.215 81.249a.453.453 0 01-.296-.118.464.464 0 010-.65c5.796-5.91 9.759-9.927 12.716-12.646l.059-.059c.947-.886 3.431-3.19 2.898-4.55-.059-.236-.236-.354-.355-.472-.828-.414-2.661 1.3-4.199 2.659-1.124 1.063-2.247 2.186-3.312 3.427-.177.177-.414.236-.591.059a.458.458 0 01-.119-.59 118.957 118.957 0 014.732-6.619l.296-.414c1.301-1.654 2.543-3.25 2.07-4.077-.119-.236-.414-.473-.71-.473-.946-.177-2.129 1.3-3.963 3.664-1.301 1.714-2.661 3.545-4.14 5.495-.118.178-.414.237-.65.119a.458.458 0 01-.119-.591l.06-.06c1.419-1.95 2.838-3.781 4.14-5.495 2.188-2.836 3.371-4.254 4.849-4.018.592.118 1.124.473 1.361.945.709 1.3-.651 3.014-2.189 5.023l-.295.414c-.533.709-1.065 1.418-1.656 2.186 1.892-1.714 3.489-3.072 4.79-2.423.355.178.651.532.828.946.71 1.89-1.892 4.314-3.134 5.495l-.059.06c-2.958 2.718-6.861 6.736-12.657 12.645-.178.059-.237.118-.355.118z" fill="#fff"/>
  <path d="M333.215 81.249c-.059 0-.178 0-.237-.06l-12.479-7.74c-.177-.118-.237-.355-.177-.532l.414-1.004c1.951-4.728 3.489-8.45 4.435-10.873.296-.827 1.006-2.659 2.484-3.014.533-.118 1.361-.059 1.893.473.887.827.651 2.305.414 3.427a83.952 83.952 0 01-1.479 6.441c-.059.236-.295.355-.532.296-.236-.06-.355-.296-.296-.532a81.119 81.119 0 001.479-6.323c.177-1.123.355-2.127-.177-2.6-.296-.295-.769-.295-1.124-.236-1.065.236-1.597 1.773-1.893 2.423-.946 2.422-2.484 6.204-4.436 10.931l-.295.65 12.124 7.505c.237.118.296.413.118.59.06.119-.118.178-.236.178z" fill="#fff"/>
  <path fill-rule="evenodd" clip-rule="evenodd" d="M451.857 87.749c-15.496-9.691-33.534-20.268-53.998-31.259-21.824-11.7-38.621-19.559-60.741-19.736h-2.779a18.232 18.232 0 01-3.312 7.564c-.355.472-2.839 3.722-6.743 5.495-8.341 3.767-17.4-2.115-18.433-2.786a5.057 5.057 0 00-.079-.05c-6.742 5.081-23.184 19.027-27.738 42.13-2.602 13.001-3.667 40.3 11.119 46.8 9.877 4.314 21.824-2.718 25.609-5.2.71 3.486 3.016 20.209 3.371 24.463 13.662-3.84 27.798-8.213 42.347-13.058a972.234 972.234 0 0036.137-12.882c-3.844-10.281-7.747-20.562-11.651-30.843v-.002c-2.721-7.15-5.442-14.3-8.221-21.45 3.016 1.33 6.047 2.66 9.078 3.989l.005.002c3.03 1.329 6.059 2.658 9.074 3.986 8.191 3.605 16.397 7.194 24.603 10.784 8.206 3.59 16.413 7.18 24.604 10.784 2.543-6.321 5.144-12.524 7.746-18.727l.001-.001.001-.003zm-105.985-19.56c-3.076 2.837-7.216 7.033-12.657 12.646a1402.335 1402.335 0 00-9.011-5.596c-1.152-.712-2.308-1.426-3.468-2.145 2.188-5.259 3.844-9.336 4.849-11.936l.042-.101.035-.086c.318-.785.914-2.259 2.112-2.531.473-.118 1.123 0 1.537.355.71.65.533 1.89.296 3.013a80.224 80.224 0 01-1.478 6.382c.414-1.005 4.376-10.223 6.742-14.595.473-.828 1.36-2.364 2.602-2.423.592-.06 1.301.236 1.597.768.56.895-.047 2.215-.364 2.904l-.05.11c-2.086 4.17-3.298 6.819-3.941 8.223l-.376.818c.545-.992 2.048-3.437 2.902-4.828l.41-.668c3.016-4.845 4.317-6.204 5.559-6.086.532.059 1.124.354 1.42.827.65 1.182-.533 2.955-1.479 4.373a596.39 596.39 0 00-2.661 3.988l-.001.001a596.528 596.528 0 01-2.661 3.988c1.479-2.068 2.898-3.9 4.14-5.495 2.011-2.66 3.194-4.078 4.377-3.841.414.059.828.354 1.064.709.537 1.018-.629 2.57-1.997 4.393l-.428.57a112.6 112.6 0 00-4.672 6.56 38.388 38.388 0 013.312-3.428c1.893-1.714 3.608-3.25 4.673-2.718.414.177.591.59.591.71.646 1.559-1.502 3.658-2.695 4.824-.118.115-.226.22-.321.316zm-11.474-4.194c-.178.295-.237.413-.237.472 0 0 .059-.177.237-.472z" fill="#fff"/>
  <path d="M463.745 105.948c-.237 0-.414-.177-.414-.354a24.24 24.24 0 01-.237-2.068 15.809 15.809 0 010-2.364c-.355.177-.71.296-1.124.473-1.833.65-3.43.827-4.199.827-.532 0-1.064 0-1.597-.059-.236 0-.414-.236-.414-.473 0-.236.237-.413.474-.413.473.059 1.005.059 1.478.059.71 0 2.188-.178 3.904-.768.591-.237 1.182-.473 1.715-.769.118-.059.295-.059.473 0 .118.119.236.237.177.414-.118 1.005-.118 2.009-.059 3.014.059.65.118 1.3.237 1.95.059.236-.119.472-.355.531h-.059z" fill="#fff"/>
  <path d="M459.013 114.457c-.236 0-.473 0-.65-.059a3.276 3.276 0 01-.71-.295c-.355-.237-.71-.473-.946-.768 0 0-.119-.178-.237-.473 0-.059-.237-.532-.237-1.064 0-.945 1.716-2.186 3.845-2.836.236-.059.473.059.532.295.059.237-.059.473-.296.532-2.129.591-3.134 1.655-3.193 1.95 0 .355.177.709.177.709a.83.83 0 00.177.296c.178.177.355.354.651.532 0 0 .237.118.532.236 1.124.295 3.194-.709 3.904-1.182 2.839-1.713 4.258-2.6 4.909-3.841.177-.354.355-1.772.709-3.9.414-2.895.474-4.431-.236-5.909-.178-.295-.296-.532-.414-.709-.296-.472-.71-.886-1.242-1.359-3.076-2.718-6.861-4.313-9.345-5.377l-.887-.355a90.878 90.878 0 01-2.07-.945c-1.952-.886-4.672-2.127-5.441-2.423-.237-.059-.355-.354-.237-.59.059-.237.355-.355.592-.237.769.296 3.43 1.477 5.5 2.423a90.77 90.77 0 002.07.945c.237.118.532.237.887.355 2.366 1.004 6.388 2.718 9.581 5.554.592.532 1.006 1.005 1.361 1.537.118.177.295.472.473.827.887 1.713.828 3.368.355 6.441-.414 2.718-.533 3.722-.769 4.136-.769 1.418-2.248 2.364-5.205 4.136-.473.237-2.484 1.418-4.14 1.418z" fill="#fff"/>
  <path d="M462.917 110.203c-.769 0-1.715-.118-2.839-.355a36.697 36.697 0 01-5.441-1.772c-.355-.119-.592-.237-.769-.296l-.178-.059c-.532-.236-1.064-.473-1.656-.709 0 0-.887-.414-1.597-.709a20.772 20.772 0 01-7.097-5.555c-.177-.177-.118-.472.059-.65.178-.177.473-.118.651.06a19.862 19.862 0 006.742 5.318c.71.354 1.538.709 1.538.709.532.236 1.124.472 1.656.709l.177.059c.178.059.414.177.769.295 1.361.532 3.371 1.3 5.264 1.714 2.366.532 3.963.473 4.554-.236.296-.296.473-.946.355-1.419-.177-.531-.71-.945-1.656-1.359a16.148 16.148 0 01-.946-.354l-.178-.059a16.422 16.422 0 01-1.537-.591c-.947-.414-1.893-.827-2.78-1.3-.473-.236-.947-.532-1.42-.768-.177-.118-.295-.178-.473-.296a.814.814 0 01-.236-.177 14.17 14.17 0 01-1.242-.768.458.458 0 01-.119-.591.46.46 0 01.592-.118c.414.295.828.532 1.242.768a.447.447 0 00.236.118c.119.059.296.177.414.236.473.296.947.532 1.42.769.887.472 1.833.886 2.72 1.3.474.177 1.006.413 1.479.591l.177.059c.296.118.651.236 1.006.354 1.183.532 1.892 1.123 2.129 1.891.296.886-.059 1.773-.532 2.305-.414.59-1.301.886-2.484.886z" fill="#fff"/>
  <path d="M459.013 103.762c-.118 0-.236-.059-.355-.177-.177-.177-.118-.473.06-.65l2.247-1.95c.177-.177.473-.118.651.059.177.177.118.473-.06.65l-2.247 1.95c-.059.118-.177.118-.296.118zM455.346 112.507c-.414 0-.828-.059-1.242-.295-.709-.355-1.301-1.064-1.478-1.773v-.118c-.118-.65.118-1.241.65-1.832.296-.354.769-.768 1.302-1.182.177-.118.473-.118.591.119.118.177.118.472-.118.591-.473.354-.887.709-1.124 1.004-.355.414-.532.827-.473 1.123v.059c.118.414.473.945 1.005 1.182.828.413 1.715.059 2.011-.059.237-.119.473 0 .592.236.118.236 0 .473-.237.591-.237.177-.828.354-1.479.354z" fill="#fff"/>
  <path d="M453.04 110.794h-.059c-.237-.059-.533-.118-.71-.237-.769-.413-1.42-1.181-1.538-1.95v-.177c-.059-.709.355-1.477 1.242-2.245a.423.423 0 01.651.059.422.422 0 01-.059.65c-.651.591-.947 1.123-.947 1.536v.059c.06.414.474 1.005 1.006 1.3.177.059.296.118.473.178.237.059.414.236.355.531 0 .178-.178.296-.414.296z" fill="#fff"/>
  <path d="M453.572 109.198h-.059c-.237-.059-.414-.295-.355-.531.059-.237.296-.414.532-.355.237.059.414.295.355.532-.059.236-.236.354-.473.354zM451.147 108.903c-.118 0-.177 0-.296-.118-.591-.414-1.005-1.064-1.064-1.655-.059-.532.059-1.063.473-1.595a.457.457 0 01.591-.118.457.457 0 01.119.59c-.237.355-.355.65-.296.946.059.354.355.768.71 1.064.177.118.236.413.059.65 0 .177-.118.236-.296.236zM450.201 266.732c-.769 2.069-1.834 4.905-3.135 8.332-1.774-1.004-3.903-.295-4.554 1.123-.769 1.536.119 3.841 2.248 4.491-1.715 4.372-3.371 8.804-5.087 13.177-3.903 10.045-7.807 20.149-11.71 30.195-5.323-4.373-6.802-8.273-7.097-11.05-.414-3.782 1.242-6.264 2.247-15.364.118-1.3.414-3.663-.177-6.559-.533-2.6-1.597-5.613-3.608-9.099.059-.237.177-.473.237-.65.828-2.246 1.715-4.491 2.602-6.796 1.715-1.891 3.489-3.841 5.205-5.731l5.5-6.028c.177-.177.355-.413.532-.591 5.56 1.537 11.178 3.073 16.797 4.55zM373.906 319.795c-2.011.768-4.85 1.891-8.221 3.132-.414-2.009-2.366-3.132-3.904-2.718-1.597.473-2.779 2.659-1.833 4.668-4.377 1.654-8.753 3.25-13.13 4.904-10.054 3.723-20.05 7.446-30.104 11.168-.296-6.972 1.597-10.636 3.489-12.704 2.543-2.836 5.442-3.191 12.834-8.509 1.065-.768 2.958-2.127 4.732-4.491.296-.413 1.36-1.772 2.307-3.782a24.374 24.374 0 001.892-5.849c7.866-.887 15.791-1.714 23.658-2.6 2.72 5.613 5.5 11.227 8.28 16.781zM324.284 26.709c-.236 0-.414-.178-.414-.355-.059-.236.119-.473.355-.532 2.425-.472 4.199-2.659 4.14-5.14 0-.65-.177-1.241-.414-1.773-.059-.118-.059-.177-.118-.237a4.673 4.673 0 00-1.124-1.477c-1.005-.886-2.247-1.359-3.608-1.3-1.774.06-3.43 1.064-4.258 2.66a4.446 4.446 0 00-.532 1.713c-.059.236-.237.413-.473.354-.237-.059-.414-.236-.355-.472.118-.71.295-1.36.65-2.01a5.908 5.908 0 015.027-3.072c1.538-.06 3.076.473 4.2 1.536.532.473 1.005 1.064 1.301 1.714.059.118.118.177.118.295.296.65.473 1.36.473 2.128.119 2.895-1.951 5.495-4.849 6.027-.06-.06-.119-.06-.119-.06z" fill="#fff"/>
  <path d="M291.637 16.19a19.423 19.423 0 006.506-3.781c2.188-1.95 3.489-4.018 4.14-5.377.887 1.536 3.075 4.845 7.215 7.268 4.081 2.422 7.985 2.718 9.759 2.777.237-.295.651-.65 1.183-.945.059-.06.769-.473 1.656-.65 1.833-.414 3.549.354 3.963.59-.06-.354-.178-.827-.296-1.418-.296-1.181-2.307-8.804-9.404-12.35-3.903-1.95-7.511-1.772-8.753-1.713-1.301.059-8.162.473-12.598 6.204-2.898 3.664-3.312 7.623-3.371 9.396z" fill="#fff"/>
  <path d="M305.358 48.04c-.118 0-.236-.059-.355-.177-.177-.177-.118-.473.06-.65 2.07-1.714 4.199-3.368 6.269-5.082l-.296-1.004c-.118-.532-.296-1.064-.414-1.537-.355.06-.71.118-1.065.118-1.123.119-2.188.06-3.252-.118-8.103-1.3-13.958-10.281-14.964-18.259a20.062 20.062 0 010-5.318c.059-.236.237-.413.473-.354.237.059.414.236.355.473a18.752 18.752 0 000 5.14c.947 7.623 6.506 16.25 14.195 17.491 1.005.177 2.011.177 3.016.118l1.419-.177c.237-.06.474.118.533.355.177.65.295 1.3.473 1.95l.355 1.24a.46.46 0 01-.118.473c-2.189 1.773-4.318 3.486-6.506 5.26 0 0-.059.058-.178.058zM335.581 37.463c-.059 0-.059 0 0 0l-6.27-.295a.446.446 0 01-.414-.296l-3.607-10.931c-.059-.237.059-.473.295-.532.237-.06.474.059.533.295l3.489 10.636 5.915.296c.236 0 .414.236.414.472.059.178-.119.355-.355.355z" fill="#fff"/>
  <path d="M319.375 33.622c-.059.178-2.425 4.727-7.688 8.036-.059-.177-.119-.354-.178-.59-.177-.769-.414-1.478-.65-2.187.473-.118.946-.236 1.478-.413 3.253-1.182 5.501-3.191 7.038-4.846zM334.575 185.306c-.059 0-.118 0-.177-.059-.237-.059-.355-.354-.237-.591l.355-.886c1.242-3.309 2.366-6.145 4.436-11.168 2.661-6.441 5.264-12.645 8.043-19.027.119-.236.355-.355.592-.236.236.118.355.354.236.59-2.779 6.323-5.382 12.587-8.043 19.027-2.07 5.023-3.135 7.859-4.436 11.109l-.355.887c-.059.236-.236.354-.414.354z" fill="#fff"/>
  <path d="M336.941 306.618c-.237 0-.414-.177-.414-.354-.118-.828-12.302-83.436-8.28-103.231.118-.472.177-.945.296-1.418.236-1.063.532-2.186.887-3.427 1.005-3.486 2.365-7.386 4.672-13.354-3.726-8.273-6.861-16.9-9.226-25.645-.296-1.182-.651-2.364-.947-3.605-.177-.709-.354-1.359-.473-2.068-.059-.236.119-.473.355-.532.237-.059.473.118.532.355.178.65.355 1.359.474 2.009.295 1.181.591 2.422.946 3.545a177.503 177.503 0 009.285 25.704c.06.118.06.237 0 .355-2.365 6.086-3.726 9.986-4.731 13.472-.355 1.182-.651 2.305-.828 3.368-.118.473-.237.946-.296 1.419-3.608 17.668 6.388 90.939 8.221 102.462l9.167-1.005c6.329-.709 12.716-1.359 19.045-2.068l.946-.118-3.785-66.122c-.178-2.718-.296-5.436-.473-8.154l-.947-16.841c0-.059 0-.177.059-.236a527.61 527.61 0 003.372-5.909v-.059c.177-.237.295-.532.414-.769 0-.059.059-.059.059-.059a285.935 285.935 0 008.043-15.895 232.295 232.295 0 003.785-8.568c5.087-11.995 9.404-22.395 11.119-35.395.178-1.3.296-2.659.414-3.959.119-1.182.178-2.364.237-3.604.059-1.655.118-3.369.118-5.023 0-.236.178-.473.414-.473.237 0 .414.177.473.414 0 1.654 0 3.368-.118 5.082-.059 1.24-.118 2.481-.236 3.663-.119 1.359-.237 2.718-.414 4.018-1.716 13.059-6.151 23.518-11.238 35.573-1.242 3.013-2.484 5.79-3.785 8.627a254.073 254.073 0 01-8.103 16.013s0 .059-.059.059c-.118.236-.236.473-.414.768v.059a254.162 254.162 0 01-3.371 5.85l.946 16.723c.178 2.718.296 5.436.474 8.154l3.785 66.536c0 .236-.178.413-.414.472l-1.361.178c-6.328.709-12.715 1.359-19.044 2.068l-9.581.945c.059 0 .059 0 0 0z" fill="#fff"/>
  <path d="M415.424 282.273a.45.45 0 01-.295-.118 467.56 467.56 0 01-41.874-41.245c-3.903-4.373-7.57-8.45-10.941-12.409-.178-.177-.119-.473.059-.65.177-.177.473-.118.65.059 3.371 3.959 7.038 8.037 10.942 12.409a466.625 466.625 0 0041.459 40.89l1.657-1.831c1.596-1.714 3.134-3.428 4.731-5.2 1.715-1.891 3.489-3.841 5.205-5.732 1.656-1.773 3.253-3.604 4.909-5.377l1.123-1.241c.119-.118.237-.296.355-.414l-6.683-8.095v-.059c-.473-.591-1.006-1.182-1.479-1.773l-8.516-10.281c-14.431-17.491-28.922-34.923-43.353-52.413-.177-.178-.118-.473.06-.65.177-.178.473-.119.65.059 14.431 17.49 28.921 34.922 43.352 52.413l8.517 10.281c.473.591 1.005 1.182 1.479 1.773v.059l6.919 8.332a.534.534 0 010 .591c-.236.236-.414.472-.65.709l-1.124 1.241c-1.656 1.772-3.253 3.604-4.909 5.377-1.715 1.891-3.489 3.841-5.204 5.732-1.597 1.713-3.135 3.427-4.732 5.199l-1.952 2.128c-.118.236-.236.236-.355.236z" fill="#fff"/>
  <path d="M419.505 281.741c-.118 0-.177 0-.236-.059l-2.129-1.595a.458.458 0 01-.119-.591c.119-.177.414-.237.592-.118l2.129 1.595c.177.118.237.414.118.591-.059.118-.236.177-.355.177zM361.722 141.639c.118.236.237.473.237.768.118 1.005-.592 1.95-1.597 2.127a1.953 1.953 0 01-2.129-1.595v-.059l3.489-1.241zM374.911 142.584a1.892 1.892 0 10.002-3.784 1.892 1.892 0 00-.002 3.784zM389.342 136.912c-.059 1.3-.118 2.481-.236 3.604-.651-.236-1.183-.827-1.242-1.536-.178-.946.532-1.891 1.478-2.068zM325.29 159.07c-.355-1.241-.651-2.422-.947-3.545 1.006-.059 1.834.65 2.011 1.655.119.768-.355 1.536-1.064 1.89zM339.248 157.357a1.892 1.892 0 100-3.783 1.892 1.892 0 000 3.783zM354.033 155.407a1.892 1.892 0 10.002-3.784 1.892 1.892 0 00-.002 3.784zM368.819 153.457a1.892 1.892 0 10.002-3.784 1.892 1.892 0 00-.002 3.784zM383.605 151.507a1.893 1.893 0 001.893-1.891 1.893 1.893 0 00-3.785 0c0 1.044.847 1.891 1.892 1.891zM334.102 169.707a1.892 1.892 0 100-3.782 1.892 1.892 0 100 3.782zM348.888 167.757a1.892 1.892 0 100-3.782 1.892 1.892 0 100 3.782zM363.674 165.866a1.892 1.892 0 100-3.783 1.892 1.892 0 000 3.783zM378.46 163.916a1.892 1.892 0 100-3.783 1.892 1.892 0 000 3.783zM342.796 178.688a1.892 1.892 0 10.002-3.784 1.892 1.892 0 00-.002 3.784zM357.582 176.738a1.892 1.892 0 100-3.781 1.892 1.892 0 100 3.781zM372.368 174.788a1.892 1.892 0 100-3.781 1.892 1.892 0 100 3.781zM336.172 191.215a1.892 1.892 0 10.003-3.779 1.892 1.892 0 00-.003 3.779zM350.958 189.265a1.892 1.892 0 100-3.781 1.892 1.892 0 100 3.781zM365.744 187.374a1.892 1.892 0 100-3.781 1.892 1.892 0 100 3.781zM330.376 202.088a1.904 1.904 0 01-1.36-.355c.236-1.122.532-2.245.887-3.368 1.005-.118 1.952.591 2.129 1.596.059 1.063-.651 2.009-1.656 2.127zM344.866 200.197a1.893 1.893 0 001.893-1.891 1.893 1.893 0 00-3.785 0c0 1.044.847 1.891 1.892 1.891zM359.652 198.247a1.892 1.892 0 10.002-3.784 1.892 1.892 0 00-.002 3.784zM374.438 196.297a1.892 1.892 0 10-1.893-1.891c0 1.045.848 1.891 1.893 1.891zM337.414 211.66a1.892 1.892 0 100-3.781 1.892 1.892 0 100 3.781zM352.141 209.711a1.892 1.892 0 100-3.783 1.892 1.892 0 000 3.783zM366.927 207.761a1.892 1.892 0 100-3.783 1.892 1.892 0 000 3.783zM381.713 205.87a1.892 1.892 0 100-3.783 1.892 1.892 0 000 3.783zM331.322 222.533a1.892 1.892 0 10.002-3.784 1.892 1.892 0 00-.002 3.784zM346.108 220.583a1.892 1.892 0 10.002-3.784 1.892 1.892 0 00-.002 3.784zM360.835 218.692a1.892 1.892 0 10-1.893-1.891c0 1.045.848 1.891 1.893 1.891zM375.621 216.742a1.891 1.891 0 100-3.782 1.892 1.892 0 100 3.782zM390.407 214.792a1.891 1.891 0 100-3.782 1.892 1.892 0 100 3.782zM339.484 233.169a1.892 1.892 0 10.003-3.779 1.892 1.892 0 00-.003 3.779zM354.27 231.219a1.892 1.892 0 100-3.781 1.892 1.892 0 100 3.781zM369.056 229.269a1.892 1.892 0 100-3.781 1.892 1.892 0 100 3.781zM383.842 227.378a1.89 1.89 0 100-3.781 1.892 1.892 0 100 3.781zM398.628 225.428a1.89 1.89 0 100-3.781 1.891 1.891 0 100 3.781zM333.392 244.042a1.892 1.892 0 10.002-3.784 1.892 1.892 0 00-.002 3.784zM348.178 242.092a1.893 1.893 0 001.893-1.891 1.893 1.893 0 00-3.785 0c0 1.044.847 1.891 1.892 1.891zM363.378 240.142h-.177a1.952 1.952 0 01-2.129-1.596c-.119-1.004.591-1.95 1.596-2.127h.414c.119 1.241.237 2.482.296 3.723zM377.75 238.251a1.893 1.893 0 001.893-1.891 1.893 1.893 0 00-3.786 0c0 1.044.848 1.891 1.893 1.891zM392.536 236.301a1.892 1.892 0 100-3.783 1.892 1.892 0 000 3.783zM407.322 234.351a1.891 1.891 0 100-3.782 1.892 1.892 0 100 3.782zM343.033 254.501a1.892 1.892 0 100-3.783 1.892 1.892 0 000 3.783zM357.819 252.551a1.892 1.892 0 100-3.783 1.892 1.892 0 000 3.783zM387.39 248.651a1.892 1.892 0 10.002-3.784 1.892 1.892 0 00-.002 3.784zM402.176 246.76a1.892 1.892 0 10.002-3.784 1.892 1.892 0 00-.002 3.784zM418.796 243.155c-.119.828-.769 1.537-1.597 1.655a1.953 1.953 0 01-2.129-1.595c-.119-1.005.591-1.95 1.597-2.128h.354c.592.65 1.183 1.359 1.775 2.068zM336.941 265.373a1.892 1.892 0 100-3.781 1.892 1.892 0 100 3.781zM351.727 263.423a1.891 1.891 0 100-3.781 1.892 1.892 0 100 3.781zM396.084 257.633a1.892 1.892 0 10.002-3.784 1.892 1.892 0 00-.002 3.784zM410.87 255.683a1.892 1.892 0 10.002-3.784 1.892 1.892 0 00-.002 3.784zM427.017 253.083c-.296.354-.71.531-1.183.65a1.952 1.952 0 01-2.129-1.596c-.119-.768.295-1.477.887-1.832.887.887 1.656 1.832 2.425 2.778zM345.103 276.01a1.892 1.892 0 100-3.783 1.892 1.892 0 000 3.783zM359.889 274.06a1.892 1.892 0 100-3.783 1.892 1.892 0 000 3.783zM404.246 268.269a1.892 1.892 0 10.002-3.784 1.892 1.892 0 00-.002 3.784zM419.032 266.319a1.893 1.893 0 001.893-1.891 1.893 1.893 0 00-3.785 0c0 1.044.847 1.891 1.892 1.891zM433.996 261.473c-.237.237-.414.473-.651.709-.177.178-.355.414-.532.591-.178.237-.414.414-.592.65-.118-.236-.236-.472-.236-.709-.119-.945.473-1.832 1.36-2.068.177.296.414.532.651.827zM339.011 286.882a1.892 1.892 0 10-1.893-1.891c0 1.045.848 1.891 1.893 1.891zM353.797 284.932a1.891 1.891 0 100-3.782 1.892 1.892 0 100 3.782zM412.94 277.191a1.891 1.891 0 10-1.892-1.891c0 1.045.847 1.891 1.892 1.891zM347.528 297.577a1.89 1.89 0 100-3.781 1.891 1.891 0 100 3.781zM362.314 295.627a1.89 1.89 0 100-3.781 1.891 1.891 0 100 3.781z" fill="#fff"/>
</svg>
