<svg width="431" height="485" fill="none" xmlns="http://www.w3.org/2000/svg"><path d="M41.645 375.717c-.063 0-.186 0-.248-.062l-10.35-5.888c-.247-.123-.31-.433-.185-.619.124-.248.434-.31.62-.186l10.348 5.887c.248.124.31.434.186.62-.062.186-.186.248-.371.248zM.496 460.99c-.186 0-.31-.062-.372-.248-.123-.248-.061-.496.186-.62l10.163-6.197c.248-.124.496-.062.62.186s.062.496-.186.62L.744 460.928c-.062.062-.124.062-.248.062zM412.037 167.684c-.124 0-.31-.062-.372-.186l-7.127-9.543c-.123-.186-.123-.496.124-.62.186-.124.496-.124.62.124l7.127 9.544c.124.186.124.495-.124.619-.062 0-.186.062-.248.062zM429.698 273.901a.478.478 0 01-.31-.123l-8.614-8.243a.485.485 0 010-.681.487.487 0 01.682 0l8.614 8.242a.487.487 0 010 .682c-.124.061-.248.123-.372.123zM190.124 453.677c-.124 0-.248-.061-.372-.123l-8.056-8.738a.487.487 0 010-.682.487.487 0 01.682 0l8.056 8.738a.487.487 0 010 .682.473.473 0 01-.31.123z" fill="#000"/><path d="M365.214 247.052c-2.415-10.59-4.954-18.146-7.307-21.8-4.025-6.255-9.288-9.414-9.288-9.414-4.644-2.849-9.227-3.592-12.075-3.84v-3.282h-21.302v3.22a38.986 38.986 0 00-6.873 2.106 27.4 27.4 0 00-2.044.929c-9.474 4.831-30.961 31.71-32.881 33.506-6.749-8.609-13.437-17.218-20.187-25.888l-.123-.124c-3.778 3.406-7.555 6.874-11.332 10.281-.434.371-.867.805-1.301 1.177 2.353 4.087 6.069 10.157 11.456 16.845 9.165 11.396 17.153 21.367 25.327 20.067 5.201-.867 9.288-6.008 13.623-11.396 2.662-3.282 4.396-6.379 5.511-8.547-.062 5.45-.124 10.963-.31 16.537-.371 13.377-1.114 26.383-2.043 38.894.929-.124 1.795-.186 2.724-.31-5.387 34.002-10.712 68.065-16.1 102.066-12.322 10.034-26.379 17.218-42.355 19.571-2.229.31-47.371 6.503-70.159-19.199-17.834-20.128-14.8-51.529-26.317-52.953a47.93 47.93 0 01-4.087-.619l-1.115-.186c-5.821-1.115-13.375-3.283-18.329-7.556-.372-.31-.681-.619-.991-.929a14.622 14.622 0 01-1.548-1.858c-6.254-8.733-33.624 13.749-62.232 3.654-22.479-7.928-37.092-32.825-40.994-50.724-14.18-65.835 91.523-159.974 201.065-188.587 25.202-6.565 75.979-19.88 115.053-8.485 1.176.31 2.291.682 3.405 1.053a84.572 84.572 0 019.103 3.654l3.344 1.672c6.254 3.407 11.951 7.68 16.905 13.13 27.865 30.595 18.329 81.133 3.777 127.335z" fill="#00BE75"/><path d="M341.126 104.977c-26.999 19.695-67.187 57.103-123.537 128.141-35.048 44.158-60.251 83.3-78.332 116.744-.929 1.672-1.796 3.344-2.663 4.955-43.346 81.938-43.408 128.078-43.408 128.078l-37.587-13.873c15.976-38.523 36.1-79.956 61.675-122.752 0-.062.062-.062.062-.124.805-1.362 1.61-2.725 2.477-4.088 65.576-108.445 143.042-187.1 208.804-241.85 1.177.31 2.292.682 3.406 1.053 3.096 1.053 6.193 2.292 9.103 3.716z" fill="#00BE75"/><path fill-rule="evenodd" clip-rule="evenodd" d="M93 483.329h.186c.062 0 .186-.062.31-.124s.186-.248.186-.372.062-11.767 5.449-33.258c8.979-35.921 25.574-71.223 37.897-94.572.301-.559.601-1.125.905-1.696.571-1.075 1.151-2.167 1.758-3.259 20.31-37.594 46.69-76.797 78.27-116.621 47.557-60.013 89.108-103.119 123.475-128.078a.562.562 0 00.186-.433.419.419 0 00-.248-.372c-2.848-1.425-5.945-2.663-9.165-3.716a106.423 106.423 0 00-3.467-1.053c-.186-.062-.31-.062-.434.062-83.658 69.675-153.94 151.056-208.866 241.974-.867 1.362-1.672 2.725-2.477 4.087l-.062.124c-23.407 39.142-44.213 80.452-61.737 122.814a.396.396 0 000 .372.484.484 0 00.247.248l37.588 13.873zm-.309-1.177l-36.535-13.44c17.525-42.114 38.207-83.238 61.428-122.194l.062-.062-.372-.248.434.186c.402-.681.82-1.363 1.238-2.044.418-.681.836-1.362 1.239-2.044 54.864-90.732 125.023-172.051 208.557-241.664 1.052.31 2.105.619 3.158.991a84.102 84.102 0 018.359 3.344c-34.305 25.083-75.67 68.065-123.041 127.769-31.642 39.885-58.022 79.151-78.394 116.807-.607 1.091-1.187 2.183-1.758 3.258-.303.571-.604 1.137-.905 1.696-40.188 75.869-43.222 121.699-43.47 127.645z" fill="#000"/><path d="M263.599 159.788a.522.522 0 01-.434-.248c-5.821-12.448-9.907-25.268-12.137-38.027-1.052-6.193-1.919-13.253-2.415-20.995 0-.248.186-.496.434-.496.247 0 .495.186.495.434.496 7.742 1.301 14.74 2.415 20.933 2.229 12.759 6.254 25.455 12.075 37.842.124.248 0 .495-.248.619-.061-.062-.123-.062-.185-.062zM186.443 246.309c-.186 0-.31-.062-.434-.248a430.01 430.01 0 01-30.899-74.258c-3.778-12.139-6.998-24.649-9.66-37.098-.062-.248.123-.495.371-.557.248-.062.495.124.557.371 2.663 12.449 5.883 24.898 9.598 36.975 7.865 25.516 18.268 50.475 30.838 74.072.124.248.062.495-.186.619-.062.124-.123.124-.185.124zM271.277 170.255c-.247 0-.433-.186-.433-.371-.062-.248.124-.496.372-.496.619-.062 61.365-8.485 104.526-23.349.247-.062.495.062.619.31.062.248-.062.495-.31.619-43.222 14.864-104.092 23.287-104.712 23.349 0-.062 0-.062-.062-.062zM146.626 300.625c-.248 0-23.159-.929-49.786-8.361-24.646-6.813-57.589-20.686-74.741-47.999-.124-.247-.062-.495.123-.619a.48.48 0 01.62.124c9.35 14.926 29.847 35.364 74.183 47.627 26.566 7.37 49.353 8.299 49.539 8.299.248 0 .433.247.433.495.062.248-.123.434-.371.434zM203.657 258.076c-3.096 0-4.83-.062-4.892-.062-.247 0-.433-.247-.433-.495s.186-.434.433-.434c.248 0 24.398.434 56.908-1.981 13.994-1.053 27.556-2.478 40.436-4.274h.185c25.017-3.468 47.31-8.299 66.196-14.245 2.044-.619 4.087-1.3 6.254-2.043.248-.062.496.062.62.309.061.248-.062.496-.31.62a181.76 181.76 0 01-6.254 2.043c-18.949 6.008-41.303 10.839-66.382 14.307h-.186c-12.88 1.796-26.503 3.221-40.497 4.273-23.965 1.735-43.408 1.982-52.078 1.982zM273.569 369.805c-9.97 0-20.001-1.239-29.847-3.778-14.986-3.778-29.785-10.405-43.904-19.757-24.15-15.855-38.33-34.249-38.454-34.435-.186-.186-.124-.495.062-.681a.562.562 0 01.681.062c.124.185 14.243 18.456 38.269 34.249 14.056 9.29 28.794 15.855 43.655 19.633 18.577 4.707 37.526 4.954 56.289.743.247-.062.495.124.557.372.062.247-.124.495-.372.557-9.041 1.982-18.019 3.035-26.936 3.035z" fill="#000"/><path d="M327.193 327.938c.372 5.264.681 10.466 1.053 15.731a275.7 275.7 0 01-9.041 16.784c2.725-10.839 5.325-21.677 7.988-32.515z" fill="#00BE75"/><path d="M130.341 85.654c.371 11.83 3.901 19.633 8.298 20.252 2.6.372 5.696-1.734 6.44-4.273 1.362-4.398-4.149-11.087-14.738-15.98z" fill="#000"/><path fill-rule="evenodd" clip-rule="evenodd" d="M244.898 21.181c.186.062.434.062.619.062 2.663 0 5.635-2.106 6.378-4.707 1.425-4.955-4.768-11.705-15.109-16.474-.124-.062-.309 0-.433.062s-.186.186-.186.371c.372 11.706 3.839 20.005 8.731 20.686zm.186-.867c-4.273-.62-7.493-8.423-7.926-19.075 10.527 5.016 14.923 11.333 13.871 15.111-.682 2.292-3.654 4.274-5.945 3.964z" fill="#000"/><path d="M115.355 166.787c.372 11.829 3.902 19.633 8.298 20.252 2.601.371 5.697-1.734 6.44-4.274 1.362-4.397-4.149-11.086-14.738-15.978z" fill="#000"/><path fill-rule="evenodd" clip-rule="evenodd" d="M59.5 163.133c.187.062.434.062.62.062 2.663 0 5.573-2.106 6.316-4.645 1.424-4.955-4.706-11.768-15.047-16.537-.124-.061-.31 0-.434.062-.123.062-.185.186-.185.372.371 11.705 3.839 20.004 8.73 20.686zm.124-.867c-4.272-.62-7.492-8.423-7.926-19.076 10.59 5.017 14.986 11.334 13.871 15.112-.681 2.291-3.653 4.273-5.945 3.964z" fill="#000"/><path d="M62.844 80.142c.371 11.829 3.9 19.633 8.297 20.252 2.601.371 5.697-1.734 6.44-4.274 1.363-4.397-4.087-11.086-14.737-15.978zM62.844 7.68c.371 11.829 3.9 19.633 8.297 20.252 2.601.372 5.697-1.734 6.44-4.273 1.363-4.398-4.087-11.087-14.737-15.98zM195.235 100.208c.372 11.83 3.902 19.633 8.298 20.253 2.601.371 5.697-1.734 6.44-4.274 1.362-4.397-4.149-11.086-14.738-15.979zM183.78 162.699c.372 11.83 3.901 19.633 8.298 20.252 2.601.372 5.697-1.734 6.44-4.273 1.362-4.397-4.149-11.086-14.738-15.979z" fill="#000"/><path fill-rule="evenodd" clip-rule="evenodd" d="M284.591 100.828c.185.061.433.061.619.061 2.662 0 5.573-2.105 6.316-4.644 1.424-4.955-4.706-11.768-15.047-16.537-.124-.062-.31 0-.434.062s-.186.186-.186.372c.372 11.705 3.84 20.004 8.732 20.686zm.123-.868c-4.272-.619-7.492-8.422-7.926-19.075 10.527 5.017 14.986 11.334 13.871 15.112-.681 2.291-3.653 4.273-5.945 3.963z" fill="#000"/><path d="M213.998 40.442c.372 11.83 3.901 19.633 8.298 20.253 2.601.371 5.697-1.734 6.44-4.274 1.362-4.397-4.149-11.086-14.738-15.979zM289.235 26.879c.372 11.83 3.902 19.633 8.298 20.252 2.601.372 5.697-1.734 6.44-4.273 1.3-4.397-4.149-11.086-14.738-15.98z" fill="#000"/><path fill-rule="evenodd" clip-rule="evenodd" d="M150.59 41.495c.185.063.433.063.619.063 2.662 0 5.573-2.168 6.316-4.645 1.424-4.955-4.706-11.768-15.047-16.537-.124-.062-.31 0-.434.062s-.186.186-.186.372c.372 11.705 3.84 20.004 8.732 20.686zm.123-.928c-4.272-.62-7.492-8.423-7.926-19.076 10.527 5.079 14.986 11.396 13.871 15.112-.681 2.291-3.653 4.273-5.945 3.963z" fill="#000"/><path d="M365.833 297.899c-.186 0-.31-.061-.433-.247l-2.292-4.521c-.123-.248 0-.496.186-.62.248-.124.496 0 .619.186l2.292 4.521c.123.248 0 .496-.186.62 0 0-.062.061-.186.061zM350.848 297.342c-.186 0-.31-.062-.434-.248l-1.672-3.282c-.124-.248 0-.496.186-.62.248-.123.495 0 .619.186l1.672 3.283c.124.247 0 .495-.186.619 0 .062-.062.062-.185.062zM365.214 308.924c-.186 0-.31-.062-.433-.248l-1.858-3.654c-.124-.248 0-.496.186-.62.247-.123.495 0 .619.186l1.858 3.654c.123.248 0 .496-.186.62-.062 0-.124.062-.186.062zM364.037 284.212c-.186 0-.309-.061-.433-.247l-2.291-4.521c-.124-.248 0-.496.185-.62.248-.124.496 0 .62.186l2.291 4.521c.124.248 0 .496-.186.62-.062.061-.124.061-.186.061zM370.106 274.613c-.062 0-.186 0-.248-.062l-.867-.558a.48.48 0 01-.124-.619c.124-.186.434-.248.619-.124l.867.557a.48.48 0 01.124.62c-.124.062-.248.186-.371.186zM367.382 288.176a.424.424 0 01-.434-.433c0-.248.186-.496.434-.496l4.396-.372c.248 0 .496.186.496.434s-.186.495-.434.495l-4.458.372zM356.111 290.034c-.186 0-.372-.124-.433-.372l-1.61-6.069c-.062-.248.061-.496.309-.558.248-.062.496.062.557.31l1.61 6.069c.062.248-.061.496-.309.558-.062 0-.062.062-.124.062zM373.203 301.182c-.062 0-.186 0-.248-.062l-1.672-1.115c-.186-.123-.248-.433-.124-.619s.434-.248.619-.124l1.672 1.115c.186.124.248.434.124.619-.062.124-.248.186-.371.186zM366.763 254.918c-.062 0-.186 0-.248-.062l-2.044-1.363a.48.48 0 01-.123-.619c.123-.186.433-.248.619-.124l2.043 1.363c.186.123.248.433.124.619-.062.062-.186.186-.371.186zM357.35 311.587h-.124c-.248-.062-.372-.31-.31-.558l.31-.991c.062-.247.309-.371.557-.309.248.062.372.309.31.557l-.31.991c-.062.124-.248.31-.433.31zM362.985 270.03h-.123c-.248-.062-.372-.31-.31-.558l1.362-4.831c.062-.247.31-.371.558-.309.247.062.371.309.309.557l-1.362 4.831a.466.466 0 01-.434.31zM357.659 300.439h-.124c-.247-.062-.371-.31-.309-.558l1.362-4.83c.062-.248.31-.372.557-.31.248.062.372.31.31.557l-1.362 4.831c0 .186-.186.31-.434.31zM353.572 300.439a.424.424 0 01-.433-.434l-1.115-59.27c0-.248.186-.496.434-.496s.495.186.495.434l1.115 59.27c0 .248-.248.496-.496.496z" fill="#000"/><path d="M365.214 247.052c-3.839 12.201-8.05 24.092-11.951 35.24-.124.434-.309.805-.433 1.239-1.796 5.017-3.839 10.838-6.192 17.217-16.658 1.796-33.253 3.593-49.91 5.389-.929.123-1.796.185-2.725.309.991-12.51 1.672-25.516 2.043-38.894.186-5.574.248-11.086.31-16.536a51.167 51.167 0 01-5.511 8.547c-4.335 5.388-8.422 10.59-13.623 11.395-8.236 1.363-16.224-8.608-25.327-20.066-5.387-6.689-9.102-12.758-11.456-16.846.434-.372.867-.805 1.301-1.177 3.777-3.406 7.554-6.874 11.332-10.281l.124.124c6.749 8.609 13.437 17.218 20.187 25.888 1.919-1.858 23.406-28.675 32.881-33.506.743-.371 1.362-.681 2.043-.929 2.477-.99 4.768-1.672 6.874-2.105v-3.345h21.363v3.221c2.849.248 7.431.991 12.075 3.84 0 0 5.264 3.22 9.289 9.414 2.353 3.716 4.891 11.272 7.306 21.862z" fill="#000"/><path d="M353.82 312.763c-.124 0-.186 0-.248-.062-.123-.062-.185-.247-.185-.371l-.248-11.829-6.502.681c-.248 0-.495-.186-.495-.434 0-.247.185-.495.433-.495l6.997-.743c.124 0 .248 0 .372.123.124.124.186.186.186.31l.247 11.706 18.887-6.38c-1.92-22.234-4.892-42.858-8.36-58.093-.062-.248.124-.496.372-.558.248-.061.495.124.557.372 3.53 15.36 6.502 36.169 8.422 58.589 0 .186-.124.434-.31.496l-19.815 6.75c-.186-.062-.248-.062-.31-.062zM248.427 220.731a.489.489 0 01-.495-.496c.062-4.893.062-9.042.124-12.263v-3.344c0-.805 0-2.911-.867-3.345a1.127 1.127 0 00-.991.062c-.743.434-.681 2.044-.681 3.097v.124c.062 2.539 0 5.264-.31 8.175.124 1.858.186 2.168-.371 2.23-.124 0-.248-.062-.372-.124-.185-.186-.185-.248-.185-1.982v-.124c-.062-.681-.124-1.486-.186-2.353-.124-1.177-.248-2.168-.248-2.416-.31-2.477-.805-6.565-2.229-6.936-.496-.124-.929.186-.929.247-.805.62-.433 2.54-.124 4.274l.062.371c.495 2.664.805 5.513.991 8.423 0 .248-.186.496-.434.496-.247 0-.495-.186-.495-.434-.186-2.849-.557-5.636-.991-8.299l-.062-.371c-.371-2.044-.743-4.212.496-5.141.062-.062.805-.619 1.734-.371 1.857.433 2.415 3.778 2.848 6.75v-2.415c-.062-1.239-.124-3.159 1.115-3.902.557-.31 1.3-.371 1.919-.124 1.424.682 1.363 3.035 1.363 4.212v3.344c0 3.221-.062 7.37-.124 12.263-.124.124-.31.372-.558.372z" fill="#000"/><path d="M241.802 233.303a.474.474 0 01-.31-.124c-1.176-1.114-2.167-2.415-3.034-3.716a47.854 47.854 0 01-1.734-3.034c-.743-1.549-1.053-2.601-1.672-4.583-.186-.558-.309-1.177-.557-1.858l-.434-1.425c-.866-2.973-1.362-4.583-1.61-5.14-.185-.496-.371-.929-.557-1.363-.805-2.106-1.362-3.53-.557-4.583.371-.495 1.053-.929 1.796-.867 1.114.124 1.61 1.301 2.6 3.592.186.434.372.929.62 1.487.062.123.062.185.123.309a65.204 65.204 0 00-.99-3.716l-.062-.248c-.496-1.672-1.053-3.468-.062-4.583.371-.433 1.053-.929 1.858-.805 1.238.186 1.857 1.734 2.848 5.327a109.886 109.886 0 011.486 6.131c.062.248-.124.495-.371.557-.248.062-.496-.124-.558-.371a96.319 96.319 0 00-1.486-6.07c-.929-3.282-1.486-4.583-2.105-4.645-.372-.062-.743.186-.991.496-.681.805-.186 2.291.248 3.716l.062.247c.743 2.354 1.362 4.955 1.857 7.618.062.248-.062.434-.309.496-.248.062-.434 0-.558-.248a224.666 224.666 0 01-1.857-3.84c-.248-.557-.434-1.053-.62-1.486-.805-1.858-1.238-2.973-1.857-3.035-.372-.062-.743.248-.991.495-.495.682 0 1.858.681 3.716.186.434.372.868.557 1.425.248.557.682 2.106 1.61 5.202l.434 1.425c.248.743.371 1.362.557 1.858.558 1.982.867 2.973 1.61 4.459a27.338 27.338 0 001.672 2.911c.867 1.239 1.796 2.477 2.911 3.53a.487.487 0 010 .681s-.124.062-.248.062zM242.916 224.508c-.062 0-.124 0-.247-.061-.248-.124-.31-.434-.186-.62.557-1.053 1.362-1.92 2.291-2.601 1.177-.867 2.353-1.239 3.22-1.363.495-1.796.991-3.592 1.548-5.574.248-.99.681-2.291 1.796-2.725.619-.247 1.362-.123 1.858.186.99.62 1.052 1.982 1.052 3.53a74.21 74.21 0 01-.619 7.494c-.062.248-.248.434-.495.372-.248-.062-.434-.248-.372-.496.372-2.787.557-5.202.557-7.37 0-1.238 0-2.353-.619-2.725a1.255 1.255 0 00-1.053-.124c-.681.248-.99 1.239-1.238 2.106-.619 2.106-1.115 4.026-1.61 5.884-.062.186-.186.31-.372.31-.805.123-1.981.433-3.096 1.238a7.19 7.19 0 00-2.043 2.292c-.062.186-.248.247-.372.247z" fill="#000"/><path d="M236.476 217.448a.478.478 0 01-.309-.123.564.564 0 01-.062-.682c.743-.867 2.848-2.787 6.006-2.911 1.301-.062 2.601.248 3.778.806.247.123.309.371.247.619-.123.248-.371.31-.619.248-1.053-.496-2.229-.744-3.344-.682-2.786.124-4.644 1.858-5.325 2.602-.124.061-.248.123-.372.123zM337.907 199.921c-.743 1.362-1.672 2.353-2.353 3.035-.371-1.301-.743-2.602-1.052-3.84.247-.372 1.114-1.672.866-3.407-.061-.309-.371-2.415-2.105-3.282-1.053-.496-2.043-.31-2.415-.186-1.672.434-3.034 2.106-3.406 4.212v.062l-1.61-.062-.743-7.928c-.557.124-1.362.186-2.353.124-1.486-.124-2.539-.557-3.158-.805-.991-.434-2.663-1.239-4.149-2.849-.433-.496-.805-.929-.991-1.239 3.406-4.583 8.67-6.874 13.562-6.007 4.953.867 7.678 4.707 8.607 6.007 3.158 4.521 4.025 11.148 1.3 16.165z" fill="#000"/><path d="M332.643 200.478a.423.423 0 01-.433-.433c0-.248.186-.496.433-.496.31 0 .867-.062 1.363-.433.557-.372.805-.929.867-1.177.062-.248.371-.372.619-.248.248.062.371.372.248.62-.124.371-.496 1.052-1.239 1.61a3.81 3.81 0 01-1.858.557zM327.071 197.444a.423.423 0 01-.433-.434c0-.248 0-.557.062-.805.062-.372.123-.805.309-1.115.124-.247.372-.371.619-.247.248.123.372.371.248.619-.124.31-.186.619-.248.929 0 .248-.061.433 0 .681-.061.124-.247.372-.557.372zM335.554 209.211c-.248 0-.495-.248-.495-.495l.062-2.168.185-4.831c0-.248.248-.433.496-.433.247 0 .433.247.433.495l-.186 4.831-.062 2.168c.062.247-.185.433-.433.433zM317.906 209.211a.488.488 0 01-.495-.495c0-.867 0-1.734.062-2.601-1.796-.31-4.706-1.115-6.688-3.593-3.963-4.83-1.115-11.829-.186-13.873.867-1.858 2.168-3.654 3.654-5.202a.485.485 0 01.681 0 .485.485 0 010 .681c-1.486 1.487-2.663 3.221-3.53 4.955-.929 1.92-3.529 8.485.062 12.882 1.982 2.415 4.954 3.097 6.502 3.283.248 0 .434.247.434.495 0 .991-.062 2.044-.062 3.035a.424.424 0 01-.434.433z" fill="#000"/><path d="M328.866 205.248a362.122 362.122 0 00-6.874 3.592c-1.424 0-2.786-.062-4.21-.062v-1.672c0-.62 0-1.177-.062-1.735.124 0 .309.062.495.062 0 0 1.672.248 3.158.31 1.362.124 4.025 0 7.493-.495zM346.577 300.748c-4.768 12.758-10.775 27.746-18.329 42.92-.372-5.264-.681-10.467-1.053-15.731-2.663 10.838-5.325 21.677-7.926 32.515-10.465 18.022-23.221 35.178-38.64 47.751 5.387-34.002 10.713-68.065 16.1-102.067 16.471-1.796 32.943-3.592 49.415-5.326.123-.062.309-.062.433-.062z" fill="#000"/><path fill-rule="evenodd" clip-rule="evenodd" d="M280.381 408.574c.061.062.185.062.247.062s.186 0 .31-.123c13.871-11.272 26.874-27.375 38.764-47.875.062-.062.062-.062.062-.124 1.207-4.924 2.415-9.863 3.622-14.802 1.208-4.939 2.415-9.878 3.623-14.802l.867 12.758c0 .248.185.372.371.434s.372-.062.495-.248c6.255-12.634 12.261-26.693 18.33-42.982a.38.38 0 00-.062-.433.563.563 0 00-.434-.186l-49.91 5.388c-.247 0-.371.186-.433.372l-16.1 102.066c0 .186.062.372.248.495zm.866-1.486L297.1 306.57l48.795-5.326c-5.697 15.297-11.394 28.613-17.276 40.628l-.929-13.997a.423.423 0 00-.434-.433c-.247 0-.433.124-.495.371a8445.206 8445.206 0 00-3.963 16.227 8444.421 8444.421 0 01-3.963 16.226c-11.58 19.943-24.212 35.674-37.588 46.822z" fill="#000"/><path d="M334.501 436.135c-.124 0-.186-.062-.309-.124a.341.341 0 01-.186-.31l-6.193-92.033c0-.248.186-.495.434-.495s.495.186.495.433l6.193 91.6c2.972-.31 18.824-1.982 21.673-2.292l-1.053-121.389c0-.248.186-.496.433-.496.248 0 .434.186.496.434l1.053 121.761c0 .248-.186.433-.434.495-.619.124-22.416 2.416-22.602 2.416zM301.063 435.268h-.062c-.434-.062-9.784-1.363-16.719-2.354l-7.369-1.053a.341.341 0 01-.31-.186c-.062-.123-.124-.247-.062-.371l3.654-23.225c.062-.248.247-.434.557-.372.248.062.434.248.372.558l-3.592 22.729 6.935.991c6.193.867 14.367 2.044 16.348 2.292l18.082-73.949c.062-.248.309-.371.557-.371.248.061.372.309.372.557l-18.206 74.382c-.124.248-.309.372-.557.372z" fill="#000"/><path d="M291.774 433.967h-.123c-.248-.062-.372-.31-.31-.557l13.747-54.068c.062-.248.31-.372.557-.31.248.062.372.31.31.558l-13.747 54.067c-.062.124-.248.31-.434.31zM339.765 435.577a.423.423 0 01-.434-.433l-5.944-103.181c0-.248.185-.496.433-.496s.496.186.496.434l5.882 103.181c0 .31-.186.495-.433.495zM360.447 328.495h-.062c-.805-.062-1.424-.743-1.734-1.301-.681-1.3.062-2.601.867-3.902.805-1.3 1.672-2.787 1.548-4.707 0-.557-.124-.805-.248-1.3-.186-.62-.495-1.549-.867-3.592a31.615 31.615 0 01-.557-3.345c-.062-.247.124-.495.372-.495.247-.062.495.124.495.371a28.1 28.1 0 00.557 3.283c.372 1.982.681 2.911.867 3.468.186.558.31.867.31 1.549.124 2.229-.867 3.901-1.672 5.264-.805 1.362-1.239 2.168-.805 2.973.186.371.619.805.991.805h.062c1.362 0 3.281-4.212 3.777-8.237.062-.744.124-1.487.124-2.23 0-.248.185-.495.433-.495s.496.185.496.433c0 .805 0 1.61-.124 2.354-.558 3.778-2.477 9.104-4.83 9.104z" fill="#000"/><path d="M363.976 331.405c-.247 0-.619-.061-.929-.185-1.238-.62-1.733-2.54-1.176-4.645.062-.248.31-.372.557-.31.248.062.372.31.31.557-.496 1.858 0 3.221.743 3.531.433.185.929.062.929.062 1.052-.372 1.424-2.416 1.61-3.469a90.852 90.852 0 001.052-10.033c0-.248.248-.434.496-.434s.433.248.433.496a94.963 94.963 0 01-1.052 10.157c-.31 1.796-.743 3.716-2.23 4.212-.123-.062-.371.061-.743.061z" fill="#000"/><path d="M366.639 332.892c-.309 0-.681-.062-1.052-.248-.805-.433-1.177-1.3-1.301-1.734-.062-.248.062-.495.31-.557.248-.062.495.062.557.309.062.31.31.929.805 1.177.434.248.867.124.867.124.248-.062 1.362-.495 2.167-5.884.434-2.849.558-5.821.372-8.794 0-.248.186-.496.433-.496.248 0 .496.186.496.434a43.224 43.224 0 01-.372 8.98c-.619 4.274-1.61 6.441-2.91 6.689 0-.062-.186 0-.372 0z" fill="#000"/><path d="M369.797 332.397c-.496 0-.867-.186-.929-.186a2.657 2.657 0 01-.991-.867.48.48 0 01.124-.62c.186-.123.495-.062.619.124s.31.434.619.558c0 0 .434.185.867.062.31-.062 1.424-.806 1.734-6.07a45.81 45.81 0 00-.124-7.742c-.248-2.539-.619-5.078-1.176-7.617-.062-.248.123-.496.371-.558.248-.062.496.124.557.372.558 2.539.929 5.14 1.177 7.742.248 2.601.31 5.078.124 7.865-.248 4.273-1.053 6.503-2.415 6.875-.186.062-.372.062-.557.062z" fill="#000"/><path d="M373.079 322.054c-.31 0-.619-.062-.867-.186s-.31-.434-.186-.62c.124-.247.434-.309.619-.185.248.123.743.123 1.053-.062.681-.434.557-2.354-.248-6.132a63.626 63.626 0 00-2.415-8.299c-.062-.248.062-.495.31-.619.248-.062.495.062.619.31.991 2.787 1.796 5.512 2.415 8.422.991 4.522.991 6.38-.124 7.123-.371.124-.805.248-1.176.248z" fill="#000"/><path d="M359.889 310.968a861.037 861.037 0 0012.013-3.221c-.186-.495-.309-.991-.495-1.486-3.839 1.362-7.741 2.725-11.58 4.149.062.186.062.372.062.558zM279.76 431.8c-.309 1.61-.557 3.282-.867 4.892a80.752 80.752 0 00-8.978 1.549c-5.697 1.362-8.608 2.043-11.147 4.025-1.3 1.053-4.706 4.15-5.882 11.024l35.11-2.043 3.22-4.026 1.796 3.716c1.981-.124 3.963-.248 5.883-.372 0-5.388.062-10.776.062-16.102-6.379-.867-12.819-1.796-19.197-2.663zM342.675 446.478l3.344 4.149c11.641 1.301 23.345 2.54 34.986 3.84-.805-6.936-4.025-10.219-5.325-11.272-2.477-2.167-5.264-2.972-10.961-4.583a86.074 86.074 0 00-8.917-2.043c-.123-1.053-.247-2.044-.371-3.097-6.564.681-13.128 1.362-19.63 2.044-.247 4.645-.433 9.29-.681 13.873 1.92.186 3.839.433 5.759.619l1.796-3.53z" fill="#000"/></svg>