<svg width="132" height="55" viewBox="0 0 132 55" fill="none" xmlns="http://www.w3.org/2000/svg">
<path fill-rule="evenodd" clip-rule="evenodd" d="M28.5 55C42.5833 55 54 43.5833 54 29.5C54 15.4167 42.5833 4 28.5 4C14.4167 4 3 15.4167 3 29.5C3 43.5833 14.4167 55 28.5 55Z" fill="#BBF0E5"/>
<path d="M50.5 25.5C50.5 39.3071 39.3071 50.5 25.5 50.5C11.6929 50.5 0.5 39.3071 0.5 25.5C0.5 11.6929 11.6929 0.5 25.5 0.5C39.3071 0.5 50.5 11.6929 50.5 25.5Z" stroke="#50E1C3"/>
<path fill-rule="evenodd" clip-rule="evenodd" d="M61.76 17.16C61.76 18.84 60.44 20.32 58.48 20.32C56.56 20.32 55.24 18.84 55.24 17.16C55.24 15.44 56.56 14 58.48 14C60.44 14 61.76 15.44 61.76 17.16ZM46.28 44.72C49.16 44.72 51.16 43.28 52.44 41.28L51.96 40.56C50.96 41.32 50.08 41.68 48.96 41.68C47.08 41.68 46.16 40.64 46.16 38.2V24.96H51.36V23.12H46.16V17.92H44.96C43.24 20.56 40.88 22.8 38.12 24.04V24.96H40.6V38.52C40.6 43 43 44.72 46.28 44.72ZM38.2 42.6C37.04 43.96 35.52 44.72 33.64 44.72C31.48 44.72 30.04 43.4 29.64 41.2C28.36 42.88 26.28 44.64 23.4 44.64C20.16 44.64 18 42.68 18 39.48C18 36.04 20.48 34.64 23.48 33.52L29.52 31.32V27.92C29.52 25.64 28.76 24 26.68 24C24.76 24 24 25.44 24 27.36C24 28.16 24.12 28.96 24.32 29.84L21 30.28C19.92 29.92 19.24 29.08 19.24 27.76C19.24 24.44 22.68 22.72 27.12 22.72C32.24 22.72 35.04 24.6 35.04 29.28V39.88C35.04 41.24 35.32 42.12 36.36 42.12C36.96 42.12 37.52 41.92 37.96 41.72L38.2 42.6ZM23.36 37.96C23.36 40.04 24.32 41.52 26.44 41.52C27.6 41.52 28.4 41.08 29.52 40.24V32.76L26.08 34.16C24.4 34.8 23.36 35.72 23.36 37.96ZM63.84 44.32V43C61.96 42.88 61.32 42.64 61.32 41.24V22.72H60.44L53.4 24.92V25.68L55.8 27.08V41.24C55.8 42.64 55.16 42.88 53.28 43V44.32H63.84ZM87.88 51.48V52.8H76.52V51.48C79.08 51.28 79.84 51.12 79.84 49.6V41C78.4 43.04 76.4 44.72 73.4 44.72C68.56 44.72 65.32 40.8 65.32 34.72C65.32 27.16 69.8 22.72 75.68 22.72C78.44 22.72 80.6 23.68 82.04 25.2L84.52 22.8H85.6L85.4 27.28V49.72C85.4 51.12 86.04 51.36 87.88 51.48ZM76.44 41.32C72.8 41.32 70.8 37.52 70.8 32.6C70.8 27.64 72.76 24.24 76.12 24.24C78.36 24.24 79.84 26.08 79.84 29.24V40.04C78.92 40.88 77.8 41.32 76.44 41.32ZM111.44 43.28L104.16 44.72H103.16L103.28 40.88C101.6 42.76 99.48 44.72 96.32 44.72C92.8 44.72 90.52 42.72 90.52 38.24V27.84C90.52 26.52 90.24 25.88 88.68 25.6L88.04 25.48V24.28L95.4 22.76H96.28L96.08 27.52V37.52C96.08 39.96 97 41.4 99.2 41.4C100.8 41.4 102 40.72 103.28 39.88V27.84C103.28 26.52 103 25.88 101.44 25.6L100.84 25.48V24.28L108.12 22.76H109L108.84 27.44V40.08C108.84 41.44 108.92 41.88 110.44 42L111.44 42.08V43.28ZM122.52 44.72C127.12 44.72 130.04 42 131.08 38.04L130.44 37.68C129 39.76 127.2 40.92 124.48 40.92C120.56 40.92 117.68 37.6 117.84 32H130.88V31.08C130.88 26.28 128.08 22.72 122.72 22.72C117.24 22.72 112.84 27.44 112.84 34.28C112.84 40.44 116.72 44.72 122.52 44.72ZM117.92 30.52H125.92C125.92 26.76 124.92 24.2 122.32 24.2C119.68 24.2 118.24 26.84 117.92 30.52Z" fill="black"/>
</svg>
