<svg xmlns="http://www.w3.org/2000/svg" width="735" height="500" fill="none" viewBox="0 0 735 500">
  <path stroke="#000" d="M374.413 377.962l-12.985-7.78M550.094 14.8876l-14.557-4.1586M318.945 13.5826l-12.717-8.2181M621.674 460.832l-12.985-7.78M179.345 213.856l-12.985-7.78M16.3447 100.038L1.25986 98.8235M28.7979 334.918l-12.3212-13.69M185.871 483.637l-8.006-12.86M683.965 287.146l-8.007-12.856M705.521 13.5743l7.12-13.371907M25.4072 449.352l-14.6064 3.973M433.953 77.0889l-7.772 13.0002M260.132 88.0864L249.795 99.154M92.3094 2.94043L84.1008 15.6723M649.484 56.2134l-15.035 1.7427M717.051 144.713l-14.376-4.749M534.473 399.758l-7.771 13.005M181.726 369.806l-6.501 13.685M733.596 377.338l-12.668 8.289M505.236 201.277l-7.772 13M40.4096 215.401l-13.3483 7.136"/>
  <path fill="#F7C9D6" fill-rule="evenodd" d="M540.075 126.743c5.736-28.6844 33.593-47.2729 62.209-41.5203 28.62 5.7484 47.174 33.6603 41.438 62.3403-1.794 8.964-5.749 16.94-11.209 23.498-2.97 3.566-6.388 6.711-10.149 9.365-11.44 8.087-26.043 11.629-40.852 8.653-28.62-5.748-47.174-33.656-41.437-62.336zm72.404 27.589c2.767-3.322 4.771-7.364 5.678-11.906 2.908-14.534-6.491-28.676-20.995-31.589-14.503-2.914-28.616 6.504-31.523 21.039-2.907 14.534 6.491 28.676 20.995 31.589 7.506 1.509 14.904-.285 20.702-4.384 1.905-1.343 3.637-2.939 5.143-4.749z" clip-rule="evenodd"/>
  <path fill="#FFE492" d="M561.585 218.669l22.628 42.28 47.582 5.294-33.136 34.627 9.683 46.988-43.103-20.882-41.602 23.746 6.495-47.533-35.392-32.309 47.12-8.497 19.725-43.714zM444.07 440.681l-10.153 21.46 37.383 37.561-63.298-24.634 19.135-41.264"/>
  <path fill="#fff" d="M431.149 469.778l13.75-3.541-13.75 3.541z"/>
  <path stroke="#fff" stroke-width="3" d="M431.149 469.778l13.75-3.541"/>
  <path fill="#fff" d="M436.189 474.403l13.753-3.538-13.753 3.538z"/>
  <path stroke="#fff" stroke-width="3" d="M436.189 474.403l13.753-3.538"/>
  <path fill="#fff" d="M441.228 479.031l13.754-3.537-13.754 3.537z"/>
  <path stroke="#fff" stroke-width="3" d="M441.228 479.031l13.754-3.537"/>
  <path fill="#FFE492" d="M305.683 419.918l10.677 21.263-36.46 38.259 62.684-25.824-20.137-40.892"/>
  <path fill="#fff" d="M319.317 448.764l-13.836-3.277 13.836 3.277z"/>
  <path stroke="#fff" stroke-width="3" d="M319.317 448.764l-13.836-3.277"/>
  <path fill="#fff" d="M314.389 453.487l-13.836-3.277 13.836 3.277z"/>
  <path stroke="#fff" stroke-width="3" d="M314.389 453.487l-13.836-3.277"/>
  <path fill="#fff" d="M309.46 458.207l-13.831-3.277 13.831 3.277z"/>
  <path stroke="#fff" stroke-width="3" d="M309.46 458.207l-13.831-3.277"/>
  <path fill="#030207" d="M301.336 431.25l-39.952-69.829c-8.966-15.671-7.147-35.73 4.466-49.19l40.74-47.228c15.63-18.117 37.92-28.048 61.051-27.196 23.935.88 46.27 13.203 60.795 33.552l40.992 57.415c8.169 11.439 10.607 26.378 6.536 40.036l-26.558 89.091-46.204-21.332 21.209-76.045-61.24-65.303-50.56 47.876 32.715 66.37-43.99 21.783z"/>
  <path fill="#E1869D" d="M395.642 161.056c4.805 25.015-11.538 49.194-36.501 54.009-24.962 4.814-49.091-11.563-53.895-36.578"/>
  <path fill="#D14D33" d="M117.458 184.079c-30.3187-2.108-53.1942-28.445-51.0951-58.828 2.1032-30.3829 28.385-53.3065 58.7041-51.203"/>
  <path fill="#FFE492" d="M322.191 132.578c.095 11.902 9.798 21.469 21.675 21.37 10.5-.087 19.177-7.695 20.983-17.679.235-1.31.355-2.658.342-4.038-.095-11.898-9.798-21.469-21.675-21.37-6.178.05-11.724 2.703-15.613 6.918-3.584 3.885-5.757 9.096-5.712 14.799z"/>
  <path fill="#000" d="M327.903 117.775c5.86 11.365 17.741 19.089 31.379 18.981 1.893-.016 3.752-.182 5.563-.487.235-1.31.354-2.658.342-4.038-.095-11.898-9.798-21.469-21.675-21.37-6.174.046-11.72 2.703-15.609 6.914z"/>
  <path fill="#000" d="M352.523 112.142c4.525 0 8.194-3.676 8.194-8.211 0-4.5351-3.669-8.2115-8.194-8.2115-4.526 0-8.195 3.6764-8.195 8.2115 0 4.535 3.669 8.211 8.195 8.211zM346.321 51.7398c12.88 0 23.321-10.4631 23.321-23.3699S359.201 5 346.321 5 323 15.4631 323 28.3699s10.441 23.3699 23.321 23.3699zM333.866 135.574c.057-1.38-.537-2.532-1.327-2.573-.79-.041-1.478 1.045-1.535 2.425-.058 1.38.536 2.532 1.327 2.573.79.041 1.477-1.045 1.535-2.425zM342.866 141.574c.057-1.38-.537-2.532-1.327-2.573-.79-.041-1.478 1.045-1.535 2.425-.058 1.38.536 2.532 1.327 2.573.79.041 1.477-1.045 1.535-2.425z"/>
  <path stroke="#000" d="M331.239 146.423s3.575-.695 3.522-3.976"/>
  <path stroke="#000" stroke-linejoin="bevel" stroke-width="2" d="M288.787 172.214l-55.557-26.11-46.984-57.9556-3.745 34.5656s18.1 39.759 30.802 50.016c12.706 10.258 68.255 31.111 68.255 31.111M284.845 206.416l-46.036 40.66L161 269l14.956 16.117s64.837-1.525 79.287-9.117c14.45-7.587 55.673-50.335 55.673-50.335M408.212 149.1l60.024-15.774 46.699-41.8839 14.249 20.8899s-31.235 42.947-45.706 50.774c-14.471 7.827-73.571 18.423-73.571 18.423"/>
  <path fill="#D14D33" d="M123.347 46.8349c29.416-7.6536 59.459 10.0381 67.097 39.516 7.637 29.4781-10.017 59.5841-39.433 67.2371"/>
  <path fill="#fff" d="M191.384 113.762s-13.291-21.4313-11.485-24.2952c1.806-2.8597 15.151 12.5922 15.151 12.5922"/>
  <path stroke="#000" stroke-linejoin="bevel" stroke-width="2" d="M191.384 113.762s-13.291-21.4313-11.485-24.2952c1.806-2.8597 15.151 12.5922 15.151 12.5922"/>
  <path fill="#0083C8" d="M471.361 78.3145l11.17-17.3693 101.584 65.6008-11.169 17.369-101.585-65.6005z"/>
  <path fill="#fff" d="M518.181 79.7966s-13.514 22.0974-10.277 24.0764c3.237 1.98 17.943-18.1378 17.943-18.1378s-16.916 20.3528-13.464 23.9358c3.451 3.583 20.248-20.8529 20.248-20.8529s-14.062 20.9649-11.118 23.6009c2.944 2.637 17.386-18.0797 17.386-18.0797"/>
  <path stroke="#000" stroke-linejoin="bevel" stroke-width="2" d="M518.181 79.7966s-13.514 22.0974-10.277 24.0764c3.237 1.98 17.943-18.1378 17.943-18.1378s-16.916 20.3528-13.464 23.9358c3.451 3.583 20.248-20.8529 20.248-20.8529s-14.062 20.9649-11.118 23.6009c2.944 2.637 17.386-18.0797 17.386-18.0797"/>
  <path fill="#fff" d="M409.804 196.32c2.363.214 51.166 41.822 51.166 41.822l61.809 25.729s9.691-18.82 12.413-18.402c2.722.417-3.967 22.865-3.967 22.865s12.264-22.807 14.487-22.204c2.223.603-5.872 26.663-5.872 26.663s12.178-20.431 13.926-18.79c1.749 1.636-11.79 26.861-10.936 32.093.853 5.232 11.707 10.799 11.109 13.196-.598 2.397-90.38-24.593-107.811-34.52-17.432-9.926-60.713-43.409-60.713-43.409"/>
  <path stroke="#000" stroke-linejoin="bevel" stroke-width="2" d="M409.804 196.32c2.363.214 51.166 41.822 51.166 41.822l61.809 25.729s9.691-18.82 12.413-18.402c2.722.417-3.967 22.865-3.967 22.865s12.264-22.807 14.487-22.204c2.223.603-5.872 26.663-5.872 26.663s12.178-20.431 13.926-18.79c1.749 1.636-11.79 26.861-10.936 32.093.853 5.232 11.707 10.799 11.109 13.196-.598 2.397-90.38-24.593-107.811-34.52-17.432-9.926-60.713-43.409-60.713-43.409"/>
  <path fill="#1D92CF" d="M207.818 297.25L97.2512 226.112l-9.514 130.243L207.818 297.25z"/>
  <path stroke="#000" stroke-linejoin="bevel" stroke-width="2" d="M179.771 275.773s-25.032-2.765-26.158-5.955c-1.126-3.19 19.242-4.162 19.242-4.162"/>
  <path fill="#fff" d="M178.695 144.906c.185 0 .185-.29 0-.29-.186 0-.186.29 0 .29z"/>
</svg>
