<svg fill="none" xmlns="http://www.w3.org/2000/svg" viewBox="0 0 657 485">
  <g opacity=".5" stroke="#071685" stroke-width="1.229">
    <path d="M83.4 201l23.635 34.951M646.391 345.451l-39.976 13.395M42.128 387.067L1 377.8M68.727 38.6L56.2 78.908M414.396 419.4L386.6 451.135M521.27 314.1l-12.523 40.303M642.153 228.971l-36.509 21.109M541.368 198.882l-37.975-18.331M656.443 91.132l-18.504-37.927M393.015 64.187l-21.076-36.554M185.537 227.979l-39.183 15.563M277.8 443.4l11.859 40.51M160.308 38.927L141.8 1"/>
  </g>
  <path d="M155.196 417.576l-11.467 49.812 51.866-12.181-40.399-37.631z" fill="#FFE492"/>
  <path d="M320.636 442.689c5.985 0 10.837-4.856 10.837-10.844 0-5.989-4.852-10.845-10.837-10.845-5.985 0-10.836 4.856-10.836 10.845 0 5.988 4.851 10.844 10.836 10.844z" fill="#F5B4C4"/>
  <path d="M555.4 76.493L597.019 62.6" stroke="#170C2C" stroke-opacity=".04" stroke-width="1.229"/>
  <path d="M314.851 4.025l-29.569 19.774 34.801 15.334-5.232-35.108z" fill="#1D92CF"/>
  <path d="M165 105.309l-1.924-12.8L153 100.596l12 4.713z" fill="#fff"/>
  <path d="M340.362 253.058l118.288-32.005 32.005 118.287-118.288 32.005-32.005-118.287z" fill="#00BE75"/>
  <path d="M375.4 243.709l-16.8 76M361 246.909l47.2 114.4M428.2 356.509l4-113.6M467.4 346.109l-18.4-100.8M437.8 353.309l-2.4-100M366.6 350.909l50.4-116.8" stroke="#fff" stroke-width="1.6"/>
  <path d="M353.771 202.796l78.192-94.351 94.352 78.193-78.193 94.351-94.351-78.193z" fill="#FEE200"/>
  <path d="M515.409 196.509s-7.893 7.568-6.16 9.502c1.732 1.933 14.824 0 14.824 0s.768 3.483 6.161 3.291c5.392-.192 16.366 0 16.366 0" fill="#BDCBEF"/>
  <path d="M456.209 198.273l31.237 29.855s8.716 45.645 15.981 54.741c7.264 9.097 44.16 36.77 44.16 36.77l34.573 38.47 54.04-27.348-26.148-31.241s5.934-56.365 2.156-67.024c-2.749-7.756-35.156-36.139-55.841-55.535a37.143 37.143 0 00-30.4-9.714l-59.763 8.104a2.727 2.727 0 00-2.272 2.027 2.737 2.737 0 001.016 2.875l6.521 4.84 52.873.386 32.41 55.886-31.634-.511s-33.525-59.599-66.624-51.354a5.167 5.167 0 00-3.726 3.709 5.187 5.187 0 001.441 5.064z" fill="#fff" stroke="#000" stroke-width=".8"/>
  <path d="M581 224.509s-32.708-47.806-39.208-53.409c-4.86-4.191-11.192-4.191-11.192-4.191M597 221.309s-32.526-34.026-45.07-46.302c-5.751-5.631-10.93-6.498-10.93-6.498" stroke="#000" stroke-width=".8"/>
  <path d="M608.832 208.499l-151.686-6.798-19.346-11.628 21.034-7.164 150.826 6.766a9.304 9.304 0 016.49 3.05 9.465 9.465 0 012.44 6.788 9.444 9.444 0 01-3.03 6.535 9.283 9.283 0 01-6.728 2.451z" fill="#090928"/>
  <path d="M495.4 203.709l-35.703-1.58-3.49-3.31a5.143 5.143 0 01-1.438-5.039 5.162 5.162 0 013.73-3.692c12.902-3.192 25.858 3.841 36.901 13.621zM609.4 202.909a4.4 4.4 0 100-8.8 4.4 4.4 0 000 8.8z" fill="#fff"/>
  <path d="M393 211.709s6.942-53.025 17.16-54.372c10.218-1.347 11.185 46.779 15.632 47.26 4.447.481 12.008-14.322 12.008-14.322" stroke="#090928" stroke-width="2.4"/>
  <path d="M95.141 156.564l118.288-32.005 32.005 118.288-118.288 32.005-32.005-118.288z" fill="#762AE2"/>
  <path d="M189.948 160.209l120.902 19.972-19.972 120.903-120.902-19.972 19.972-120.903z" fill="#FEE200"/>
  <path d="M185 190.153s33.612 17.174 64-20.044M275.4 174.109s-16.336 52.726-92 24.479M238.6 239.709s32.833 21.997 20.381 56M309 188.509s-28.198 15.227-33.803 38.434c-5.605 23.207 30.758 39.505 4.398 72.766M305.8 209.309s-46.905 16.899-7.327 44" stroke="#fff" stroke-width="1.6"/>
  <path d="M112.2 342.26l25.107-15.394s19.696-50.312 25.916-59.616c5.407-8.101 26.914-51.348 32.386-62.383a2.983 2.983 0 014.431-1.094c1.846 1.354 3.815 3.887 3.815 8.521l10.487-24.675a2.986 2.986 0 015.015-.792c2.184 2.566 4.39 8.037 3.661 19.653l8.926-24.794a2.994 2.994 0 015.363-.558c2.569 4.154 5.616 11.183 5.458 21.167l1.192-3.39a2.99 2.99 0 015.661.035c3.191 9.583 6.319 27.581-4.377 47.965 0 0 2.187 20.159-13.229 46.233l-3.998 30.521 24.295.292s30.115-12.671 40.384 8.046a2.982 2.982 0 01-2.135 4.253c-10.275 1.924-39.678 7.697-49.857 12.716-12.417 6.093-32.935 17.738-55.072 17.154l-36.715 25.589L112.2 342.26z" fill="#fff" stroke="#000" stroke-width=".8"/>
  <path d="M204.2 211.709l-28 61.6M224.2 204.509l-28.8 70.4M243.4 202.109l-27.2 76" stroke="#000" stroke-width=".8"/>
  <path d="M105.8 194.909l79.2-2.4M100.2 173.309l77.6 56M127.4 147.709l94.4 8.8M217 138.909l-63.2 2.4M121 251.709l52-1.6M123.4 259.709l21.6 10.4" stroke="#fff" stroke-width="1.6"/>
</svg>
