<svg xmlns="http://www.w3.org/2000/svg" width="537" height="483" fill="none" viewBox="0 0 537 483">
  <path stroke="#000" stroke-linejoin="bevel" stroke-width="3.5" d="M225.723 95l31-2M247.723 60l-56 5"/>
  <path fill="#E1869D" d="M254.402 56c-4.678 29.2152 15.334 56.67 44.693 61.325 29.36 4.655 56.95-15.259 61.628-44.474"/>
  <path fill="#030207" d="M458.723 213.783L494.475 187l42.248 74-51.623-46.011-24.139 17.921"/>
  <path stroke="#fff" stroke-width="4" d="M494.723 213l-1 17M500.723 219l-1 17M506.723 226l-1 17"/>
  <path fill="#030207" d="M404.509 331l41.214 18.259L401.151 422l15.257-67.375-27.685-12.409"/>
  <path stroke="#fff" stroke-width="4" d="M422.723 361l-15 8M419.723 370l-15 8M416.723 379l-15 8"/>
  <path fill="#170C2C" d="M371.23 182.948l20.908 71.811 63.726-48.074s14.95 1.06 26.426 14.211c12.037 13.794 9.123 31.158 9.123 31.158l-119.66 93.561-49.083-107.148-.476 47.598 88.393 40.953s5.844 16.022-2.593 31.749C399.803 374.037 386.703 376 386.703 376l-93.343-35.572c-14.398-5.487-24.213-18.96-25.027-34.366l-5.531-104.716c-1.623-30.719 22.058-56.883 52.755-58.288 25.529-1.161 48.536 15.321 55.673 39.89z"/>
  <path stroke="#fff" stroke-width="3" d="M399.723 323.892v0c-14.444 11.259-35.608 6.399-43.67-10.027L307.723 206"/>
  <path fill="#FFE492" d="M287.728 32.9649c.258 11.8716 10.09 21.2877 21.962 21.0299 10.495-.2282 19.071-7.9369 20.741-17.9236.215-1.3101.317-2.6583.287-4.0361-.258-11.8674-10.089-21.2877-21.962-21.0299-6.179.1352-11.687 2.8569-15.516 7.1128-3.534 3.9262-5.634 9.1541-5.512 14.8469z"/>
  <path fill="#000" d="M288.725 9.19588c.107 4.96952 4.222 8.90852 9.194 8.80202 4.397-.0937 7.984-3.3215 8.683-7.5032.089-.54935.132-1.11145.119-1.69058-.106-4.9695-4.222-8.908471-9.194-8.802012-2.586.055359-4.895 1.196592-6.497 2.976582-1.474 1.64799-2.356 3.83678-2.305 6.21719z"/>
  <path fill="#000" d="M303.725 6.61963c.064 3.03767 2.58 5.44727 5.618 5.37897 2.683-.0598 4.879-2.02941 5.306-4.58431.056-.33324.081-.67931.073-1.03392-.064-3.03768-2.581-5.447309-5.618-5.37895-1.581.03418-2.991.73058-3.969 1.82004-.906 1.00829-1.444 2.34555-1.41 3.79817zM296.884 44.6301c1.284-.0277 2.29-1.7071 2.245-3.751-.044-2.0439-1.12-3.6783-2.405-3.6505-1.284.0277-2.289 1.7071-2.245 3.751.044 2.0439 1.121 3.6783 2.405 3.6505zM304.617 44.719c1.284-.0277 2.289-1.7071 2.245-3.751-.044-2.0439-1.121-3.6783-2.405-3.6506-1.284.0278-2.289 1.7072-2.245 3.7511.044 2.0438 1.121 3.6783 2.405 3.6505z"/>
  <path fill="#FFE492" d="M322.725 32.1753c.095 4.4158 3.755 7.918 8.172 7.8228 3.906-.0866 7.097-2.9525 7.717-6.6712.082-.4892.117-.9871.108-1.5022-.095-4.4158-3.755-7.918-8.172-7.8228-2.299.0476-4.348 1.065-5.777 2.6451-1.312 1.4633-2.091 3.4114-2.048 5.5283z"/>
  <path fill="#000" d="M294.723 17.252s7.656 4.6747 21.276 1.8724L317.222 32l8.287-2.0323s1.993-7.4898 9.213-5.003c0 0 .281-14.7144-8.367-17.41993-15.106-4.72526-28.245 2.21326-31.632 9.70723z"/>
  <path stroke="#000" stroke-width="4" d="M300.723 45s-1.585 3.7499-5 2.8648"/>
  <path fill="#FFE492" d="M.723267 185.884L206.723 202V68.3156c0-7.9038-6.401-14.3156-14.301-14.3156H15.0247C7.1287 54 .723267 60.4076.723267 68.3156V185.884z"/>
  <path stroke="#000" stroke-linejoin="bevel" stroke-width="3.5" d="M208.373 97.0102c-14.479-.2321-26.582 3.5538-26.582 5.7568 0 3.896 22.073 2.824 22.073 2.824s-28.878 5.938-29.14 9.319c-.223 2.857 31.896-.131 31.896-.131s-26.127 6.787-23.274 10.683c1.728 2.359 16.936-3.643 23.935-1.896 7 1.748 53.749 55.299 78.94 56.422 25.196 1.123 68.502-76.343 68.502-76.343M72.7233 50.6433s3.0708 21.6409 5.4816 21.8525c2.4107.2158 3.5095-19.9267 3.5095-19.9267s1.3161 23.9984 4.387 24.4258c3.0709.4275 4.8257-26.3516 4.8257-26.3516s3.7268 20.3542 7.2364 19.7108c3.5095-.6433 0-20.3541 0-20.3541"/>
  <path fill="#030207" d="M206.613 203.036c-2.043 8.79-27.162 9.508-60.996 2.821-16.623-3.292-28.378-2.46-25.904 4.669 3.699 10.659-26.664 10.612-60.4006 3.479-33.7323-7.133-60.52313-20.268-58.479509-29.058 2.043619-8.79 27.272109-9.491 61.101609-2.8 16.6234 3.288 28.3784 2.456 25.9083-4.673-3.703-10.659 26.6562-10.612 60.3962-3.479 33.733 7.137 60.418 20.251 58.374 29.041z"/>
  <path fill="#EFAFC5" d="M188.723 345c7.732 0 14-6.268 14-14s-6.268-14-14-14-14 6.268-14 14 6.268 14 14 14z"/>
  <path fill="#FFE492" d="M76.7233 449c7.732 0 14-6.268 14-14s-6.268-14-14-14-14 6.268-14 14 6.268 14 14 14z"/>
  <path fill="#1D92CF" d="M90.7233 232c7.732 0 13.9997-6.268 13.9997-14s-6.2677-14-13.9997-14c-7.732 0-14 6.268-14 14s6.268 14 14 14z"/>
  <path fill="#EFAFC5" d="M13.179 294.569l23.5407-5.299 5.2989 23.541-23.5408 5.299-5.2988-23.541z"/>
  <path fill="#1D92CF" d="M72.1938 348.654L93.09 360.719l-12.0647 20.896-20.8962-12.065 12.0647-20.896z"/>
  <path fill="#FFE492" d="M131.003 250l-1.28 28 26-11.399L131.003 250z"/>
  <path fill="#1D92CF" d="M167.365 451l-18.642 20.8 27 7.2-8.358-28z"/>
  <path stroke="#fff" stroke-linejoin="bevel" stroke-width="7" d="M154.723 194l24 24"/>
  <path stroke="#071685" stroke-width="1.53661" d="M17.7233 374l24 24M163.723 394l24 24"/>
  <path stroke="#fff" stroke-linejoin="bevel" stroke-width="7" d="M56.7233 204l-24 24"/>
  <path stroke="#071685" stroke-width="1.53661" d="M141.723 326l-24 24M34.7233 458l-24 24M137.723 429l-24 24M67.7233 266l24 24"/>
  <path stroke="#fff" stroke-linejoin="bevel" stroke-width="7" d="M301.723 121l16-22"/>
  <path stroke="#000" stroke-linejoin="bevel" stroke-width="3.5" d="M324.723 87l-40.705 57S223.7 93.504 207.723 92.4784"/>
  <path stroke="#071685" stroke-width="1.53661" d="M55.7233 204l-24 24M155.723 194l24 24"/>
</svg>
