<svg xmlns="http://www.w3.org/2000/svg" width="831" height="605" fill="none" viewBox="0 0 831 605">
  <g stroke="#071685" stroke-width="1.53661" opacity=".5">
    <path d="M104 251l29.544 43.689M807.739 431.563l-49.97 16.745M52.4101 483.584L1 472M85.659 48L70 98.3843M517.745 524L483 563.669M651.338 392.375l-15.654 50.379M802.441 285.964l-45.636 26.385M676.461 248.352l-47.469-22.914M820.304 113.665l-23.13-47.4091M491.019 79.9836L464.674 34.291M231.672 284.724l-48.98 19.453M347 554l14.824 50.638M200.135 48.4085L177 1"/>
  </g>
  <path fill="#FFE492" d="M365.001 322.405c13.065 0 23.656-10.59 23.656-23.653 0-13.064-10.591-23.654-23.656-23.654s-23.657 10.59-23.657 23.654c0 13.063 10.592 23.653 23.657 23.653zM825.716 429.702c-11.543 28.714-37.547 45.398-70.744 32.073-33.196-13.325-50.749-47.421-39.212-76.135 11.536-28.714 47.798-41.188 81.005-27.858 33.208 13.33 40.498 43.206 28.951 71.92zM78.5 236c26.234 0 47.5-21.266 47.5-47.5S104.734 141 78.5 141C52.2666 141 31 162.266 31 188.5S52.2666 236 78.5 236zM193.745 521.72l-14.334 62.265 64.832-15.226-50.498-47.039z"/>
  <path fill="#F5C1CE" d="M320.787 173.999c7.328 55.392-50.087 110.087-94.012 82.925-20.306-12.569-11.767-42.962-15.557-71.609-3.202-24.206-24.781-42.162-10.612-63.298 29.68-44.2724 112.272-7.802 120.181 51.982z"/>
  <path fill="#F5B4C4" d="M400.545 553.111c7.481 0 13.546-6.069 13.546-13.555S408.026 526 400.545 526c-7.481 0-13.545 6.07-13.545 13.556 0 7.486 6.064 13.555 13.545 13.555z"/>
  <path fill="#fff" d="M763.671 242.539l33.857-49.416v35.283l-33.857 49.418v-35.285zM587.184 518.653c-6.04 0-11.943-1.785-16.965-5.133-5.023-3.347-8.937-8.103-11.248-13.668-2.312-5.565-2.916-11.689-1.738-17.598 1.179-5.908 4.087-11.335 8.358-15.595 4.271-4.259 9.712-7.159 15.636-8.335 5.924-1.175 12.064-.572 17.644 1.733 5.58 2.306 10.35 6.209 13.705 11.218 3.356 5.008 5.146 10.897 5.146 16.921-.011 8.075-3.231 15.815-8.956 21.525-5.725 5.709-13.485 8.921-21.582 8.932z"/>
  <path fill="#170C2C" fill-rule="evenodd" d="M569.779 462.212c5.153-3.432 11.209-5.264 17.405-5.263 8.307 0 16.273 3.291 22.146 9.149 5.874 5.859 9.173 13.804 9.173 22.088.001 6.179-1.835 12.22-5.276 17.359-3.442 5.138-8.334 9.144-14.058 11.509-5.725 2.366-12.023 2.984-18.1 1.779-6.077-1.205-11.659-4.181-16.041-8.551-4.38-4.369-7.363-9.936-8.572-15.997-1.208-6.061-.588-12.344 1.784-18.052 2.371-5.708 6.387-10.589 11.539-14.021zm33.946 1.291c-4.896-3.264-10.652-5.005-16.541-5.005-7.893.008-15.46 3.138-21.041 8.704-5.581 5.566-8.722 13.112-8.731 20.984-.001 5.873 1.744 11.615 5.015 16.498 3.27 4.884 7.92 8.69 13.361 10.939 5.439 2.247 11.426 2.837 17.201 1.691 5.776-1.145 11.081-3.972 15.246-8.125 4.164-4.153 6.999-9.443 8.148-15.203 1.149-5.761.56-11.731-1.692-17.157-2.254-5.426-6.069-10.064-10.966-13.326z" clip-rule="evenodd"/>
  <path stroke="#170C2C" stroke-opacity=".04" stroke-width="1.53661" d="M694 95.3663L746.024 78"/>
  <path fill="#000" d="M416.26 144.526s-17.445 12.649-18.676 27.423c-1.233 14.774 16.692 26.307 16.692 26.307l44.057-20.264-42.073-33.466z"/>
  <path fill="#E1869D" d="M507.132 239.516c0-16.111-6.407-31.562-17.812-42.954-11.405-11.393-26.872-17.792-43-17.792-16.129 0-31.596 6.399-43.001 17.792-11.404 11.392-17.811 26.843-17.811 42.954h121.624z"/>
  <path fill="#FFE492" d="M452.984 189.998l-1.087-30.754s11.894-6.116 9.724-14.641-10.879-4.701-10.879-4.701-4.185-11.686-16.806-12.56c-12.621-.875-19.495 13.637-18.552 23.68 1.401 14.811 8.689 21.74 23.521 18.358l-.516 17.231"/>
  <path stroke="#170C2C" stroke-width="1.53661" d="M423.943 150.77l-2.448 6.677M433.591 148.747l-7.111-.273M417.795 148.793l4.309-.364"/>
  <path fill="#000" d="M452.597 179.089c-14.028-1.879-7.647-41.055-7.647-41.055-13.528 7.892-28.69 4.366-28.69 4.366s3.845-21.159 26.798-18.585c22.954 2.574 28.015 17.241 28.015 17.241s24.541 5.93 24.876 25.74c.335 19.809-14.43 23.197-14.43 23.197s-13.564-8.845-28.922-10.904z"/>
  <path stroke="#170C2C" stroke-width="1.53661" d="M377.423 234.847s-61.523 4.437-69.347-10.348c-7.822-14.785 1.691-96.401 1.691-96.401s-9.302-22.29-4.639-25.039c4.665-2.749 12.885 19.223 12.885 19.223s-5.288-30.6258-.422-30.8369c4.864-.211 11.203 25.5539 11.203 25.5539s5.154-11.742 17.233-8.71c8.828 2.213 10.993 11.506 7.967 12.948-4.338 2.059-7.415-4.279-12.09-2.549-3.545 1.307-4.122 5.545-2.844 8.572 1.752 4.144 5.942 5.842 9.663 2.99 3.288-2.517 1.545-7.181 5.271-9.013 4.443-2.178 8.854 8.139 2.577 16.278-5.87 7.598-19.305 5.852-19.305 5.852l-.484 51.954 47.577 1.796M515.218 234.847s61.528 4.437 69.345-10.348c7.819-14.785-1.69-96.401-1.69-96.401s9.277-22.29 4.638-25.039c-4.638-2.749-12.883 19.223-12.883 19.223s5.287-30.6258.422-30.8369c-4.865-.211-11.203 25.5539-11.203 25.5539s-5.154-11.742-17.234-8.71c-8.823 2.213-10.992 11.506-7.967 12.948 4.339 2.059 7.416-4.279 12.091-2.549 3.544 1.307 4.122 5.545 2.844 8.572-1.753 4.144-5.937 5.842-9.663 2.99-3.288-2.522-1.547-7.181-5.272-9.013-4.443-2.178-8.854 8.139-2.577 16.272 5.87 7.604 18.79 5.323 18.79 5.323l.485 51.953-47.578 1.797"/>
  <path fill="#170C2C" fill-rule="evenodd" d="M446.321 265.329c14.321 0 28.39 3.784 40.774 10.968 26.68 15.48 62.92 36.68 98.593 57.597 39.775 23.319 26.02 83.911-19.939 87.808l-98.721 8.365-13.317 51.336c-1.974 7.619-12.806 7.619-14.78 0l-13.312-51.336-98.727-8.365c-45.954-3.897-59.714-64.489-19.938-87.808 35.673-20.917 71.912-42.117 98.592-57.597 12.385-7.184 26.452-10.968 40.775-10.968zm-22.795 80.229l-57.203 21.467h159.975l-57.204-21.467c-14.688-5.513-30.88-5.513-45.568 0z" clip-rule="evenodd"/>
  <path stroke="#fff" stroke-width="1.53661" d="M446.32 487.117V367.026"/>
  <path fill="#1D92CF" d="M393.314 4.78125L356.353 29.4995l43.501 19.1662-6.54-43.88445zM340.914 394.448l-84.672 15.677 62.13 62.685 22.542-78.362z"/>
  <path fill="#fff" d="M764.615 243.257l33.904-49.327v35.22l-33.904 49.328v-35.221z"/>
  <path fill="#170C2C" fill-rule="evenodd" d="M763.856 243.021l35.452-51.583v37.949l-35.452 51.584v-37.95zm33.904-14.112v-32.486l-32.355 47.078v32.484l32.355-47.076z" clip-rule="evenodd"/>
  <path fill="#1D92CF" d="M763.841 280.971l-121.249-82.92v-37.949l121.249 82.919v37.95z"/>
  <path fill="#F5C1CE" d="M182.333 447.043l-31.074 20.325-97.7864-47.031 31.0687-20.32 97.7917 47.026z"/>
  <path fill="#DFE1EE" d="M131.689 302.469l-31.069 20.32-47.1474 97.547 31.0687-20.324 47.1477-97.543z"/>
  <path fill="#F5C1CE" d="M648.772 362.655l-26.334-15.452-32.551-81.874 26.335 15.452 32.55 81.874z"/>
  <path fill="#1D92CF" d="M574.919 365.997l26.334 15.452 47.519-18.794-26.334-15.452-47.519 18.794z"/>
  <path fill="#DFE1EE" d="M799.345 191.397l-121.257-82.913-35.448 51.583 121.257 82.913 35.448-51.583z"/>
  <path fill="#fff" d="M132.053 303.491l-46.4749 96.155 96.3949 46.359 46.474-96.154-96.394-46.36z"/>
  <path fill="#170C2C" fill-rule="evenodd" d="M84.5409 400.012l47.1531-97.558 97.787 47.045-47.148 97.543-97.7921-47.03zM227.42 350.205l-95.008-45.69-45.8005 94.771 95.0035 45.691 45.805-94.772z" clip-rule="evenodd"/>
  <path fill="#fff" d="M589.451 266.369l-46.079 18.226 31.976 80.438 46.079-18.226-31.976-80.438z"/>
  <path fill="#170C2C" fill-rule="evenodd" d="M542.384 284.129l47.503-18.8 32.531 81.895-47.505 18.8-32.529-81.895zm78.046 62.204l-31.41-79.001-44.638 17.661 31.409 79.001 44.639-17.661z" clip-rule="evenodd"/>
</svg>
