<svg fill="none" xmlns="http://www.w3.org/2000/svg" viewBox="0 0 707 589">
  <path fill-rule="evenodd" clip-rule="evenodd" d="M53.386 562.265c.709.496 1.418.708 2.198.708.213 0 .425 0 .638-.07 1.064-.142 1.915-.709 2.482-1.558.568-.85.78-1.771.638-2.833-.141-1.063-.709-1.912-1.56-2.479a4.033 4.033 0 00-2.836-.637c-1.064.141-1.915.708-2.482 1.558-.568.85-.78 1.77-.639 2.832.142 1.063.71 1.913 1.56 2.479zm1.701-5.736c.142-.071.355-.071.497-.071.567 0 1.064.212 1.56.496.638.425.993 1.062 1.135 1.77.141.708 0 1.487-.426 2.054-.425.637-1.064.991-1.773 1.133-.709.142-1.489 0-2.056-.425-.639-.425-.993-1.062-1.135-1.77-.142-.709 0-1.488.425-2.054.426-.637 1.064-.992 1.773-1.133zM420.373 6.912c.709.496 1.418.708 2.198.708.213 0 .426 0 .638-.07 1.064-.142 1.915-.709 2.482-1.559.568-.85.781-1.77.639-2.832-.142-1.063-.709-1.913-1.56-2.48a4.038 4.038 0 00-2.837-.637c-1.064.142-1.915.709-2.482 1.559-.568.85-.78 1.77-.638 2.832.141 1.063.709 1.912 1.56 2.479zm1.702-5.736c.142-.071.354-.071.496-.071.567 0 1.064.212 1.56.496.639.424.993 1.062 1.135 1.77.142.708 0 1.487-.426 2.054-.425.637-1.063.991-1.772 1.133-.71.142-1.49 0-2.057-.425-.638-.425-.993-1.062-1.135-1.77-.142-.709 0-1.488.426-2.054.425-.638 1.064-.992 1.773-1.133zM4.145 318.843c.567.212 1.134.283 1.702.283 2.482 0 4.822-1.629 5.602-4.178.425-1.487.284-3.116-.425-4.462-.78-1.345-1.986-2.408-3.475-2.833-1.49-.425-3.12-.354-4.468.425-1.348.779-2.411 1.983-2.837 3.47-.922 3.117.851 6.374 3.9 7.295zm-.497-9.773a4.613 4.613 0 012.199-.567c.425 0 .921.071 1.418.213 1.205.425 2.27 1.204 2.837 2.337.638 1.133.709 2.408.354 3.612-.78 2.549-3.475 3.965-5.957 3.186-2.553-.779-3.971-3.47-3.191-5.948.425-1.204 1.205-2.267 2.34-2.833zM79.333 87.835c.071.07.213.142.355.142.141 0 .283-.071.354-.142l10.496-10.481a.555.555 0 000-.78l-10.496-10.48a.557.557 0 00-.78 0l-10.495 10.48a.555.555 0 000 .78l10.566 10.481zm.284-1.204L69.9 76.93l9.787-9.703 9.644 9.703-9.715 9.702zM643.126 132.459h.071c.07 0 .212-.071.354-.142l8.652-5.736c.213-.142.284-.496.142-.708l-5.745-8.641c-.07-.07-.212-.212-.354-.212s-.284 0-.426.071l-8.651 5.736c-.071.071-.213.213-.213.354 0 .142 0 .284.071.425l5.744 8.64c.071.071.213.213.355.213zm.212-1.275l-5.177-7.79 7.801-5.17 5.177 7.79-7.801 5.17zM695.753 487.998h.071c.142 0 .213-.071.355-.212l9.928-7.436c.213-.142.213-.496.071-.709l-7.446-9.914c-.142-.213-.497-.213-.71-.071l-9.928 7.436a.389.389 0 00-.213.354c-.071.142 0 .283.071.425l7.446 9.915a.391.391 0 00.355.212zm.213-1.275l-6.808-9.065 9.077-6.798 6.808 9.065-9.077 6.798z" fill="#000"/>
  <path d="M598.732 178.917c-.213 0-.426-.142-.496-.284l-6.95-15.722c-.142-.283 0-.566.283-.708.284-.141.568 0 .71.283l6.949 15.722c.142.284 0 .567-.283.709h-.213zM384.707 574.588c-.213 0-.497-.142-.497-.425-.071-.283.142-.567.426-.637l16.736-3.683c.284-.071.567.142.638.425.071.283-.142.566-.425.637l-16.737 3.683h-.141zM319.676 107.672c-.071 0-.213 0-.283-.071-.213-.142-.355-.496-.142-.708l9.219-14.448c.142-.212.496-.354.709-.141.213.141.355.496.142.708l-9.219 14.447c-.071.071-.213.213-.426.213zM490.017 145.419c-.071 0-.212 0-.283-.071-.213-.142-.355-.496-.142-.708l9.219-14.447c.142-.213.496-.355.709-.142.213.142.355.496.142.708l-9.219 14.447c-.071.142-.284.213-.426.213zM176.922 76.653a.534.534 0 01-.497-.355l-6.028-16.076a.673.673 0 01.284-.708c.284-.07.567.071.709.283l6.028 16.077a.672.672 0 01-.284.708c-.07.07-.141.07-.212.07zM68.987 364.111c-.07 0-.142 0-.284-.071-.283-.142-.354-.496-.212-.708l8.226-15.085c.142-.283.496-.354.71-.212.283.141.354.495.212.708l-8.227 15.085a.48.48 0 01-.425.283zM79.908 487.479c-.142 0-.213 0-.354-.141l-13.687-10.411c-.213-.212-.284-.496-.071-.779.213-.212.496-.283.78-.071l13.687 10.482c.212.212.283.495.07.779-.07.07-.212.141-.425.141zM31.26 187.628c-.213 0-.497-.142-.497-.425-.07-.284.142-.567.426-.638l16.736-3.824c.284-.071.567.142.638.425.071.283-.142.566-.425.637L31.4 187.628h-.142zM168.27 191.735a.542.542 0 01-.355-.142l-12.339-11.897a.555.555 0 010-.779.556.556 0 01.78 0l12.339 11.897a.555.555 0 010 .779c-.141.071-.283.142-.425.142zM641.991 389.11c-.142 0-.213-.07-.355-.141l-13.403-10.694c-.213-.213-.283-.496-.071-.779.213-.213.497-.283.78-.071l13.404 10.694c.212.212.283.496.07.779-.07.142-.283.212-.425.212zM665.748 250.587c-.213 0-.355-.071-.426-.284-.141-.283-.07-.566.213-.708l14.822-8.711c.283-.141.567-.071.709.213.142.283.071.566-.213.708l-14.821 8.711c-.071.071-.213.071-.284.071zM257.151 548.669c-14.811-.071-44.361.284-53.29.284-.355 0-11.339-.071-13.748-.071.85-7.305 1.63-14.68 2.48-21.985-1.346.071-2.622.071-3.968.142.709-16.453 2.905-74.607 3.331-87.301-4.89-6.312-28.063-38.013-34.157-47.02-2.764 45.034-5.457 90.067-8.22 135.172-1.063.071-2.764.142-4.819.283 1.063.922 2.126 1.703 3.118 2.412.85.496 2.693 1.56 6.59 2.766 8.291 2.624 11.126 1.347 15.094 3.049 2.977 1.277 6.803 4.255 9.78 12.411-14.811-.071-44.362.284-53.29.284-.355 0-11.339-.071-13.748-.071.708-6.596-.567-127.229-1.913-186.446 10.275-.78 77.384-6.028 79.226-6.17 3.472 5.673 7.512 12.269 11.834 19.644 24.236 40.921 26.858 51.275 27.992 59.501 0 0 .142.851.212 1.631 1.701 17.588-1.629 38.439-1.629 38.439-.922 7.233-1.985 14.609-2.977 21.984-1.417 9.716-2.834 19.361-4.322 28.793 1.771 1.773 3.472 3.192 5.031 4.185.85.496 2.693 1.56 6.59 2.766 8.291 2.624 11.126 1.347 15.094 3.049 2.906 1.135 6.803 4.113 9.709 12.269z" fill="#000"/>
  <path d="M247.372 196.344c-.071 1.773-.213 3.758-.355 6.028a195.223 195.223 0 01-2.126 18.013c-.212 1.419-.496 2.837-.779 4.326-.496 2.482-.921 4.894-1.347 7.092-3.188 16.311-5.74 26.027-13.889 33.545-4.323 3.971-11.197 6.95-25.086 12.694-8.646 3.617-15.945 6.17-21.118 7.801l4.252 42.977c.921 9.078 1.772 18.155 2.693 27.233-4.323.142-25.582 1.56-39.33 2.837a2905.485 2905.485 0 01-39.896 3.404c-.213 0-1.134.071-1.347.071-1.701-17.304-4.535-47.232-7.086-75.103-2.055-22.411-3.969-43.545-4.89-55.53-.213-2.695-.425-4.893-.496-6.595-.07-1.348-.213-2.979-.284-4.894-.212-4.68-.141-10.921 1.418-18.013.354-1.489.708-3.05 1.204-4.61 1.276-4.184 2.906-7.801 7.441-15.106 2.126-3.404 4.819-7.517 8.433-12.907 1.063-1.56 2.126-3.191 3.402-4.964.212-.355.496-.709.708-1.064 3.402-4.964 7.299-10.638 11.764-16.879 1.134-1.56 2.267-3.12 3.401-4.751.213.142.567.283.851.496 3.259 1.844 11.267 6.596 15.873 9.432a42.27 42.27 0 001.559.922c.496.284.851.568 1.134.71-.283.425-.496.851-.779 1.347-1.489 2.624-3.26 5.532-5.032 8.581l-.638 1.064c-3.047 5.177-6.165 10.496-8.645 14.68-.567 1.064-1.276 2.128-1.913 3.192-3.614 6.17-7.866 13.474-11.551 19.715a317.227 317.227 0 00-2.481 4.184l1.914 13.829c.567 3.83 1.063 7.66 1.63 11.489.708 5.177 1.417 10.355 2.196 15.603.851.141 8.079 1.702 16.087 3.404 5.173 1.063 10.629 2.269 14.952 3.191 4.252.922 7.441 1.631 8.079 1.773 5.173-1.418 10.346-2.766 15.519-4.113a7094.946 7094.946 0 0131.606-8.44 446.349 446.349 0 002.834-11.418c.921-3.758 1.772-7.588 2.622-11.489.425-1.843.78-3.687 1.205-5.531.638-3.121 1.275-6.241 1.913-9.291l.638-3.191c.425-2.198.85-4.397 1.276-6.524v-.071h.212c3.26.071 6.52.141 9.779.283.496 0 .993 0 1.489.071 2.48.071 4.11.142 7.299.213.567.213 3.259.284 3.685.284z" fill="#FEE200"/>
  <path d="M157.445 146.275c-.213 0-.355-.071-.426-.284-.141-.283-.071-.567.142-.709l1.984-1.277c.851-.496 1.63-.992 2.339-1.418a74.612 74.612 0 012.764-1.702c.496-.284 1.275-.78 1.559-1.631.283-.993-.284-1.986-.284-1.986-.425-.78-1.205-1.064-1.842-1.347-.78-.284-1.559-.639-1.772-1.56-.142-.497 0-.922.142-1.277.141-.355.212-.709.141-1.277-.07-.283-.141-.78-.496-1.205-.354-.426-.708-.568-1.204-.709-.496-.142-1.063-.284-1.559-.922-.425-.568-.496-1.064-.567-1.49 0-.354-.071-.709-.355-1.205-.283-.355-.425-.497-.779-.639a3.886 3.886 0 01-1.063-.78c-.921-.851-1.205-1.631-1.488-2.198-.142-.426-.284-.638-.425-.78-1.063-.709-4.677 1.986-6.732 4.042-4.394 4.326-8.575 9.574-12.402 15.46-.212.284-.425.639-.638.993l-.07.071c-.142.213-.496.284-.709.142-.213-.142-.284-.496-.142-.709.213-.355.425-.709.638-.993 3.827-5.957 8.079-11.276 12.543-15.673.992-.922 5.882-5.603 8.079-4.184.496.283.637.78.85 1.276.213.568.425 1.135 1.205 1.844.354.355.637.497.85.638.354.213.709.426 1.134.993.496.71.496 1.277.567 1.702 0 .355.071.568.283.922.284.355.638.426 1.063.568.496.142 1.205.354 1.772 1.063.496.639.638 1.348.638 1.703.141.851-.071 1.418-.213 1.843-.071.284-.142.426-.071.639.071.354.496.567 1.134.851.779.283 1.772.709 2.409 1.773 0 0 .851 1.347.426 2.836-.355 1.277-1.489 1.915-2.056 2.27-.85.496-1.7 1.064-2.763 1.702-.709.425-1.488.922-2.339 1.418l-1.984 1.277c-.142-.142-.213-.071-.283-.071z" fill="#000"/>
  <path d="M152.271 153.58c-.212 0-.354-.071-.496-.284-.141-.284 0-.567.213-.709.496-.213 1.276-.639 2.197-1.135a97.02 97.02 0 019.212-3.972c3.189-1.276 5.315-2.127 5.315-2.978 0-.638-.921-1.418-1.63-1.702-.992-.497-2.197-.142-3.189.071-.708.142-1.346.425-1.984.78-.283.142-.567.071-.709-.213-.141-.284-.07-.567.213-.709a11.736 11.736 0 012.197-.851c1.134-.284 2.551-.638 3.897 0 .78.354 2.268 1.347 2.268 2.695 0 1.631-1.984 2.411-5.953 3.971-2.409.993-5.456 2.128-9.141 3.972a27.92 27.92 0 01-2.197 1.064c0-.071-.071 0-.213 0z" fill="#000"/>
  <path d="M155.177 151.594l-3.331 1.418-17.787-10.921c.213-.355.425-.639.638-.993l20.48 10.496zM246.734 196.84c-.284 0-.567-.213-.567-.496v-3.263c-.071-1.702-.142-3.333-.284-4.964a73.772 73.772 0 00-1.275-8.226c0-.142-.78-3.688-1.984-5.958-.567-1.063-1.134-1.702-1.63-1.773-.213 0-1.134.071-1.984.568-.284.142-.426.283-.638.425a2.283 2.283 0 01-.921.568c-.709.212-1.205 0-1.63-.142a1.961 1.961 0 00-.922-.213c-.496.071-.779.355-1.204.709-.425.426-.992.993-1.984.993-.426 0-.638-.071-.851-.142-.212-.071-.354-.142-.779-.142-1.063-.071-1.701.213-2.126.426-.567.284-.78.709-.992 1.135-.284.496-.567 1.063-1.347 1.489-.567.284-.921.284-1.275.284-.355 0-.638 0-1.134.283-.355.142-1.276.568-1.559 1.348-.355.922.212 1.985.496 2.624.283.567.567 1.205.921 1.844l.071.212c.142.355.354.71.496 1.135v.071c.567 1.276 1.205 2.695 1.913 4.326.142.284 0 .567-.283.709-.284.142-.567 0-.709-.283-.708-1.632-1.275-3.05-1.842-4.327v-.07a13.73 13.73 0 01-.496-1.135l-.071-.213c-.284-.638-.567-1.276-.851-1.844-.354-.78-1.063-2.127-.566-3.546.425-1.134 1.629-1.702 2.055-1.915.779-.354 1.204-.354 1.629-.354.284 0 .497 0 .851-.213.496-.284.709-.638.921-1.064.284-.496.567-1.134 1.417-1.56.709-.425 1.63-.567 2.693-.567.567 0 .851.142 1.063.212.142.071.213.071.425.071.567 0 .851-.354 1.276-.709.425-.425.921-.922 1.842-.993.638-.071 1.063.142 1.418.284.354.142.567.213.921.142.213-.071.283-.142.496-.284.213-.142.425-.354.78-.567.992-.568 2.125-.709 2.551-.709.921 0 1.7.78 2.551 2.34 1.275 2.411 2.055 6.028 2.126 6.241.567 2.695 1.063 5.532 1.275 8.368.142 1.631.284 3.333.284 5.036 0 1.063.071 2.127 0 3.262-.071.354-.284.567-.567.567z" fill="#000"/>
  <path d="M225.262 196.344a.537.537 0 01-.354-.142l-1.134-1.206c-.284-.354-.638-.709-.992-1.135-1.914-2.269-4.394-5.035-5.882-7.517-1.347-2.269-1.701-3.83-1.063-4.964.567-.851 1.701-1.277 2.622-1.206.709.071 1.417.355 3.685 3.333l.567.71c.283.354.496.709.708.921l.213.284a.542.542 0 01.142.355.56.56 0 01-.567.567.542.542 0 01-.355-.142l-.07-.071-.213-.354c-.213-.284-.425-.568-.709-.922l-.567-.709c-1.984-2.483-2.622-2.908-2.976-2.908-.567-.071-1.275.213-1.63.709-.283.497-.354 1.56 1.063 3.83 1.418 2.34 3.827 5.106 5.74 7.375.355.426.709.78.992 1.064l1.134 1.206a.556.556 0 010 .78.54.54 0 01-.354.142z" fill="#000"/>
  <path d="M246.734 196.273l-10.205-.213-11.551-.213v-.071h.213c-.213-.212-.425-.496-.709-.78 4.748-.425 17.291-1.489 22.181-1.915.071 1.064.071 2.128.071 3.192zM173.885 220.314c-.071.071-.212.071-.283.142-.071 0-.071.071-.142.071l-1.063.426-1.488.638c-.425 1.489-.921 3.049-1.347 4.539-.425 1.418-.779 2.836-1.204 4.184-.426 0-2.268-.213-2.622-.284.567-1.844.071-3.759-1.276-4.964-1.771-1.56-4.393-.993-5.811-.142-2.055 1.277-2.905 3.759-2.622 5.886.071.355.142.709.213.993.708 2.199 2.551 3.333 2.834 3.475-.07.142-.212.213-.283.355-1.276 1.489-2.693 2.978-4.11 4.468-1.914 1.985-3.756 3.9-5.598 5.744-1.063-.142-2.126-.355-3.189-.496l-1.489-.213c-1.913-.284-3.897-.638-5.81-.922-.142 0-.284-.071-.426-.071-.212-4.681-.141-8.723.071-12.198a67.118 67.118 0 011.063-8.581c.142-.993.355-1.915.638-2.837.283-1.064.709-2.057 1.346-3.191 3.685-6.312 10.772-7.943 11.622-8.156.284-.071 1.772-.355 3.969-.355 3.33 0 8.149.71 12.259 4.114 1.205.993 3.543 2.978 4.465 6.382.141.284.212.71.283.993z" fill="#000"/>
  <path d="M160.917 237.051h-.142c-.496-.142-.992-.284-1.417-.496-.496-.213-1.063-.568-1.488-.851-.213-.142-.284-.497-.142-.709.142-.213.496-.284.709-.142.425.283.85.567 1.346.78.425.213.85.354 1.276.425.283.071.425.355.354.639a.534.534 0 01-.496.354z" fill="#000"/>
  <path d="M159.358 254.568a.559.559 0 01-.567-.567v-5.461c0-.284.213-.496.567-.496h.425c2.339.07 6.732-.284 9.992-3.405 2.835-2.765 3.26-6.382 3.827-10.921l.212-1.915c.284-3.688 0-7.517-.85-11.276v-.071c0-.142-.071-.284-.071-.496-.071-.213-.213-.426-.354-.71 0 0-.426-.78-.851-1.418-.708-.993-2.267-2.766-3.33-3.546-.709-.567-7.087-5.461-14.953-3.759-6.023 1.277-9.212 5.603-10.842 9.007a3.783 3.783 0 00-.425.993c-.567 1.347-.851 2.411-.992 3.12-.425 2.128-.851 4.894-1.134 8.156-.354 3.475-.567 7.588-.709 12.198v.071l-.142 5.39c0 .284-.283.496-.566.496-.284 0-.496-.283-.496-.567l.141-5.461v-.071c.142-4.609.425-8.723.709-12.198.283-3.333.709-6.099 1.205-8.297.141-.709.496-1.915 1.063-3.333.141-.355.283-.71.496-1.064 1.7-3.617 5.173-8.298 11.551-9.645 8.362-1.773 15.094 3.404 15.873 3.971 1.063.851 2.764 2.695 3.543 3.83.496.709.922 1.489.922 1.56.141.355.283.567.425.78v.071c.071.213.071.355.142.567v.071c.85 3.83 1.133 7.731.85 11.56-.071.638-.142 1.348-.213 1.986-.567 4.751-1.063 8.581-4.181 11.56-3.401 3.333-8.007 3.758-10.558 3.758v4.894c-.213.425-.426.638-.709.638z" fill="#000"/>
  <path d="M159.712 248.114c0 .284-.071.568-.071.852-.141 1.56-.212 3.049-.283 4.467-.709-.78-1.347-1.489-2.055-2.198-1.347-1.489-2.764-3.05-4.11-4.539 1.275.567 2.905 1.064 4.818 1.277.567.071 1.134.141 1.701.141zM582.773 351.089c-.779 0-1.63-.426-2.126-1.064-.779-1.064-.496-2.411.142-4.255.354-.922.78-1.986 1.347-3.333l.637-1.49c.355-.851.709-1.773 1.063-2.695-1.913 2.341-3.401 4.327-4.535 5.958-.071.071-.78 1.063-1.772 2.198-2.834 3.192-3.968 3.475-4.535 3.404-1.063-.142-1.772-.922-2.126-1.631-.283-.567-.425-1.276-.283-2.127.283-1.561 1.346-3.192 1.984-4.114.708-1.064 1.346-1.702 1.417-1.773a101.129 101.129 0 003.969-4.68c-.567.496-1.134 1.134-1.843 1.844-1.276 1.276-2.409 2.269-3.118 2.978-5.811 5.39-7.086 5.532-8.008 5.177-1.063-.354-1.7-1.489-1.842-2.482-.213-1.631 1.205-3.049 3.189-4.964.496-.497.921-.851.921-.851a455.399 455.399 0 007.086-6.525c-6.307 3.262-10.913 5.532-11.621 5.745-.992.283-1.701-.071-1.772-.071-.213-.071-.354-.213-.425-.284-.284-.213-.567-.709-.78-1.206-.071-.283-.212-.638-.212-1.063.071-2.27 3.189-3.688 4.464-4.326 7.37-3.475 15.165-7.021 23.102-10.709l.638-.284c.425-.213.779-.354 1.205-.567l3.684-1.702c.284-.142.567 0 .709.283.142.284 0 .568-.283.71l-3.685 1.702c-.425.212-.78.354-1.205.567l-.638.284c-7.937 3.617-15.732 7.233-23.102 10.637-1.063.497-3.826 1.773-3.897 3.405 0 .212.071.425.142.638.141.354.354.638.496.78 0 0 .071.071.212.142 0 0 .425.213 1.063 0 .709-.213 6.095-2.908 14.882-7.518.212-.141.496-.071.708.142a.546.546 0 01-.07.709c-4.89 4.61-8.221 7.731-9.992 9.22 0 0-.355.284-.851.78-1.771 1.773-2.976 2.979-2.905 4.113.071.568.496 1.348 1.134 1.561.496.141 1.7-.142 6.944-4.965.496-.496 1.489-1.347 3.118-2.907a207.8 207.8 0 003.544-3.476c1.842-1.843 1.984-1.914 2.409-1.56.142.071.213.284.213.426.07.851-4.04 6.17-6.733 9.006 0 0-.566.639-1.275 1.632-.567.851-1.63 2.34-1.843 3.687-.07.568-.07 1.064.142 1.419.213.425.78.993 1.347 1.064.07 0 .921 0 3.614-3.05.992-1.135 1.771-2.128 1.771-2.128 1.488-2.127 3.756-5.035 6.662-8.581.141-.212.425-.283.708-.142.213.142.355.426.213.639-.78 2.056-1.559 3.971-2.268 5.815l-.638 1.489c-.567 1.348-.992 2.412-1.275 3.334-.638 1.843-.709 2.694-.284 3.262.284.425.78.638 1.276.638.638 0 1.346-.567 1.984-1.702.284-.425.496-.922.709-1.276l.141-.355c.213-.355.355-.709.567-1.064 0 0 0-.071.071-.071.992-1.986 2.055-3.971 2.977-5.957.496-1.064 1.063-2.128 1.559-3.191a.477.477 0 01.425-.284 21.298 21.298 0 005.598-1.206 21.082 21.082 0 007.157-4.255 26.045 26.045 0 003.544-3.829c.141-.213.496-.284.708-.071.213.142.284.496.071.709a21.839 21.839 0 01-3.685 3.971c-2.267 1.986-4.748 3.475-7.511 4.397-1.772.639-3.685 1.064-5.599 1.277-.496.993-.921 1.986-1.417 2.908l-2.976 5.957-.496-.142.496.213c-.213.354-.355.709-.567 1.134l-.142.355c-.213.425-.496.922-.78 1.418-.992 1.419-1.913 2.128-3.047 2.199.071 0 .071 0 0 0z" fill="#000"/>
  <path d="M578.876 343.855c1.134-1.631 3.118-4.255 6.661-8.581-.85 2.198-1.63 4.184-2.268 5.815-.85 2.057-1.488 3.617-1.913 4.823-1.417 0-2.835.071-4.252.071.992-1.135 1.772-2.128 1.772-2.128zM590.001 345.699c-.779 0-1.629 0-2.409.071H586.813s0-.071.07-.071a16526 16526 0 002.977-5.957c0 1.986.071 3.971.141 5.957z" fill="#000"/>
  <path fill-rule="evenodd" clip-rule="evenodd" d="M573.348 225.137c4.04.851 18.425 4.255 34.299 14.893 11.622 7.801 32.952 22.126 33.093 41.984 0 5.744-2.125 10.496-6.448 19.786a153.698 153.698 0 01-21.826 34.325 368.61 368.61 0 01-8.008-5.106 321.207 321.207 0 01-11.409-7.659c-1.347-.852-2.622-1.773-3.898-2.695-.319-.213-.638-.444-.957-.674a29.834 29.834 0 00-.956-.674c-11.197 5.106-19.488 8.936-23.102 10.638-1.205.496-4.11 1.915-4.181 3.83 0 .425.142.851.142.851.141.425.425.78.637.992 0 .071.142.142.284.213 0 0 .567.284 1.417.071.78-.213 6.803-3.262 14.953-7.517-5.599 5.248-8.575 7.943-9.992 9.219 0 0-.355.284-.851.78-1.913 1.915-3.189 3.192-3.047 4.539.071.709.638 1.702 1.488 1.986.638.284 1.772.213 7.441-5.035.213-.213.549-.532 1.054-1.011.505-.479 1.178-1.117 2.064-1.968a325.325 325.325 0 003.595-3.522c1.124-1.115 1.567-1.555 1.649-1.513.142.142-3.189 5.035-6.59 8.652-.142.071-.709.709-1.347 1.631-.637.922-1.7 2.482-1.913 3.901-11.799.248-23.58.478-35.361.709-11.782.23-23.563.461-35.362.709a2626.694 2626.694 0 005.528-37.445c1.275-9.291 2.551-18.51 3.826-27.659-1.204 1.631-3.047 3.901-5.385 6.454-7.016 7.73-23.527 25.814-36.283 22.552-1.559-.425-2.906-1.418-2.906-1.418-1.842-1.064-3.118-2.341-3.968-3.333-.035-1.064-.337-8.883-.638-16.702-.301-7.819-.602-15.637-.637-16.701l-.603-15.957c-.283-7.499-.567-14.999-.602-15.957 2.197 4.965 4.464 9.858 6.803 14.893a1281.057 1281.057 0 009.354 19.574c3.968-5.745 14.881-20.992 29.054-33.545 10.914-9.645 18.85-13.403 23.882-15.318 1.346-.497 2.622-.922 3.897-1.348v-5.46a522.606 522.606 0 0029.692 0v2.907c4.253.494 7.916 1.255 10.85 1.865.439.092.862.18 1.268.263zm15.52 86.592c4.11-4.468 8.291-9.149 12.472-14.113 4.323-5.177 8.433-10.212 12.33-15.177-2.971-1.582-5.943-3.133-8.936-4.695-1.433-.747-2.87-1.497-4.315-2.255a743.29 743.29 0 00-12.898-6.595c.107 3.723.231 7.677.355 11.63.124 3.954.248 7.908.354 11.631l.638 19.574z" fill="#000"/>
  <path d="M463.721 537.96c.709 5.461 1.417 10.567 1.984 15.248-7.228-.071-15.944-.071-26.007 0 2.976-9.503 7.086-12.836 10.488-14.113 4.748-1.773 8.078-.071 13.535-1.135zM506.24 553.35c-2.551.071-6.095.071-10.347.071l-3.118-3.972v3.972h-.212c-8.858 0-15.307-.142-17.858-.213h-4.89c-.071-5.319-.212-11.064-.354-17.375 2.835-1.561 5.953-4.114 9.212-8.227h24.661c.992 8.581 1.984 17.162 2.906 25.744zM583.836 549.449l3.118 3.972c3.898 0 7.228-.071 9.567-.071-.921-8.581-1.913-17.092-2.835-25.673-8.291.071-16.511.071-24.802.142-5.386 6.879-10.488 9.219-14.244 10.07-5.882 1.348-9.212-.638-14.173 1.206-3.33 1.277-7.511 4.61-10.488 14.113 14.74-.071 26.574 0 35.007.071 2.551 0 9 .213 17.858.213h.921v-4.043h.071zM536.215 220.74c-.283 0-.496-.213-.496-.426l-.425-2.127c-3.614.283-6.874-.426-9.496-2.199-6.59-4.326-6.59-13.12-6.59-16.027 0-1.986.283-7.092 2.693-11.915.071-.071.071-.142.141-.213 1.701-3.404 4.181-6.028 7.37-7.659.851-.425 8.15-4.113 14.882-.922 4.677 2.27 7.653 7.092 9.708 15.744l.071.355c.071.283-.071.567-.354.638-.284.071-.567-.071-.638-.355l-.071-.425c-1.984-8.298-4.748-12.978-9.141-15.035-6.236-2.978-13.181.497-13.961.851-2.976 1.56-5.314 4.043-6.944 7.234-.071.071-.071.142-.071.142-2.268 4.609-2.551 9.574-2.551 11.489 0 2.765 0 11.063 6.094 15.105 2.551 1.632 5.74 2.341 9.283 1.986.284 0 .496.142.567.426.142.851.355 1.773.496 2.624.071.283-.141.567-.425.638-.071.071-.071.071-.142.071z" fill="#000"/>
  <path d="M551.026 207.549h-.354c-.284 0-.496-.284-.496-.567 0-.284.283-.497.567-.497.708 0 1.346-.071 1.984-.284 2.197-.851 4.535-3.758 3.401-7.091-.496-1.419-1.488-2.483-2.834-3.121a5.53 5.53 0 00-4.252-.213c-.78.284-1.417.71-1.488.78-1.063.851-1.489 1.986-1.701 2.624-.071.284-.354.426-.638.355-.283-.071-.425-.355-.354-.638.212-.709.708-2.128 2.055-3.192.496-.496 1.701-.922 1.771-.992 1.63-.568 3.473-.497 5.032.283a7.062 7.062 0 013.401 3.759c1.347 3.9-1.417 7.376-3.968 8.368-.709.355-1.417.426-2.126.426z" fill="#000"/>
  <path d="M554.924 195.847c-.426-.283-3.331-1.844-6.166-.78-1.346.497-2.267 1.489-2.267 1.489-.78.851-1.063 1.773-1.205 2.27l-5.527-8.298c-1.985-.567-3.473-1.347-4.394-1.844-3.118-1.773-5.882-4.609-5.882-4.609-.638.709-1.559 1.418-2.622 2.198-1.842 1.206-3.614 1.702-4.819 1.986.426-1.418 2.126-6.312 7.016-9.361 5.386-3.404 11.976-2.908 16.724-.355 6.094 3.191 9.708 10.071 9.142 17.304zM555.987 204.003l.283 7.446-2.693-5.106 2.41-2.34z" fill="#000"/>
  <path d="M557.687 220.74c-.283 0-.496-.213-.496-.426-.496-2.978-.921-5.957-1.417-8.936l-.213-1.276c-.212-1.631-.496-3.262-.708-4.893-.071-.284.141-.568.425-.568.283-.071.567.142.567.426.212 1.631.496 3.262.708 4.893l.213 1.277c.425 2.978.921 5.957 1.417 8.935.071.284-.141.568-.425.639l-.071-.071zM565.978 528.315c-.283 0-.496-.212-.496-.425a9262.488 9262.488 0 00-5.669-37.516l-.425-2.837c-3.047-19.645-6.236-39.573-9.567-59.288l-.496-3.05c-.212-1.135-.354-2.269-.567-3.333a6285.417 6285.417 0 00-8.078-46.807c-.071-.283.142-.567.425-.638.283-.071.567.142.638.426 2.905 16.382 5.527 31.7 8.078 46.806.213 1.135.355 2.27.567 3.333l.496 3.05c3.26 19.715 6.52 39.644 9.567 59.288l.425 2.837c1.984 12.765 3.898 25.247 5.598 37.091l11.055-.071h3.26c4.323 0 8.575-.071 12.897-.071l6.591-.071-13.252-181.269c0-.284.213-.567.496-.567.284 0 .567.212.567.496l13.323 181.836c0 .142-.071.284-.142.426-.071.142-.213.142-.354.142l-7.158.07c-4.322 0-8.574.071-12.897.071h-3.26l-11.622.071z" fill="#000"/>
  <path d="M505.46 528.103h-32.527c-.141 0-.283-.071-.425-.213-.071-.142-.142-.284-.142-.426l35.858-181.198c.071-.283.354-.496.638-.425.283.071.496.354.425.638L473.5 527.039h31.464l.213-.709 26.999-84.394 12.968-40.566c.071-.283.355-.425.638-.354.283.071.425.354.354.638l-12.968 40.566-.283.851-27.071 84.606c.071.284-.07.426-.354.426z" fill="#000"/>
  <path d="M510.633 348.536a1.701 1.701 0 100-3.402 1.701 1.701 0 000 3.402zM529.341 348.536a1.701 1.701 0 100-3.402 1.701 1.701 0 000 3.402zM548.05 348.536a1.7 1.7 0 001.7-1.702 1.7 1.7 0 10-1.7 1.702zM566.829 348.536a1.702 1.702 0 10-.002-3.404 1.702 1.702 0 00.002 3.404zM587.238 346.834a1.68 1.68 0 01-1.701 1.702h-.213c.284-.497.567-.922.78-1.348.213-.496.496-.922.709-1.418 0 0 0-.071.07-.071l.071.071c.142.284.284.709.284 1.064zM519.987 357.259a1.701 1.701 0 100-3.402 1.701 1.701 0 000 3.402zM538.696 357.259a1.7 1.7 0 001.7-1.702 1.7 1.7 0 10-1.7 1.702zM557.475 357.259a1.7 1.7 0 001.7-1.702 1.7 1.7 0 10-1.7 1.702zM576.183 357.259a1.702 1.702 0 10-.002-3.404 1.702 1.702 0 00.002 3.404zM510.633 367.329a1.701 1.701 0 100-3.402 1.701 1.701 0 000 3.402zM529.341 367.329a1.701 1.701 0 100-3.402 1.701 1.701 0 000 3.402zM548.05 367.329a1.7 1.7 0 001.7-1.702 1.7 1.7 0 10-1.7 1.702zM566.829 367.329a1.702 1.702 0 10-.002-3.404 1.702 1.702 0 00.002 3.404zM585.537 367.329a1.702 1.702 0 10-.002-3.404 1.702 1.702 0 00.002 3.404zM519.987 375.981a1.701 1.701 0 100-3.402 1.701 1.701 0 000 3.402zM538.696 375.981a1.7 1.7 0 001.7-1.702 1.7 1.7 0 10-1.7 1.702zM557.475 375.981a1.7 1.7 0 001.7-1.702 1.7 1.7 0 10-1.7 1.702zM576.183 375.981a1.702 1.702 0 10-.002-3.404 1.702 1.702 0 00.002 3.404zM510.633 386.761a1.701 1.701 0 100-3.402 1.701 1.701 0 000 3.402zM529.341 386.761a1.701 1.701 0 100-3.402 1.701 1.701 0 000 3.402zM548.05 386.761a1.7 1.7 0 001.7-1.702 1.7 1.7 0 10-1.7 1.702zM566.829 386.761a1.702 1.702 0 10-.002-3.404 1.702 1.702 0 00.002 3.404zM585.537 386.761a1.702 1.702 0 10-.002-3.404 1.702 1.702 0 00.002 3.404zM501.279 395.484a1.702 1.702 0 10-.002-3.404 1.702 1.702 0 00.002 3.404zM519.987 395.484a1.701 1.701 0 100-3.402 1.701 1.701 0 000 3.402zM538.696 395.484a1.7 1.7 0 001.7-1.702 1.7 1.7 0 10-1.7 1.702zM557.475 395.484a1.7 1.7 0 001.7-1.702 1.7 1.7 0 10-1.7 1.702zM576.183 395.484a1.702 1.702 0 10-.002-3.404 1.702 1.702 0 00.002 3.404zM510.633 405.555a1.702 1.702 0 10-.002-3.406 1.702 1.702 0 00.002 3.406zM529.341 405.555a1.702 1.702 0 000-3.405 1.702 1.702 0 000 3.405zM548.05 405.555a1.702 1.702 0 000-3.405 1.702 1.702 0 000 3.405zM566.829 405.555a1.702 1.702 0 10-.002-3.404 1.702 1.702 0 00.002 3.404zM585.537 405.555a1.702 1.702 0 10-.002-3.404 1.702 1.702 0 00.002 3.404zM501.279 414.207a1.702 1.702 0 10-.002-3.404 1.702 1.702 0 00.002 3.404zM519.987 414.207a1.701 1.701 0 100-3.402 1.701 1.701 0 000 3.402zM538.696 414.207a1.7 1.7 0 001.7-1.702 1.7 1.7 0 10-1.7 1.702zM557.475 414.207a1.7 1.7 0 001.7-1.702 1.7 1.7 0 10-1.7 1.702zM576.183 414.207a1.702 1.702 0 10-.002-3.404 1.702 1.702 0 00.002 3.404zM495.326 423.284c0 .922-.779 1.702-1.7 1.702h-.355l.638-3.404c.851.213 1.417.922 1.417 1.702zM512.334 424.986a1.702 1.702 0 10-.002-3.404 1.702 1.702 0 00.002 3.404zM531.113 424.986a1.702 1.702 0 10-.002-3.404 1.702 1.702 0 00.002 3.404zM551.522 423.284c0 .922-.779 1.702-1.701 1.702-.212-1.134-.354-2.269-.567-3.333.142-.071.355-.071.567-.071.922 0 1.701.78 1.701 1.702zM568.53 424.986a1.7 1.7 0 001.7-1.702 1.7 1.7 0 10-1.7 1.702zM587.238 424.986a1.702 1.702 0 10-.002-3.404 1.702 1.702 0 00.002 3.404zM502.98 433.709a1.702 1.702 0 10-.002-3.404 1.702 1.702 0 00.002 3.404zM521.688 433.709a1.702 1.702 0 10-.002-3.404 1.702 1.702 0 00.002 3.404zM559.175 433.709a1.701 1.701 0 100-3.402 1.701 1.701 0 000 3.402zM577.884 433.709a1.7 1.7 0 001.7-1.702 1.7 1.7 0 10-1.7 1.702zM493.626 443.78a1.7 1.7 0 001.7-1.702 1.7 1.7 0 10-1.7 1.702zM512.334 443.78a1.702 1.702 0 10-.002-3.404 1.702 1.702 0 00.002 3.404zM531.113 443.78a1.702 1.702 0 10-.002-3.404 1.702 1.702 0 00.002 3.404zM568.53 443.78a1.7 1.7 0 001.7-1.702 1.7 1.7 0 10-1.7 1.702zM587.238 443.78a1.702 1.702 0 10-.002-3.404 1.702 1.702 0 00.002 3.404zM502.98 452.432a1.702 1.702 0 10-.002-3.404 1.702 1.702 0 00.002 3.404zM521.688 452.432a1.702 1.702 0 10-.002-3.404 1.702 1.702 0 00.002 3.404zM559.175 452.432a1.701 1.701 0 100-3.402 1.701 1.701 0 000 3.402zM577.884 452.432a1.7 1.7 0 001.7-1.702 1.7 1.7 0 10-1.7 1.702zM595.316 451.865c-.283-.284-.425-.71-.425-1.135 0-.355.071-.638.284-.922.07.709.07 1.347.141 2.057zM493.626 463.212a1.7 1.7 0 001.7-1.702 1.7 1.7 0 10-1.7 1.702zM512.334 463.212a1.702 1.702 0 10-.002-3.404 1.702 1.702 0 00.002 3.404zM568.53 463.212a1.7 1.7 0 001.7-1.702 1.7 1.7 0 10-1.7 1.702zM587.238 463.212a1.702 1.702 0 10-.002-3.404 1.702 1.702 0 00.002 3.404zM485.972 470.233c0 .922-.779 1.702-1.7 1.702h-.213l.638-3.404a1.764 1.764 0 011.275 1.702zM502.98 471.935a1.702 1.702 0 10-.002-3.404 1.702 1.702 0 00.002 3.404zM521.688 471.935a1.702 1.702 0 10-.002-3.404 1.702 1.702 0 00.002 3.404zM559.175 471.935a1.701 1.701 0 100-3.402 1.701 1.701 0 000 3.402zM577.884 471.935a1.7 1.7 0 001.7-1.702 1.7 1.7 0 10-1.7 1.702zM596.804 471.935h-.141c-.922 0-1.701-.78-1.701-1.702 0-.922.709-1.702 1.63-1.702 0 1.063.142 2.269.212 3.404zM493.626 482.005a1.7 1.7 0 001.7-1.702 1.7 1.7 0 10-1.7 1.702zM512.334 482.005a1.702 1.702 0 10-.002-3.404 1.702 1.702 0 00.002 3.404zM568.53 482.005a1.7 1.7 0 001.7-1.702 1.7 1.7 0 10-1.7 1.702zM587.238 482.005a1.702 1.702 0 10-.002-3.404 1.702 1.702 0 00.002 3.404zM484.272 490.657a1.7 1.7 0 001.7-1.702 1.7 1.7 0 10-1.7 1.702zM502.98 490.657a1.702 1.702 0 10-.002-3.404 1.702 1.702 0 00.002 3.404zM560.876 488.955c0 .497-.212.993-.567 1.277-.141-.922-.283-1.915-.425-2.837.567.284.992.851.992 1.56zM577.884 490.657a1.7 1.7 0 001.7-1.702 1.7 1.7 0 10-1.7 1.702zM596.663 490.657a1.7 1.7 0 001.7-1.702 1.7 1.7 0 10-1.7 1.702zM494.83 501.437a1.701 1.701 0 100-3.402 1.701 1.701 0 000 3.402zM514.814 498.529l-.921 2.979h-.283c-.922 0-1.701-.78-1.701-1.702 0-.922.779-1.702 1.701-1.702.425-.071.85.071 1.204.425zM569.734 501.437a1.701 1.701 0 100-3.402 1.701 1.701 0 000 3.402zM588.513 501.437a1.701 1.701 0 100-3.402 1.701 1.701 0 000 3.402zM485.476 510.16a1.701 1.701 0 100-3.402 1.701 1.701 0 000 3.402zM504.185 510.16a1.7 1.7 0 001.7-1.702 1.7 1.7 0 10-1.7 1.702zM579.159 510.16a1.701 1.701 0 100-3.402 1.701 1.701 0 000 3.402zM597.867 510.16a1.701 1.701 0 100-3.402 1.701 1.701 0 000 3.402zM476.122 520.231c.94 0 1.701-.762 1.701-1.702a1.701 1.701 0 10-1.701 1.702zM494.83 520.231c.94 0 1.701-.762 1.701-1.702a1.701 1.701 0 10-1.701 1.702zM569.734 520.231c.94 0 1.701-.762 1.701-1.702a1.701 1.701 0 10-1.701 1.702zM588.513 520.231c.94 0 1.701-.762 1.701-1.702a1.701 1.701 0 10-1.701 1.702zM487.248 527.181c0 .141 0 .283-.071.425h-3.331c0-.142-.07-.284-.07-.425 0-.922.779-1.702 1.7-1.702.992 0 1.772.78 1.772 1.702zM505.814 526.542l-.354 1.064h-2.905c0-.142-.071-.284-.071-.425 0-.922.779-1.702 1.701-1.702.779 0 1.346.425 1.629 1.063zM580.86 527.181c0 .212 0 .354-.071.567h-3.26c-.071-.142-.071-.355-.071-.567 0-.922.78-1.702 1.701-1.702s1.701.78 1.701 1.702zM599.568 527.181c0 .141 0 .283-.071.425h-3.33c-.071-.142-.071-.284-.071-.425 0-.922.779-1.702 1.701-1.702.992 0 1.771.78 1.771 1.702z" fill="#000"/>
  <path fill-rule="evenodd" clip-rule="evenodd" d="M430.84 235.349c.212.071.496.071.708.071 2.835 0 5.244-3.191 5.528-3.759.992-1.347 1.63-2.978 1.842-4.751 2.41.851 10.984 3.688 14.315 3.191.425-.071 1.559-.284 2.055-1.135.425-.78.142-1.631.071-1.843-.496-1.561-2.409-2.128-5.386-2.908-1.63-.426-3.614-.993-5.811-1.844.515.069 1.096.154 1.736.248.681.1 1.429.21 2.233.319 1.283.168 2.697.379 4.174.6a485.477 485.477 0 001.313.196c1.788.276 3.035.468 4.009-.228 0-.071.07-.071.07-.071.071 0 .142-.071.213-.142.78-.78 1.134-2.057.78-3.05-.213-.638-.638-1.134-1.276-1.56 0-.071-.071-.071-.071-.071-1.205-.709-3.118-1.134-5.386-1.631-2.48-.496-4.96-.993-7.369-1.347 2.055-.213 4.606-.426 7.157-.355.921 0 1.701.071 2.409.142l.299.02c.926.063 1.689.115 2.394.051.85-.142 1.559-.426 2.055-.993.709-.78 1.063-1.844.851-2.837-.284-1.134-1.205-2.056-2.552-2.482.709-.851.567-2.128.213-2.979a3.037 3.037 0 00-.992-1.134c-1.205-.851-3.118-1.135-5.669-1.277-5.882-.425-9.142-.638-11.976.284-.496.142-.922.284-1.347.496-3.189 1.277-6.165 3.617-8.433 6.454-2.622 3.404-4.181 7.305-4.252 11.063-.07 2.624.567 5.461 1.914 8.298l.071.142c.496 1.134 1.063 2.269 1.7 3.12.709.922 1.489 1.489 2.41 1.702zm8.291-30.353c1.346-.426 2.835-.568 4.748-.568 1.842 0 4.039.142 7.086.497 2.055.142 4.04.355 5.103 1.064.283.212.496.425.637.709.355.638.284 1.489-.071 1.915a.371.371 0 01-.106.071.345.345 0 00-.106.071c-.496.283-1.559.283-3.898.212h-.779c-1 0-1.712-.032-2.179-.053-.228-.01-.398-.018-.514-.018-2.409-.141-4.961 0-7.653.355-.284 0-.496.284-.426.567 0 .284.284.497.567.426a33.472 33.472 0 017.441-.355c.425 0 1.205 0 2.764.071h.779c.491 0 .927.006 1.316.01 1.017.013 1.715.022 2.228-.081.04.041.058.058.078.066.016.005.033.005.063.005.071 0 .142.018.213.036.071.017.142.035.212.035 1.276.213 2.197.922 2.41 1.844.142.567-.071 1.347-.567 1.844-.354.354-.78.567-1.417.638-.556.062-1.219.016-2.083-.044l-.398-.027a23.19 23.19 0 00-2.409-.142c-3.685-.141-7.228.284-9.567.71l-1.275.212c-.284.071-.425.284-.425.568.07.283.212.496.496.496.425 0 .85.071 1.275.142 3.118.425 6.236.993 9.425 1.631 2.055.426 3.898.851 4.961 1.489 0 .071.071.071.071.071.425.284.708.568.85.993.213.709 0 1.489-.496 1.986-.036 0-.053.018-.071.035-.018.018-.035.036-.071.036l-.071.071c-.613.341-1.554.223-3.138.024a89.66 89.66 0 01-5.578-.804 88.058 88.058 0 00-4.039-.639c-.665-.083-1.28-.141-1.79-.19-.361-.035-.668-.064-.903-.093l-.78-.071c-.283 0-.496.213-.567.425-.07.284.071.497.284.639l.142.07c.141.071.283.142.496.213.425.213 1.133.497 1.842.78 2.48.993 4.748 1.631 6.59 2.128 2.481.638 4.323 1.135 4.678 2.198 0 0 .212.568 0 .993-.243.424-.795.538-1.128.606-.057.012-.107.022-.148.033-3.543.567-14.244-3.263-14.386-3.334-.212-.071-.354 0-.496.071-.141.142-.212.284-.212.426-.142 1.773-.709 3.475-1.701 4.893-.283.426-2.834 3.901-5.315 3.404-.708-.142-1.275-.567-1.842-1.347-.638-.78-1.134-1.844-1.63-2.979l-.071-.142c-1.205-2.695-1.842-5.319-1.772-7.801.071-3.546 1.489-7.233 4.04-10.425a19.88 19.88 0 018.007-6.17c.426-.212.851-.354 1.276-.496z" fill="#000"/>
  <path d="M517.649 232.37a.532.532 0 01-.496-.354c-4.748-15.035-11.409-29.361-19.701-42.481-8.432-13.261-25.936-40.849-49.18-55.245-.283-.142-.354-.497-.141-.71.141-.283.496-.354.708-.141 23.457 14.467 41.031 42.196 49.464 55.529 8.362 13.191 15.023 27.588 19.842 42.693.071.284-.071.568-.354.639 0 .07-.071.07-.142.07zM394.061 263.788c-10.275 0-20.834-2.695-29.976-7.66-10.487-5.673-18.283-13.829-22.605-23.545-4.465-9.999-4.394-18.226-3.898-22.197 1.701-14.752 9.283-32.836 20.409-48.296 16.582-23.191 37.7-37.02 57.896-38.084 4.252-.212 8.504.142 12.756.993 2.197.426 4.464 1.064 6.732 1.844 1.984.709 3.969 1.489 5.953 2.411.283.142.354.426.283.709-.142.284-.425.355-.708.284a46.153 46.153 0 00-5.882-2.34c-2.197-.78-4.394-1.419-6.591-1.844-4.181-.851-8.362-1.206-12.472-.993-19.842.993-40.676 14.751-57.046 37.587-10.984 15.39-18.566 33.261-20.267 47.8-.354 3.12-.709 11.559 3.827 21.63 4.252 9.503 11.905 17.446 22.18 22.978 9.567 5.177 20.693 7.872 31.322 7.517 16.087-.496 28.346-7.73 35.787-13.758.213-.213.567-.142.78.071.212.212.141.567-.071.78-7.583 6.099-20.126 13.474-36.425 13.971-.708.142-1.346.142-1.984.142zM118.965 281.517a.534.534 0 01-.496-.354c-2.764-7.376-5.315-14.893-7.512-22.34l-.07-.142c-4.111-13.829-10.276-34.608-13.677-56.735-5.599-36.807-.921-62.834 13.818-77.231 4.11-4.042 9.425-7.517 14.457-9.644 6.236-2.554 12.047-3.05 16.865-1.348 3.685 1.277 6.945 3.901 9.851 7.943.141.213.141.567-.142.709-.213.142-.567.142-.709-.142-2.764-3.829-5.811-6.311-9.283-7.517-9.708-3.404-22.535 3.191-30.259 10.78-14.527 14.183-19.063 39.856-13.535 76.308 3.33 22.056 9.566 42.835 13.606 56.594l.071.142c2.196 7.446 4.747 14.893 7.511 22.268a.675.675 0 01-.283.709c-.071-.071-.142 0-.213 0z" fill="#000"/>
  <path fill-rule="evenodd" clip-rule="evenodd" d="M291.095 571.647c-13.181 0-24.377-3.404-32.172-9.929-3.969-3.333-7.441-7.801-9.922-12.765-2.125-4.255-3.472-8.794-3.897-13.191-.354-3.83-.071-7.447.85-10.851 2.977-10.567 13.252-19.999 28.134-25.814 14.102-5.532 31.038-7.163 45.14-4.397 16.134 3.102 26.174 11.111 35.9 18.87l.17.136.522.412c3.492 2.757 6.81 5.376 10.321 7.673 5.314-18.794 3.543-42.977-5.103-69.926-14.669 6.737-40.463 14.609-65.62 17.304-21.685 2.34-50.668 1.702-65.833-14.893-.992-1.135-1.985-2.269-2.835-3.475-9.796-13.753-7.467-31.084-6.326-39.575l.019-.14c1.488-10.921 5.669-21.985 11.764-31.133 7.157-10.78 16.653-18.581 27.566-22.481 4.96-1.773 10.134-2.837 15.377-3.05-.141-3.333 0-6.525.497-9.574.637-3.617 1.7-7.021 3.259-10 8.646-16.595 30.189-18.935 52.936-21.346 11.905-1.277 24.236-2.624 35.007-6.099-36.212-19.219-51.164-39.999-59.172-54.04-4.889-8.582-9-17.943-12.401-28.723-15.378 9.574-25.511 22.269-27.991 34.822-1.559 8.155.425 14.325 2.622 20.85 2.48 7.446 5.031 15.247 1.559 26.027-5.528 17.021-20.905 27.375-32.386 31.062-15.873 5.107-36.424 1.986-52.439-8.013-8.787-5.461-15.236-12.624-18.071-20.07-5.385-14.042-.283-35.105 13.89-57.941 10.062-16.241 24.023-32.268 40.322-46.239 3.826-3.334 7.866-6.525 11.905-9.574 3.756-2.837 7.582-5.461 11.409-7.943 10.275-6.738 20.976-12.411 31.676-16.808-2.409-2.766-5.314-4.468-8.787-5.248-8.787-1.986-17.007 3.12-25.653 8.581-.283.142-.567.071-.708-.142-.142-.213-.071-.567.141-.709 8.858-5.603 17.291-10.851 26.504-8.723 3.826.851 6.944 2.837 9.566 5.886 19.063-7.73 37.984-11.489 56.196-11.134 7.582.142 15.519.993 23.527 2.553 26.362 5.106 53.361 17.73 70.439 32.906.213.213.213.497.071.781-.212.212-.496.212-.779.07-16.937-15.034-43.795-27.587-69.944-32.693-7.936-1.56-15.802-2.411-23.314-2.553-18-.355-36.637 3.333-55.487 10.921 4.96 6.524 7.44 16.735 10.558 29.569l.001.004c1.63 6.738 3.472 14.326 5.882 22.127 13.039-7.872 27.92-12.482 42.164-13.049 8.716-.354 17.008.851 24.519 3.546 7.441 2.695 25.511 10.922 33.377 29.857 0 .044.027.088.065.148.023.038.05.081.077.136 6.024 14.609 5.031 32.41-2.551 45.246-5.031 8.581-12.897 14.68-23.952 18.723 9.496 4.893 18.85 9.006 27.92 12.978 19.134 8.368 35.645 15.602 44.432 26.807 3.756 4.752 5.811 9.858 6.449 15.673.638 5.815-.354 11.844-2.905 17.872v.071c-5.386 12.623-17.079 23.97-26.858 32.48 22.181 30.85 30.047 82.692 6.874 103.613-7.016 6.383-20.551 13.049-32.81 13.546-5.885.258-11.297-.959-12.253-1.174a2.537 2.537 0 00-.149-.032c-4.535-1.135-8.858-3.05-13.464-5.886-1.984 6.524-4.89 12.411-8.575 17.375-11.409 15.531-33.873 27.375-57.258 30.211-3.472.284-6.803.497-9.992.497zm14.102-77.231c-10.346 0-21.118 1.915-30.613 5.674-14.599 5.673-24.59 14.822-27.496 25.105-.921 3.262-1.205 6.737-.85 10.496.425 4.255 1.701 8.652 3.756 12.765 2.409 4.894 5.74 9.149 9.637 12.411 9.425 7.943 24.165 11.134 41.314 9.078 23.031-2.766 45.212-14.468 56.479-29.786 3.685-4.965 6.52-10.851 8.504-17.375-3.827-2.483-7.441-5.319-11.197-8.369-9.637-7.73-19.629-15.673-35.574-18.793a81.163 81.163 0 00-13.96-1.206zm75.471 33.899c-4.536-1.134-8.858-3.049-13.465-5.957 5.457-19.077 3.685-43.615-5.102-70.99 16.299-7.588 30.968-16.737 43.724-27.233a536.686 536.686 0 0012.047-10.07c21.968 30.495 29.763 81.557 7.015 102.123-6.874 6.241-20.125 12.766-32.101 13.262-5.752.259-11.032-.898-11.971-1.104-.091-.02-.141-.031-.147-.031zM221.577 411.157c-1.134 8.298-3.472 25.46 6.094 39.006a58.897 58.897 0 002.764 3.404c14.882 16.24 43.511 16.878 64.912 14.538 25.086-2.695 50.81-10.638 65.408-17.304-10.276-31.417-23.102-50.282-27.141-55.742-13.181 3.546-27 6.17-39.543-2.979-10.204-7.447-17.716-22.198-18.85-36.665-5.173.213-10.275 1.276-15.094 2.978-15.165 5.532-34.44 22.695-38.55 52.764zm140.17 39.218c-10.063-30.849-22.677-49.643-26.999-55.6 1.24-.331 2.48-.686 3.707-1.037l.002-.001c.875-.251 1.742-.499 2.597-.735l.187-.054c16.454-4.735 33.469-9.632 50.907-1.648 11.763 5.319 18.991 13.687 25.015 21.914-4.11 3.546-8.291 7.092-12.047 10.141-12.614 10.425-27.212 19.503-43.369 27.02zm10.488-64.465c6.732 0 13.535 1.206 20.409 4.326 11.905 5.461 19.275 13.829 25.369 22.198 9.638-8.44 21.189-19.574 26.504-31.985v-.071c2.551-5.957 3.472-11.63 2.834-17.375-.638-5.602-2.622-10.567-6.236-15.106-8.574-10.921-25.015-18.155-44.007-26.452-9.354-4.114-18.991-8.369-28.842-13.475-10.893 3.704-23.438 5.066-35.668 6.395l-.543.059-.022.002c-22.456 2.41-43.634 4.684-52.064 20.777-1.488 2.837-2.551 6.099-3.118 9.645-.496 2.908-.638 6.099-.496 9.361 2.197-.071 4.465 0 6.449.213 23.881 2.624 38.479 22.056 51.377 39.289 2.196-.638 4.464-1.276 6.732-1.915l1.071-.3c9.801-2.747 19.927-5.586 30.251-5.586zm-77.455 5.319c-9.992-7.305-17.362-21.701-18.425-35.885 2.197-.071 4.323.071 6.236.213 23.244 2.553 37.7 21.559 50.385 38.58-12.756 3.475-26.149 5.886-38.196-2.908zm-16.299-219.494c-10.771 4.397-21.472 10.07-31.818 16.808-3.756 2.482-7.583 5.106-11.338 7.942a256.521 256.521 0 00-11.835 9.504c-16.157 13.9-30.046 29.857-40.109 45.955-13.96 22.481-18.992 43.261-13.748 56.948 2.764 7.234 9 14.184 17.645 19.503 15.732 9.787 36 12.907 51.519 7.872 11.197-3.617 26.22-13.759 31.676-30.424 3.402-10.496.922-18.085-1.559-25.389v-.001c-2.126-6.382-4.322-12.978-2.692-21.417 2.551-12.907 12.968-25.885 28.7-35.672-2.481-7.943-4.323-15.602-5.953-22.411-3.047-12.694-5.527-22.906-10.488-29.218zm30.188 80.989c-4.96-8.51-8.999-17.942-12.401-28.722 12.897-7.872 27.708-12.482 41.952-13.12 8.575-.284 16.724.851 24.094 3.546 7.228 2.624 25.015 10.709 32.739 29.29 0 .035.018.07.036.106.017.035.035.071.035.106 5.882 14.326 4.961 31.772-2.48 44.325-5.032 8.581-12.968 14.68-24.307 18.58-17.645-9.219-42.873-24.892-59.668-54.111z" fill="#000"/>
  <path d="M206.341 187.904c-2.409 0-4.819-.212-7.299-.567-5.386-.78-17.929-2.624-26.291-12.411-4.322-5.106-5.315-9.645-6.661-15.957-.709-3.12-1.417-6.737-2.764-10.992a104.963 104.963 0 00-1.7-4.964c-.071-.284 0-.568.283-.71.283-.141.567 0 .709.213 0 0 .071.071.071.142a104.963 104.963 0 011.7 4.964c1.347 4.326 2.126 7.943 2.835 11.064 1.346 6.17 2.268 10.567 6.449 15.46 8.149 9.503 20.408 11.276 25.652 12.056 6.166.922 12.047.638 18-.78a38.558 38.558 0 004.89-1.418l.283-.071.213.496.141.497-.283.071a59.202 59.202 0 01-5.031 1.489c-3.756.922-7.441 1.418-11.197 1.418zM470.524 588.596c-.284 0-.496-.212-.496-.425a5206.033 5206.033 0 01-6.732-50.14 6782.702 6782.702 0 01-18.779-157.298c-1.205-10.992-2.339-22.127-3.473-33.048-3.472-33.474-6.661-67.444-9.637-100.847-.284-4.042-.567-8.014-.851-11.985 0-.284.213-.568.496-.568.284 0 .567.213.567.497.284 3.9.567 7.943.851 11.914 2.976 33.474 6.165 67.373 9.637 100.847 1.134 10.921 2.268 22.056 3.473 33.048a6782.05 6782.05 0 0018.779 157.298 6211.158 6211.158 0 005.527 41.488v-.496c0-.213-.354-21.702-.779-42.977-.355-17.801-4.04-116.946-10.914-294.527-.425-6.808-.85-13.403-1.204-18.368l.496-.071h.567c.354 4.965.779 11.56 1.204 18.368 6.874 177.652 10.559 276.726 10.914 294.598.425 21.275.779 42.764.779 42.977v.141c.071 3.05.071 6.099.142 9.078-.071.284-.284.496-.567.496zM429.422 211.875a.485.485 0 01-.496-.497c-.354-6.24-.637-11.347-.85-16.098-1.417-30.283-1.488-53.757-.071-69.713 1.134-13.475 3.26-21.702 6.449-25.035 1.205-1.206 2.338-1.702 3.543-1.276 1.488.496 6.024 1.914 11.126 34.608 2.693 17.304 5.173 41.417 7.511 71.557 0 .284-.212.568-.496.568-.283 0-.567-.213-.567-.497-2.338-30.14-4.889-54.182-7.511-71.486-4.11-26.524-7.937-32.977-10.346-33.758-.78-.212-1.63.071-2.481.993-2.976 3.121-5.031 11.347-6.165 24.396-1.346 15.886-1.346 39.29.071 69.572.213 4.752.496 9.858.85 16.099a.559.559 0 01-.567.567c.071 0 .071 0 0 0z" fill="#000"/>
  <path fill-rule="evenodd" clip-rule="evenodd" d="M437.855 170.955h4.181c.284 0 .496-.213.567-.497.851-9.432.922-19.077.284-28.58-.425-6.383-1.276-13.546-2.197-19.219-1.689-9.93-2.819-9.929-3.39-9.929h-.012c-.566 0-1.7.071-2.338 10.354-.425 5.674-.496 12.837-.354 19.219a209.075 209.075 0 002.763 28.226c0 .213.213.426.496.426zm3.685-1.064h-3.259c-1.559-9.078-2.41-18.368-2.622-27.659-.355-13.829.566-26.736 1.629-28.367 1.276 1.56 3.544 14.609 4.465 28.084.638 9.29.567 18.722-.213 27.942z" fill="#000"/>
  <path d="M457.131 218.967h-.567c-.071-.851-.142-1.773-.213-2.695l-.071-1.419c0-.283.213-.567.496-.567.284 0 .567.213.567.497l.071 1.418c.071.922.142 1.773.213 2.695l-.496.071z" fill="#000"/>
</svg>
