<svg fill="none" xmlns="http://www.w3.org/2000/svg" viewBox="0 0 795 673">
  <path d="M687.13 388.219c-10.425 0-21.436-8.012-32.708-23.906-.13-.195-.13-.521.13-.651.196-.13.522-.13.652.13 11.467 16.089 22.544 23.971 32.969 23.45 8.47-.456 14.269-6.188 20.459-12.246 6.125-5.993 12.38-12.246 21.501-12.637 10.165-.521 20.72 6.319 31.406 20.258.195.195.13.521-.065.716-.196.196-.522.131-.717-.065-10.49-13.678-20.72-20.388-30.558-19.866-8.731.455-14.921 6.513-20.915 12.375-5.995 5.928-12.25 12.051-21.046 12.507-.391-.065-.782-.065-1.108-.065zM105.026 563.11c-8.666 0-17.788-6.644-27.17-19.801-.13-.196-.13-.521.13-.652.26-.13.521-.13.652.131 9.512 13.288 18.634 19.801 27.235 19.345 6.972-.391 11.793-5.08 16.875-10.096 5.082-5.015 10.295-10.161 17.853-10.552 8.47-.456 17.201 5.211 26.062 16.805.196.196.131.521-.065.717-.195.13-.521.13-.716-.065-8.666-11.269-17.136-16.806-25.216-16.415-7.232.326-12.314 5.406-17.201 10.227-4.952 4.885-10.099 9.965-17.462 10.421-.391-.065-.717-.065-.977-.065zM18.785 349.459c-5.929 0-12.249-4.56-18.7-13.614-.13-.195-.13-.521.13-.651.196-.13.522-.13.652.13 6.45 9.054 12.64 13.484 18.44 13.158 4.69-.261 7.949-3.452 11.402-6.839 3.453-3.453 7.102-6.97 12.314-7.231 5.8-.26 11.859 3.583 17.918 11.53.196.195.13.521-.065.716-.195.196-.521.13-.716-.065-5.864-7.686-11.598-11.399-17.071-11.138-4.887.26-8.145 3.517-11.663 6.969-3.454 3.387-6.972 6.84-12.054 7.1-.196-.065-.391-.065-.587-.065z" fill="#000"/>
  <path fill-rule="evenodd" clip-rule="evenodd" d="M678.655 322.674c.065.065.195.13.326.13.04 0 .105-.025.195-.059.056-.021.121-.046.196-.071l9.708-9.706a.511.511 0 000-.716l-9.708-9.705a.51.51 0 00-.717 0l-9.708 9.705a.51.51 0 000 .716l9.708 9.706zm.326-1.042l-9.057-9.054 9.057-9.054 9.056 9.054-9.056 9.054z" fill="#000"/>
  <path d="M738.734 301.782h-.195c-.261-.065-.391-.391-.261-.651l5.603-14.721c.066-.261.391-.391.652-.261.261.066.391.391.261.652l-5.604 14.721c-.065.13-.26.26-.456.26zM794.134 91.285c-.13 0-.261-.066-.391-.196l-10.425-11.855c-.195-.195-.13-.52.065-.716.196-.195.521-.13.717.065l10.425 11.855c.195.195.13.521-.065.716a.499.499 0 01-.326.13zM71.21 633.718c-.13 0-.196-.065-.326-.13L58.7 623.557c-.196-.195-.26-.456-.065-.716.195-.196.456-.261.716-.066l12.184 10.031c.196.196.261.456.066.717-.13.13-.26.195-.391.195zM152.525 286.801a.497.497 0 01-.326-.13.51.51 0 010-.717l11.011-11.334a.513.513 0 01.717 0 .513.513 0 010 .717l-11.077 11.268a.357.357 0 01-.325.196zM146.204 180.563c-.13 0-.26-.065-.39-.195l-9.644-12.441c-.195-.196-.13-.522.066-.717.195-.195.521-.13.716.065l9.643 12.441c.196.196.131.521-.065.717-.13.065-.195.13-.326.13zM22.882 144.113c-.13 0-.326-.065-.391-.196-.13-.195-.13-.521.065-.716l12.575-9.51c.196-.13.521-.13.717.065.13.195.13.521-.065.717l-12.576 9.575c-.13.065-.195.065-.325.065zM253.386 71.264c-.195 0-.326-.065-.391-.26l-8.275-13.419c-.13-.26-.065-.521.131-.651.26-.13.521-.065.651.13l8.275 13.418c.131.26.065.521-.13.651-.065.066-.13.13-.261.13zM369.309 13.666c-.13 0-.196 0-.326-.13-.195-.13-.26-.456-.065-.716L378.431.183c.13-.195.456-.26.717-.065.26.195.26.456.065.716L369.7 13.471c-.065.13-.261.195-.391.195zM472.832 73.153c-.13 0-.261-.065-.391-.13l-10.62-11.66a.51.51 0 010-.716.51.51 0 01.716 0l10.686 11.659a.512.512 0 010 .716c-.13.066-.261.13-.391.13zM160.083 51.006h-.131l-15.181-4.43c-.261-.064-.391-.325-.326-.585.065-.26.326-.391.587-.326l15.181 4.43c.261.065.391.325.326.586a.49.49 0 01-.456.325zM624.125 73.218a.497.497 0 01-.326-.13c-.196-.196-.196-.456-.065-.717l10.555-11.79c.195-.195.456-.195.717-.065.195.196.195.456.065.717l-10.49 11.79a.706.706 0 01-.456.195zM654.813 289.146c-.13 0-.326-.065-.391-.196l-9.448-12.636c-.13-.196-.13-.521.131-.652.195-.13.521-.13.651.131l9.448 12.636c.13.196.13.521-.13.652-.066 0-.196.065-.261.065zM719.513 220.362a.491.491 0 01-.456-.326c-.065-.261 0-.521.261-.651l14.725-5.602c.26-.065.521 0 .651.26.066.261 0 .521-.26.652l-14.725 5.601c-.066.066-.131.066-.196.066zM677.618 138.615c-.131 0-.261-.065-.391-.195l-10.099-12.116c-.196-.195-.131-.521.065-.716.195-.196.521-.131.716.065l10.1 12.115c.195.196.13.521-.066.717a.497.497 0 01-.325.13zM705.7 86.115a.49.49 0 01-.456-.326c-.13-.26 0-.52.26-.651l14.595-6.058c.261-.13.522 0 .652.26.13.261 0 .522-.261.652l-14.595 6.058c-.065.065-.13.065-.195.065zM678.269 462.083a.501.501 0 01-.326-.13l-11.402-10.878a.511.511 0 010-.716.51.51 0 01.717 0l11.402 10.878a.51.51 0 010 .716c-.13.065-.26.13-.391.13zM270.522 592.617c-.065 0-.195 0-.26-.065l-13.097-8.793a.507.507 0 01-.13-.652c.13-.195.456-.26.652-.13l13.096 8.793c.195.131.261.456.13.652-.13.065-.26.195-.391.195zM341.217 617.499c-.065 0-.131 0-.196-.065-.26-.13-.326-.391-.26-.651l6.711-14.265c.13-.261.391-.326.651-.261.261.131.326.391.261.652l-6.711 14.33c-.131.13-.261.26-.456.26zM662.306 641.535c-.13 0-.196-.065-.326-.13l-12.184-10.031c-.195-.196-.261-.456-.065-.717.195-.195.456-.261.717-.065l12.184 10.031c.195.195.26.456.065.716-.13.131-.261.196-.391.196zM734.238 526.634c-.065 0-.195 0-.26-.065a.506.506 0 01-.131-.652l8.927-13.027c.13-.195.456-.261.651-.13.196.13.261.456.131.651l-8.927 13.027c-.065.131-.195.196-.391.196z" fill="#000"/>
  <path fill-rule="evenodd" clip-rule="evenodd" d="M148.55 482.797a6.037 6.037 0 003.975 1.498h.391c1.563-.13 2.997-.912 4.104-2.084 1.108-1.173 1.629-2.736 1.499-4.364-.13-1.564-.847-3.062-2.085-4.104-1.173-1.107-2.737-1.628-4.366-1.498-3.322.26-5.798 3.126-5.603 6.448.13 1.564.847 3.062 2.085 4.104zm.586-.717a4.9 4.9 0 01-1.694-3.452c-.195-2.801 1.955-5.211 4.692-5.341 1.303-.065 2.606.326 3.648 1.238a4.892 4.892 0 011.694 3.452c.066 1.303-.325 2.605-1.238 3.647a4.896 4.896 0 01-3.453 1.694c-1.303.065-2.606-.326-3.649-1.238zM513.685 85.594c.586.326 1.238.521 1.889.521 1.108 0 2.281-.586 2.932-1.563.522-.782.652-1.759.457-2.606a3.556 3.556 0 00-1.499-2.15 3.48 3.48 0 00-4.822 1.043c-.521.782-.651 1.694-.456 2.606a3.556 3.556 0 001.499 2.149zm3.974-1.628c-.716 1.172-2.28 1.498-3.453.781-.586-.39-.977-.912-1.108-1.563-.13-.651-.065-1.303.326-1.889.717-1.172 2.281-1.498 3.454-.782.586.326.977.912 1.107 1.564.131.651.065 1.302-.326 1.889zM731.176 626.553a4.043 4.043 0 002.085.587c.123 0 .246-.015.376-.03a3.92 3.92 0 01.471-.035c1.043-.261 1.89-.847 2.476-1.759a3.565 3.565 0 00.521-2.931c-.26-1.042-.847-1.889-1.759-2.475-1.824-1.108-4.235-.587-5.408 1.237-1.108 1.824-.586 4.234 1.238 5.406zm1.433-6.253c.196-.065.457-.065.652-.065.521 0 1.108.13 1.564.456 1.368.912 1.759 2.736.912 4.104-.391.651-1.043 1.107-1.824 1.303-.782.195-1.564 0-2.216-.391-1.368-.912-1.759-2.736-.912-4.104.391-.651 1.043-1.107 1.824-1.303zM189.321 278.885h415.563c.26 0 .521-.26.521-.521v-30.358a.514.514 0 00-.521-.521H189.321a.513.513 0 00-.521.521v30.358c0 .326.26.521.521.521zm415.107-.977H189.842v-29.381h414.586v29.381z" fill="#000"/>
  <path fill-rule="evenodd" clip-rule="evenodd" d="M189.321 278.886h415.563c.26 0 .521-.261.521-.522V117.842a.514.514 0 00-.521-.521H189.321a.514.514 0 00-.521.521v160.522c0 .326.26.522.521.522zm415.107-.978H189.842v-159.61h414.586v159.61zM368.545 381.622h236.339c.26 0 .521-.195.586-.456v-82.932a.514.514 0 00-.521-.521H368.545a.513.513 0 00-.521.521v82.867c0 .326.26.521.521.521zm235.883-.977H369.001V298.69h235.427v81.955z" fill="#000"/>
  <path fill="#00BE75" d="M368.545 400.971h236.404v269.122H368.545z"/>
  <path fill-rule="evenodd" clip-rule="evenodd" d="M189.321 573.154h156.43c.261 0 .521-.261.521-.521V296.475a.513.513 0 00-.521-.521h-156.43a.514.514 0 00-.521.521v276.158c0 .326.26.521.521.521zm155.974-.977H189.842V296.996h155.453v275.181z" fill="#000"/>
  <path d="M262.587 263.836c33.377 0 60.436-27.067 60.436-60.456s-27.059-60.456-60.436-60.456c-33.378 0-60.436 27.067-60.436 60.456s27.058 60.456 60.436 60.456z" fill="#00BE75"/>
  <path d="M461.869 178.885a.501.501 0 01-.326-.13c-5.731-5.994-16.281-17.329-22.728-25.798-1.563-2.085-4.819-6.32-3.322-9.382.587-1.172 1.694-2.019 2.931-2.215 2.8-.39 5.21 2.671 6.968 4.886l.196.261a126.575 126.575 0 008.075 9.316c-1.302-1.889-2.344-3.583-2.8-4.234a246.865 246.865 0 00-3.582-5.343c-3.712-5.472-5.275-7.752-4.298-10.228.586-1.498 2.019-2.671 3.386-2.866 2.996-.456 5.536 3.322 9.313 8.99l.326.456c3.256 4.886 6.708 9.903 10.224 14.984.131.195.131.521-.13.652-.195.13-.521.13-.651-.131-3.517-5.081-6.968-10.098-10.225-14.984l-.325-.456c-3.452-5.146-5.927-8.925-8.336-8.534-1.042.13-2.149 1.108-2.605 2.28-.782 1.955.651 4.105 4.168 9.316a249.043 249.043 0 013.582 5.342c.455.717 1.628 2.541 2.995 4.561a229.973 229.973 0 002.996 4.364l.195.261c2.41 2.867 2.475 2.932 2.41 3.323 0 .13-.065.26-.195.325-.456.326-.586.391-3.126-3.257l-.065-.065c-4.559-4.495-8.597-8.99-12.049-13.42l-.195-.261c-1.498-1.954-3.777-4.886-6.057-4.56-.911.13-1.823.781-2.214 1.628-1.237 2.541 1.889 6.645 3.191 8.404 6.448 8.469 16.933 19.74 22.664 25.733a.513.513 0 010 .717c-.13 0-.261.065-.391.065z" fill="#000"/>
  <path d="M491.892 177.517a.489.489 0 01-.456-.326c0-.065-.065-.26-.196-.521-.195-.456-.455-1.173-.846-2.085-1.563-4.039-4.689-11.661-6.578-16.026-1.954-4.43-3.907-8.534-4.949-10.554l-.261-.521c-.26-.521-.456-.912-1.302-2.801l-.912-2.02c-2.8-6.189-4.233-9.316-6.252-9.446-.912-.065-1.954.521-2.54 1.303-1.042 1.498-.13 3.713 1.563 7.752.456 1.108.912 2.281 1.433 3.649 1.107 2.931 2.214 5.993 3.126 9.12.065.261-.065.521-.261.587-.195.13-.521 0-.586-.196a302.82 302.82 0 01-8.401-15.114l-.326-.586c-2.149-4.105-3.972-7.622-6.317-7.622-.911 0-1.823.456-2.344 1.172-1.238 1.759.456 5.212 3.777 11.531a533.216 533.216 0 006.578 12.183c.13.26.065.521-.196.651-.26.13-.521.065-.651-.195-2.214-4.039-4.428-8.144-6.643-12.183-3.647-6.84-5.34-10.293-3.777-12.508.716-.977 1.954-1.629 3.126-1.629 2.931 0 4.95 3.779 7.229 8.144l.326.586a393.417 393.417 0 006.056 11.075 78.756 78.756 0 00-1.693-4.691c-.521-1.368-1.042-2.54-1.433-3.583-1.823-4.365-2.8-6.775-1.433-8.729.782-1.108 2.15-1.759 3.387-1.694 2.67.13 4.038 3.192 7.099 9.967l.911 2.02c.847 1.824 1.042 2.215 1.303 2.736l.26.456a228.322 228.322 0 014.95 10.619c1.954 4.43 5.014 12.052 6.577 16.091.391.912.652 1.629.847 2.085.13.261.195.456.195.521.066.261-.065.521-.325.652.065.13 0 .13-.065.13zM458.808 190.155a.497.497 0 01-.325-.13l-.587-.586c-.13-.065-.195-.196-.325-.261-2.801-2.606-5.796-4.756-8.922-6.384a36.675 36.675 0 00-2.801-1.368c-2.995-1.434-5.405-2.541-5.991-5.017-.391-1.628.065-3.452 1.172-4.43 2.084-1.889 5.861-.651 10.225.847 2.8.977 4.949 2.085 6.708 2.932a53.96 53.96 0 014.233 2.345 31.93 31.93 0 012.279-1.889 15.505 15.505 0 014.429-2.15c2.409-.782 4.949-.977 7.489-.651.26.065.456.26.456.521-.065.26-.261.456-.521.456-2.41-.326-4.819-.065-7.099.651a15.507 15.507 0 00-4.168 2.02c-.912.586-1.693 1.303-2.409 2.019-.131.131-.391.196-.587.066a73.022 73.022 0 00-4.493-2.476c-1.759-.912-3.908-1.954-6.578-2.867-4.103-1.368-7.619-2.605-9.248-1.042-.911.847-1.107 2.411-.846 3.518.456 2.02 2.54 2.997 5.47 4.365l2.866 1.433c3.256 1.694 6.317 3.909 9.117 6.58.131.065.196.195.326.326.195.195.391.391.651.586a.51.51 0 010 .717c-.26-.196-.391-.131-.521-.131z" fill="#000"/>
  <path d="M459.004 165.856c-.066 0-.131 0-.196-.066-.26-.13-.325-.39-.26-.651 1.237-2.606 2.995-4.821 5.145-6.515 5.405-4.169 11.592-3.778 14.001-3.452.261.065.456.26.391.586-.065.26-.26.456-.586.391-2.279-.326-8.141-.652-13.285 3.257-2.084 1.564-3.778 3.713-4.885 6.189.065.195-.13.261-.325.261zM491.696 176.54a17372.296 17372.296 0 01-32.888 13.094 5.879 5.879 0 00-.651-.586c10.876-4.886 21.752-9.772 32.693-14.658.39.977.651 1.694.846 2.15zM285.25 191.914c-.391 1.955.13 3.974.261 4.235a8.94 8.94 0 001.172 2.606 74.282 74.282 0 00-3.777-.521c-5.08-4.43-10.225-8.86-15.305-13.29a5768.254 5768.254 0 00-24.617 17.85c-.782-1.954-5.08-13.29.651-24.951 7.685-15.701 26.05-16.743 26.832-16.743 15.695-.586 28.329 11.14 32.823 23.583 3.516 9.707 1.693 18.502.651 22.28a389.472 389.472 0 00-4.363-6.579c2.474-2.541 3.256-6.255 2.084-9.382-1.433-3.778-5.406-6.058-9.313-5.472-3.712.521-6.513 3.453-7.099 6.384z" fill="#000"/>
  <path d="M282.059 233.413c-.195 0-.391-.13-.456-.261l-1.758-3.713c-1.498.782-3.061 1.368-4.624 1.694-1.498.326-3.061.521-4.494.456-10.811-.391-18.105-11.205-21.231-15.831-4.037-5.993-6.577-13.485-6.577-13.55-.065-.261.065-.587.325-.652.261-.065.521 0 .587.261v.065c0 .065 2.539 7.427 6.447 13.355 3.061 4.495 10.094 15.049 20.449 15.375a13.813 13.813 0 004.298-.456 20.42 20.42 0 004.755-1.824h.065c.13-.066.26-.066.39-.066.131.066.261.131.326.261l1.954 4.169c.13.261 0 .522-.261.652-.065 0-.13.065-.195.065zM309.737 215.628c-.13 0-.326-.065-.391-.196l-2.214-3.452c-1.889-2.932-3.777-5.929-5.666-8.86-.13-.196-.065-.522.13-.652a.507.507 0 01.652.13c1.888 2.932 3.777 5.929 5.666 8.86l2.214 3.453a.507.507 0 01-.13.652c-.066 0-.131.065-.261.065z" fill="#000"/>
  <path d="M282.059 232.892l6.773-4.365c.065-.13.13-.195.195-.326 2.736-5.277 3.778-10.097 4.168-13.355-1.432 2.802-4.037 6.906-8.531 10.424-1.693 1.368-3.387 2.345-4.884 3.127l.195.391c.651 1.368 1.368 2.736 2.084 4.104zM345.751 296.475v133.03c-4.233 1.368-8.531 2.671-12.764 4.039-1.694.521-3.452 1.108-5.145 1.629-1.172.391-5.275 1.628-6.513 2.085-.39.13-11.136 3.517-11.657 3.648-2.279-12.964-9.899-78.242-10.811-95.571-3.321 16.352-9.508 28.079-14.067 35.31-6.122 9.642-10.811 17.003-19.798 20.847-2.8 1.238-10.615 4.039-34.972-2.476-10.355-2.736-24.552-7.426-40.703-15.765v-48.079c8.662 4.235 18.821 8.469 30.413 12.183a237.141 237.141 0 0024.422 6.254c1.759-7.036 3.777-14.267 5.927-21.629a581.438 581.438 0 0111.787-35.505h83.881z" fill="#000"/>
  <path fill-rule="evenodd" clip-rule="evenodd" d="M309.411 441.362c.066.065.196.065.261.065 0 0 .065 0 .13-.065l36.145-11.401a.49.49 0 00.325-.456V296.54a.514.514 0 00-.521-.521h-83.685a.489.489 0 00-.456.326 566.042 566.042 0 00-11.788 35.505 601.796 601.796 0 00-5.861 21.238c-8.076-1.564-16.151-3.648-23.966-6.124-10.355-3.257-20.58-7.362-30.348-12.117-.131-.131-.326-.065-.456 0-.196.065-.261.195-.261.391v48.078c0 .195.065.391.261.456 13.155 6.71 26.896 12.052 40.833 15.766 25.161 6.746 32.758 3.545 35.266 2.489l.032-.014c9.117-3.909 13.937-11.466 19.993-21.042 6.122-9.707 10.616-20.456 13.351-32.053 1.498 21.564 8.466 80.392 10.55 92.118 0 .13.065.261.195.326zm-10.094-96.027a.445.445 0 00-.456-.456.446.446 0 00-.456.456c-2.605 12.769-7.294 24.561-14.002 35.115l-.006.009c-6.183 9.767-10.677 16.865-19.531 20.642-2.41 1.042-9.704 4.169-34.647-2.475-13.806-3.714-27.352-8.926-40.377-15.571v-46.971c9.573 4.626 19.603 8.665 29.762 11.857a224.483 224.483 0 0024.487 6.254c.261 0 .521-.13.586-.391 1.824-7.231 3.843-14.462 5.927-21.628 3.516-11.792 7.424-23.649 11.657-35.18h82.969v132.118l-35.232 11.14c-2.28-13.68-9.769-77.459-10.681-94.919z" fill="#000"/>
  <path d="M368.545 400.971h67.795c-.065 0-.13.065-.195.065-7.555 2.41-15.174 4.756-22.729 7.166-1.433.456-2.931.912-4.363 1.368-9.053 2.867-18.04 5.668-27.092 8.534-4.494 1.434-8.988 2.802-13.416 4.235v-21.368z" fill="#000"/>
  <path fill-rule="evenodd" clip-rule="evenodd" d="M368.284 422.795c.066.065.131.065.261.065 0 0 .065 0 .13-.065l13.416-4.235c4.526-1.433 9.036-2.85 13.546-4.267 4.51-1.417 9.02-2.834 13.546-4.267l.13-.065a80.233 80.233 0 003.4-1.036l.833-.267a2358.38 2358.38 0 0111.365-3.583c3.793-1.189 7.587-2.378 11.364-3.583l.26-.065c.196-.065.326-.326.326-.521 0-.196-.195-.391-.456-.391H368.61a.513.513 0 00-.521.521v21.368c0 .13.065.326.195.391zm.717-1.108v-20.195h64.213l-19.928 6.254c-1.153.314-2.263.671-3.399 1.036l-.834.267-.131.065c-4.526 1.433-9.036 2.85-13.545 4.267-4.51 1.417-9.02 2.834-13.547 4.267l-12.829 4.039z" fill="#000"/>
  <path d="M419.277 298.234c14.002 27.622 28.069 55.245 42.071 82.932h-92.803v-82.932h50.732z" fill="#000"/>
  <path fill-rule="evenodd" clip-rule="evenodd" d="M368.545 381.622h92.803c.195 0 .326-.065.456-.26a.558.558 0 000-.456l-42.071-82.932c-.13-.131-.26-.261-.456-.261h-50.732a.514.514 0 00-.521.521v82.867c0 .326.26.521.521.521zm92.022-.977h-91.566V298.69h49.951l41.615 81.955z" fill="#000"/>
  <path d="M535.591 278.364H265.257c1.302-5.016 2.865-10.097 4.949-15.049a90.267 90.267 0 018.011-15.309 61.23 61.23 0 014.298-5.863c-.847-.912-5.21-4.626-6.252-5.342 11.201-7.232 22.338-14.463 33.539-21.694 1.368-.912 2.735-1.824 4.103-2.671.782 2.15 1.563 4.365 2.345 6.514a92.932 92.932 0 015.21-1.563c5.144-1.433 9.899-2.28 13.871-2.932 51.123-8.729 98.469 14.789 127.059 33.616 10.225 6.775 18.105 12.899 22.794 16.743-2.41-5.603-4.885-11.14-7.294-16.743-8.141-18.697-16.281-37.459-24.422-56.157a186.243 186.243 0 005.405-2.215c10.876-4.43 21.817-8.794 32.693-13.224 0 .065.065.065.065.13.065.13.196.326.261.456a363.021 363.021 0 0126.896 54.202c2.28 5.733 4.494 11.336 6.513 16.743 4.233 11.01 7.88 21.238 10.29 30.358z" fill="#000"/>
  <path fill-rule="evenodd" clip-rule="evenodd" d="M265.257 278.886h270.334c.13 0 .325-.066.26-.131.065-.065.13-.26.065-.391-2.084-7.947-5.275-17.329-10.29-30.423a5577.082 5577.082 0 00-6.317-16.222l-.195-.521a365.987 365.987 0 00-26.962-54.267c-.065-.065-.13-.196-.195-.326l-.065-.065s0-.065-.065-.13a.526.526 0 00-.587-.196l-38.098 15.375a.507.507 0 00-.26.26.416.416 0 000 .391l30.934 71.076c-6.968-5.538-13.937-10.685-21.296-15.505-30.478-20.066-77.368-42.216-127.449-33.681-4.038.716-8.792 1.563-13.872 2.931-1.563.391-3.191.912-4.754 1.433l-2.214-6.058c-.065-.196-.196-.261-.326-.326s-.26 0-.391.065l-4.037 2.671-33.54 21.694c-.13.065-.195.261-.195.391s.065.326.195.391c.977.586 4.624 3.713 5.927 4.951-1.433 1.759-2.736 3.583-4.038 5.538-3.061 4.625-5.796 9.837-8.076 15.374-1.953 4.691-3.582 9.772-4.949 15.114-.065.131 0 .261.065.391.13.13.26.196.391.196zm269.682-.978H265.908c1.302-5.081 2.931-9.902 4.754-14.527 2.279-5.473 4.95-10.554 8.01-15.18a63.105 63.105 0 014.234-5.798c.195-.195.195-.456 0-.651-.782-.782-4.234-3.713-5.797-4.951l32.954-21.303 3.582-2.346 2.149 5.929c.065.26.325.391.586.326a76.748 76.748 0 015.145-1.564c5.079-1.368 9.768-2.215 13.806-2.932 49.756-8.534 96.385 13.551 126.733 33.486 7.881 5.212 15.37 10.684 22.794 16.743.13.13.391.13.586 0a.625.625 0 00.131-.587l-31.521-72.443 37.252-15.049c.024.05.04.09.053.124a.349.349 0 00.077.137 358.031 358.031 0 0126.896 54.137l.196.521a6362.59 6362.59 0 016.317 16.221c4.884 12.704 8.01 21.955 10.094 29.707z" fill="#000"/>
  <path d="M538.586 298.234c-.065 6.58-1.693 11.987-5.405 15.961-14.783 15.701-56.789 1.759-79.778-5.928a201.123 201.123 0 01-24.683-10.033h109.866z" fill="#000"/>
  <path fill-rule="evenodd" clip-rule="evenodd" d="M453.338 308.723c15.174 5.081 39.14 13.094 57.896 13.094 9.313 0 17.323-1.954 22.338-7.296 3.647-3.909 5.47-9.186 5.535-16.287 0-.13-.065-.26-.13-.326a.497.497 0 00-.326-.13H428.786c-.196 0-.391.196-.456.391s.065.391.26.521c8.011 3.844 16.281 7.231 24.748 10.033zm.26-.977c-7.685-2.606-15.304-5.603-22.663-9.056h107.13c-.13 6.58-1.823 11.531-5.21 15.114-14.635 15.552-56.557 1.532-79.175-6.031l-.082-.027z" fill="#000"/>
  <path d="M470.01 670.614c-.131 0-.261-.066-.391-.196l-63.627-72.378c-5.471-6.254-11.006-12.508-16.477-18.762a.5.5 0 01-.13-.326c-.065-2.606-.13-5.277-.13-8.339a934.482 934.482 0 010-27.101c.13-7.036.325-14.332.651-21.629.065-1.824.13-3.648.26-5.472a933.448 933.448 0 011.759-27.166c.651-7.753 1.367-15.57 2.214-23.258 0-.195.195-.391.456-.456.26 0 .456.131.521.326a394.686 394.686 0 008.727 23.192c1.823 4.365 3.712 8.73 5.666 12.965l.781 1.758c1.824 3.974 3.777 8.209 5.796 12.313 5.275 11.075 9.639 19.414 14.067 27.036 2.149 3.714 4.298 7.101 6.382 10.293 4.038 6.059 8.271 11.662 12.57 16.678 4.558 5.212 9.378 10.033 14.392 14.267.651.521 1.303 1.108 1.954 1.629 5.08 4.104 9.769 7.231 18.951 11.01a117.32 117.32 0 005.992 2.345c6.512 2.476 14.848 5.277 27.027 9.121 6.968 2.215 15.434 4.82 26.571 8.208l.521.13c7.75 2.346 15.63 4.756 23.966 7.232l3.126.912a5750.57 5750.57 0 0027.092 8.013l6.382 1.889c.26.065.391.326.326.586-.066.261-.326.391-.587.326l-6.382-1.889c-8.596-2.541-17.714-5.212-27.092-8.013l-3.126-.912c-8.336-2.476-16.151-4.886-23.966-7.232l-.521-.13c-11.136-3.388-19.602-5.993-26.571-8.208-12.178-3.844-20.579-6.711-27.092-9.121-2.149-.847-4.168-1.629-6.056-2.41-9.248-3.844-14.002-6.971-19.147-11.141-.651-.521-1.368-1.107-2.019-1.628-5.08-4.3-9.964-9.121-14.523-14.398-4.363-5.016-8.596-10.684-12.634-16.808-2.149-3.257-4.233-6.645-6.448-10.358-4.493-7.622-8.791-16.026-14.132-27.101-1.953-4.169-3.907-8.404-5.796-12.313l-.781-1.759a339.343 339.343 0 01-5.666-13.029 414.997 414.997 0 01-8.011-21.173c-.716 6.971-1.432 14.072-1.953 21.043a939.267 939.267 0 00-1.759 27.036c-.065 1.824-.195 3.648-.26 5.472-.326 7.296-.521 14.528-.651 21.563-.131 8.926-.196 18.046 0 27.036.065 2.932.065 5.603.13 8.144a4191.048 4191.048 0 0116.346 18.632l63.627 72.378c.196.195.131.521-.065.717 0 .456-.13.456-.26.456zM604.884 576.737c-.066 0-.131 0-.196-.065-1.563-.652-3.126-1.368-4.624-2.02l-28.785-12.703c-9.052-3.974-18.04-7.948-27.092-11.922-4.494-1.955-8.987-3.974-13.481-5.929l-.781-.325c-4.299-1.89-8.532-3.779-12.83-5.668l-8.662-3.844a.507.507 0 01-.26-.26l-30.413-72.574c-3.647-8.664-7.229-17.264-10.876-25.928l-14.393-34.333c-.13-.26 0-.521.261-.651.26-.131.521 0 .651.26l14.392 34.333c3.647 8.664 7.229 17.264 10.876 25.928l30.349 72.378 8.466 3.714c4.298 1.889 8.531 3.778 12.829 5.668l.782.325c4.494 1.955 8.987 3.974 13.481 5.929 9.052 3.974 18.039 7.948 27.092 11.922l28.785 12.703c1.563.652 3.061 1.368 4.624 2.02.26.13.391.391.26.651-.065.261-.26.391-.455.391zM318.659 573.154a.446.446 0 01-.456-.456l-.195-1.955c-.651-8.208-.912-17.068-.782-27.101.131-9.641.652-18.697 1.173-27.101.065-1.628.195-3.192.26-4.625l.065-.521c.456-7.557.782-14.658 1.107-21.89.391-8.99.652-18.11.782-27.101.13-8.078.26-16.547.26-25.081 0-.261.196-.521.521-.521.261 0 .521.195.456.521 0 8.534-.065 17.003-.26 25.146a1885.2 1885.2 0 01-.782 27.101c-.26 7.167-.651 14.333-1.107 21.89l-.065.521c-.065 1.498-.195 3.062-.26 4.625-.521 8.404-.977 17.46-1.173 27.036-.13 9.968.131 18.828.782 27.036l.195 1.955a.706.706 0 01-.521.521zM463.172 381.622H436.08a.513.513 0 01-.521-.521c0-.326.195-.521.521-.521h27.092c.26 0 .521.195.521.521a.514.514 0 01-.521.521z" fill="#000"/>
  <path d="M456.008 408.723h-42.592a.514.514 0 01-.521-.521c0-.326.195-.521.521-.521h42.592c.26 0 .521.195.521.521a.514.514 0 01-.521.521zM345.751 435.759h-17.974a.513.513 0 01-.521-.521c0-.326.195-.521.521-.521h17.974c.261 0 .521.195.521.521s-.26.521-.521.521zM467.34 435.759h-98.795a.513.513 0 01-.521-.521c0-.326.195-.521.521-.521h98.795c.26 0 .521.195.521.521a.514.514 0 01-.521.521zM478.671 462.86H368.545a.513.513 0 01-.521-.521c0-.326.195-.521.521-.521h110.191c.261 0 .521.195.521.521s-.26.521-.586.521zM345.751 462.86h-24.747a.513.513 0 01-.521-.521c0-.326.195-.521.521-.521h24.747c.261 0 .521.195.521.521s-.26.521-.521.521zM490.264 489.961h-86.877a.513.513 0 01-.521-.521c0-.326.195-.521.521-.521h86.877c.26 0 .521.195.521.521a.514.514 0 01-.521.521zM392.446 489.961h-23.901a.513.513 0 01-.521-.521c0-.326.195-.521.521-.521h23.901c.26 0 .521.195.521.521a.514.514 0 01-.521.521zM345.751 489.961h-25.529a.514.514 0 01-.521-.521c0-.326.196-.521.521-.521h25.529c.261 0 .521.195.521.521s-.26.521-.521.521zM501.4 516.997h-85.835a.514.514 0 01-.521-.521c0-.326.196-.521.521-.521H501.4c.26 0 .521.195.521.521a.514.514 0 01-.521.521zM345.751 516.997h-26.962a.514.514 0 01-.521-.521c0-.326.196-.521.521-.521h26.962c.261 0 .521.195.521.521s-.26.521-.521.521zM390.687 516.997h-22.142a.513.513 0 01-.521-.521c0-.326.195-.521.521-.521h22.142c.261 0 .521.195.521.521s-.26.521-.521.521zM530.902 544.098H429.697a.514.514 0 01-.521-.521c0-.326.196-.521.521-.521h101.205c.26 0 .521.195.521.521a.514.514 0 01-.521.521zM345.751 544.098h-28.069a.514.514 0 01-.521-.521c0-.326.196-.521.521-.521h28.069c.261 0 .521.195.521.521s-.26.521-.521.521zM389.776 544.098h-21.231a.513.513 0 01-.521-.521c0-.326.195-.521.521-.521h21.231c.26 0 .521.195.521.521a.514.514 0 01-.521.521zM389.776 573.154h-21.231a.514.514 0 01-.521-.521c0-.326.195-.521.521-.521h21.231c.26 0 .521.195.521.521a.514.514 0 01-.521.521zM592.249 571.199H448.714a.513.513 0 01-.521-.521c0-.325.195-.521.521-.521h143.535c.261 0 .521.196.521.521 0 .326-.195.521-.521.521zM406.383 598.235h-37.838a.513.513 0 01-.521-.521c0-.325.195-.521.521-.521h37.903c.26 0 .521.196.521.521 0 .326-.326.521-.586.521zM604.884 598.235H484.207a.513.513 0 01-.521-.521c0-.325.195-.521.521-.521h120.677c.26 0 .521.196.521.521a.514.514 0 01-.521.521zM430.218 625.337h-61.673a.514.514 0 01-.521-.522c0-.325.195-.521.521-.521h61.673c.261 0 .521.196.521.521 0 .326-.26.522-.521.522zM604.884 625.337h-36.601a.515.515 0 01-.521-.522c0-.325.196-.521.521-.521h36.601c.26 0 .521.196.521.521a.515.515 0 01-.521.522zM453.989 652.438h-85.444a.514.514 0 01-.521-.522c0-.325.195-.521.521-.521h85.509c.261 0 .521.196.521.521 0 .326-.326.522-.586.522z" fill="#000"/>
  <path d="M327.842 573.154a.514.514 0 01-.521-.521v-137.46c0-.261.195-.521.521-.521.325 0 .521.195.521.521v137.46c-.065.26-.261.521-.521.521zM381.961 670.614a.514.514 0 01-.521-.522V418.104c0-.26.195-.521.521-.521.325 0 .521.196.521.521v252.054c-.065.26-.261.456-.521.456zM409.053 502.926a.514.514 0 01-.521-.522V409.57c0-.26.195-.521.521-.521.325 0 .521.195.521.521v92.9c-.065.26-.261.456-.521.456zM409.053 670.614a.514.514 0 01-.521-.522v-69.316c0-.26.195-.521.521-.521.325 0 .521.195.521.521v69.382c-.065.26-.261.456-.521.456zM436.08 554.457a.514.514 0 01-.521-.521v-152.9c0-.261.195-.521.521-.521.325 0 .521.195.521.521v152.9c0 .26-.261.521-.521.521zM436.08 670.614a.514.514 0 01-.521-.521v-38.567c0-.261.195-.522.521-.522.325 0 .521.196.521.522v38.567a.514.514 0 01-.521.521zM463.172 585.532a.514.514 0 01-.521-.521V425.336c0-.261.195-.522.521-.522.325 0 .521.196.521.522v159.675c-.066.325-.261.521-.521.521zM463.172 670.614a.514.514 0 01-.521-.522v-7.817c0-.261.195-.521.521-.521.325 0 .521.195.521.521v7.817c-.066.326-.261.522-.521.522zM490.264 600.646a.514.514 0 01-.521-.521V489.44c0-.26.195-.521.521-.521.325 0 .521.195.521.521v110.685c-.066.325-.261.521-.521.521zM517.29 609.766a.514.514 0 01-.521-.521v-71.596c0-.261.196-.521.521-.521.326 0 .521.195.521.521v71.661c0 .261-.26.456-.521.456zM544.382 618.105a.514.514 0 01-.521-.521v-68.013c0-.261.196-.521.521-.521.326 0 .521.195.521.521v68.078c-.065.261-.26.456-.521.456zM571.474 626.249a.515.515 0 01-.521-.522v-64.3c0-.26.196-.521.521-.521.326 0 .521.196.521.521v64.3c-.065.326-.26.522-.521.522zM598.501 634.262a.515.515 0 01-.521-.522v-60.326c0-.26.196-.521.521-.521.326 0 .521.196.521.521v60.326c0 .326-.26.522-.521.522z" fill="#000"/>
</svg>
