<svg xmlns="http://www.w3.org/2000/svg" width="693" height="557" fill="none" viewBox="0 0 693 557">
  <path fill="#000" fill-rule="evenodd" d="M29.8489 529.802c.7443.521 1.4887.744 2.3075.744.2233 0 .4466 0 .6699-.074 1.1166-.149 2.0098-.745 2.6053-1.638.5955-.894.8188-1.862.6699-2.979-.1489-1.116-.7443-2.01-1.6376-2.606-.8932-.595-1.9353-.819-2.9774-.67-1.1166.149-2.0098.745-2.6053 1.638-.5955.894-.8188 1.862-.6699 2.979.1489 1.116.7443 2.01 1.6376 2.606zm1.7864-6.031c.1489-.075.3722-.075.5211-.075.5955 0 1.1165.223 1.6376.521.6699.447 1.0421 1.117 1.191 1.862.1488.744 0 1.563-.4466 2.159-.4467.67-1.1166 1.042-1.8609 1.191-.7444.149-1.5632 0-2.1587-.446-.6699-.447-1.0421-1.117-1.191-1.862-.1488-.744 0-1.563.4466-2.159.4467-.67 1.1166-1.043 1.8609-1.191z" clip-rule="evenodd"/>
  <path fill="#9050A6" d="M315.237 515.357c2.096 0 3.796-1.7 3.796-3.797 0-2.097-1.7-3.798-3.796-3.798-2.097 0-3.796 1.701-3.796 3.798s1.699 3.797 3.796 3.797z"/>
  <path fill="#000" fill-rule="evenodd" d="M40.7165 223.487c.5955.224 1.191.298 1.7865.298 2.6053 0 5.0617-1.712 5.8805-4.393.4466-1.563.2977-3.276-.4467-4.69-.8188-1.415-2.0842-2.532-3.6473-2.979-1.5632-.446-3.2752-.372-4.6895.447s-2.5308 2.085-2.9774 3.648c-.9677 3.277.8932 6.702 4.0939 7.669zm-.521-10.275c.6699-.372 1.4887-.595 2.3075-.595.4466 0 .9677.074 1.4887.223 1.2654.447 2.382 1.266 2.9775 2.457.6699 1.192.7443 2.532.3722 3.798-.8188 2.68-3.6474 4.169-6.2527 3.35-2.6797-.819-4.1684-3.648-3.3496-6.254.4466-1.266 1.2654-2.383 2.4564-2.979zM278.986 254.759c.298.075.67.149.968.149.521 0 1.117-.149 1.638-.372.819-.372 1.34-1.117 1.637-1.936.521-1.787-.446-3.648-2.233-4.17-.819-.297-1.712-.223-2.531.224-.818.372-1.414 1.117-1.637 1.936-.298.819-.223 1.712.223 2.531.372.819 1.117 1.34 1.935 1.638zm-.074-5.137c.298-.224.67-.298 1.042-.298.223 0 .447.074.67.223 1.191.373 1.861 1.564 1.489 2.755-.224.596-.596 1.043-1.117 1.34-.521.298-1.116.298-1.712.149-.595-.223-1.042-.595-1.34-1.117-.297-.521-.297-1.116-.149-1.712.224-.596.596-1.042 1.117-1.34z" clip-rule="evenodd"/>
  <path fill="#9050A6" d="M224.35 82.3923c1.727 0 3.127-1.4 3.127-3.1271s-1.4-3.1272-3.127-3.1272c-1.726 0-3.126 1.4001-3.126 3.1272 0 1.7271 1.4 3.1271 3.126 3.1271zM6.62481 380.665c3.65879 0 6.62479-2.967 6.62479-6.626 0-3.66-2.966-6.627-6.62479-6.627C2.96603 367.412 0 370.379 0 374.039c0 3.659 2.96603 6.626 6.62481 6.626zM532.665 30.1239c2.59 0 4.689-2.1001 4.689-4.6908 0-2.5906-2.099-4.6907-4.689-4.6907s-4.69 2.1001-4.69 4.6907c0 2.5907 2.1 4.6908 4.69 4.6908zM688.162 294.072c2.59 0 4.689-2.1 4.689-4.691 0-2.59-2.099-4.69-4.689-4.69s-4.69 2.1-4.69 4.69c0 2.591 2.1 4.691 4.69 4.691z"/>
  <path fill="#000" fill-rule="evenodd" d="M27.4669 36.8994c.0745.0745.2233.1489.3722.1489.1489 0 .2977-.0744.3722-.1489l11.0165-11.0196c.2233-.2233.2233-.5956 0-.819L28.2113 14.0412c-.2233-.2233-.5955-.2233-.8188 0L16.3759 25.0608c-.2233.2234-.2233.5957 0 .819l11.091 11.0196zm.2978-1.2658L17.5669 25.4331l10.2722-10.2006 10.1233 10.2006-10.1977 10.2005zM143.811 441.049c.074.075.223.149.372.149s.297-.074.446-.149l6.03-6.031c.074-.074.149-.223.149-.372s-.075-.298-.149-.372l-6.03-6.031c-.223-.223-.595-.223-.818 0l-6.03 6.031c-.074.074-.149.223-.149.372s.075.298.149.372l6.03 6.031zm.446-1.191l-5.285-5.286 5.285-5.287 5.285 5.287-5.285 5.286zM407.686 261.535l5.732 3.946c.074.074.223.074.298.074.223 0 .372-.074.446-.223l3.946-5.733c.148-.224.074-.596-.149-.745l-5.732-3.946c-.223-.149-.595-.074-.744.149l-3.945 5.733c-.149.224-.075.596.148.745zm5.881 2.68l-4.838-3.276 3.275-4.84 4.838 3.276-3.275 4.84zM285.983 133.023l7.593 5.212c.074.074.223.074.298.074.149 0 .297-.074.446-.149l5.211-7.594c.074-.149.074-.298.074-.447 0-.149-.074-.298-.223-.372l-7.593-5.212c-.223-.149-.595-.075-.744.149l-5.21 7.594c-.149.224-.075.596.148.745zm7.742 3.946l-6.699-4.542 4.54-6.701 6.699 4.542-4.54 6.701zM648.859 77.9249h.075c.074 0 .223-.0744.372-.1489l9.081-6.0309c.224-.149.298-.5212.149-.7446l-6.029-9.0837c-.075-.0745-.224-.2234-.372-.2234-.149 0-.298 0-.447.0745l-9.081 6.031c-.075.0744-.224.2233-.224.3722 0 .149 0 .2979.075.4468l6.029 9.0837c.075.0744.224.2233.372.2233zm.224-1.3402l-5.434-8.1902 8.188-5.4353 5.434 8.1902-8.188 5.4353zM639.257 463.61h.075c.148 0 .223-.075.372-.224l10.421-7.818c.223-.148.223-.521.074-.744l-7.816-10.424c-.148-.223-.521-.223-.744-.075l-10.421 7.818c-.149.075-.223.224-.223.373-.075.149 0 .298.074.446l7.816 10.424c.074.149.223.224.372.224zm.223-1.34l-7.145-9.531 9.527-7.148 7.146 9.531-9.528 7.148z" clip-rule="evenodd"/>
  <path fill="#000" d="M602.262 126.768c-.223 0-.446-.148-.521-.297l-7.294-16.53c-.149-.298 0-.595.297-.744.298-.149.596 0 .745.298l7.294 16.529c.149.298 0 .596-.297.744h-.224zM374.339 150.743c-.074 0-.149 0-.223-.074-.298-.149-.447-.447-.298-.745l6.55-16.827c.149-.298.447-.447.745-.298.298.149.446.447.298.745l-6.551 16.827c-.074.298-.298.372-.521.372zM377.614 542.757c-.223 0-.521-.149-.521-.447-.074-.298.149-.595.447-.67l17.567-3.872c.298-.074.595.149.67.447.074.298-.149.596-.447.67l-17.567 3.872h-.149zM309.356 51.8652c-.074 0-.223 0-.297-.0745-.224-.1489-.373-.5212-.149-.7446l9.676-15.1891c.149-.2234.522-.3723.745-.1489.223.1489.372.5212.149.7446l-9.677 15.1891c-.074.0744-.223.2234-.447.2234zM488.152 91.5505c-.075 0-.223 0-.298-.0744-.223-.1489-.372-.5212-.149-.7446l9.677-15.1891c.149-.2234.521-.3723.744-.1489.224.1489.372.5211.149.7445l-9.677 15.1892c-.074.1489-.297.2233-.446.2233zM159.517 19.2532c-.224 0-.447-.1489-.522-.3722l-6.327-16.90167c-.074-.29783.075-.59566.298-.74457.298-.07446.596.07446.745.29783l6.327 16.90161c.074.2978-.075.5957-.298.7446-.075.0744-.149.0744-.223.0744zM271.692 492.052c-.149 0-.298-.074-.372-.149l-13.101-12.36c-.223-.223-.223-.595 0-.819.223-.223.595-.223.819 0l13.1 12.36c.224.224.224.596 0 .819-.149.075-.297.149-.446.149zM240.354 365.774c-.074 0-.149 0-.223-.075-.298-.148-.447-.446-.298-.744l7.072-16.604c.148-.298.446-.447.744-.298.298.149.446.447.298.745l-7.072 16.604c-.149.297-.372.372-.521.372zM407.984 461.823c-.298 0-.521-.149-.521-.447l-3.498-17.721c-.075-.297.149-.595.446-.67.298-.074.596.149.67.447l3.499 17.721c.074.298-.149.595-.447.67h-.149zM534.004 480.511c-.148 0-.223-.074-.372-.149-.223-.223-.297-.521-.074-.819l11.165-14.146c.224-.224.521-.298.819-.075.223.224.298.521.075.819l-11.166 14.147c-.149.149-.298.223-.447.223zM629.506 547.895c-.149 0-.298-.075-.447-.224l-11.091-14.221c-.223-.223-.148-.596.075-.819.223-.223.595-.149.819.074l11.091 14.222c.223.223.149.595-.075.819-.149.149-.223.149-.372.149zM350.743 327.429c-.149 0-.372-.075-.447-.224l-10.644-14.519c-.149-.223-.149-.595.149-.744.223-.149.595-.149.744.149l10.644 14.519c.149.223.149.595-.148.744-.075.075-.149.075-.298.075zM46.2248 321.472c-.0744 0-.1488 0-.2977-.074-.2978-.149-.3722-.521-.2233-.745l8.6346-15.859c.1488-.298.521-.372.7443-.223.2978.149.3722.521.2233.744l-8.6346 15.859c-.0744.149-.2233.298-.4466.298zM57.688 451.176c-.1489 0-.2233 0-.3722-.149l-14.3662-10.946c-.2233-.223-.2977-.521-.0744-.819.2233-.223.521-.297.8188-.074l14.3662 11.02c.2233.223.2977.521.0744.819-.0744.074-.2233.149-.4466.149zM6.6248 135.927c-.2233 0-.52105-.149-.52105-.447-.07443-.298.14887-.596.44662-.67l17.56693-4.021c.2977-.074.5955.149.6699.447.0744.298-.1489.595-.4466.67l-17.56692 4.021H6.6248zM150.435 140.245c-.149 0-.297-.074-.372-.149l-12.952-12.509c-.223-.223-.223-.595 0-.819.224-.223.596-.223.819 0l12.952 12.509c.223.223.223.596 0 .819-.149.075-.298.149-.447.149zM201.945 267.193c-.149 0-.298-.074-.446-.223l-11.166-14.147c-.223-.223-.149-.595.075-.819.223-.223.595-.149.818.075l11.166 14.147c.223.223.149.595-.075.819-.149.148-.223.148-.372.148zM647.668 347.755c-.148 0-.223-.074-.372-.149l-14.068-11.242c-.223-.224-.298-.522-.075-.819.224-.224.521-.298.819-.075l14.069 11.243c.223.223.297.521.074.819-.074.149-.298.223-.447.223zM672.604 202.118c-.223 0-.372-.074-.446-.297-.149-.298-.075-.596.223-.745l15.557-9.158c.298-.149.596-.075.745.223.149.298.074.596-.224.745l-15.557 9.158c-.074.074-.223.074-.298.074zM243.913 514.24c-15.558-.075-46.599.297-55.978.297-.373 0-11.911-.074-14.442-.074.894-7.662 1.712-15.398 2.606-23.06-1.415.075-2.755.075-4.169.149.744-17.257 3.052-78.253 3.499-91.568-5.137-6.62-29.478-39.87-35.88-49.317-2.903 47.235-5.732 94.469-8.635 141.778-1.117.074-2.903.149-5.062.297 1.117.967 2.233 1.786 3.275 2.529.894.521 2.829 1.637 6.923 2.901 8.71 2.753 11.687 1.414 15.856 3.199 3.126 1.339 7.146 4.463 10.272 13.017-15.557-.074-46.599.298-55.978.298-.372 0-11.9103-.075-14.4413-.075.7444-6.917-.5955-133.446-2.0098-195.558 10.7941-.818 81.2881-6.322 83.2231-6.471 3.648 5.951 7.891 12.869 12.432 20.605 25.458 42.92 28.212 53.78 29.403 62.409 0 0 .149.892.224 1.71 1.786 18.448-1.713 40.317-1.713 40.317-.967 7.587-2.084 15.323-3.126 23.059-1.489 10.191-2.978 20.307-4.541 30.201 1.861 1.859 3.648 3.347 5.285 4.388.894.521 2.829 1.637 6.923 2.901 8.71 2.753 11.687 1.414 15.856 3.199 3.052 1.19 7.146 4.314 10.198 12.869z"/>
  <path fill="#FEE200" d="M233.64 144.695c-.074 1.86-.223 3.943-.372 6.323-.372 5.281-1.042 11.678-2.233 18.894-.223 1.487-.521 2.975-.819 4.537-.521 2.604-.968 5.133-1.414 7.439-3.35 17.108-6.03 27.299-14.59 35.184-4.541 4.165-11.762 7.289-26.352 13.315-9.082 3.793-16.749 6.471-22.183 8.182 1.489 15.026 2.978 30.051 4.467 45.077.967 9.522 1.861 19.043 2.828 28.564-4.541.149-26.872 1.637-41.314 2.975-16.897 1.563-32.3809 2.827-41.9091 3.571-.2233 0-1.1911.074-1.4144.074-1.7865-18.15-4.7641-49.54-7.4439-78.773-2.1588-23.506-4.1686-45.673-5.1363-58.244-.2234-2.826-.4467-5.132-.5211-6.918-.0745-1.413-.2233-3.124-.2978-5.132-.2233-4.91-.1489-11.455 1.4888-18.894.3722-1.562.7444-3.198 1.2655-4.835 1.3399-4.389 3.052-8.182 7.8161-15.844 2.2332-3.57 5.0619-7.885 8.8583-13.538 1.1166-1.636 2.2332-3.347 3.5731-5.207.2233-.372.5211-.744.7444-1.116 3.5734-5.207 7.6674-11.1574 12.3574-17.7033 1.191-1.6365 2.382-3.2729 3.573-4.9838.223.1488.595.2975.893.5207 3.424 1.934 11.836 6.9178 16.674 9.8932.596.3719 1.117.6695 1.638.967.521.2975.893.5951 1.191.7439-.298.4463-.521.8923-.819 1.4133-1.563 2.752-3.424 5.802-5.285 9.001-.223.371-.447.743-.67 1.115-3.201 5.43-6.476 11.009-9.082 15.398-.595 1.116-1.339 2.232-2.009 3.347-3.797 6.472-8.263 14.133-12.134 20.679-.893 1.488-1.787 2.976-2.605 4.389.67 4.835 1.339 9.67 2.009 14.505.596 4.017 1.117 8.034 1.713 12.05.744 5.431 1.488 10.861 2.307 16.365.893.149 8.486 1.785 16.898 3.571 5.434 1.115 11.166 2.38 15.707 3.347 4.466.967 7.816 1.711 8.486 1.86 5.434-1.488 10.868-2.901 16.302-4.315 11.092-2.975 22.183-5.951 33.2-8.852 1.042-3.942 2.01-7.884 2.978-11.976.967-3.942 1.861-7.959 2.754-12.05.447-1.934.819-3.868 1.265-5.802.67-3.273 1.34-6.546 2.01-9.744.224-1.116.447-2.232.67-3.348.447-2.306.893-4.612 1.34-6.843v-.074h.223c3.425.074 6.849.148 10.273.297.521 0 1.042 0 1.563.074 2.606.075 4.318.149 7.668.224.595.223 3.424.297 3.87.297z"/>
  <path fill="#000" d="M139.177 92.1794c-.224 0-.372-.0744-.447-.2976-.149-.2975-.074-.5951.149-.7438l2.084-1.339c.894-.5206 1.712-1.0413 2.457-1.4877 1.042-.6694 2.01-1.2645 2.903-1.7852.521-.2975 1.34-.8182 1.638-1.7108.297-1.0414-.298-2.0828-.298-2.0828-.447-.8183-1.266-1.1158-1.936-1.4133-.818-.2976-1.637-.6695-1.861-1.6365-.148-.5207 0-.967.149-1.3389.149-.372.224-.7439.149-1.339-.074-.2975-.149-.8182-.521-1.2645-.372-.4463-.744-.5951-1.265-.7439-.521-.1487-1.117-.2975-1.638-.967-.447-.595-.521-1.1157-.596-1.562 0-.372-.074-.7439-.372-1.2646-.298-.3719-.446-.5207-.819-.6695-.297-.1487-.67-.3719-1.116-.8182-.968-.8926-1.266-1.7108-1.563-2.3059-.149-.4463-.298-.6695-.447-.8183-1.117-.7438-4.913 2.0828-7.072 4.24-4.615 4.5375-9.007 10.042-13.027 16.2159-.223.2975-.446.6695-.67 1.0414l-.074.0744c-.149.2231-.521.2975-.745.1487-.223-.1487-.297-.5206-.148-.7438.223-.3719.446-.7438.67-1.0414 4.019-6.2483 8.486-11.8272 13.175-16.4391 1.042-.967 6.179-5.8764 8.486-4.3887.522.2976.67.8183.894 1.339.223.595.446 1.1901 1.265 1.934.372.3719.67.5207.893.6694.373.2232.745.4463 1.191 1.0414.522.7439.522 1.3389.596 1.7853 0 .3719.074.595.298.967.298.3719.67.4463 1.116.595.521.1488 1.266.372 1.861 1.1158.521.6695.67 1.4133.67 1.7853.149.8926-.074 1.4876-.223 1.934-.074.2975-.149.4463-.074.6694.074.3719.521.5951 1.191.8926.818.2976 1.861.7439 2.531 1.8597 0 0 .893 1.4133.446 2.9754-.372 1.3389-1.563 2.0084-2.159 2.3803-.893.5207-1.786 1.1158-2.903 1.7852-.744.4463-1.563.967-2.456 1.4877l-2.085 1.339c-.148-.1488-.223-.0744-.297-.0744z"/>
  <path fill="#000" d="M133.743 99.841c-.224 0-.373-.0744-.521-.2975-.149-.2976 0-.5951.223-.7439.521-.2231 1.34-.6694 2.307-1.1901 3.946-1.934 7.072-3.1986 9.678-4.1656 3.349-1.3389 5.583-2.2315 5.583-3.1242 0-.6694-.968-1.4877-1.713-1.7852-1.042-.5207-2.307-.1488-3.349.0744-.745.1488-1.415.4463-2.085.8182-.297.1488-.595.0744-.744-.2231-.149-.2976-.074-.5951.223-.7439.745-.3719 1.489-.6694 2.308-.8926 1.191-.2975 2.68-.6695 4.094 0 .819.3719 2.382 1.4133 2.382 2.8266 0 1.7109-2.084 2.5291-6.253 4.1656-2.531 1.0414-5.732 2.2315-9.602 4.1655-.968.5207-1.787.8927-2.308 1.1158 0-.0744-.075 0-.223 0z"/>
  <path fill="#000" d="M136.795 97.7582l-3.499 1.4877-18.684-11.4552c.223-.372.446-.6695.67-1.0414l21.513 11.0089zM232.97 145.216c-.297 0-.595-.223-.595-.521v-3.422c-.075-1.785-.149-3.496-.298-5.207-.298-2.975-.744-5.876-1.34-8.628 0-.149-.819-3.868-2.084-6.249-.596-1.115-1.191-1.785-1.712-1.859-.223 0-1.191.074-2.084.595-.298.149-.447.297-.67.446-.224.223-.521.447-.968.595-.745.223-1.266 0-1.712-.148-.298-.149-.596-.224-.968-.224-.521.075-.819.372-1.265.744-.447.447-1.043 1.042-2.085 1.042-.446 0-.67-.075-.893-.149-.223-.075-.372-.149-.819-.149-1.116-.074-1.786.223-2.233.446-.596.298-.819.744-1.042 1.191-.298.52-.596 1.115-1.415 1.562-.595.297-.967.297-1.339.297-.373 0-.67 0-1.191.298-.373.149-1.34.595-1.638 1.413-.372.967.223 2.083.521 2.752.298.595.595 1.265.968 1.934l.074.223c.149.372.372.744.521 1.191v.074c.596 1.339 1.266 2.827 2.01 4.537.149.298 0 .596-.298.744-.297.149-.595 0-.744-.297-.745-1.711-1.34-3.199-1.936-4.538v-.074c-.223-.446-.372-.818-.521-1.19l-.074-.223c-.298-.67-.596-1.339-.893-1.934-.373-.819-1.117-2.232-.596-3.72.447-1.19 1.712-1.785 2.159-2.008.819-.372 1.265-.372 1.712-.372.298 0 .521 0 .893-.223.521-.298.745-.67.968-1.116.298-.521.596-1.19 1.489-1.636.744-.447 1.712-.595 2.828-.595.596 0 .894.148 1.117.223.149.074.223.074.447.074.595 0 .893-.372 1.34-.744.446-.446.967-.967 1.935-1.041.67-.075 1.117.149 1.489.297.372.149.595.224.968.149.223-.074.297-.149.521-.297.223-.149.446-.372.818-.595 1.043-.596 2.234-.744 2.68-.744.968 0 1.787.818 2.68 2.454 1.34 2.53 2.159 6.323 2.233 6.546.596 2.827 1.117 5.802 1.34 8.778.149 1.711.298 3.496.298 5.281 0 1.116.074 2.232 0 3.422-.074.372-.298.595-.596.595z"/>
  <path fill="#000" d="M210.415 144.695c-.149 0-.297-.074-.372-.149l-1.191-1.264c-.298-.372-.67-.744-1.042-1.19-2.01-2.381-4.615-5.282-6.179-7.885-1.414-2.38-1.786-4.017-1.116-5.207.595-.893 1.786-1.339 2.754-1.265.744.075 1.489.372 3.871 3.496l.595.744c.298.372.522.744.745.967l.223.298c.075.074.149.223.149.372 0 .297-.223.595-.595.595-.149 0-.298-.075-.373-.149l-.074-.074-.223-.372c-.224-.298-.447-.595-.745-.967l-.595-.744c-2.085-2.604-2.755-3.05-3.127-3.05-.595-.074-1.34.223-1.712.744-.298.521-.372 1.636 1.117 4.017 1.488 2.454 4.019 5.355 6.029 7.736.372.446.745.818 1.042 1.116l1.191 1.264c.224.223.224.595 0 .818-.074.075-.223.149-.372.149z"/>
  <path fill="#000" d="M232.97 144.621l-10.719-.223-12.133-.224v-.074h.223c-.223-.223-.447-.521-.745-.818 4.988-.446 18.164-1.562 23.3-2.009.074 1.116.074 2.232.074 3.348zM156.447 169.837c-.075.075-.224.075-.298.149-.075 0-.075.074-.149.074-.372.149-.744.298-1.117.447l-1.563.669c-.446 1.562-.968 3.199-1.414 4.761-.447 1.488-.819 2.975-1.266 4.389-.446 0-2.382-.224-2.754-.298.596-1.934.075-3.942-1.34-5.207-1.861-1.636-4.615-1.041-6.104-.149-2.159 1.339-3.052 3.943-2.754 6.174.074.372.149.744.223 1.042.745 2.306 2.68 3.496 2.978 3.645-.075.148-.224.223-.298.371-1.34 1.563-2.829 3.125-4.317 4.687-2.01 2.082-3.946 4.091-5.881 6.025-1.117-.149-2.233-.372-3.35-.521-.521-.074-1.042-.149-1.563-.223-2.01-.298-4.094-.669-6.104-.967-.149 0-.298-.074-.447-.074-.223-4.91-.149-9.15.075-12.795.223-3.644.67-6.694 1.116-9 .149-1.042.372-2.009.67-2.976.298-1.115.745-2.157 1.414-3.347 3.871-6.62 11.315-8.331 12.209-8.554.297-.075 1.861-.372 4.168-.372 3.499 0 8.561.744 12.878 4.314 1.266 1.042 3.722 3.124 4.69 6.695.149.297.223.744.298 1.041z"/>
  <path fill="#000" d="M142.824 187.392h-.149c-.521-.149-1.042-.297-1.488-.521-.522-.223-1.117-.595-1.564-.892-.223-.149-.297-.521-.149-.744.149-.223.522-.298.745-.149.446.298.893.595 1.414.818.447.224.893.372 1.34.447.298.074.447.372.372.669-.074.223-.297.372-.521.372z"/>
  <path fill="#000" d="M141.187 205.765c-.298 0-.596-.223-.596-.595v-5.728c0-.297.223-.52.596-.52h.446c2.457.074 7.072-.298 10.496-3.571 2.978-2.901 3.424-6.694 4.02-11.455.074-.669.149-1.339.223-2.008.298-3.868 0-7.885-.893-11.828v-.074c0-.149-.074-.297-.074-.521-.075-.223-.224-.446-.373-.743 0 0-.446-.819-.893-1.488-.744-1.042-2.382-2.901-3.499-3.719-.744-.596-7.444-5.728-15.706-3.943-6.328 1.339-9.677 5.877-11.39 9.447-.223.372-.372.744-.446 1.041-.596 1.414-.894 2.53-1.042 3.273-.447 2.232-.894 5.133-1.191 8.555-.373 3.645-.596 7.959-.745 12.794v.074l-.149 5.653c0 .298-.297.521-.595.521s-.521-.297-.521-.595l.149-5.728v-.074c.148-4.835.446-9.149.744-12.794.298-3.496.744-6.397 1.265-8.703.149-.744.522-2.009 1.117-3.496.149-.372.298-.744.521-1.116 1.787-3.794 5.434-8.703 12.134-10.116 8.784-1.86 15.855 3.57 16.674 4.165 1.117.893 2.903 2.827 3.722 4.017.521.744.968 1.562.968 1.636.149.372.298.596.447.819v.074c.074.223.074.372.148.595v.075c.894 4.016 1.191 8.107.894 12.124-.075.67-.149 1.414-.224 2.083-.595 4.984-1.116 9.001-4.392 12.125-3.573 3.496-8.411 3.942-11.091 3.942v5.133c-.223.446-.447.669-.744.669z"/>
  <path fill="#000" d="M141.559 198.996c0 .298-.075.595-.075.893-.149 1.636-.223 3.198-.297 4.686-.745-.818-1.415-1.562-2.159-2.306-1.415-1.562-2.903-3.198-4.318-4.761 1.34.596 3.052 1.116 5.062 1.339.596.075 1.191.149 1.787.149zM585.962 307.003c-.818 0-1.712-.446-2.233-1.116-.819-1.115-.521-2.529.149-4.463.372-.967.819-2.083 1.415-3.496l.669-1.562c.373-.893.745-1.86 1.117-2.827-2.01 2.455-3.573 4.538-4.764 6.249-.074.074-.819 1.116-1.861 2.306-2.978 3.347-4.169 3.645-4.764 3.57-1.117-.149-1.861-.967-2.233-1.711-.298-.595-.447-1.339-.298-2.231.298-1.637 1.414-3.348 2.084-4.315.745-1.115 1.415-1.785 1.489-1.859 1.489-1.637 2.978-3.422 4.169-4.91-.596.521-1.191 1.191-1.936 1.934-1.34 1.339-2.531 2.381-3.275 3.125-6.104 5.653-7.444 5.802-8.412 5.43-1.116-.372-1.786-1.562-1.935-2.604-.224-1.711 1.265-3.198 3.35-5.207.521-.52.967-.892.967-.892 1.415-1.265 3.946-3.571 7.444-6.844-6.625 3.422-11.464 5.802-12.208 6.025-1.042.298-1.786-.074-1.861-.074-.223-.074-.372-.223-.447-.298-.297-.223-.595-.743-.818-1.264-.075-.298-.224-.67-.224-1.116.075-2.38 3.35-3.868 4.69-4.537 7.742-3.645 15.93-7.364 24.267-11.232l.67-.298c.447-.223.819-.372 1.266-.595l3.871-1.785c.297-.149.595 0 .744.297.149.298 0 .595-.298.744l-3.871 1.785c-.446.223-.818.372-1.265.595l-.67.298c-8.337 3.794-16.526 7.587-24.267 11.158-1.117.52-4.02 1.859-4.095 3.57 0 .223.075.446.149.67.149.372.373.669.521.818 0 0 .075.074.224.149 0 0 .446.223 1.116 0 .745-.224 6.402-3.05 15.633-7.885.223-.149.521-.075.744.149.149.223.149.52-.074.743-5.137 4.835-8.635 8.108-10.496 9.67 0 0-.373.298-.894.819-1.861 1.859-3.126 3.124-3.052 4.314.075.595.521 1.413 1.191 1.637.521.148 1.787-.149 7.295-5.207.522-.521 1.564-1.414 3.276-3.05 1.712-1.637 2.903-2.827 3.722-3.645 1.935-1.934 2.084-2.008 2.531-1.637.149.075.223.298.223.447.074.892-4.243 6.471-7.072 9.447 0 0-.595.669-1.34 1.711-.595.892-1.712 2.454-1.935 3.868-.075.595-.075 1.115.149 1.487.223.447.819 1.042 1.414 1.116.075 0 .968 0 3.797-3.199 1.042-1.19 1.861-2.231 1.861-2.231 1.563-2.232 3.945-5.281 6.997-9.001.149-.223.446-.297.744-.148.224.148.372.446.224.669-.819 2.157-1.638 4.166-2.382 6.1l-.67 1.562c-.596 1.413-1.043 2.529-1.34 3.496-.67 1.934-.745 2.826-.298 3.421.298.447.819.67 1.34.67.67 0 1.414-.595 2.084-1.785.298-.447.521-.967.744-1.339l.149-.372c.224-.372.373-.744.596-1.116 0 0 0-.074.074-.074 1.042-2.083 2.159-4.166 3.127-6.249.521-1.115 1.116-2.231 1.637-3.347.075-.149.224-.298.447-.298 2.01-.148 4.02-.595 5.881-1.264 2.754-.967 5.285-2.455 7.518-4.463 1.34-1.19 2.606-2.529 3.722-4.017.149-.223.521-.297.745-.074.223.148.297.52.074.744-1.117 1.562-2.456 2.975-3.871 4.165-2.382 2.083-4.987 3.645-7.89 4.612-1.861.669-3.871 1.116-5.881 1.339-.521 1.041-.968 2.083-1.489 3.05-1.042 2.082-2.084 4.165-3.126 6.248l-.521-.149.521.223c-.224.372-.373.744-.596 1.191l-.149.371c-.223.447-.521.967-.819 1.488-1.042 1.488-2.009 2.232-3.201 2.306.075 0 .075 0 0 0z"/>
  <path fill="#000" d="M581.868 299.416c1.191-1.711 3.276-4.463 6.998-9.001-.894 2.306-1.712 4.389-2.382 6.1-.894 2.157-1.564 3.793-2.01 5.058-1.489 0-2.978.074-4.467.074 1.042-1.19 1.861-2.231 1.861-2.231zM593.555 301.35c-.819 0-1.712 0-2.531.074h-.818s0-.074.074-.074c1.042-2.083 2.084-4.166 3.126-6.248 0 2.082.075 4.165.149 6.248z"/>
  <path fill="#000" fill-rule="evenodd" d="M576.062 174.895c4.243.893 19.354 4.464 36.029 15.621 12.208 8.183 34.614 23.208 34.763 44.036 0 6.025-2.233 11.009-6.774 20.754-7.667 16.513-16.6 28.489-22.927 36.002-2.755-1.711-5.583-3.496-8.412-5.356-3.945-2.529-7.965-5.207-11.985-8.033-1.414-.893-2.754-1.86-4.094-2.827-.335-.223-.67-.465-1.005-.707-.335-.241-.67-.483-1.005-.706-11.761 5.355-20.471 9.372-24.267 11.157-1.266.521-4.318 2.009-4.392 4.017 0 .447.149.893.149.893.149.446.446.818.67 1.041 0 .075.149.149.298.223 0 0 .595.298 1.488.075.819-.223 7.147-3.422 15.707-7.885-5.881 5.504-9.007 8.331-10.496 9.67 0 0-.372.298-.893.818-2.01 2.009-3.35 3.348-3.201 4.761.074.744.67 1.785 1.563 2.083.67.297 1.861.223 7.816-5.282.224-.223.577-.558 1.108-1.06.53-.502 1.237-1.171 2.168-2.064 1.711-1.648 2.928-2.854 3.776-3.694 1.181-1.17 1.646-1.63 1.732-1.587.149.149-3.35 5.281-6.923 9.075-.149.074-.744.744-1.414 1.711-.67.967-1.787 2.603-2.01 4.091-12.394.26-24.77.502-37.145.744-12.376.241-24.751.483-37.146.744 2.01-12.943 3.946-26.035 5.807-39.276 1.34-9.744 2.68-19.414 4.019-29.01-1.265 1.711-3.2 4.091-5.657 6.769-7.369 8.108-24.714 27.076-38.113 23.655-1.638-.447-3.052-1.488-3.052-1.488-1.935-1.116-3.275-2.455-4.169-3.496-.037-1.116-.353-9.317-.67-17.518-.316-8.201-.632-16.402-.669-17.518-.038-1.004-.335-8.87-.633-16.736-.298-7.866-.596-15.733-.633-16.737 2.308 5.207 4.69 10.34 7.146 15.621 3.276 6.992 6.551 13.836 9.826 20.53 4.169-6.025 15.633-22.018 30.52-35.184 11.464-10.116 19.801-14.059 25.087-16.067 1.414-.521 2.754-.967 4.094-1.413v-5.728c5.136.149 10.421.223 15.781.223 5.211 0 10.421-.074 15.409-.223v3.05c4.467.517 8.315 1.316 11.397 1.956.461.096.905.188 1.332.275zm16.302 90.824c4.318-4.686 8.71-9.595 13.102-14.802 4.54-5.43 8.858-10.712 12.952-15.918-3.121-1.66-6.242-3.286-9.386-4.924-1.505-.785-3.016-1.572-4.534-2.366-4.541-2.381-9.082-4.686-13.548-6.918.112 3.906.242 8.054.372 12.201.13 4.146.261 8.293.372 12.197l.67 20.53z" clip-rule="evenodd"/>
  <path fill="#000" d="M460.904 503.007c.745 5.728 1.489 11.084 2.084 15.993-7.592-.074-16.748-.074-27.319 0 3.127-9.967 7.444-13.463 11.017-14.802 4.988-1.86 8.486-.075 14.218-1.191zM505.568 519.149c-2.68.074-6.402.074-10.868.074l-3.276-4.165v4.165h-.223c-9.305 0-16.079-.148-18.759-.223h-5.136c-.074-5.579-.223-11.604-.372-18.224 2.977-1.637 6.253-4.314 9.677-8.629h25.905c1.042 9.001 2.084 18.001 3.052 27.002zM587.079 515.058l3.275 4.165c4.095 0 7.593-.074 10.05-.074-.968-9.001-2.01-17.927-2.978-26.927-8.709.074-17.344.074-26.054.148-5.657 7.216-11.017 9.67-14.962 10.563-6.178 1.413-9.677-.669-14.888 1.265-3.499 1.339-7.89 4.835-11.017 14.802 15.483-.074 27.915 0 36.773.075 2.68 0 9.454.223 18.759.223h.968v-4.24h.074zM537.056 170.284c-.298 0-.521-.224-.521-.447-.149-.744-.298-1.487-.447-2.231-3.796.297-7.221-.447-9.975-2.306-6.923-4.538-6.923-13.761-6.923-16.811 0-2.083.298-7.439 2.829-12.497.074-.074.074-.149.149-.223 1.786-3.571 4.392-6.323 7.742-8.034.893-.446 8.56-4.314 15.632-.967 4.913 2.381 8.039 7.439 10.198 16.514l.075.372c.074.297-.075.595-.373.669-.297.075-.595-.074-.67-.372l-.074-.446c-2.084-8.703-4.988-13.612-9.603-15.77-6.55-3.124-13.846.521-14.664.893-3.127 1.636-5.583 4.24-7.295 7.587-.075.075-.075.149-.075.149-2.382 4.835-2.68 10.042-2.68 12.05 0 2.901 0 11.604 6.402 15.844 2.68 1.711 6.03 2.455 9.752 2.083.297 0 .521.149.595.446.149.893.372 1.86.521 2.753.075.297-.149.595-.446.669-.075.075-.075.075-.149.075z"/>
  <path fill="#000" d="M552.614 156.448h-.373c-.297 0-.521-.298-.521-.595 0-.298.298-.521.596-.521.744 0 1.414-.074 2.084-.297 2.308-.893 4.764-3.943 3.573-7.439-.521-1.488-1.563-2.603-2.977-3.273-1.415-.669-2.978-.744-4.467-.223-.819.298-1.488.744-1.563.818-1.117.893-1.563 2.083-1.786 2.753-.075.297-.373.446-.67.371-.298-.074-.447-.371-.373-.669.224-.744.745-2.232 2.159-3.347.521-.521 1.787-.967 1.861-1.042 1.712-.595 3.648-.52 5.285.298 1.638.818 2.903 2.231 3.573 3.942 1.415 4.091-1.488 7.736-4.168 8.778-.745.372-1.489.446-2.233.446z"/>
  <path fill="#000" d="M556.708 144.174c-.447-.297-3.499-1.934-6.476-.818-1.415.521-2.383 1.562-2.383 1.562-.818.893-1.116 1.86-1.265 2.381-1.935-2.901-3.871-5.802-5.806-8.703-2.085-.596-3.648-1.414-4.616-1.934-3.275-1.86-6.178-4.835-6.178-4.835-.67.743-1.638 1.487-2.754 2.305-1.936 1.265-3.797 1.786-5.062 2.083.446-1.487 2.233-6.62 7.369-9.819 5.658-3.57 12.581-3.049 17.568-.372 6.402 3.348 10.198 10.563 9.603 18.15zM557.824 152.729l.298 7.81-2.829-5.356 2.531-2.454z"/>
  <path fill="#000" d="M559.611 170.284c-.298 0-.521-.224-.521-.447-.521-3.124-.968-6.248-1.489-9.372l-.223-1.339c-.224-1.711-.521-3.422-.745-5.133-.074-.297.149-.595.447-.595.298-.074.595.149.595.447.224 1.71.522 3.421.745 5.132l.223 1.339c.447 3.124.968 6.248 1.489 9.373.074.297-.149.595-.447.669l-.074-.074zM568.32 492.891c-.297 0-.521-.223-.521-.446-1.861-12.497-3.871-25.737-5.955-39.35l-.447-2.975c-3.2-20.605-6.55-41.507-10.049-62.186l-.521-3.199c-.223-1.19-.372-2.38-.595-3.496-2.68-15.844-5.435-31.836-8.487-49.094-.074-.297.149-.595.447-.669.298-.075.596.149.67.446 3.052 17.183 5.806 33.25 8.486 49.094.223 1.19.372 2.38.596 3.496l.521 3.199c3.424 20.679 6.848 41.581 10.049 62.186l.447 2.975c2.084 13.389 4.094 26.481 5.88 38.903l11.613-.074h3.424c4.541 0 9.007-.074 13.548-.074l6.923-.075-13.92-190.128c0-.297.223-.595.521-.595.298 0 .595.223.595.521l13.995 190.723c0 .149-.074.297-.149.446-.074.149-.223.149-.372.149l-7.518.074c-4.541 0-9.008.075-13.548.075h-3.425l-12.208.074z"/>
  <path fill="#000" d="M504.749 492.668h-34.168c-.149 0-.297-.074-.446-.223-.075-.149-.149-.298-.149-.447l37.666-190.053c.075-.298.372-.521.67-.446.298.074.521.372.447.669l-37.592 189.384h33.051l.223-.744 28.362-88.518 13.622-42.548c.075-.297.372-.446.67-.372.298.075.447.372.372.67l-13.622 42.548-.298.892-28.436 88.742c.075.297-.074.446-.372.446z"/>
  <path fill="#000" d="M510.183 304.325c.987 0 1.787-.799 1.787-1.785 0-.986-.8-1.785-1.787-1.785-.987 0-1.786.799-1.786 1.785 0 .986.799 1.785 1.786 1.785zM529.835 304.325c.987 0 1.787-.799 1.787-1.785 0-.986-.8-1.785-1.787-1.785-.987 0-1.786.799-1.786 1.785 0 .986.799 1.785 1.786 1.785zM549.487 304.325c.987 0 1.787-.799 1.787-1.785 0-.986-.8-1.785-1.787-1.785-.987 0-1.786.799-1.786 1.785 0 .986.799 1.785 1.786 1.785zM569.214 304.325c.986 0 1.786-.799 1.786-1.785 0-.986-.8-1.785-1.786-1.785-.987 0-1.787.799-1.787 1.785 0 .986.8 1.785 1.787 1.785zM590.652 302.54c0 1.041-.819 1.785-1.786 1.785h-.224c.298-.52.596-.967.819-1.413.223-.521.521-.967.745-1.488 0 0 0-.074.074-.074l.074.074c.149.298.298.744.298 1.116zM520.009 313.475c.987 0 1.787-.8 1.787-1.786s-.8-1.785-1.787-1.785c-.987 0-1.786.799-1.786 1.785 0 .986.799 1.786 1.786 1.786zM539.661 313.475c.987 0 1.787-.8 1.787-1.786s-.8-1.785-1.787-1.785c-.987 0-1.786.799-1.786 1.785 0 .986.799 1.786 1.786 1.786zM559.388 313.475c.986 0 1.786-.8 1.786-1.786s-.8-1.785-1.786-1.785c-.987 0-1.787.799-1.787 1.785 0 .986.8 1.786 1.787 1.786zM579.04 313.475c.986 0 1.786-.8 1.786-1.786s-.8-1.785-1.786-1.785c-.987 0-1.787.799-1.787 1.785 0 .986.8 1.786 1.787 1.786zM510.183 324.037c.987 0 1.787-.799 1.787-1.785 0-.986-.8-1.785-1.787-1.785-.987 0-1.786.799-1.786 1.785 0 .986.799 1.785 1.786 1.785zM529.835 324.037c.987 0 1.787-.799 1.787-1.785 0-.986-.8-1.785-1.787-1.785-.987 0-1.786.799-1.786 1.785 0 .986.799 1.785 1.786 1.785zM549.487 324.037c.987 0 1.787-.799 1.787-1.785 0-.986-.8-1.785-1.787-1.785-.987 0-1.786.799-1.786 1.785 0 .986.799 1.785 1.786 1.785zM569.214 324.037c.986 0 1.786-.799 1.786-1.785 0-.986-.8-1.785-1.786-1.785-.987 0-1.787.799-1.787 1.785 0 .986.8 1.785 1.787 1.785zM588.866 324.037c.986 0 1.786-.799 1.786-1.785 0-.986-.8-1.785-1.786-1.785-.987 0-1.787.799-1.787 1.785 0 .986.8 1.785 1.787 1.785zM520.009 333.112c.987 0 1.787-.799 1.787-1.785 0-.986-.8-1.785-1.787-1.785-.987 0-1.786.799-1.786 1.785 0 .986.799 1.785 1.786 1.785zM539.661 333.112c.987 0 1.787-.799 1.787-1.785 0-.986-.8-1.785-1.787-1.785-.987 0-1.786.799-1.786 1.785 0 .986.799 1.785 1.786 1.785zM559.388 333.112c.986 0 1.786-.799 1.786-1.785 0-.986-.8-1.785-1.786-1.785-.987 0-1.787.799-1.787 1.785 0 .986.8 1.785 1.787 1.785zM579.04 333.112c.986 0 1.786-.799 1.786-1.785 0-.986-.8-1.785-1.786-1.785-.987 0-1.787.799-1.787 1.785 0 .986.8 1.785 1.787 1.785zM510.183 344.419c.987 0 1.787-.8 1.787-1.785 0-.986-.8-1.786-1.787-1.786-.987 0-1.786.8-1.786 1.786 0 .985.799 1.785 1.786 1.785zM529.835 344.419c.987 0 1.787-.8 1.787-1.785 0-.986-.8-1.786-1.787-1.786-.987 0-1.786.8-1.786 1.786 0 .985.799 1.785 1.786 1.785zM549.487 344.419c.987 0 1.787-.8 1.787-1.785 0-.986-.8-1.786-1.787-1.786-.987 0-1.786.8-1.786 1.786 0 .985.799 1.785 1.786 1.785zM569.214 344.419c.986 0 1.786-.8 1.786-1.785 0-.986-.8-1.786-1.786-1.786-.987 0-1.787.8-1.787 1.786 0 .985.8 1.785 1.787 1.785zM588.866 344.419c.986 0 1.786-.8 1.786-1.785 0-.986-.8-1.786-1.786-1.786-.987 0-1.787.8-1.787 1.786 0 .985.8 1.785 1.787 1.785zM500.357 353.568c.987 0 1.787-.799 1.787-1.785 0-.986-.8-1.785-1.787-1.785-.987 0-1.786.799-1.786 1.785 0 .986.799 1.785 1.786 1.785zM520.009 353.568c.987 0 1.787-.799 1.787-1.785 0-.986-.8-1.785-1.787-1.785-.987 0-1.786.799-1.786 1.785 0 .986.799 1.785 1.786 1.785zM539.661 353.568c.987 0 1.787-.799 1.787-1.785 0-.986-.8-1.785-1.787-1.785-.987 0-1.786.799-1.786 1.785 0 .986.799 1.785 1.786 1.785zM559.388 353.568c.986 0 1.786-.799 1.786-1.785 0-.986-.8-1.785-1.786-1.785-.987 0-1.787.799-1.787 1.785 0 .986.8 1.785 1.787 1.785zM579.04 353.568c.986 0 1.786-.799 1.786-1.785 0-.986-.8-1.785-1.786-1.785-.987 0-1.787.799-1.787 1.785 0 .986.8 1.785 1.787 1.785zM510.183 364.131c.987 0 1.787-.799 1.787-1.785 0-.986-.8-1.786-1.787-1.786-.987 0-1.786.8-1.786 1.786s.799 1.785 1.786 1.785zM529.835 364.131c.987 0 1.787-.799 1.787-1.785 0-.986-.8-1.786-1.787-1.786-.987 0-1.786.8-1.786 1.786s.799 1.785 1.786 1.785zM549.487 364.131c.987 0 1.787-.799 1.787-1.785 0-.986-.8-1.786-1.787-1.786-.987 0-1.786.8-1.786 1.786s.799 1.785 1.786 1.785zM569.214 364.131c.986 0 1.786-.799 1.786-1.785 0-.986-.8-1.786-1.786-1.786-.987 0-1.787.8-1.787 1.786s.8 1.785 1.787 1.785zM588.866 364.131c.986 0 1.786-.799 1.786-1.785 0-.986-.8-1.786-1.786-1.786-.987 0-1.787.8-1.787 1.786s.8 1.785 1.787 1.785zM500.357 373.206c.987 0 1.787-.8 1.787-1.786 0-.985-.8-1.785-1.787-1.785-.987 0-1.786.8-1.786 1.785 0 .986.799 1.786 1.786 1.786zM520.009 373.206c.987 0 1.787-.8 1.787-1.786 0-.985-.8-1.785-1.787-1.785-.987 0-1.786.8-1.786 1.785 0 .986.799 1.786 1.786 1.786zM539.661 373.206c.987 0 1.787-.8 1.787-1.786 0-.985-.8-1.785-1.787-1.785-.987 0-1.786.8-1.786 1.785 0 .986.799 1.786 1.786 1.786zM559.388 373.206c.986 0 1.786-.8 1.786-1.786 0-.985-.8-1.785-1.786-1.785-.987 0-1.787.8-1.787 1.785 0 .986.8 1.786 1.787 1.786zM579.04 373.206c.986 0 1.786-.8 1.786-1.786 0-.985-.8-1.785-1.786-1.785-.987 0-1.787.8-1.787 1.785 0 .986.8 1.786 1.787 1.786zM494.104 382.727c0 .967-.819 1.785-1.786 1.785h-.373l.67-3.57c.894.223 1.489.967 1.489 1.785zM511.97 384.512c.986 0 1.786-.799 1.786-1.785 0-.986-.8-1.785-1.786-1.785-.987 0-1.787.799-1.787 1.785 0 .986.8 1.785 1.787 1.785zM531.696 384.512c.987 0 1.787-.799 1.787-1.785 0-.986-.8-1.785-1.787-1.785-.987 0-1.786.799-1.786 1.785 0 .986.799 1.785 1.786 1.785zM553.135 382.727c0 .967-.819 1.785-1.787 1.785-.223-1.19-.372-2.38-.595-3.496.148-.074.372-.074.595-.074.968 0 1.787.818 1.787 1.785zM571 384.512c.987 0 1.787-.799 1.787-1.785 0-.986-.8-1.785-1.787-1.785-.987 0-1.786.799-1.786 1.785 0 .986.799 1.785 1.786 1.785zM590.652 384.512c.987 0 1.787-.799 1.787-1.785 0-.986-.8-1.785-1.787-1.785-.987 0-1.786.799-1.786 1.785 0 .986.799 1.785 1.786 1.785zM502.144 393.662c.986 0 1.786-.8 1.786-1.786s-.8-1.785-1.786-1.785c-.987 0-1.787.799-1.787 1.785 0 .986.8 1.786 1.787 1.786zM521.796 393.662c.986 0 1.786-.8 1.786-1.786s-.8-1.785-1.786-1.785c-.987 0-1.787.799-1.787 1.785 0 .986.8 1.786 1.787 1.786zM561.174 393.662c.987 0 1.787-.8 1.787-1.786s-.8-1.785-1.787-1.785c-.987 0-1.786.799-1.786 1.785 0 .986.799 1.786 1.786 1.786zM580.826 393.662c.987 0 1.787-.8 1.787-1.786s-.8-1.785-1.787-1.785c-.987 0-1.786.799-1.786 1.785 0 .986.799 1.786 1.786 1.786zM492.318 404.224c.986 0 1.786-.799 1.786-1.785 0-.986-.8-1.785-1.786-1.785-.987 0-1.787.799-1.787 1.785 0 .986.8 1.785 1.787 1.785zM511.97 404.224c.986 0 1.786-.799 1.786-1.785 0-.986-.8-1.785-1.786-1.785-.987 0-1.787.799-1.787 1.785 0 .986.8 1.785 1.787 1.785zM531.696 404.224c.987 0 1.787-.799 1.787-1.785 0-.986-.8-1.785-1.787-1.785-.987 0-1.786.799-1.786 1.785 0 .986.799 1.785 1.786 1.785zM571 404.224c.987 0 1.787-.799 1.787-1.785 0-.986-.8-1.785-1.787-1.785-.987 0-1.786.799-1.786 1.785 0 .986.799 1.785 1.786 1.785zM590.652 404.224c.987 0 1.787-.799 1.787-1.785 0-.986-.8-1.785-1.787-1.785-.987 0-1.786.799-1.786 1.785 0 .986.799 1.785 1.786 1.785zM502.144 413.299c.986 0 1.786-.799 1.786-1.785 0-.986-.8-1.785-1.786-1.785-.987 0-1.787.799-1.787 1.785 0 .986.8 1.785 1.787 1.785zM521.796 413.299c.986 0 1.786-.799 1.786-1.785 0-.986-.8-1.785-1.786-1.785-.987 0-1.787.799-1.787 1.785 0 .986.8 1.785 1.787 1.785zM561.174 413.299c.987 0 1.787-.799 1.787-1.785 0-.986-.8-1.785-1.787-1.785-.987 0-1.786.799-1.786 1.785 0 .986.799 1.785 1.786 1.785zM580.826 413.299c.987 0 1.787-.799 1.787-1.785 0-.986-.8-1.785-1.787-1.785-.987 0-1.786.799-1.786 1.785 0 .986.799 1.785 1.786 1.785zM599.138 412.704c-.297-.297-.446-.744-.446-1.19 0-.372.074-.669.297-.967.075.744.075 1.413.149 2.157zM492.318 424.606c.986 0 1.786-.8 1.786-1.786 0-.985-.8-1.785-1.786-1.785-.987 0-1.787.8-1.787 1.785 0 .986.8 1.786 1.787 1.786zM511.97 424.606c.986 0 1.786-.8 1.786-1.786 0-.985-.8-1.785-1.786-1.785-.987 0-1.787.8-1.787 1.785 0 .986.8 1.786 1.787 1.786zM571 424.606c.987 0 1.787-.8 1.787-1.786 0-.985-.8-1.785-1.787-1.785-.987 0-1.786.8-1.786 1.785 0 .986.799 1.786 1.786 1.786zM590.652 424.606c.987 0 1.787-.8 1.787-1.786 0-.985-.8-1.785-1.787-1.785-.987 0-1.786.8-1.786 1.785 0 .986.799 1.786 1.786 1.786zM484.278 431.97c0 .967-.819 1.785-1.786 1.785h-.224l.67-3.57c.745.223 1.34.892 1.34 1.785zM502.144 433.755c.986 0 1.786-.799 1.786-1.785 0-.986-.8-1.785-1.786-1.785-.987 0-1.787.799-1.787 1.785 0 .986.8 1.785 1.787 1.785zM521.796 433.755c.986 0 1.786-.799 1.786-1.785 0-.986-.8-1.785-1.786-1.785-.987 0-1.787.799-1.787 1.785 0 .986.8 1.785 1.787 1.785zM561.174 433.755c.987 0 1.787-.799 1.787-1.785 0-.986-.8-1.785-1.787-1.785-.987 0-1.786.799-1.786 1.785 0 .986.799 1.785 1.786 1.785zM580.826 433.755c.987 0 1.787-.799 1.787-1.785 0-.986-.8-1.785-1.787-1.785-.987 0-1.786.799-1.786 1.785 0 .986.799 1.785 1.786 1.785zM600.702 433.755h-.149c-.968 0-1.787-.818-1.787-1.785s.744-1.785 1.712-1.785c0 1.115.149 2.38.224 3.57zM492.318 444.318c.986 0 1.786-.8 1.786-1.786 0-.985-.8-1.785-1.786-1.785-.987 0-1.787.8-1.787 1.785 0 .986.8 1.786 1.787 1.786zM511.97 444.318c.986 0 1.786-.8 1.786-1.786 0-.985-.8-1.785-1.786-1.785-.987 0-1.787.8-1.787 1.785 0 .986.8 1.786 1.787 1.786zM571 444.318c.987 0 1.787-.8 1.787-1.786 0-.985-.8-1.785-1.787-1.785-.987 0-1.786.8-1.786 1.785 0 .986.799 1.786 1.786 1.786zM590.652 444.318c.987 0 1.787-.8 1.787-1.786 0-.985-.8-1.785-1.787-1.785-.987 0-1.786.8-1.786 1.785 0 .986.799 1.786 1.786 1.786zM482.492 453.393c.986 0 1.786-.8 1.786-1.786s-.8-1.785-1.786-1.785c-.987 0-1.787.799-1.787 1.785 0 .986.8 1.786 1.787 1.786zM502.144 453.393c.986 0 1.786-.8 1.786-1.786s-.8-1.785-1.786-1.785c-.987 0-1.787.799-1.787 1.785 0 .986.8 1.786 1.787 1.786zM562.961 451.607c0 .521-.224 1.042-.596 1.339-.149-.967-.298-2.008-.446-2.975.595.298 1.042.893 1.042 1.636zM580.826 453.393c.987 0 1.787-.8 1.787-1.786s-.8-1.785-1.787-1.785c-.987 0-1.786.799-1.786 1.785 0 .986.799 1.786 1.786 1.786zM600.553 453.393c.986 0 1.786-.8 1.786-1.786s-.8-1.785-1.786-1.785c-.987 0-1.787.799-1.787 1.785 0 .986.8 1.786 1.787 1.786zM493.583 464.699c.987 0 1.787-.799 1.787-1.785 0-.986-.8-1.785-1.787-1.785-.987 0-1.786.799-1.786 1.785 0 .986.799 1.785 1.786 1.785zM514.575 461.649l-.968 3.125h-.297c-.968 0-1.787-.819-1.787-1.786 0-.967.819-1.785 1.787-1.785.446-.074.893.075 1.265.446zM572.266 464.699c.986 0 1.786-.799 1.786-1.785 0-.986-.8-1.785-1.786-1.785-.987 0-1.787.799-1.787 1.785 0 .986.8 1.785 1.787 1.785zM591.992 464.699c.987 0 1.787-.799 1.787-1.785 0-.986-.8-1.785-1.787-1.785-.987 0-1.786.799-1.786 1.785 0 .986.799 1.785 1.786 1.785zM483.757 473.849c.987 0 1.787-.8 1.787-1.786s-.8-1.785-1.787-1.785c-.987 0-1.786.799-1.786 1.785 0 .986.799 1.786 1.786 1.786zM503.409 473.849c.987 0 1.787-.8 1.787-1.786s-.8-1.785-1.787-1.785c-.987 0-1.786.799-1.786 1.785 0 .986.799 1.786 1.786 1.786zM582.166 473.849c.987 0 1.787-.8 1.787-1.786s-.8-1.785-1.787-1.785c-.987 0-1.786.799-1.786 1.785 0 .986.799 1.786 1.786 1.786zM601.818 473.849c.987 0 1.787-.8 1.787-1.786s-.8-1.785-1.787-1.785c-.987 0-1.786.799-1.786 1.785 0 .986.799 1.786 1.786 1.786zM473.931 484.411c.987 0 1.787-.799 1.787-1.785 0-.986-.8-1.785-1.787-1.785-.987 0-1.786.799-1.786 1.785 0 .986.799 1.785 1.786 1.785zM493.583 484.411c.987 0 1.787-.799 1.787-1.785 0-.986-.8-1.785-1.787-1.785-.987 0-1.786.799-1.786 1.785 0 .986.799 1.785 1.786 1.785zM572.266 484.411c.986 0 1.786-.799 1.786-1.785 0-.986-.8-1.785-1.786-1.785-.987 0-1.787.799-1.787 1.785 0 .986.8 1.785 1.787 1.785zM591.992 484.411c.987 0 1.787-.799 1.787-1.785 0-.986-.8-1.785-1.787-1.785-.987 0-1.786.799-1.786 1.785 0 .986.799 1.785 1.786 1.785zM485.618 491.701c0 .149 0 .297-.074.446h-3.499c0-.149-.074-.297-.074-.446 0-.967.818-1.785 1.786-1.785 1.042 0 1.861.818 1.861 1.785zM505.121 491.031l-.372 1.116h-3.052c0-.149-.074-.297-.074-.446 0-.967.818-1.785 1.786-1.785.819 0 1.414.446 1.712 1.115zM583.953 491.701c0 .223 0 .372-.075.595h-3.424c-.074-.149-.074-.372-.074-.595 0-.967.818-1.785 1.786-1.785.968 0 1.787.818 1.787 1.785zM603.605 491.701c0 .149 0 .297-.075.446h-3.498c-.075-.149-.075-.297-.075-.446 0-.967.819-1.785 1.787-1.785 1.042 0 1.861.818 1.861 1.785z"/>
  <path fill="#000" fill-rule="evenodd" d="M427.109 185.681c2.977 0 5.508-3.347 5.806-3.942 1.042-1.413 1.712-3.124 1.935-4.984 2.531.893 11.538 3.868 15.037 3.347.447-.074 1.638-.297 2.159-1.19.446-.818.149-1.711.074-1.934-.521-1.636-2.531-2.231-5.657-3.05-1.712-.446-3.797-1.041-6.104-1.934.541.072 1.151.162 1.823.26.716.105 1.501.22 2.345.335 1.348.176 2.834.398 4.386.629.42.063.844.126 1.272.19l.106.016c1.878.289 3.188.491 4.211-.239 0-.075.075-.075.075-.075.074 0 .149-.074.223-.149.819-.818 1.191-2.157.819-3.198-.223-.67-.67-1.19-1.34-1.637 0-.074-.074-.074-.074-.074-1.266-.744-3.276-1.19-5.658-1.711-2.605-.521-5.211-1.041-7.742-1.413 2.159-.223 4.839-.446 7.519-.372.968 0 1.786.074 2.531.149.106.007.211.014.314.021.972.066 1.774.12 2.515.053.893-.149 1.637-.446 2.158-1.041.745-.819 1.117-1.934.894-2.976-.298-1.19-1.266-2.157-2.68-2.603.744-.893.595-2.232.223-3.124-.223-.447-.595-.893-1.042-1.191-1.266-.892-3.275-1.19-5.955-1.338-6.179-.447-9.603-.67-12.581.297-.521.149-.967.298-1.414.521-3.35 1.339-6.476 3.793-8.858 6.769-2.754 3.57-4.392 7.661-4.467 11.604-.074 2.752.596 5.728 2.01 8.703l.075.149c.521 1.19 1.116 2.38 1.786 3.273.745.967 1.564 1.562 2.531 1.785.224.074.521.074.745.074zm7.965-31.911c1.414-.446 2.977-.595 4.987-.595 1.936 0 4.243.149 7.444.521 2.159.148 4.243.372 5.36 1.115.297.224.521.447.67.744.372.67.297 1.562-.075 2.009-.037.037-.074.056-.111.074-.038.019-.075.037-.112.075-.521.297-1.638.297-4.094.223h-.819c-1.051 0-1.799-.034-2.289-.056-.24-.011-.418-.019-.54-.019-2.531-.148-5.211 0-8.039.372-.298 0-.521.298-.447.595 0 .298.298.521.596.447 2.754-.447 5.359-.521 7.816-.372.446 0 1.265 0 2.903.074h.819c.515 0 .973.006 1.382.011 1.068.013 1.801.022 2.34-.085.042.042.061.061.083.068.016.006.034.006.066.006.074 0 .148.019.223.037.074.019.149.037.223.037 1.34.224 2.308.967 2.531 1.934.149.596-.074 1.414-.595 1.934-.373.372-.819.596-1.489.67-.584.065-1.28.017-2.187-.046-.135-.009-.274-.019-.419-.028-.744-.075-1.563-.149-2.53-.149-3.871-.149-7.593.297-10.05.744l-1.34.223c-.297.074-.446.297-.446.595.074.297.223.521.521.521.446 0 .893.074 1.34.148 3.275.447 6.55 1.042 9.9 1.711 2.159.446 4.094.893 5.211 1.562 0 .075.074.075.074.075.447.297.745.595.894 1.041.223.744 0 1.562-.522 2.083-.037 0-.055.018-.074.037-.019.019-.037.037-.074.037l-.075.075c-.644.357-1.633.233-3.296.025-.067-.008-.134-.017-.202-.025-2.01-.224-3.946-.521-5.658-.819-1.638-.297-3.126-.52-4.243-.669-.698-.087-1.344-.149-1.88-.2-.379-.036-.702-.067-.949-.098l-.818-.074c-.298 0-.522.223-.596.446-.074.298.074.521.298.67l.149.074c.149.074.297.149.521.223.446.223 1.191.521 1.935.818 2.606 1.042 4.988 1.711 6.923 2.232 2.605.67 4.541 1.19 4.913 2.306 0 0 .223.595 0 1.041-.254.445-.835.564-1.184.636-.06.012-.113.023-.156.034-3.722.595-14.962-3.422-15.111-3.496-.223-.075-.372 0-.521.074-.149.149-.223.298-.223.446-.149 1.86-.745 3.645-1.787 5.133-.298.446-2.978 4.091-5.583 3.57-.744-.148-1.34-.595-1.935-1.413-.67-.818-1.191-1.934-1.713-3.124l-.074-.149c-1.265-2.826-1.935-5.579-1.861-8.182.074-3.719 1.563-7.587 4.243-10.935 2.233-2.901 5.211-5.132 8.412-6.471.446-.223.893-.372 1.34-.521z" clip-rule="evenodd"/>
  <path fill="#000" d="M517.553 182.483c-.224 0-.447-.149-.521-.372-4.988-15.77-11.985-30.796-20.695-44.557-8.858-13.91-27.245-42.8455-51.661-57.9457-.297-.1488-.372-.5207-.149-.7438.149-.2976.522-.372.745-.1488 24.639 15.1745 43.1 44.2593 51.959 58.2433 8.783 13.836 15.781 28.936 20.843 44.78.074.297-.075.595-.373.669 0 .075-.074.075-.148.075zM387.73 215.435c-10.794 0-21.885-2.826-31.488-8.033-11.017-5.951-19.205-14.505-23.746-24.696-4.69-10.488-4.615-19.117-4.094-23.283 1.786-15.472 9.751-34.44 21.438-50.656 17.419-24.3237 39.602-38.8287 60.817-39.9445 4.467-.2232 8.933.1487 13.4 1.0414 2.307.4463 4.689 1.1157 7.071 1.934 2.085.7438 4.169 1.5621 6.253 2.5291.298.1487.372.4463.298.7438-.149.2976-.447.3719-.744.2976-2.01-.9671-4.095-1.7853-6.179-2.4547-2.307-.8183-4.615-1.4877-6.923-1.9341-4.392-.8926-8.784-1.2645-13.101-1.0413-20.843 1.0413-42.728 15.472-59.924 39.4237-11.538 16.142-19.503 34.887-21.29 50.136-.372 3.273-.744 12.124 4.02 22.687 4.467 9.968 12.506 18.299 23.3 24.101 10.049 5.43 21.736 8.257 32.902 7.885 16.898-.521 29.776-8.108 37.592-14.431.223-.223.595-.149.819.074.223.224.149.595-.075.819-7.965 6.397-21.14 14.133-38.262 14.653-.744.149-1.414.149-2.084.149zM98.7561 234.031c-.2234 0-.4467-.148-.5211-.371-2.9032-7.737-5.583-15.621-7.8906-23.432l-.0744-.149c-4.3175-14.505-10.7938-36.299-14.3669-59.507-5.8807-38.606-.9677-65.9055 14.5157-81.0057 4.3175-4.2399 9.9002-7.8848 15.1852-10.1163 6.551-2.6779 12.655-3.1986 17.717-1.4133 3.871 1.3389 7.295 4.0911 10.347 8.3311.149.2231.149.5951-.149.7438-.223.1488-.595.1488-.744-.1487-2.903-4.0168-6.104-6.6203-9.752-7.8849-10.198-3.5704-23.6714 3.3474-31.7853 11.3066-15.2601 14.8769-20.0242 41.8044-14.218 80.0384 3.4987 23.133 10.0494 44.928 14.2924 59.359l.0745.149c2.3076 7.81 4.9874 15.621 7.8905 23.357.0745.297-.0744.595-.2977.743-.0745-.074-.1489 0-.2233 0z"/>
  <path fill="#000" fill-rule="evenodd" d="M279.57 538.34c-13.846 0-25.608-3.57-33.796-10.414-4.169-3.496-7.816-8.182-10.421-13.389-2.234-4.463-3.648-9.224-4.095-13.836-.372-4.016-.074-7.81.894-11.38 3.126-11.084 13.92-20.977 29.552-27.077 14.814-5.802 32.605-7.512 47.418-4.611 16.948 3.254 27.495 11.654 37.711 19.793l.179.142.549.433.002.001c3.667 2.891 7.151 5.637 10.838 8.046 5.583-19.712 3.722-45.078-5.36-73.344-15.409 7.067-42.505 15.323-68.931 18.15-22.778 2.455-53.224 1.785-69.154-15.621-1.042-1.19-2.084-2.38-2.977-3.645-10.291-14.425-7.844-32.602-6.645-41.508l.019-.147c1.564-11.456 5.956-23.06 12.357-32.655 7.519-11.307 17.494-19.489 28.957-23.58 5.211-1.86 10.645-2.976 16.154-3.199-.149-3.496 0-6.843.521-10.042.67-3.793 1.786-7.364 3.424-10.488 9.082-17.406 31.711-19.861 55.606-22.39 12.506-1.339 25.459-2.752 36.773-6.397-38.038-20.158-53.745-41.953-62.157-56.681-5.136-9.001-9.453-18.82-13.026-30.126-16.154 10.042-26.799 23.357-29.404 36.523-1.638 8.554.447 15.025 2.754 21.869 2.606 7.81 5.285 15.993 1.638 27.299-5.806 17.853-21.96 28.713-34.019 32.581-16.674 5.355-38.262 2.083-55.085-8.406-9.231-5.727-16.005-13.24-18.982-21.051-5.658-14.728-.298-36.82 14.59-60.772 10.57-17.034 25.235-33.845 42.356-48.499 4.02-3.496 8.263-6.844 12.506-10.042 3.945-2.976 7.965-5.728 11.985-8.331 10.793-7.067 22.034-13.018 33.274-17.629-2.531-2.901-5.583-4.687-9.231-5.505-9.23-2.083-17.865 3.273-26.947 9.001-.297.148-.595.074-.744-.149-.149-.223-.074-.595.149-.744 9.305-5.876 18.163-11.381 27.84-9.149 4.02.892 7.295 2.975 10.05 6.174 20.024-8.108 39.899-12.051 59.03-11.679 7.965.149 16.302 1.042 24.714 2.678 27.691 5.356 56.053 18.596 73.993 34.515.223.223.223.52.074.818-.223.223-.521.223-.819.074-17.791-15.769-46.003-28.935-73.471-34.291-8.338-1.637-16.6-2.529-24.491-2.678-18.908-.372-38.485 3.496-58.286 11.455 5.21 6.843 7.815 17.553 11.09 31.014l.001.005c1.713 7.066 3.648 15.026 6.179 23.208 13.697-8.257 29.329-13.092 44.291-13.687 9.156-.372 17.866.893 25.756 3.719 7.817 2.827 26.799 11.456 35.061 31.316 0 .046.029.092.068.156l.012.02.016.025c.006.011.013.022.019.033.011.02.023.041.034.064 6.328 15.323 5.286 33.994-2.679 47.457-5.286 9.001-13.548 15.398-25.161 19.638 9.975 5.133 19.801 9.447 29.329 13.613 20.099 8.777 37.443 16.364 46.674 28.117 3.945 4.984 6.104 10.34 6.774 16.439.67 6.1-.373 12.422-3.052 18.745v.075c-5.658 13.24-17.94 25.142-28.213 34.068 23.3 32.357 31.562 86.733 7.221 108.676-7.37 6.695-21.588 13.687-34.466 14.208-6.181.271-11.867-1.006-12.871-1.231l-.013-.003c-.044-.01-.078-.018-.101-.023l-.022-.004-.007-.002c-.007-.001-.011-.002-.013-.002-4.764-1.19-9.305-3.198-14.143-6.174-2.084 6.844-5.137 13.018-9.007 18.225-11.985 16.29-35.582 28.712-60.147 31.688-3.648.297-7.147.52-10.496.52zm14.813-81.005c-10.868 0-22.183 2.008-32.158 5.951-15.334 5.951-25.83 15.546-28.882 26.332-.968 3.422-1.266 7.067-.894 11.009.447 4.463 1.787 9.075 3.946 13.389 2.531 5.133 6.029 9.596 10.123 13.018 9.901 8.331 25.384 11.678 43.399 9.521 24.192-2.901 47.492-15.175 59.328-31.242 3.871-5.207 6.848-11.381 8.933-18.224-4.02-2.603-7.816-5.579-11.762-8.777-10.124-8.108-20.62-16.439-37.368-19.712-4.69-.819-9.603-1.265-14.665-1.265zm79.278 35.556c-4.764-1.19-9.305-3.199-14.143-6.248 5.731-20.01 3.87-45.747-5.36-74.46 17.121-7.959 32.53-17.554 45.929-28.563 3.945-3.199 8.337-6.844 12.655-10.563 23.076 31.985 31.264 85.543 7.369 107.114-7.22 6.546-21.14 13.39-33.721 13.91-6.042.272-11.588-.942-12.574-1.158l-.065-.014-.041-.008c-.029-.007-.045-.01-.049-.01zM206.544 370.007c-1.191 8.703-3.647 26.704 6.402 40.912.894 1.19 1.861 2.38 2.903 3.57 15.633 17.034 45.706 17.704 68.187 15.249 26.352-2.826 53.373-11.158 68.708-18.15-10.794-32.952-24.268-52.739-28.511-58.466-13.845 3.719-28.361 6.471-41.537-3.124-10.719-7.811-18.61-23.283-19.801-38.457-5.434.223-10.794 1.338-15.855 3.124-15.931 5.802-36.178 23.803-40.496 55.342zm147.242 41.135c-10.571-32.357-23.821-52.069-28.362-58.318 1.303-.347 2.606-.719 3.894-1.088h.001c.919-.263 1.831-.524 2.73-.771l.197-.057c17.283-4.966 35.157-10.102 53.474-1.729 12.357 5.579 19.95 14.357 26.277 22.985-4.317 3.72-8.709 7.439-12.654 10.637-13.251 10.935-28.585 20.456-45.557 28.341zm11.017-67.616c7.072 0 14.218 1.265 21.438 4.538 12.506 5.727 20.248 14.505 26.65 23.282 10.123-8.852 22.257-20.53 27.84-33.548v-.074c2.68-6.248 3.648-12.199 2.978-18.224-.67-5.877-2.755-11.084-6.551-15.844-9.007-11.456-26.277-19.043-46.227-27.746-9.826-4.314-19.95-8.777-30.297-14.133-11.443 3.885-24.62 5.314-37.467 6.707l-.571.062-.023.003c-23.589 2.528-45.835 4.912-54.69 21.792-1.564 2.975-2.68 6.397-3.276 10.116-.521 3.05-.67 6.397-.521 9.819 2.308-.074 4.69 0 6.774.223 25.086 2.752 40.421 23.134 53.969 41.209 2.304-.668 4.682-1.336 7.061-2.005l.011-.003 1.125-.315c10.295-2.882 20.932-5.859 31.777-5.859zm-81.363 5.579c-10.496-7.662-18.237-22.762-19.354-37.639 2.308-.074 4.541.075 6.551.223 24.416 2.678 39.602 22.613 52.926 40.466-13.399 3.645-27.468 6.174-40.123-3.05zm-17.121-230.221c-11.314 4.611-22.555 10.562-33.423 17.629-3.945 2.603-7.965 5.355-11.91 8.331-4.243 3.198-8.412 6.546-12.432 9.967-16.972 14.58-31.562 31.317-42.132 48.202-14.665 23.58-19.95 45.375-14.442 59.731 2.903 7.587 9.454 14.877 18.536 20.456 16.525 10.265 37.815 13.538 54.117 8.257 11.762-3.794 27.543-14.431 33.275-31.912 3.573-11.009.967-18.968-1.638-26.629-2.233-6.695-4.541-13.613-2.829-22.465 2.68-13.538 13.623-27.15 30.148-37.415-2.605-8.331-4.541-16.365-6.253-23.506-3.201-13.315-5.806-24.026-11.017-30.646zm31.712 84.947c-5.211-8.926-9.454-18.819-13.027-30.126 13.548-8.256 29.105-13.092 44.068-13.761 9.007-.298 17.568.893 25.309 3.719 7.593 2.753 26.277 11.232 34.391 30.721 0 .037.019.075.038.112.018.037.037.074.037.111 6.178 15.026 5.21 33.325-2.606 46.491-5.285 9.001-13.622 15.398-25.532 19.489-18.536-9.67-45.036-26.109-62.678-56.756z" clip-rule="evenodd"/>
  <path fill="#000" d="M190.54 135.843c-2.531 0-5.062-.223-7.667-.595-5.658-.818-18.834-2.752-27.617-13.017-4.541-5.356-5.583-10.116-6.998-16.737-.744-3.273-1.488-7.0663-2.903-11.5294-.521-1.6365-1.116-3.4217-1.786-5.2069-.075-.2976 0-.5951.297-.7439.298-.1488.596 0 .745.2232 0 0 .074.0743.074.1487.67 1.7853 1.266 3.5705 1.787 5.207 1.414 4.5375 2.233 8.3313 2.977 11.6043 1.415 6.471 2.382 11.083 6.774 16.216 8.561 9.967 21.439 11.827 26.947 12.645 6.477.967 12.655.67 18.908-.818 1.712-.372 3.499-.893 5.136-1.488l.298-.074.223.52.149.521-.297.075c-1.713.595-3.499 1.115-5.286 1.562-3.945.967-7.816 1.487-11.761 1.487zM468.05 556.118c-.297 0-.521-.223-.521-.446-2.456-17.629-4.838-35.333-7.071-52.59-7.221-54.896-13.846-110.387-19.727-164.986-1.265-11.53-2.456-23.208-3.647-34.663-3.648-35.11-6.998-70.74-10.124-105.776-.298-4.24-.596-8.405-.894-12.571 0-.297.224-.595.522-.595.297 0 .595.223.595.521.298 4.091.596 8.331.893 12.496 3.127 35.11 6.477 70.666 10.124 105.776 1.191 11.455 2.382 23.134 3.648 34.663 5.88 54.599 12.505 110.09 19.726 164.986 1.861 14.282 3.797 28.861 5.806 43.515v-.52c0-.224-.372-22.762-.818-45.078-.373-18.67-4.243-122.661-11.464-308.92-.447-7.141-.893-14.059-1.266-19.266l.521-.075h.596c.372 5.207.819 12.125 1.265 19.266 7.221 186.334 11.092 290.25 11.464 308.995.447 22.316.819 44.854.819 45.078v.148c.074 3.199.074 6.397.149 9.522-.075.297-.298.52-.596.52zM424.875 160.985c-.297 0-.521-.223-.521-.52-.372-6.546-.67-11.902-.893-16.886-1.489-31.762-1.563-56.3834-.074-73.12 1.191-14.1331 3.424-22.7618 6.774-26.2579 1.265-1.2645 2.456-1.7852 3.722-1.3389 1.563.5207 6.327 2.0084 11.687 36.2998 2.828 18.15 5.434 43.441 7.89 75.054 0 .298-.223.596-.521.596-.298 0-.595-.224-.595-.521-2.457-31.614-5.137-56.8303-7.891-74.9802-4.317-27.82-8.337-34.589-10.868-35.4072-.819-.2232-1.712.0744-2.606 1.0414-3.126 3.2729-5.285 11.9016-6.476 25.5884-1.414 16.6622-1.414 41.2096.075 72.9716.223 4.984.521 10.34.893 16.885 0 .298-.223.595-.596.595.075 0 .075 0 0 0z"/>
  <path fill="#000" fill-rule="evenodd" d="M433.734 118.065h4.392c.297 0 .521-.223.595-.52.893-9.894.968-20.0099.298-29.9775-.447-6.6946-1.34-14.2075-2.308-20.1583-1.774-10.4154-2.961-10.4144-3.56-10.4139h-.013c-.595 0-1.786.0744-2.456 10.8602-.447 5.9508-.521 13.4637-.372 20.1584.297 9.8932 1.265 19.8611 2.903 29.6051 0 .223.223.446.521.446zm3.871-1.115h-3.425c-1.637-9.522-2.531-19.2661-2.754-29.0105-.372-14.5051.596-28.0432 1.712-29.754 1.34 1.6365 3.722 15.3233 4.69 29.4564.67 9.7445.595 19.6381-.223 29.3081z" clip-rule="evenodd"/>
  <path fill="#000" d="M453.981 168.424h-.595c-.075-.893-.149-1.86-.224-2.827l-.074-1.487c0-.298.223-.595.521-.595.298 0 .596.223.596.52l.074 1.488c.074.967.149 1.86.223 2.827l-.521.074z"/>
</svg>
