<svg xmlns="http://www.w3.org/2000/svg" width="503" height="357" fill="none" viewBox="0 0 503 357">
  <path fill="#fff" d="M496.631 184.01c.414-.001.75-.337.749-.751-.001-.414-.337-.75-.751-.749l-392.64.53c-.813.001-1.043 1.113-.299 1.438l392.84 171.11c.38.165.822-.009.988-.388.165-.38-.009-.822-.389-.988l-389.55-169.677 389.052-.525z"/>
  <path fill="#fff" fill-rule="evenodd" d="M323.04 309.23c0-25.968-21.052-47.02-47.02-47.02-25.968 0-47.02 21.052-47.02 47.02 0 25.968 21.052 47.02 47.02 47.02 25.968 0 47.02-21.052 47.02-47.02zm-92.54 0c0-25.14 20.38-45.52 45.52-45.52 25.14 0 45.52 20.38 45.52 45.52 0 25.14-20.38 45.52-45.52 45.52-25.14 0-45.52-20.38-45.52-45.52z" clip-rule="evenodd"/>
  <path fill="#fff" d="M55.0682 152.044c-.3815.624-.7907 1.194-1.1991 1.696l-.193.233-.1611.186c-.0718.081-.1302.144-.1728.188-.0879.091-.1516.202-.1852.323l-.3373 1.272-.0806.313c-.3125 1.221-.6249 2.514-.9167 3.821-.2248 1.008-.4284 1.985-.6057 2.918l-.151.82-.1348.784c-.4431 2.683-.5806 4.709-.3252 5.935.1736.822.5293 1.926 1.1272 3.555l2.1132 5.583.3605.973.4126 1.14c.1312.369.2567.727.3776 1.079l.3562 1.058c.8504 2.586 1.3998 4.725 1.6334 6.497.0541.411.4309.7.8416.646.4106-.055.6997-.431.6455-.842-.2805-2.128-.9739-4.692-2.0582-7.847l-.3035-.87-.3248-.906c-.1122-.309-.2287-.627-.35-.954l-2.175-5.746-.2302-.627-.2991-.842c-.3325-.958-.5457-1.669-.6589-2.205-.2486-1.193-.0075-3.665.6166-6.951.1741-.916.3745-1.878.596-2.871.2305-1.033.4743-2.058.7207-3.044l.2648-1.041.2828-1.071.1673-.189.2001-.236c.0359-.044.073-.089.1112-.136.4484-.552.8961-1.175 1.3144-1.859.9991-1.633 1.676-3.35 1.8773-5.101.0179-.156-.0132-.312-.0888-.449l-16.9068-30.546.7969-8.037c.0409-.412-.2601-.779-.6723-.82-.4122-.041-.7795.26-.8204.672l-.82 8.27c-.015.151.0164.304.0902.437l16.9008 30.535c-.2058 1.432-.7885 2.87-1.6364 4.256zM283.367 35.6087c3.863-6.6039 13.045-7.1512 18.708-2.1847 4.67 4.0892 7.187 9.9165 7.432 16.6781l.047 1.7788c.084 2.0121.435 3.3394 1.415 4.3985 1.246 1.3498 2.543 1.6275 5.536 1.6096l.86-.0085c1.657-.011 2.623.0976 3.49.4689 2.467 1.0608 3.446 4.0237 3.565 8.8292l.3 12.4894c.034 1.3641.173 2.0796.755 2.774.733.8901 1.606 1.1084 3.274 1.105l1.01-.0096.273.0056c.042.0016.084.0036.127.0059 3.975.2022 6.565 5.6283 4.84 9.7303-1.402 3.3323-8.258 6.8698-14.851 8.6158-.4.106-.639.517-.533.917.106.4.517.639.917.533 7.038-1.864 14.198-5.558 15.849-9.4841 2.098-4.9874-1.034-11.5501-6.143-11.8099l-.334-.0121-.568.001-.352.0052-.459.0006c-1.068-.0148-1.563-.1581-1.896-.5623-.271-.3227-.37-.7558-.403-1.6397l-.306-12.7017c-.133-5.3554-1.269-8.7933-4.474-10.171-1.04-.446-2.099-.5855-3.752-.5911l-1.453.0098c-2.375-.0011-3.343-.2327-4.17-1.1283-.636-.6879-.914-1.6375-1.004-3.1528l-.029-.6963-.018-.8686c-.151-7.3647-2.844-13.7714-7.956-18.2479-6.323-5.5443-16.613-4.9309-20.991 2.5556-.21.3576-.089.8169.268 1.0261.358.2091.817.0887 1.026-.2688z"/>
  <path fill="#fff" d="M320.34 102.62c4.57-1.21 13.51-4.7 15.35-9.05 1.84-4.35-.77-10.53-5.49-10.77-1.46-.07-3.22.29-4.15-.84-.52-.62-.56-1.5-.58-2.31-.1-4.16-.2-8.32-.3-12.49-.09-3.65-.67-8.07-4.02-9.5-3.08-1.32-7.35.58-9.63-1.89-1.24-1.35-1.21-3.38-1.25-5.21-.14-6.84-2.55-13.19-7.7-17.7-5.36-4.7-15.37-5.29-19.85 2.37 3.01-.09 5.89.24 8.51 1.73s4.68 4.14 4.96 7.13c1.32-.26 2.64-.53 3.96-.79.83-.17 1.77-.31 2.48.16.75.5.96 1.55.75 2.43-.21.88-.73 1.64-1.19 2.42-3.13 5.28-3.5 11.72-3.41 17.85.05 3.52.5 7.57 3.39 9.57.41.28.87.52 1.36.56 1.01.09 1.91-.62 2.54-1.42.62-.79 1.1-1.72 1.86-2.39.58-.51 1.42-.84 2.12-.51.32.15.57.41.8.68 6.37 7.21 8.02 17.31 9.41 26.83.19 1.19.34 1.95.08 3.14z"/>
  <path fill="#fff" fill-rule="evenodd" d="M303.4 43.0809c-1.193-1.3371-3.499-1.0596-6.649.1148l-.107-.3112-.06-.1646c-.273-.7313-.62-1.4764-1.053-2.2146-1.182-2.0127-2.828-3.6895-5.016-4.8215-2.757-1.4248-5.465-1.6173-7.923-1.1929-.312.0539-.556.298-.611.61-.56 3.2072-.976 6.5125-1.203 10.0798l-.128 2.3279c-.467 9.0985-.259 11.3542 1.669 12.904l.195.1504c3.613 2.676 11.42-.739 16.424-6.1013 3.763-4.0074 6.273-9.3493 4.462-11.3808zm-21.181 3.1597c.178-3.3475.524-6.4535 1.001-9.4532l.147-.8969.322-.037c1.935-.1971 4.026.0719 6.137 1.1627 1.918.9923 3.365 2.4661 4.411 4.2485.387.6593.698 1.326.941 1.9791.165.4418.273.8017.354 1.1281.111.4409.585.6832 1.007.5144 2.855-1.1421 5.102-1.5235 5.741-.807 1.033 1.1586-1.198 5.9082-4.437 9.3573-4.542 4.868-11.657 7.9797-14.437 5.9207l-.139-.1095c-1.291-1.0729-1.523-3.1218-1.176-10.4963l.128-2.5109z" clip-rule="evenodd"/>
  <path fill="#fff" d="M41.9751 256.323l1.6556 2.437 1.7734 2.579-.0863.474-.0888.512c-.1753 1.035-.3504 2.198-.5138 3.464-.6193 4.801-.9033 9.687-.6643 14.257.0835 1.598.2311 3.126.4473 4.575 1.0434 7.02 2.9942 12.658 7.9267 24.383l1.4103 3.357.9632 2.33c3.9095 9.544 5.5122 14.674 6.3481 20.978.3062 2.324.214 5.534-.1999 9.673l-.1035.993-.1776 1.563c-.0641.54-.1335 1.103-.2089 1.698l-.751 5.763c-.0548.447.294.841.7444.841h44.41c.809 0 1.045-1.103.307-1.434l-1.135-.497-2.344-.988c-4.2119-1.753-9.8059-3.99-9.4785-3.853l-.9669-.411c-6.1413-2.652-9.5077-4.975-12.0749-8.702-2.2027-3.197-5.3273-20.514-9.062-48.811l-.6033-4.624c-1.1139-8.635-2.2712-18.13-3.4746-28.45l-.8549-7.403-.9294-8.199c-.6239-5.555-1.2582-11.3-1.9107-17.297l-1.5669-14.545-2.1701-20.455c-.0436-.412-.413-.711-.8249-.667-.4119.044-.7104.413-.6667.825l2.3997 22.603 1.3377 12.402.772 7.054c.7643 6.942 1.5071 13.56 2.2421 19.959l.8461 7.299.8476 7.167c.9518 7.963 1.8741 15.38 2.7684 22.235l.6411 4.853.542 4.006c3.4011 24.846 6.2041 39.666 8.4315 42.899 2.7603 4.007 6.336 6.474 12.7195 9.23l1.0074.426c.5083.199 5.6501 2.26 9.5347 3.878H61.3016l.5651-4.306.1521-1.199.1366-1.123c.1077-.908.201-1.754.2837-2.581l.1033-1.086c.3347-3.728.388-6.68.0912-8.933l-.1024-.74c-1.0069-6.988-3.0121-12.74-8.0641-24.745l-1.4046-3.344-.4987-1.203c-3.9775-9.633-5.6544-14.799-6.5819-21.04-.209-1.4-.3519-2.88-.4331-4.432-.2336-4.469.0454-9.269.6541-13.987l.1403-1.042c.1189-.847.2418-1.638.3647-2.363l.2274-1.258c.0322-.161.011-.326-.0586-.472l-.1089-.173-1.2648-1.834-1.3039-1.909c-1.963-2.886-3.926-5.827-5.7576-8.647l-.9746-1.508-.7839-1.227c-.2222-.35-.6857-.453-1.0352-.231-.3496.222-.4529.686-.2308 1.035l.7878 1.233.9788 1.515c1.5316 2.358 3.154 4.799 4.7915 7.223z"/>
  <path fill="#fff" d="M56.7207 324.42l-4.0858-12.911-.7347-2.398-.5574-1.852-.5306-1.8c-2.3283-7.993-3.8604-14.543-4.8303-21.069-.2076-1.399-.3495-2.88-.43-4.432-.2315-4.467.0469-9.266.6531-13.982l.14-1.044.1439-.989c.0242-.161.0485-.318.0729-.474l.191-1.16.1826-1.002c.0321-.16.0108-.325-.0588-.471l-.1088-.173-1.2648-1.834-1.3039-1.909c-1.963-2.886-3.926-5.827-5.7576-8.647l-.9746-1.508-.7839-1.227c-.2222-.35-.6857-.453-1.0352-.231-.3496.222-.4529.686-.2308 1.035l.7878 1.233.9788 1.515c1.5316 2.358 3.154 4.799 4.7915 7.223l1.6556 2.437 1.7735 2.579-.1295.724-.0451.264c-.1748 1.036-.3494 2.2-.5124 3.468-.6167 4.798-.9 9.682-.6633 14.251.0829 1.598.2293 3.125.4442 4.574 1.0537 7.089 2.759 14.189 5.4058 23.073l1.1081 3.654 1.24 3.96 3.003 9.462.1994.635c.098.313.3878.526.7156.526h21.31c.4685 0 .8223-.425.7377-.886l-.5504-3.033-.3673-2.063c-6.0686-34.323-15.4776-99-18.7042-129.407-.0437-.412-.413-.711-.8249-.667-.4119.044-.7104.413-.6667.825l.2101 1.949c3.4882 31.882 12.9754 96.762 18.9056 129.79l.3604 1.992H56.7207z"/>
  <path fill="#fff" d="M14.6589 261.043l-.2104.355-.3684.636c-.1916.337-.394.699-.6053 1.086-1.0052 1.842-2.01 3.868-2.9482 6.017-1.92253 4.406-3.31307 8.747-3.94242 12.827-.03497.227-.06749.452-.09755.676-.68968 5.133-.62127 10.375.02968 17.7l.16854 1.817.66128 6.592c.50296 5.124.68843 7.821.73393 11.062.14498 10.148-3.1643 26.061-7.359914 35.895-.211092.494.151923 1.044.689834 1.044H46.84c.7506 0 1.0357-.98.4022-1.383-.5797-.368-1.1719-.727-1.7786-1.078-1.7535-1.015-3.5724-1.939-5.6995-2.919l-1.131-.512-5.4152-2.375-.8313-.377c-6.0872-2.802-8.8761-5.08-10.1552-8.913-1.6354-4.907 2.152-29.049 11.1294-75.486l8.1442-41.673 1.5121-7.844c1.211-6.332 2.1738-11.511 2.9713-15.999.0725-.408-.1994-.797-.6072-.869-.4078-.073-.7972.199-.8696.607l-.8536 4.723c-.963 5.251-2.1395 11.438-3.6256 19.097l-7.2962 37.298-1.6933 8.758-1.7139 8.988c-7.2588 38.391-10.113 58.097-8.5205 62.874 1.477 4.426 4.6396 6.941 11.3634 9.99l5.8464 2.569.4794.215c2.1218.961 3.9202 1.851 5.6239 2.809H2.53322c3.97823-9.85 7.05347-24.784 7.05141-34.8l-.00472-.661-.01163-.674c-.06191-3.004-.25669-5.697-.72803-10.5l-.76327-7.674-.12843-1.445-.1167-1.44c-.46927-6.122-.46176-10.727.14145-15.216l.09334-.647c.60712-3.936 1.95986-8.16 3.83476-12.456.9195-2.106 1.9049-4.093 2.8901-5.898l.4008-.724.3737-.656.5303-.892c.1024-.164.1374-.361.0978-.551l-.0489-.21-.11-.414c-.8456-3.035-4.2283-12.917-4.0836-12.469-2.32745-7.203-3.7472-13.259-4.20954-19.079-.10073-1.268-.15208-2.506-.15208-3.714 0-12.029 1.86875-18.557 6.65062-26.897.2061-.359.0818-.818-.2776-1.024-.3593-.206-.8176-.081-1.0237.278l-.5236.927c-4.5227 8.133-6.32572 14.862-6.32572 26.716 0 1.249.05299 2.526.15679 3.833.45507 5.728 1.80762 11.643 4.00923 18.583l.3136.966c.4226 1.224 3.5074 10.283 4.0893 12.531z"/>
  <path fill="#fff" d="M5.7883 324.42l.27859-9.131.2708-7.886c.06616-1.797.13289-3.5.19701-4.976l.11596-2.502.13814-2.688c.33046-6.101.7184-10.991 1.17466-14.408l.08534-.592c.60581-3.95 1.9628-8.19 3.8456-12.502.921-2.109 1.9081-4.097 2.8948-5.904l.4015-.725.3743-.656.5312-.893c.1027-.164.1377-.362.0977-.552l-.0499-.214-.0688-.262c-.7705-2.831-4.2468-12.967-4.1272-12.597-2.33537-7.217-3.75895-13.289-4.21858-19.122-.09894-1.256-.14936-2.483-.14936-3.68 0-12.034 1.87226-18.568 6.66024-26.896.2064-.359.0827-.818-.2764-1.024-.3591-.207-.8176-.083-1.0241.276-4.91431 8.549-6.85974 15.338-6.85974 27.644 0 1.238.05203 2.503.154 3.798.45241 5.742 1.80851 11.672 4.01764 18.626l.3003.928 1.4712 4.333c1.0352 3.081 2.2846 6.87 2.6354 8.219l-.2105.354c-.2946.501-.6225 1.078-.9753 1.724-1.0068 1.844-2.0133 3.871-2.953 6.023-1.93074 4.422-3.32566 8.78-3.95367 12.875-.03183.208-.06162.414-.08934.62l-.09798.764-.09582.808c-.42635 3.736-.78782 8.795-1.09633 14.957l-.15067 3.205c-.35251 8.115-.78115 22.985-.7639 22.751-.03204.435.31205.805.74797.805H25.4901c.3795 0 .6992-.284.7446-.66l.3066-2.496c3.4914-27.907 12.9429-87.987 19.4372-124.573.0724-.408-.1995-.797-.6074-.869-.4078-.073-.7971.199-.8695.607l-.8116 4.606-1.39 8.03c-6.2877 36.687-14.167 87.335-17.2692 112.19l-.2054 1.665H5.7883z"/>
  <path fill="#fff" d="M6.68854 181.385l11.42876 30.208.2369 1.999.115 1.032c1.1401 10.279 2.6095 14.536 8.0167 18.51.9633.712 1.7832 1.08 2.7011 1.035 1.5819-.09 2.8058-1.588 2.9406-3.259.085-1.046-.1084-1.899-.6629-3.317l-1.0295-2.513c.7717.244 1.6074.279 2.3934.063.3686-.101.6021-.463.5421-.841-.2435-1.533-.796-3.161-1.6432-4.97-.6372-1.36-1.3698-2.696-2.4711-4.559l-1.7187-2.883-.532-.916c-.2725-.477-.5092-.905-.7241-1.312L19.27 177.073l9.5074-37.82c.101-.402-.1428-.809-.5445-.91-.4018-.101-.8093.142-.9103.544l-9.55 37.99c-.028.112-.03.228-.0058.341l7.07 32.86.0689.19.2875.538c.25.459.5286.95.8523 1.504l1.6802 2.822c1.2146 2.041 1.9867 3.434 2.6434 4.836.6505 1.389 1.1102 2.649 1.3749 3.818-.9199-.004-1.8575-.473-2.3699-1.242-.5021-.753-1.6612-.137-1.3181.7l1.78 4.32c.6506 1.578.8672 2.355.7965 3.225-.0795.986-.7774 1.84-1.5251 1.882-.4796.024-1.0217-.22-1.7319-.744-4.7933-3.523-6.2235-7.319-7.3038-16.491l-.4376-3.805-.0402-.316-.0424-.17L8.15404 181.02l.23964-2.233.22533-1.99.25066-2.123c.0585-.486.11885-.981.18104-1.485l.09467-.761c.82309-6.577 1.77822-13.154 2.85402-19.29l.3365-1.883.3399-1.828c2.0489-10.798 4.2716-18.546 6.5871-21.999l7.1304-8.817c1.9365-2.402 3.3448-5.187 4.1319-8.17l.9723-5.245c.0753-.407-.1938-.798-.6011-.873-.4073-.076-.7985.193-.8739.601l-.96 5.19c-.7209 2.723-2.033 5.318-3.8364 7.555l-7.1694 8.87c-2.7754 4.133-5.263 13.382-7.5348 26.34-1.08053 6.163-2.039 12.763-2.86492 19.363l-.36322 2.977-.24306 2.087-.40696 3.739c-.01153.116.0038.232.0448.34z"/>
  <path fill="#fff" fill-rule="evenodd" d="M55.7493 144.638c.1925.449.3858.9.5807 1.352.31.72.61 1.46.64 2.26.0313 1.361-.7753 2.532-1.5732 3.69-.2224.323-.4441.645-.6468.97-1.616 2.616-1.9932 5.695-2.3728 8.793-.2923 2.385-.5859 4.782-1.4472 6.987-2.5617-.407-5.1576-.07-7.7489.266-.848.11-1.6954.22-2.5411.304-5.01.5-10.1.06-14.94-1.29.24-5.07-.19-10.18-1.25-15.14-.56 3.8-1.49 7.56-2.79 11.18.4189-1.167-4.4672-2.168-5.9817-2.478-.185-.038-.3197-.066-.3883-.082-2.28-.55-4.39-1.13-4.56-3.68-.1562-2.323.4846-5.039 1.0804-7.564.2431-1.03.4787-2.029.6496-2.956.69-3.77 1.45-7.52 2.29-11.25.45-2.02.94-4.05 1.83-5.92 1.67-3.49 4.63-6.16 7.52-8.72 4.14 3.23 7.7 7.19 10.48 11.65.28.45.6.95 1.12 1.12.47.16.98 0 1.45-.17 1.63-.56 3.52-1.158 5.41-1.755 1.89-.598 3.78-1.195 5.41-1.755 3.5268 4.271 5.6111 9.132 7.7793 14.188zM42.27 154.14c1.08 0 2.17-.18 3.19-.54.35-.13.53-.51.41-.85-.12-.35-.5-.52-.85-.4-3.34 1.19-7.49-.04-9.64-2.85-.22-.29-.65-.34-.94-.12-.29.22-.35.64-.12.93 1.86 2.43 4.91 3.83 7.95 3.83z" clip-rule="evenodd"/>
  <path fill="#fff" d="M7.65086 83.382c-3.62172 2.6157-4.38797 8.3499-1.48566 11.6715 2.66543 3.0506 7.8508 3.1517 10.6942.462 2.3703 5.5255 7.8266 9.6345 13.8203 10.2805.4118.044.7816-.254.826-.666.0443-.412-.2536-.781-.6654-.826-5.8399-.628-11.1527-4.9013-13.0192-10.4722-.1973-.589-.9841-.6966-1.3323-.1821-1.9443 2.8732-6.86388 3.0837-9.19404.4168-2.31219-2.6462-1.682-7.3622 1.23434-9.4685 2.8808-2.0806 7.4348-1.4139 9.7749 1.3923.4564.5474 1.3472.2094 1.3256-.5029-.0787-2.606 1.356-5.2843 3.6612-7.018 2.0965-1.5856 4.8565-2.4539 7.9594-2.6205 4.2901-.229 8.7782 2.9138 10.9247 7.3479.1805.3728.629.5288 1.0019.3483.3728-.1805.5287-.629.3482-1.0019-2.3924-4.942-7.4107-8.4561-12.355-8.1921-3.3821.1816-6.4273 1.1396-8.7824 2.9207-2.102 1.5809-3.5871 3.8513-4.0815 6.2649l-.0588.3156c-2.9898-2.3732-7.5181-2.6935-10.59644-.4703z"/>
  <path fill="#fff" fill-rule="evenodd" d="M29.7446 92.0852l-.0356.1565c-3.2729-.8498-5.5792-.8895-6.6281.5708-1.591 2.1949 1.4533 7.2495 5.6076 10.8545 5.5508 4.821 13.646 7.41 16.9673 4.377l.1731-.165c1.7025-1.682 1.7368-3.868.4744-12.1463l-.3425-2.1998c-.6193-3.8994-1.4252-7.4414-2.3888-10.866-.0863-.3067-.3568-.5253-.6748-.5454-2.5114-.1584-5.1572.3093-7.7489 2.0117-2.0642 1.3478-3.532 3.1847-4.5018 5.3091-.3555.7789-.6242 1.5557-.8201 2.3112l-.0818.3317zm6.2255-6.6972c1.9864-1.3048 4.0198-1.786 5.9779-1.7948l.3257.0028.2377.8783c.7804 2.9379 1.4425 5.9852 1.9679 9.2934l.441 2.8593c1.039 6.97 1.0015 9-.142 10.179l-.1342.13c-2.5557 2.334-9.9331-.026-14.9723-4.402-3.5729-3.1002-6.2799-7.5948-5.3745-8.8438.5257-.7318 2.5272-.6511 5.2121.0513l.5855.1599c.437.1243.8833-.1655.9476-.6153.0475-.3328.1177-.7004.2359-1.1561.1748-.6744.4152-1.3693.7327-2.0648.8585-1.8808 2.1483-3.4949 3.959-4.6772z" clip-rule="evenodd"/>
  <path fill="#fff" d="M320.489 182.341l-21.258-93.3675c-.092-.4039-.494-.6568-.897-.5648-.404.0919-.657.4939-.565.8978l21.39 93.9495c.077.342.381.584.73.584l32.09.03c.873.001 1.043-1.238.203-1.472l-23.902-6.671-.951-10.313-1.095-11.687-.828-8.704c-.344-3.593-.687-7.137-1.025-10.599l-1.265-12.751c-1.39-13.782-2.496-23.8405-3.229-29.1168l-.145-1.0157c-.925-6.2651-3.312-11.7473-6.711-16.4446-1.558-2.154-3.228-4-4.901-5.5396-.489-.4506-.95-.8482-1.375-1.1928l-.495-.3906-.199-.1499-5.72-15.0692c-.147-.3872-.58-.582-.967-.435-.387.147-.582.5801-.435.9673l5.8 15.28c.054.1423.15.2648.275.3512l.175.1265.274.209.113.0879c.462.3651.98.8048 1.538 1.319 1.602 1.4745 3.205 3.2467 4.702 5.3155 3.264 4.511 5.554 9.7712 6.442 15.7843l.215 1.5261.294 2.2603c.784 6.2381 1.88 16.4811 3.216 29.8561l.703 7.101c.605 6.17 1.226 12.623 1.848 19.177l1.8 19.258.499 5.44c.028.31.245.571.545.654l19.106 5.333-25.995-.024zM268.936 102.033c-1.225 2.719-3.655 9.798-4.333 12.462-.102.402.141.81.542.912.402.102.81-.141.912-.542l.154-.573c.817-2.923 2.984-9.182 4.093-11.644 1.34-2.9826 2.915-5.6732 4.666-8.1218.26-.3629.147-.8707-.242-1.0897-.333-.1875-.774-.4588-1.274-.8007-.748-.5116-1.466-1.0733-2.107-1.6725-1.614-1.5082-2.494-3.0162-2.41-4.4114l.024-.2465.03-.2296.028-.168c.005-.0247.01-.0481.015-.0709l.017-.0673c.205-.7742 1.142-1.6178 4.09-3.3209l.936-.5328 1.729-.9563c3.229-1.7674 7.526-4.0444 8.326-4.538 1.282-.7915 2.263-1.5581 3.206-2.529 2.629-2.7106 3.959-7.3347 3.359-14.1484-.036-.4126-.4-.7177-.813-.6813-.412.0363-.717.4002-.681.8129.564 6.4079-.642 10.6015-2.941 12.972-.852.8767-1.736 1.5677-2.918 2.2972l-.389.2265-.804.4456c-2.316 1.2682-7.107 3.8114-9.464 5.1621l-.614.3551-.583.347c-2.605 1.5749-3.582 2.5452-3.889 3.7038-.036.1372-.061.2599-.085.4147l-.05.3794c-.253 2.0365.854 4.0081 2.857 5.88.701.6556 1.478 1.263 2.284 1.8147l.235.1582.441.2863c-1.62 2.3467-3.085 4.9051-4.347 7.7146zM146.511 182.95c-.776.299-.562 1.45.269 1.45l31.011.122 6.877-.002c4.27-.016 6.131-.068 6.352-.176.311-.153.477-.499.402-.837l-2.175-9.78 24.979-42.406c.21-.357.092-.817-.265-1.027-.357-.21-.817-.092-1.027.265l-25.087 42.588c-.127.176-.177.4-.129.616l2.056 9.242-9.521.014-12.527-.027-16.953-.076 24.457-9.416c.188-.073.339-.218.419-.404l26.27-61.06c.164-.38-.012-.821-.393-.985-.38-.164-.821.012-.985.393l-26.145 60.77-27.885 10.736zM256.528 112.011c.326.255.798.197 1.053-.129.255-.326.197-.798-.129-1.053l-41.63-32.5399c-.388-.3028-.957-.1572-1.151.2946l-7.66 17.81c-.164.3805.012.8216.393.9853.38.1636.821-.0122.985-.3927l7.276-16.9163 40.863 31.941z"/>
  <path fill="#fff" d="M216.814 182.643c-.769.305-.551 1.447.276 1.447h49.75c.548 0 .911-.569.68-1.066l-1.534-3.291-1.612-3.426c-4.016-8.494-7.933-16.454-11.865-24.085l-1.442-2.782-2.039-3.898c-5.628-10.693-9.109-16.662-13.594-23.007l-.514-.721c-4.155-5.815-6.534-7.892-11.143-8.242-.413-.031-.773.278-.805.691-.031.413.278.774.691.805 3.843.291 5.939 1.988 9.537 6.925l.5.693c5.381 7.519 9.2 14.266 16.734 28.789 5.032 9.708 10.028 19.936 15.231 31.115h-44.647l27.028-10.713c.493-.195.633-.825.27-1.211l-1.424-1.519-2.118-2.275c-20.47-22.091-33.819-39.474-41.349-52.696l-.502-.89c-2.835-5.085-4.602-9.221-5.507-12.49-.49-1.7698-.673-3.0622-.669-3.9278 9.719-.2277 24.089 2.9473 41.854 8.7978 6.086 2.004 12.459 4.288 19.034 6.798 8.958 3.421 17.838 7.086 26.24 10.751l3.098 1.361 1.464.651c.956.427 1.874.839 2.749 1.236l1.438.654 2.127.982c.375.176.822.015.998-.36.176-.375.015-.822-.36-.998l-2.141-.988-2.109-.958-2.091-.938c-1.439-.642-2.966-1.316-4.574-2.017-8.421-3.674-17.323-7.348-26.303-10.777-6.596-2.519-12.991-4.81-19.101-6.822l-1.682-.549c-17.557-5.6837-31.722-8.6924-41.368-8.3014-.339.0138-.627.2533-.702.5843-.012.0556-.026.14-.038.2546-.112 1.0335.052 2.6607.69 4.9665.905 3.271 2.624 7.334 5.337 12.269l.306.552c7.741 13.883 21.945 32.368 44.144 56.113l.711.759-29.654 11.754z"/>
  <path fill="#fff" d="M313.192 156.432c-1.134 2.623-2.732 5.464-5.139 8.451-3.657 4.54-8.204 8.023-13.738 9.938-12.494 4.318-27.003-.541-36.308-12.257-.257-.325-.729-.379-1.053-.121-.325.257-.379.729-.121 1.053 9.687 12.198 24.853 17.277 37.972 12.743 5.823-2.015 10.594-5.67 14.417-10.415 2.502-3.106 4.164-6.06 5.346-8.796.165-.381-.01-.822-.39-.986-.381-.165-.822.01-.986.39zM310.349 73.6885l.09.0902.052.0564c.199.2189.454.5509.751.9773.527.7553 1.166 1.7778 1.83 2.9265l.223.3874c1.562 2.7425 2.905 5.5282 3.273 6.8456l1.444-.4038c-.934-3.3443-6.043-12.3121-7.452-12.387-1.062-.0594-1.804.5617-2.718 1.8617l-.695 1.0318c-.177.2586-.31.4325-.42.5477-.808.838-1.677 1.4129-2.639 1.7114-1.749.5421-2.96-.3104-3.814-2.4178-.694-1.7138-1.037-4.1302-.994-6.0795.121-5.524.578-11.2283 1.332-16.5205l-1.484-.2118c-.764 5.3524-1.225 11.1165-1.348 16.6995-.047 2.1377.324 4.7501 1.104 6.6755 1.114 2.7513 3.029 4.099 5.648 3.2873 1.221-.3789 2.301-1.0931 3.278-2.1056.145-.1518.285-.3284.448-.5567l.671-.9958c.614-.9041 1.061-1.348 1.42-1.4198zM285.093 60.6232l-.389 2.0525-.248 1.2584c-.899 4.4766-1.713 7.5473-3.293 12.6854-.122.3959.101.8156.496.9374.396.1217.816-.1005.938-.4964l.416-1.3649.368-1.2303c1.413-4.7793 2.147-7.9658 3.186-13.5684.076-.4073-.193-.7987-.6-.8743s-.799.1933-.874.6006zM104.86 356.21h87.52c.414 0 .75-.336.75-.75s-.336-.75-.75-.75h-87.52c-.414 0-.75.336-.75.75s.336.75.75.75z"/>
  <path fill="#fff" d="M164.117 355.711c4.429-12.452 1.002-26.017-8.427-33.596-4.356-3.495-9.437-5.304-14.835-5.772-.413-.036-.776.27-.812.682-.036.413.269.776.682.812 5.12.444 9.92 2.153 14.026 5.448 8.917 7.167 12.173 20.057 7.952 31.924-.138.39.065.819.456.958.39.138.819-.065.958-.456z"/>
  <path fill="#fff" d="M162.426 329.87c.088-.826.227-1.728.473-2.84.362-1.634.877-3.323 1.577-5.026 1.894-4.607 4.851-8.661 9.098-11.779 4.151-3.05 8.74-4.643 13.377-5.149.412-.045.71-.416.665-.827-.045-.412-.416-.71-.827-.665-4.884.534-9.722 2.213-14.103 5.432-4.485 3.293-7.604 7.57-9.597 12.418-.735 1.786-1.275 3.557-1.654 5.272-.26 1.172-.407 2.127-.501 3.004-.044.412.254.782.666.826.412.044.782-.254.826-.666z"/>
  <path fill="#fff" fill-rule="evenodd" d="M209.158 288.489c-.884-1.009-1.963-1.813-3.185-2.396l-.678-.323-4.82 10.135 11.232.048.003-.75c.011-2.46-.875-4.848-2.552-6.714zm1.023 5.958l-7.336-.032 3.146-6.616.325.2c.639.414 1.215.91 1.72 1.485 1.26 1.402 1.993 3.14 2.145 4.963z" clip-rule="evenodd"/>
  <path fill="#fff" fill-rule="evenodd" d="M207.909 282.021c-.375-.176-.822-.015-.998.36-.176.375-.015.822.36.998 1.548.726 2.961 1.782 4.15 3.111 2.163 2.439 3.309 5.534 3.299 8.728-.001.414.334.751.748.752.414.001.751-.334.752-.748.011-3.559-1.267-7.01-3.679-9.73-1.325-1.481-2.902-2.659-4.632-3.471zm-2.926 4.437l-3.99 8.39-.038.094c-.153.472.196.976.712.978l9.3.04.102-.006c.366-.048.649-.361.651-.741.002-.414-.333-.751-.747-.753l-8.118-.035 3.482-7.323.038-.095c.112-.352-.05-.741-.393-.904-.374-.178-.821-.019-.999.355z" clip-rule="evenodd"/>
  <path fill="#fff" d="M212.762 307.649c-6.831 6.085-17.477 5.463-23.572-1.378-6.083-6.839-5.464-17.485 1.369-23.571 4.816-4.282 11.691-5.392 17.593-2.901l-1.238 2.587-1.941 4.071c-.178.374-.02.822.354 1 .374.178.822.02 1-.354l1.94-4.07 1.57-3.279c.179-.374.02-.823-.354-1.001-6.593-3.14-14.467-2.023-19.921 2.826-7.452 6.638-8.126 18.232-1.492 25.689 6.645 7.46 18.239 8.138 25.689 1.502 3.863-3.426 6.08-8.347 6.101-13.527.002-.414-.332-.751-.746-.753l-3.64-.02-4.511-.02c-.414-.002-.751.332-.753.747-.002.414.332.751.747.753l4.51.02 2.873.016c-.218 4.477-2.22 8.685-5.578 11.663z"/>
  <path fill="#fff" fill-rule="evenodd" d="M119.204 300.366c-.301.285-.313.759-.028 1.06l7.75 8.177-11.131-1.724c-.408-.063-.79.214-.855.621-.114.705-.17 1.433-.17 2.18 0 7.804 6.406 14.21 14.21 14.21 7.801 0 14.21-6.412 14.21-14.21 0-7.801-6.412-14.21-14.21-14.21-3.641 0-7.136 1.393-9.776 3.896zm-2.934 10.314c0-.408.018-.809.056-1.201l12.539 1.942c.707.11 1.151-.738.659-1.257l-8.729-9.21c2.285-1.923 5.179-2.984 8.185-2.984 6.969 0 12.71 5.738 12.71 12.71 0 6.969-5.738 12.71-12.71 12.71-6.976 0-12.71-5.734-12.71-12.71z" clip-rule="evenodd"/>
  <path fill="#fff" d="M128.48 311.239l9.99 8.95c.308.276.782.25 1.059-.059.276-.308.25-.782-.059-1.059l-9.99-8.95c-.308-.276-.782-.25-1.059.059-.276.308-.25.782.059 1.059zM184.22 295.92h17.45c.414 0 .75-.336.75-.75s-.336-.75-.75-.75h-17.45c-.414 0-.75.336-.75.75s.336.75.75.75zM312.224 73.8147c-2.806-3.8025-4.738-8.2383-5.607-12.8729-.076-.4071-.468-.6753-.875-.599-.407.0763-.675.4682-.599.8753.91 4.8571 2.934 9.5028 5.873 13.4871.246.3334.716.4042 1.049.1583.334-.2459.404-.7155.159-1.0488zM287.666 82.9447c-2.167 1.9669-4.765 4.1659-7.242 6.1274-1.928 1.5279-1.82 4.4588.193 5.8805 3.375 2.3743 7.424 3.6176 10.968 3.2126.412-.0471.707-.4188.66-.8304-.047-.4115-.419-.707-.83-.6599-3.151.36-6.842-.7736-9.933-2.9483-1.2-.8474-1.264-2.5771-.126-3.4787 2.502-1.982 5.126-4.2027 7.318-6.1926.307-.2784.33-.7527.051-1.0594-.278-.3067-.752-.3296-1.059-.0512zM20.987 185.542c4.315-7.84 6.968-25.926 4.4438-33.431-.132-.393-.5573-.604-.9499-.472-.3926.132-.6038.557-.4718.95 2.3795 7.074-.211 24.735-4.3362 32.229-.1997.363-.0675.819.2954 1.019.3629.2.819.068 1.0187-.295z"/>
  <path fill="#fff" fill-rule="evenodd" d="M182.997 326.509c-.029-.366-.32-.657-.686-.687-4.766-.388-9.493 1.309-12.951 4.768-3.454 3.454-5.146 8.176-4.768 12.959.029.367.32.659.687.689 4.775.388 9.502-1.308 12.961-4.768 3.452-3.452 5.145-8.179 4.757-12.961zm-12.577 5.141c2.892-2.891 6.754-4.427 10.724-4.381l.397.01.01.399c.046 3.983-1.486 7.847-4.371 10.732-2.989 2.988-7.013 4.527-11.13 4.371-.149-4.125 1.387-8.147 4.37-11.131z" clip-rule="evenodd"/>
  <path fill="#fff" d="M23.1575 121.43c4.4833 3.513 8.8905 8.106 11.6309 12.279l.2975.462c.3676.58.6528.886 1.1725 1.039.3853.1.6725.068 1.0829-.06l10.111-3.44c.392-.134.6013-.56.4675-.952-.1338-.392-.5601-.602-.9521-.468l-9.93 3.38c-.246.085-.3436.103-.3795.094-.0251-.008-.1025-.088-.2413-.298l-.0633-.097c-2.8106-4.45-7.4947-9.378-12.271-13.119-.3261-.256-.7975-.199-1.053.127-.2554.327-.1982.798.1279 1.053zM10.41 159.27c3.11 1.94 7.07 3.52 10.67 4.23l-10.67-4.23z"/>
  <path fill="#fff" d="M10.03 159.91c3.35 2.03 7.01 3.49 10.85 4.31.94.2 1.34-1.25.4-1.45-3.72-.79-7.24-2.18-10.49-4.16-.83003-.49-1.58003.8-.76 1.3zM25.6001 168.54c8.38 1.74 16.89 1.99 25.36.77.95-.14.55-1.58-.4-1.45-8.19 1.18-16.46.92-24.57-.77-.93-.19-1.34 1.25-.39 1.45zM287.62 74.14c3.72 1.98 7.99 1.93 11.66-.17.84-.48.08-1.78-.76-1.3-3.19 1.83-6.89 1.9-10.14.17-.85-.45-1.61.84-.76 1.3zM303.24 108.12c5.59-.89 11.18-1.78 16.77-2.66l-16.77 2.66z"/>
  <path fill="#fff" d="M303.44 108.84c5.59-.89 11.18-1.78 16.77-2.66.95-.15.55-1.6-.4-1.45-5.59.89-11.18 1.78-16.77 2.66-.95.16-.55 1.6.4 1.45zM252.666 109.988l-4.53 36.79c-.051.411.241.786.652.836.411.051.786-.241.836-.652l4.53-36.79c.051-.411-.241-.786-.652-.836-.411-.051-.786.241-.836.652z"/>
  <path fill="#fff" fill-rule="evenodd" d="M5.98816 324.42l15.66634 9.632 1.1614-9.632H5.98816zm14.45734 7.128l-9.1537-5.628h9.8323l-.6786 5.628zM56.0762 324.42l21.0563 9.69-2.1082-9.69H56.0762zm18.9512 7.07l-12.1036-5.57h10.8918l1.2118 5.57zM41.22 119.291v-11.243l-4.1149-1.054-6.7613-3.413 10.8762 15.71zm-1.5-10.079v5.277l-4.7838-6.91 1.5658.791.1519.057 3.0661.785z" clip-rule="evenodd"/>
  <path fill="#fff" d="M46.84 261.17l-3.46-10.38c-.98-2.95-1.67-5.98-2.06-9.07l-1.28-10.18-3.08 15.88 9.88 13.75z"/>
  <path fill="#fff" fill-rule="evenodd" d="M35.0676 349.302c-.0939-.041-.1952-.062-.2976-.062H3.62998c-.3255 0-.61385.21-.71378.52-.69293 2.148-1.43511 4.157-2.196365 5.946-.210441.495.152569 1.044.690145 1.044H46.84c.75 0 1.0356-.979.4031-1.382-.652-.416-1.32-.819-2.007-1.213l-.8937-.505c-2.0272-1.126-3.7472-1.939-7.2291-3.46l-2.0457-.888zM2.53222 355.25c.56602-1.404 1.11729-2.918 1.64206-4.51H34.6148l2.4243 1.055c2.9242 1.283 4.5286 2.043 6.2842 3.006l.8052.449H2.53222zM90.7701 348.813c-.0947-.042-.1969-.063-.3001-.063H61.22c-.3778 0-.6966.281-.7441.656l-.7706 5.955-.0053.102c.0061.402.335.737.75.737h44.41c.808 0 1.045-1.102.308-1.434l-.703-.31c-3.565-1.553-11.4708-4.726-12.2487-5.03l-.9923-.417-.4539-.196zm-28.8899 1.437h28.4336l.8468.363.4383.182c.2321.089 2.4146.962 4.9875 2.009L101.2 354.7H61.2998l.5804-4.45z" clip-rule="evenodd"/>
  <path fill="#fff" d="M192.38 356.25H497.1v-1.5H192.38v1.5zM257.41 163.03s10.47 11.9 28.41 9.62c20.71-2.63 27.2-14.52 27.2-14.52s-10.53 18.99-27.2 18.99c-16.67.01-28.41-14.09-28.41-14.09zM303.24 108.61l17.46.76-.69-3.91-16.77 3.15zM17.49 205.55c1.9-.99 3.93-1.64 6.06-1.89.95-.11.96-1.61 0-1.5-2.41.28-4.67.97-6.82 2.09-.86.45-.1 1.75.76 1.3zM290.39 60.14c-.15 1.48-.3 2.96-.45 4.43-.2 2-.41 4.04-1.19 5.89-1.21 2.9-3.84 5.16-6.89 5.93 1.58-3.26 2.1-6.88 2.8-10.4.22-1.13.39-4.14 1.3-4.92.53-.46 4.34-.11 4.43-.93z"/>
  <path fill="#fff" fill-rule="evenodd" d="M502.75 92.27c0-50.4788-40.921-91.400005-91.4-91.400005-50.479 0-91.4 40.921205-91.4 91.400005 0 50.479 40.921 91.4 91.4 91.4 50.479 0 91.4-40.921 91.4-91.4zm-181.3 0c0-49.6504 40.25-89.9 89.9-89.9 49.65 0 89.9 40.2496 89.9 89.9 0 49.65-40.25 89.9-89.9 89.9-49.65 0-89.9-40.25-89.9-89.9z" clip-rule="evenodd"/>
</svg>
